<svg width="187" height="169" viewBox="0 0 187 169" fill="none" xmlns="http://www.w3.org/2000/svg">
<path d="M117.684 116.399V116.466C117.684 116.466 117.684 116.495 117.684 116.514C117.684 116.533 117.684 116.591 117.66 116.643V116.729C117.645 116.791 117.634 116.853 117.627 116.916C117.627 116.959 117.627 117.002 117.603 117.049C117.579 117.097 117.57 117.25 117.546 117.365C117.522 117.48 117.474 117.752 117.436 117.982L117.221 119.148C117.197 119.272 117.173 119.406 117.149 119.545C117.125 119.683 117.082 119.917 117.044 120.113C117.006 120.309 116.967 120.553 116.924 120.787C116.896 120.95 116.862 121.117 116.834 121.289C116.743 121.801 116.647 122.346 116.537 122.929C116.535 122.943 116.535 122.958 116.537 122.972C116.422 123.622 116.298 124.32 116.164 125.051C116.131 125.242 116.093 125.434 116.054 125.625C116.016 125.816 115.978 126.026 115.944 126.227C115.944 126.351 115.901 126.481 115.873 126.61C115.691 127.626 115.495 128.703 115.285 129.841C115.213 130.223 115.146 130.61 115.074 131.002C114.936 131.767 114.792 132.551 114.644 133.359C114.606 133.545 114.573 133.732 114.544 133.923C114.327 135.093 114.106 136.31 113.879 137.575C113.851 137.704 113.832 137.833 113.808 137.962C113.698 138.555 113.588 139.152 113.483 139.764C113.469 139.811 113.459 139.859 113.454 139.908L113.296 140.778C113.086 141.944 112.869 143.137 112.646 144.358C112.589 144.659 112.531 144.965 112.479 145.276C112.369 145.892 112.254 146.514 112.14 147.14C111.996 147.919 111.853 148.703 111.709 149.501C111.566 150.3 111.423 151.098 111.274 151.891C111.198 152.298 111.126 152.704 111.05 153.11C110.964 153.588 110.873 154.066 110.787 154.578H69.4727C74.5682 133.407 78.8655 116.337 78.8655 116.337L117.684 116.399Z" fill="#263238"/>
<path d="M111.439 121.179C109.371 132.333 107.28 143.486 105.167 154.64H104.594C106.788 143.459 109.049 132.298 111.286 121.132C111.319 121.026 111.467 121.069 111.439 121.179Z" fill="#263238"/>
<path d="M117.685 116.399C117.685 116.399 117.685 116.423 117.685 116.466C117.685 116.509 117.685 116.495 117.685 116.514C117.685 116.533 117.685 116.59 117.661 116.643V116.729C117.646 116.79 117.635 116.853 117.628 116.916C117.628 116.959 117.628 117.002 117.604 117.049C117.58 117.097 117.565 117.25 117.546 117.365C117.527 117.48 117.475 117.752 117.436 117.981C117.369 118.321 117.303 118.708 117.221 119.148C117.197 119.272 117.173 119.406 117.15 119.545C117.126 119.683 117.083 119.917 117.044 120.113C117.006 120.309 116.968 120.553 116.925 120.787C116.896 120.95 116.863 121.117 116.834 121.289C116.738 121.801 116.643 122.346 116.538 122.929C116.535 122.943 116.535 122.958 116.538 122.972C116.418 123.622 116.294 124.31 116.16 125.042C116.122 125.233 116.088 125.429 116.055 125.625C116.021 125.821 115.978 126.026 115.945 126.227C115.916 126.351 115.897 126.48 115.873 126.61C115.687 127.623 115.491 128.703 115.285 129.841C115.214 130.223 115.147 130.61 115.075 131.002C114.932 131.767 114.788 132.551 114.645 133.359C114.607 133.545 114.573 133.732 114.544 133.923C114.325 135.099 114.103 136.316 113.88 137.575C113.851 137.704 113.832 137.833 113.808 137.962C113.698 138.555 113.588 139.152 113.483 139.764C113.469 139.811 113.46 139.859 113.455 139.908L113.297 140.778C113.08 141.944 112.863 143.137 112.647 144.358C112.589 144.659 112.532 144.965 112.479 145.276C112.365 145.892 112.255 146.514 112.14 147.14C111.997 147.919 111.853 148.703 111.71 149.501C111.566 150.3 111.418 151.098 111.275 151.891C111.198 152.298 111.127 152.704 111.05 153.11C110.964 153.588 110.873 154.066 110.783 154.578H90.0466L88.3879 137.599L88.3306 136.997L88.2636 136.347L87.9386 133.024L87.6566 130.156L86.3086 116.399H117.685Z" fill="#3DA925"/>
<path d="M141.152 154.64H96.5972C96.5207 150.539 96.4394 146.571 96.339 142.828C96.339 142.737 96.339 142.647 96.339 142.556C96.339 142.556 91.1383 139.477 88.3372 137.064C87.8611 136.672 87.4226 136.237 87.0275 135.763C85.2349 133.478 83.4376 124.693 79.7188 116.428H134.211C143.064 133.608 142.443 147.412 141.152 154.64Z" fill="#263238"/>
<path d="M85.7288 135.156C88.377 136.241 90.7622 137.91 93.114 139.52C95.5614 141.189 97.8033 143.12 100.155 144.912C100.246 144.984 100.155 145.132 100.059 145.065C97.5786 143.483 94.983 142.092 92.5309 140.462C90.1408 138.88 87.6743 137.341 85.6093 135.348C85.5281 135.271 85.6189 135.108 85.7288 135.156Z" fill="#3DA925"/>
<path d="M85.393 119.827C85.7085 121.523 86.1195 123.206 86.4876 124.893C86.827 126.476 87.0803 128.087 87.501 129.673C87.8424 131.188 88.6124 132.572 89.7189 133.66C90.3403 134.238 91.0239 134.75 91.6835 135.276C92.042 135.563 92.4244 135.835 92.7973 136.127C92.7495 135.902 92.7113 135.649 92.6682 135.443L92.3384 133.531C92.0994 132.097 91.8604 130.663 91.6501 129.229C91.2199 126.413 90.8279 123.569 90.2161 120.783C90.2142 120.761 90.2198 120.74 90.2319 120.723C90.244 120.705 90.2618 120.693 90.2822 120.687C90.3027 120.681 90.3245 120.683 90.3438 120.692C90.3631 120.701 90.3788 120.716 90.3881 120.735C91.0908 123.498 91.8652 126.232 92.477 129.019C92.7782 130.381 93.8441 137.145 93.911 137.623C93.978 138.101 94.0019 138.612 94.021 139.105C94.0855 139.608 94.0855 140.117 94.021 140.62C94.0116 140.642 93.9956 140.662 93.9752 140.675C93.9548 140.689 93.9308 140.696 93.9063 140.696C93.8817 140.696 93.8577 140.689 93.8373 140.675C93.8169 140.662 93.801 140.642 93.7915 140.62C93.5873 140.153 93.4443 139.661 93.3661 139.157C93.2418 138.679 93.1319 138.201 93.0459 137.694C93.0124 137.522 92.9885 137.341 92.9646 137.159C92.3002 136.753 91.6835 136.203 91.0526 135.773C90.4216 135.343 89.6998 134.817 89.0688 134.281C87.8966 133.294 87.0516 131.974 86.6454 130.496C86.2375 128.907 85.972 127.285 85.8519 125.649C85.6368 123.737 85.479 121.825 85.2113 119.913C85.2018 119.745 85.3691 119.712 85.393 119.827Z" fill="#3DA925"/>
<path d="M130.736 131.643C130.023 131.275 127.27 131.93 122.251 131.074C121.269 130.947 120.337 130.568 119.545 129.975C118.24 128.909 117.251 127.193 116.458 125.725C115.515 124.072 114.789 122.305 114.297 120.467C114.273 120.352 114.115 120.41 114.134 120.515C114.321 121.552 114.421 122.59 114.698 123.617C114.97 124.581 115.317 125.523 115.736 126.433C116.491 128.134 117.375 129.96 118.905 131.112C120.506 132.317 122.729 132.546 124.679 132.68C125.798 132.757 130.2 132.637 130.793 132.011C130.815 131.984 130.832 131.952 130.841 131.918C130.851 131.884 130.853 131.849 130.847 131.814C130.842 131.779 130.829 131.746 130.81 131.717C130.791 131.687 130.765 131.662 130.736 131.643Z" fill="#3DA925"/>
<path d="M89.2693 55.0998C84.6804 61.8827 52.8069 102.733 48.1942 103.57C36.44 105.687 25.6753 101.658 30.1159 91.5335C35.288 79.7458 64.0544 56.3761 83.2225 46.0272C96.9508 38.6134 93.7816 48.4029 89.2693 55.0998Z" fill="#DD6A57"/>
<path d="M73.7068 77.6234L48.707 66.1513C48.707 66.1513 71.8378 50.0711 82.6455 45.1764C93.936 40.076 98.501 43.0588 88.8596 56.3282C79.3998 69.3874 73.7068 77.6234 73.7068 77.6234Z" fill="#3DA925"/>
<path d="M62.0144 57.2509C61.9616 57.2815 61.9105 57.315 61.8614 57.3512L81.3115 66.8444L81.4071 66.7106L62.0144 57.2509ZM56.6368 60.7833C56.5856 60.8124 56.5362 60.8443 56.4886 60.8789L78.0706 71.3951L78.1614 71.266L56.6368 60.7833ZM51.3357 64.3493L51.1875 64.4496L74.8536 75.9983C74.8775 75.9552 74.911 75.9122 74.9396 75.8692L51.3357 64.3493Z" fill="white"/>
<path d="M74.0149 72.547C73.4406 72.2197 72.8504 71.9213 72.2462 71.6531L70.425 70.7593C69.1966 70.157 67.9585 69.5738 66.7109 69.0002C64.2301 67.8482 61.7492 66.6866 59.2492 65.5825C58.5609 65.2765 57.8678 64.9706 57.1747 64.6886C56.4816 64.4066 55.6881 64.1341 54.9567 63.8329C54.9137 63.8329 54.8898 63.8807 54.9328 63.9046C55.5399 64.2058 56.1231 64.5595 56.7254 64.8607C57.3277 65.1618 57.973 65.4773 58.5992 65.7784C59.8388 66.3616 61.0816 66.9384 62.3276 67.5088C64.7798 68.6226 67.232 69.7459 69.708 70.8071C70.4011 71.1082 71.0943 71.395 71.7874 71.6914C72.4805 71.9877 73.2214 72.3606 73.9814 72.5996C74.0197 72.6235 74.0531 72.5661 74.0149 72.547Z" fill="#263238"/>
<path d="M88.8943 56.3139C79.3963 69.3874 73.7032 77.6234 73.7032 77.6234L65.7109 73.9476L93.1103 43.3552C95.2135 44.794 94.2192 49.0004 88.8943 56.3139Z" fill="#263238"/>
<path d="M74.765 125.558H139.248C139.248 125.558 129.396 64.029 105.625 42.9871C102.69 40.3868 96.065 40.9795 91.763 43.1258C90.219 43.8953 84.6789 51.6438 83.0967 58.9764C81.5145 66.3091 74.5882 125.338 74.765 125.558Z" fill="#3DA925"/>
<path d="M133.387 99.2867L104.773 42.38C105.078 42.552 105.363 42.7554 105.624 42.9871C119.114 54.9277 128.119 79.9083 133.387 99.2867Z" fill="#263238"/>
<path d="M102.863 41.6152H96.3045C96.6104 41.5578 96.9116 41.5053 97.2175 41.4575H102.088C102.347 41.5005 102.595 41.5531 102.863 41.6152ZM109.603 46.988H88.4365C88.4031 47.0406 88.3696 47.0932 88.3314 47.1457H109.713L109.603 46.988ZM113.857 52.5185H85.3247L85.253 52.6763H113.962L113.857 52.5185ZM117.337 58.0491H83.2979C83.2979 58.1016 83.2693 58.1542 83.2549 58.2068H117.432L117.337 58.0491ZM120.32 63.5796H82.3085C82.3085 63.6322 82.3085 63.6848 82.2846 63.7373H120.401C120.372 63.6848 120.343 63.6322 120.32 63.5796ZM122.939 69.1101H81.5341C81.5341 69.1627 81.5341 69.2153 81.5341 69.2679H123.02C122.982 69.2153 122.939 69.1627 122.939 69.1101ZM125.276 74.6454H80.8219C80.8219 74.698 80.8219 74.7506 80.8219 74.7984H125.329C125.329 74.7458 125.291 74.6932 125.272 74.6454H125.276ZM127.384 80.176H80.0905C80.0905 80.2286 80.0905 80.2764 80.0905 80.3289H127.432C127.418 80.2764 127.399 80.2286 127.38 80.176H127.384ZM129.297 85.7065H79.3974C79.3974 85.7591 79.3974 85.8117 79.3974 85.8643H129.354C129.34 85.8069 129.325 85.7591 129.306 85.7065H129.297ZM131.065 91.237H78.7139C78.7139 91.2896 78.7139 91.3422 78.7139 91.3948H131.118C131.103 91.3422 131.065 91.2896 131.065 91.237ZM132.69 96.7676H78.0446C78.0446 96.8202 78.0446 96.8727 78.0446 96.9253H132.738L132.69 96.7676ZM134.191 102.298H77.3802C77.3802 102.351 77.3802 102.403 77.3802 102.456H134.263C134.22 102.403 134.206 102.351 134.196 102.298H134.191ZM135.573 107.829H76.7254C76.7254 107.881 76.7254 107.934 76.7254 107.986H135.616C135.601 107.934 135.592 107.881 135.578 107.829H135.573ZM136.844 113.359H76.0944C76.0944 113.412 76.0944 113.464 76.0944 113.517H136.882C136.873 113.464 136.863 113.412 136.849 113.359H136.844ZM138.011 118.89H75.4491C75.4491 118.942 75.4491 118.995 75.4491 119.047H138.068L138.011 118.89ZM139.053 124.42H74.8516V124.578H139.096C139.077 124.525 139.067 124.473 139.057 124.42H139.053Z" fill="white"/>
<path d="M116.815 44.5359C133.067 50.5444 173.086 66.4907 175.132 75.8214C176.623 82.6808 146.088 86.9446 145.218 85.8356C144.535 84.9561 116.179 62.8674 106.184 50.9794C97.4941 40.6545 111.619 42.6143 116.815 44.5359Z" fill="#DD6A57"/>
<path d="M129.09 72.6523L150.5 57.8341C150.5 57.8341 124.917 46.0369 113.397 43.1115C101.39 40.0618 97.4177 43.7902 109.229 55.1716C120.864 66.3665 129.09 72.6523 129.09 72.6523Z" fill="#3DA925"/>
<path d="M134.675 50.8838L118.078 63.3693C118.121 63.4028 118.155 63.441 118.198 63.4697L134.847 50.9507L134.675 50.8838ZM140.544 53.3885L122.332 67.0882L122.452 67.1934L140.717 53.4602C140.659 53.4363 140.626 53.4077 140.544 53.3885ZM146.362 55.9363L126.697 70.7545C126.736 70.7906 126.777 70.8241 126.821 70.8549L146.524 56.0367C146.468 56.0075 146.413 55.9739 146.362 55.9363Z" fill="white"/>
<path d="M144.596 56.8158C144.022 57.1313 143.482 57.5281 142.937 57.8961C142.392 58.2642 141.818 58.6514 141.254 59.0242C140.117 59.7842 138.989 60.5682 137.865 61.3521C135.628 62.9247 133.377 64.4878 131.173 66.0987C130.566 66.5385 129.959 66.983 129.362 67.4419C128.764 67.9008 128.138 68.4505 127.512 68.9333C127.473 68.962 127.512 69.0146 127.56 68.9907C128.124 68.6178 128.726 68.2928 129.295 67.9199C129.863 67.5471 130.456 67.1551 131.03 66.7584C132.158 65.984 133.276 65.2001 134.376 64.4066C136.57 62.8435 138.774 61.2852 140.934 59.6743L142.741 58.3215C143.372 57.8435 144.041 57.4038 144.629 56.8875C144.667 56.8493 144.639 56.7919 144.596 56.8158Z" fill="#263238"/>
<path d="M127.114 70.9553C126.511 70.4486 125.952 69.8942 125.369 69.3683C124.786 68.8425 124.183 68.3215 123.596 67.7957C122.444 66.7728 121.277 65.7642 120.12 64.7412C117.783 62.6667 115.446 60.5874 113.132 58.4889C111.817 57.2939 110.527 56.0654 109.169 54.9182L109.141 54.9469C110.207 56.0989 111.354 57.184 112.487 58.2643C112.248 58.1161 112.009 57.9631 111.779 57.7863C111.55 57.6094 111.273 57.423 111.029 57.227C110.785 57.031 110.551 56.8111 110.273 56.6295C110.23 56.6008 110.192 56.6582 110.221 56.6916C110.651 57.1991 111.157 57.6362 111.722 57.987C111.999 58.1734 112.291 58.3407 112.582 58.4985L112.903 58.6467C113.916 59.6027 114.936 60.5587 115.962 61.5147C118.256 63.6307 120.597 65.702 122.984 67.7288C123.643 68.2833 124.308 68.8282 124.977 69.3731C125.646 69.9181 126.382 70.4439 127.066 71.0031C127.099 71.0414 127.147 70.9888 127.114 70.9553Z" fill="#263238"/>
<path d="M93.8143 54.9372C97.6049 55.4152 103.374 49.1103 105.392 44.2681C105.53 43.9335 104.703 40.6735 103.881 36.663C103.403 34.23 102.925 31.5053 102.648 28.991C102.595 28.4748 87.2656 34.4785 87.2656 34.4785C87.2656 34.4785 89.3689 39.5884 89.8038 43.9765C89.8349 44.3248 89.8349 44.6751 89.8038 45.0233C89.8038 45.0711 89.8038 45.1285 89.8038 45.1954C89.6843 47.1887 90.1528 54.464 93.8143 54.9372Z" fill="#DD6A57"/>
<path d="M91.4282 45.1094C90.8882 45.1834 90.343 45.2122 89.7982 45.1954C89.7982 45.1285 89.7982 45.0711 89.7982 45.0185C89.834 44.6721 89.834 44.3229 89.7982 43.9765C89.368 39.5932 87.2695 34.4785 87.2695 34.4785C87.2695 34.4785 99.6977 29.6028 102.212 29.0149C102.03 31.9738 100.711 43.9287 91.4282 45.1094Z" fill="#263238"/>
<path d="M100.95 9.48361C104.129 14.431 105.673 30.884 102.805 35.4537C98.6464 42.0837 89.6407 45.1429 83.4553 39.641C77.4564 34.3113 75.8072 12.8344 79.2298 8.4559C84.2201 2.00281 96.2468 2.15577 100.95 9.48361Z" fill="#DD6A57"/>
<path d="M90.7405 23.8477C90.7405 23.8047 90.8361 23.8955 90.8361 23.9385C90.9125 25.0523 91.185 26.3286 92.2223 26.5771C92.2557 26.5771 92.2557 26.6441 92.2223 26.6393C90.9795 26.5915 90.6353 24.9137 90.7405 23.8477Z" fill="#263238"/>
<path d="M91.6141 22.5954C93.3827 22.2847 93.8751 25.841 92.2403 26.1326C90.6055 26.4242 90.1323 22.8583 91.6141 22.5954Z" fill="#263238"/>
<path d="M83.9564 24.6221C83.9564 24.5839 83.8752 24.689 83.8847 24.7321C84.0711 25.8315 84.0998 27.1221 83.1534 27.624C83.1247 27.624 83.1534 27.6957 83.1534 27.6814C84.3675 27.3563 84.3101 25.6498 83.9564 24.6221Z" fill="#263238"/>
<path d="M82.8063 23.6231C81.0186 23.733 81.3723 27.3085 83.031 27.2081C84.6897 27.1078 84.312 23.5323 82.8063 23.6231Z" fill="#263238"/>
<path d="M92.7954 20.798C92.3127 20.7233 91.8341 20.6244 91.3614 20.5017C90.8329 20.4713 90.329 20.2681 89.9273 19.9233C89.825 19.7904 89.7695 19.6273 89.7695 19.4596C89.7695 19.2919 89.825 19.1288 89.9273 18.9959C90.4054 18.4462 91.108 18.4271 91.782 18.5179C92.4618 18.6098 93.0835 18.9504 93.5267 19.4739C93.6309 19.5997 93.6947 19.7538 93.71 19.9164C93.7252 20.0789 93.6912 20.2423 93.6122 20.3852C93.5333 20.5281 93.4132 20.6439 93.2675 20.7175C93.1218 20.7912 92.9573 20.8192 92.7954 20.798Z" fill="#263238"/>
<path d="M81.1907 22.0217C81.6548 21.8588 82.1096 21.6705 82.553 21.4577C83.0601 21.3267 83.5102 21.0328 83.834 20.6212C83.9104 20.4714 83.9349 20.3005 83.9037 20.1353C83.8726 19.9701 83.7876 19.8199 83.662 19.7082C83.0979 19.2588 82.3952 19.3736 81.7499 19.6174C81.0991 19.8378 80.5537 20.2928 80.2203 20.8936C80.1522 21.0359 80.1269 21.195 80.1477 21.3515C80.1684 21.5079 80.2343 21.6549 80.3372 21.7745C80.4401 21.8941 80.5756 21.9812 80.7271 22.0251C80.8787 22.069 81.0398 22.0678 81.1907 22.0217Z" fill="#263238"/>
<path d="M93.0414 33.5894C92.8167 33.8858 92.6016 34.2778 92.2049 34.3638C91.7938 34.4132 91.3769 34.3757 90.9812 34.2539C90.9733 34.2519 90.965 34.2524 90.9574 34.2555C90.9499 34.2586 90.9435 34.264 90.9393 34.2709C90.935 34.2778 90.9331 34.2859 90.9337 34.294C90.9344 34.3022 90.9376 34.3098 90.9429 34.316C91.1307 34.5105 91.3674 34.6509 91.6281 34.7224C91.8889 34.7939 92.164 34.7939 92.4248 34.7223C92.6416 34.6317 92.8267 34.479 92.9569 34.2833C93.087 34.0877 93.1564 33.8579 93.1561 33.6229C93.1657 33.5607 93.0749 33.5464 93.0414 33.5894Z" fill="#263238"/>
<path d="M91.4274 30.449C91.2087 30.9238 90.894 31.3481 90.5033 31.6953C90.1125 32.0424 89.6541 32.3049 89.1569 32.4662C88.7236 32.614 88.2711 32.6977 87.8136 32.7148C87.7262 32.7218 87.6382 32.7218 87.5507 32.7148H87.307C87.2466 32.7113 87.1888 32.6886 87.1424 32.6498C87.0959 32.6111 87.0631 32.5585 87.0488 32.4997C87.0442 32.4615 87.0442 32.423 87.0488 32.3849V32.2893C86.9102 31.4433 86.8146 30.1431 86.8146 30.1431C86.523 30.3391 85.0412 31.2712 85.0078 30.8219C84.7162 27.1221 84.3959 23.0064 84.8882 19.2637C84.8933 19.2402 84.9063 19.2192 84.925 19.2041C84.9437 19.189 84.967 19.1808 84.991 19.1808C85.015 19.1808 85.0383 19.189 85.057 19.2041C85.0757 19.2192 85.0887 19.2402 85.0938 19.2637C85.5097 22.8105 85.3041 26.4051 85.6674 29.971C86.1942 29.6339 86.7653 29.3716 87.3643 29.1918C87.4934 29.1918 87.5077 31.7109 87.5985 32.0838C87.5974 32.0965 87.5974 32.1093 87.5985 32.122C89.0326 32.122 90.0651 31.5293 91.3174 30.3821C91.3939 30.2913 91.4847 30.3582 91.4274 30.449Z" fill="#263238"/>
<path d="M88.2539 32.2176C88.8045 32.7575 89.4841 33.1475 90.2281 33.3505C90.637 33.449 91.0666 33.4173 91.4566 33.2596C92.3074 32.9059 92.2166 32.0933 91.9585 31.4241C91.8179 31.0697 91.6366 30.7329 91.4183 30.4203C90.582 31.3413 89.4733 31.9711 88.2539 32.2176Z" fill="#263238"/>
<path d="M90.2242 33.3504C90.6332 33.449 91.0627 33.4172 91.4527 33.2596C92.3036 32.9059 92.2127 32.0933 91.9546 31.4241C91.0225 31.6535 90.1812 32.4231 90.2242 33.3504Z" fill="#FF98B9"/>
<path d="M103.369 22.0026C100.472 22.7435 98.5171 15.7121 98.5171 15.7121C98.5171 15.7121 93.933 16.3287 89.913 11.061C89.913 11.061 85.4628 16.3526 80.5106 17.0074C72.7478 18.0256 69.8797 8.44157 72.0021 5.62134C75.0088 1.62042 83.2209 3.40339 83.2209 3.40339C83.2209 3.40339 92.781 -2.8824 98.1586 3.20262C98.1586 3.20262 102.9 1.90722 104.879 6.96453C106.858 12.0218 105.529 21.4481 103.369 22.0026Z" fill="#263238"/>
<path d="M99.8022 16.2045C97.5786 16.5178 95.3139 16.084 93.3635 14.9712C91.3702 13.7666 89.7068 11.4722 89.635 9.09172C89.635 8.96266 89.4199 8.98178 89.4343 9.09172C89.6924 11.6825 90.6341 14.1251 92.8329 15.6739C93.8377 16.3983 95.0148 16.8466 96.2469 16.9741C97.479 17.1016 98.723 16.9038 99.8548 16.4004C99.8701 16.3862 99.8813 16.3681 99.8871 16.3481C99.8928 16.328 99.893 16.3068 99.8876 16.2866C99.8822 16.2664 99.8714 16.2481 99.8564 16.2337C99.8413 16.2192 99.8226 16.2091 99.8022 16.2045Z" fill="#263238"/>
<path d="M104.296 3.81926C102.264 2.45216 99.9699 2.86324 97.8141 3.65195C97.6946 3.69497 97.7711 3.89573 97.8858 3.83837C99.9508 2.88236 102.57 3.64239 104.253 5.04295C105.935 6.44351 106.347 8.65668 106.514 10.6978C106.855 14.6381 105.724 18.5651 103.34 21.7206C103.302 21.7684 103.378 21.8305 103.416 21.7827C104.815 20.1155 105.858 18.1806 106.483 16.0962C107.107 14.0118 107.3 11.8219 107.049 9.66049C106.777 7.54292 106.151 5.08119 104.296 3.81926Z" fill="#263238"/>
<path d="M83.6195 3.65674C82.2243 2.46483 80.4398 1.82693 78.6052 1.86422C76.3939 1.96701 74.2984 2.88282 72.7209 4.43589C72.1026 5.07877 71.6648 5.87333 71.4517 6.73942C71.2385 7.60552 71.2575 8.51252 71.5068 9.36892C72.0135 11.3957 73.5431 12.9635 75.1635 14.149C75.1678 14.1535 75.173 14.157 75.1787 14.1593C75.1844 14.1616 75.1906 14.1627 75.1968 14.1624C75.2029 14.1621 75.209 14.1605 75.2145 14.1577C75.22 14.1549 75.2248 14.1509 75.2286 14.146C75.2324 14.1411 75.2352 14.1355 75.2366 14.1295C75.2381 14.1235 75.2382 14.1172 75.237 14.1112C75.2358 14.1051 75.2333 14.0994 75.2297 14.0943C75.2261 14.0893 75.2215 14.0851 75.2161 14.0821C73.8395 12.9014 72.6062 11.4578 72.1425 9.64616C71.8949 8.80288 71.8904 7.90679 72.1298 7.06111C72.3691 6.21542 72.8424 5.45454 73.4953 4.8661C76.0717 2.56211 80.5459 1.37187 83.4952 3.79537C83.514 3.80218 83.5344 3.80321 83.5538 3.79833C83.5732 3.79346 83.5907 3.78289 83.6041 3.76799C83.6175 3.75309 83.6261 3.73454 83.6288 3.71472C83.6315 3.6949 83.6283 3.67471 83.6195 3.65674Z" fill="#263238"/>
<path d="M101.301 23.7235C101.301 23.7235 103.533 17.7102 106.172 18.3794C108.81 19.0486 108.055 27.1173 105.608 28.8286C105.308 29.0671 104.963 29.2431 104.594 29.3461C104.225 29.4492 103.839 29.4773 103.459 29.4288C103.079 29.3802 102.712 29.2559 102.381 29.0634C102.05 28.8708 101.761 28.6138 101.53 28.3076L101.301 23.7235Z" fill="#DD6A57"/>
<path d="M105.898 20.6881C105.907 20.6859 105.916 20.6867 105.924 20.6903C105.932 20.6939 105.938 20.7002 105.942 20.708C105.946 20.7159 105.947 20.7248 105.945 20.7334C105.943 20.7419 105.939 20.7496 105.932 20.755C104.23 22.0218 103.69 24.0437 103.465 26.0514C103.848 25.2005 104.517 24.6173 105.631 25.0428C105.642 25.0494 105.65 25.0593 105.655 25.0711C105.661 25.0829 105.662 25.096 105.659 25.1086C105.657 25.1212 105.65 25.1326 105.641 25.1414C105.631 25.1501 105.62 25.1558 105.607 25.1575C105.245 25.1384 104.887 25.2315 104.581 25.424C104.274 25.6166 104.035 25.8991 103.896 26.233C103.666 26.7949 103.498 27.3799 103.394 27.9777C103.351 28.1689 103.021 28.1594 103.03 27.9443C103.033 27.9284 103.033 27.9123 103.03 27.8965C102.356 25.4873 103.341 21.6059 105.898 20.6881Z" fill="#263238"/>
<path d="M167.572 115.592C163.026 131.452 150.019 144.339 147.357 146.026C145.091 147.46 143.91 148.196 143.91 148.196C139.895 150.873 137.132 150.147 137.132 150.147C137.132 150.147 133.399 154.606 130.33 152.795C126.884 150.782 132.797 144.917 134.078 139.702C137.008 127.752 137.835 109.956 138.337 106.423L167.572 115.592Z" fill="#DD6A57"/>
<path d="M145.946 129.339C145.014 132.838 144.187 136.299 142.787 139.654C141.248 143.335 139.154 146.619 137.103 150.013C137.093 150.033 137.091 150.056 137.097 150.078C137.102 150.1 137.115 150.119 137.134 150.132C137.152 150.145 137.174 150.151 137.197 150.15C137.219 150.148 137.24 150.138 137.256 150.123C141.946 144.563 145.358 136.609 146.252 129.411C146.276 129.234 145.994 129.167 145.946 129.339Z" fill="#263238"/>
<path d="M153.416 130.061C152.322 133.407 150.357 139.296 143.818 148.129C143.794 148.158 143.818 148.201 143.866 148.172C148.766 143.21 152.189 136.982 153.751 130.185C153.804 129.97 153.493 129.841 153.416 130.061Z" fill="#263238"/>
<path d="M136.699 125.085C136.465 123.378 135.566 123.488 134.017 126.132C132.469 128.775 128.587 140.548 124.596 138.847C120.605 137.145 126.322 120.611 129.237 116.409C132.153 112.207 138.32 106.423 138.32 106.423C137.87 109.865 137.531 118.311 136.699 125.085Z" fill="#DD6A57"/>
<path d="M175.119 75.8214C178.308 85.8357 169.895 108.168 167.572 115.592C166.558 118.828 137.008 110.185 138.112 106.729C140.378 99.6596 146.238 86.7917 145.206 85.8357C144.388 85.0756 172.218 66.725 175.119 75.8214Z" fill="#DD6A57"/>
<path d="M153.304 79.8127C152.912 79.9657 152.52 80.0852 152.138 80.2907C151.755 80.4963 151.349 80.6588 150.971 80.8643C150.239 81.2748 149.542 81.7448 148.887 82.2697C148.226 82.7818 147.6 83.3375 147.013 83.9331C146.707 84.2391 146.411 84.5545 146.129 84.8891C145.843 85.1958 145.593 85.5342 145.383 85.8977C145.373 85.915 145.367 85.9349 145.367 85.9551C145.367 85.9753 145.373 85.9952 145.383 86.0125C145.383 86.0125 145.383 86.0459 145.412 86.0507C145.536 86.1033 145.608 85.9981 145.699 85.9216L146.148 85.5058C146.464 85.2142 146.77 84.9035 147.104 84.6071C147.74 84.0192 148.409 83.4551 149.097 82.9245C149.786 82.3939 150.493 81.892 151.21 81.4093C151.569 81.1655 151.922 80.9312 152.286 80.6779C152.649 80.4246 153.008 80.1999 153.38 79.9848C153.452 79.9179 153.395 79.7745 153.304 79.8127Z" fill="#263238"/>
<path d="M46.4557 74.894C41.6756 78.2401 27.1203 91.2753 30.0553 98.3976C32.9902 105.52 44.1947 105.348 59.8638 102.513L46.4557 74.894Z" fill="#DD6A57"/>
<path d="M46.0391 75.2047C52.4587 69.8558 61.7846 63.3597 65.6039 63.5652C69.6096 63.7803 83.6582 65.1092 86.8226 66.4667C89.987 67.8243 99.0882 76.6817 100.02 79.6167C100.766 81.9685 96.1485 84.1864 90.2881 80.415C84.8054 76.8873 83.6677 75.7735 81.88 75.1569C80.0923 74.5403 73.0464 75.893 72.1956 78.5507C71.6937 80.1186 73.7252 84.349 76.5502 85.2428C79.3752 86.1367 82.2863 84.4589 86.2681 84.674C90.2499 84.8891 94.0739 88.8183 93.3044 90.1089C92.5348 91.3996 90.7518 90.7064 85.3169 92.5229C81.8226 93.694 77.6688 95.7972 71.7558 99.2771C65.6995 102.838 56.9376 102.776 56.9376 102.776L46.0391 75.2047Z" fill="#DD6A57"/>
<path d="M90.5308 81.0842C100.091 84.0765 95.6789 98.2494 86.0949 95.2523C76.5108 92.2552 80.9515 78.0823 90.5308 81.0842Z" fill="#FFC727"/>
<path opacity="0.1" d="M90.5308 81.0842C100.091 84.0765 95.6789 98.2494 86.0949 95.2523C76.5108 92.2552 80.9515 78.0823 90.5308 81.0842Z" fill="black"/>
<path d="M89.6327 80.8022C98.7483 83.6702 94.3315 97.8288 85.1968 94.9703C76.0621 92.1118 80.5028 77.9437 89.6327 80.8022Z" fill="#FFC727"/>
<path opacity="0.1" d="M81.4557 87.4799C81.1832 90.066 82.3687 92.7619 85.5761 93.7657C93.1573 96.1558 96.8236 84.3729 89.2568 82.0068L89.1086 81.9637C96.1831 84.3538 92.665 95.4579 85.4375 93.1969C84.2083 92.863 83.1357 92.1072 82.4077 91.062C81.6797 90.0168 81.3427 88.7487 81.4557 87.4799Z" fill="black"/>
<g opacity="0.1">
<path d="M88.7892 83.4743C88.8499 83.4989 88.8986 83.5459 88.9254 83.6056C88.9521 83.6653 88.9547 83.733 88.9326 83.7946L88.7845 84.1818C89.3835 84.4775 89.8822 84.943 90.2185 85.5202C90.2484 85.559 90.2684 85.6046 90.2768 85.6529C90.2851 85.7012 90.2815 85.7508 90.2663 85.7974C90.2388 85.8614 90.1875 85.9121 90.1233 85.9389C90.059 85.9657 89.9869 85.9664 89.9221 85.9408C89.857 85.9174 89.8038 85.8694 89.7739 85.807C89.4982 85.302 89.0813 84.8884 88.5741 84.6167L87.5225 87.3175C88.8705 88.1922 89.272 88.9809 88.904 89.9226C88.512 90.9455 87.3696 91.3566 86.1506 90.9073L85.8591 91.6578C85.8471 91.6892 85.8291 91.7179 85.8061 91.7423C85.7831 91.7668 85.7555 91.7864 85.7248 91.8002C85.6942 91.8139 85.6612 91.8215 85.6276 91.8225C85.5941 91.8235 85.5606 91.8179 85.5292 91.806C85.4979 91.794 85.4691 91.7761 85.4447 91.753C85.4203 91.73 85.4006 91.7024 85.3868 91.6717C85.3731 91.6411 85.3655 91.6081 85.3645 91.5745C85.3635 91.541 85.3691 91.5075 85.3811 91.4761L85.6726 90.7161C84.8917 90.3415 84.2577 89.7175 83.8706 88.9427C83.8463 88.9075 83.831 88.8669 83.826 88.8244C83.821 88.7819 83.8265 88.7388 83.8419 88.6989C83.8693 88.6371 83.9188 88.5877 83.9806 88.5603C84.0424 88.5329 84.1123 88.5295 84.1765 88.5507C84.2408 88.5754 84.2936 88.6231 84.3247 88.6846C84.6395 89.3798 85.1826 89.9465 85.8638 90.2907L86.9298 87.5469C85.6057 86.6674 85.2138 85.9026 85.5866 84.9418C85.9594 83.981 87.1019 83.5556 88.2873 83.9858L88.4307 83.6225C88.4419 83.5873 88.4607 83.5549 88.4857 83.5277C88.5107 83.5004 88.5413 83.479 88.5755 83.4649C88.6096 83.4508 88.6465 83.4443 88.6834 83.4459C88.7203 83.4476 88.7565 83.4572 88.7892 83.4743ZM87.1592 87.0546L88.1774 84.4255C87.2214 84.0814 86.404 84.4016 86.1315 85.0948C85.8591 85.7879 86.0311 86.285 87.1592 87.0546ZM87.3552 87.805L86.3227 90.4675C87.2787 90.8213 88.1344 90.5058 88.4212 89.7744C88.708 89.0431 88.5216 88.5699 87.3552 87.805Z" fill="black"/>
</g>
<path d="M65.6055 63.5653C70.3282 62.2842 80.3233 61.3091 86.9771 63.9094C91.4752 65.6685 97.8566 81.696 95.5239 83.5842C93.1912 85.4723 91.2218 83.6941 88.6406 80.7161C87.6846 79.6311 83.937 72.5327 81.9198 72.8386C79.0135 73.2736 72.0299 77.4513 72.0299 77.4513L65.6055 63.5653Z" fill="#DD6A57"/>
<path d="M96.0189 82.4608C96.7359 78.8232 94.7618 74.7363 92.5677 70.9218C92.5295 70.8644 92.4386 70.9218 92.4721 70.9696C93.0314 71.9256 95.9616 78.8662 95.9472 82.4656C95.9472 82.5134 96.0094 82.5039 96.0189 82.4608Z" fill="#263238"/>
<path d="M65.6055 63.5653C70.3282 62.2842 80.3233 61.3091 86.9771 63.9094C91.4752 65.6685 94.0373 81.0746 91.7046 82.9628C89.372 84.8509 86.4035 82.4608 84.2764 78.546C83.5881 77.2793 82.3644 71.8539 80.3615 72.1407C77.4552 72.5805 70.3234 73.7229 70.3234 73.7229L65.6055 63.5653Z" fill="#DD6A57"/>
<path d="M74.5895 72.9008C75.3399 72.7048 75.6028 72.6331 76.3581 72.4467C77.1133 72.2603 77.8638 72.0929 78.6286 71.9687C79.2877 71.8052 79.9699 71.7551 80.6458 71.8205C81.2785 71.964 81.8473 72.3097 82.2662 72.8052C83.2557 73.8855 83.6046 75.4581 84.0396 76.8157C84.5176 78.3357 85.7844 81.2133 87.5625 82.523C88.0319 82.9038 88.5757 83.1822 89.1591 83.3404C89.5863 83.4794 90.0416 83.509 90.4832 83.4265C92.2757 82.872 92.6342 80.7114 92.6151 78.9284C92.5768 75.5824 91.5157 72.2363 90.3015 69.1819C90.0052 68.4314 89.6897 67.6857 89.3742 66.94C89.0687 66.0631 88.5799 65.2614 87.9402 64.5882C86.8169 63.551 83.9297 63.0156 83.0358 62.8387C82.9689 62.8387 83.0024 62.724 83.0693 62.7384C84.1544 62.9343 87.1515 63.0921 88.8914 64.8416C89.5224 65.4821 89.8474 66.3903 90.2011 67.2029C90.5549 68.0156 90.9468 68.919 91.2814 69.7937C91.9509 71.4842 92.4863 73.2247 92.8828 74.9992C93.2413 76.6818 93.5567 78.5508 93.2747 80.2573C93.0309 81.7439 92.0032 83.2401 90.5166 83.6798C89.269 84.0574 88.0262 83.2879 87.4813 82.9102C86.9464 82.5347 86.4642 82.0894 86.0473 81.5862C85.189 80.3898 84.4189 79.1325 83.7433 77.8242C83.1123 76.5336 82.8303 75.0614 82.0942 73.8281C81.93 73.5278 81.7076 73.2633 81.44 73.0499C81.1725 72.8365 80.8651 72.6786 80.5358 72.5853C79.8672 72.4849 79.1873 72.4849 78.5187 72.5853C77.2311 72.6367 75.9511 72.8063 74.6946 73.092C74.3648 73.1732 74.274 72.9677 74.5895 72.9008Z" fill="#263238"/>
<path d="M61.9609 64.4879C63.2229 63.7422 70.4216 59.2298 73.2514 58.4363C76.0812 57.6429 87.1423 56.1084 89.3555 58.6275C92.1375 61.7967 83.8297 64.4401 80.1108 65.2575C76.392 66.0749 73.1128 70.2383 73.1128 70.2383L61.9609 64.4879Z" fill="#DD6A57"/>
<path d="M85.8512 63.5079C84.6042 63.7357 83.3693 64.026 82.1515 64.3779C80.9741 64.6305 79.8173 64.9709 78.6907 65.3961C77.6133 65.8984 76.6252 66.5733 75.7653 67.3941C75.3303 67.7909 74.9288 68.2067 74.532 68.637C74.1353 69.0672 73.7051 69.6216 73.2653 70.071C73.2175 70.1188 73.2653 70.2 73.337 70.1475C74.1804 69.3377 75.0745 68.5825 76.0139 67.8865C76.9683 67.1451 78.0102 66.5238 79.1161 66.0366C81.3197 65.0806 83.6954 64.6026 85.9038 63.6466C85.9946 63.6227 85.9373 63.4936 85.8512 63.5079Z" fill="#263238"/>
<path d="M91.1333 83.1588C91.9841 83.6368 92.9449 84.1148 93.9535 84.0717C94.3844 84.0598 94.802 83.92 95.1533 83.6702C95.3369 83.5371 95.4982 83.3758 95.6313 83.1922C95.79 83.007 95.8781 82.7717 95.8799 82.5278C95.8799 82.4609 95.9707 82.4656 95.9564 82.5278C95.9339 82.6637 95.9212 82.8011 95.9181 82.9389C95.898 83.0534 95.866 83.1656 95.8225 83.2735C95.739 83.4871 95.6139 83.6821 95.4545 83.8471C95.1002 84.2093 94.6333 84.4403 94.1304 84.502C92.9401 84.6645 91.8981 84.0239 91.0807 83.24C91.0754 83.2366 91.0708 83.2321 91.0672 83.2269C91.0635 83.2216 91.061 83.2157 91.0597 83.2095C91.0583 83.2033 91.0582 83.1969 91.0594 83.1906C91.0605 83.1844 91.0629 83.1784 91.0664 83.1731C91.0698 83.1678 91.0743 83.1632 91.0795 83.1595C91.0847 83.1559 91.0906 83.1534 91.0969 83.1521C91.1031 83.1507 91.1095 83.1506 91.1157 83.1518C91.122 83.1529 91.1279 83.1553 91.1333 83.1588Z" fill="#263238"/>
<path d="M71.9642 71.7201C70.925 73.2197 69.983 74.7844 69.144 76.4045C68.3421 78.0154 67.7755 79.733 67.4614 81.5049C67.1602 83.4169 67.318 85.3289 67.361 87.2792C67.401 88.2 67.3642 89.1225 67.2511 90.0373C67.1345 90.8342 66.9326 91.6162 66.6488 92.3699C65.9623 94.0666 64.8631 95.5651 63.4509 96.7294C63.3983 96.7772 63.4509 96.8632 63.5274 96.825C64.8629 95.8994 65.9789 94.692 66.7966 93.2878C67.6143 91.8837 68.1137 90.3172 68.2596 88.6988C68.4317 86.7199 68.0971 84.7362 68.2596 82.7524C68.4268 80.9467 68.8252 79.1699 69.4451 77.4657C70.1246 75.4765 70.9905 73.556 72.0311 71.7296C72.0317 71.7252 72.0315 71.7207 72.0304 71.7164C72.0293 71.7121 72.0274 71.7081 72.0247 71.7046C72.022 71.701 72.0187 71.698 72.0149 71.6958C72.0111 71.6935 72.0068 71.692 72.0024 71.6914C71.9936 71.6901 71.9846 71.6924 71.9774 71.6978C71.9702 71.7032 71.9655 71.7112 71.9642 71.7201Z" fill="#263238"/>
<path d="M54.5029 68.7325C50.7901 70.9973 47.2539 73.5395 43.9246 76.3376C40.5565 79.0863 37.5098 82.2067 34.8425 85.6396C33.3668 87.586 32.0769 89.6664 30.9897 91.8537C30.9658 91.8967 31.028 91.9302 31.0567 91.8871C32.166 90.0311 33.3972 88.2506 34.7421 86.5574C36.0731 84.8766 37.4949 83.2697 39.0011 81.7438C42.0813 78.6727 45.3872 75.8365 48.8911 73.2592C50.8605 71.7774 52.6673 70.3625 54.6272 68.8759C54.8088 68.7325 54.7132 68.5987 54.5029 68.7325Z" fill="#263238"/>
<path d="M109.735 160.123C109.701 160.319 109.663 160.515 109.625 160.715C109.658 160.519 109.697 160.319 109.73 160.123H109.735Z" fill="#EBEBEB"/>
<path d="M59.1137 117.91C59.2714 117.097 59.367 116.371 59.4483 115.596C59.5295 114.822 59.5678 114.052 59.563 113.264C59.5669 112.453 59.4965 111.643 59.3527 110.845C59.2017 109.92 58.8312 109.045 58.2724 108.292C57.9242 107.867 57.4781 107.532 56.9722 107.317C56.7196 107.211 56.4546 107.137 56.1835 107.097C55.9304 107.06 55.6741 107.049 55.4187 107.064C54.4735 107.136 53.5736 107.498 52.8422 108.101C52.1847 108.628 51.6263 109.267 51.1931 109.989C50.7424 110.7 50.4354 111.493 50.2897 112.322C50.1935 112.817 50.2332 113.329 50.4044 113.804C50.5224 114.11 50.7308 114.374 51.0019 114.559C51.2597 114.73 51.5583 114.829 51.8671 114.846C52.1847 114.862 52.5002 114.786 52.7753 114.626C53.0115 114.477 53.2122 114.278 53.3632 114.043C53.6026 113.666 53.7651 113.245 53.8413 112.805C53.9777 112.024 53.9777 111.225 53.8413 110.443C53.7212 109.661 53.4361 108.913 53.0047 108.249C52.7743 107.897 52.4629 107.606 52.0965 107.399C51.7174 107.192 51.2793 107.119 50.8537 107.193C50.0914 107.364 49.4013 107.768 48.8795 108.35C47.8893 109.441 47.0995 110.698 46.5469 112.064C47.1959 110.771 48.0662 109.601 49.1186 108.608C49.6094 108.131 50.2385 107.822 50.9159 107.724C51.2193 107.718 51.5176 107.803 51.7728 107.967C52.0281 108.132 52.2289 108.368 52.3499 108.646C52.6545 109.24 52.832 109.892 52.8709 110.558C52.9273 111.223 52.8707 111.892 52.7036 112.537C52.6333 112.815 52.5099 113.076 52.3403 113.307C52.2874 113.375 52.2184 113.429 52.1395 113.464C52.0949 113.481 52.0456 113.481 52.0009 113.464C51.934 113.464 51.8575 113.412 51.848 113.388C51.8281 113.354 51.8136 113.317 51.8049 113.278C51.7721 113.054 51.7884 112.826 51.8527 112.609C52.2251 111.422 52.9905 110.397 54.0229 109.703C54.4406 109.4 54.9412 109.233 55.4569 109.225C55.5665 109.23 55.6753 109.246 55.782 109.272C55.8687 109.295 55.9522 109.329 56.0305 109.373C56.1796 109.46 56.3045 109.583 56.3938 109.731C56.6475 110.192 56.796 110.703 56.8288 111.227C56.8851 111.863 56.8851 112.503 56.8288 113.139C56.7726 113.816 56.6817 114.489 56.5563 115.157C56.4321 115.821 56.2743 116.524 56.0783 117.131L59.1137 117.91Z" fill="#3DA925"/>
<path opacity="0.1" d="M59.1137 117.91C59.2714 117.097 59.367 116.371 59.4483 115.596C59.5295 114.822 59.5678 114.052 59.563 113.264C59.5669 112.453 59.4965 111.643 59.3527 110.845C59.2017 109.92 58.8312 109.045 58.2724 108.292C57.9242 107.867 57.4781 107.532 56.9722 107.317C56.7196 107.211 56.4546 107.137 56.1835 107.097C55.9304 107.06 55.6741 107.049 55.4187 107.064C54.4735 107.136 53.5736 107.498 52.8422 108.101C52.1847 108.628 51.6263 109.267 51.1931 109.989C50.7424 110.7 50.4354 111.493 50.2897 112.322C50.1935 112.817 50.2332 113.329 50.4044 113.804C50.5224 114.11 50.7308 114.374 51.0019 114.559C51.2597 114.73 51.5583 114.829 51.8671 114.846C52.1847 114.862 52.5002 114.786 52.7753 114.626C53.0115 114.477 53.2122 114.278 53.3632 114.043C53.6026 113.666 53.7651 113.245 53.8413 112.805C53.9777 112.024 53.9777 111.225 53.8413 110.443C53.7212 109.661 53.4361 108.913 53.0047 108.249C52.7743 107.897 52.4629 107.606 52.0965 107.399C51.7174 107.192 51.2793 107.119 50.8537 107.193C50.0914 107.364 49.4013 107.768 48.8795 108.35C47.8893 109.441 47.0995 110.698 46.5469 112.064C47.1959 110.771 48.0662 109.601 49.1186 108.608C49.6094 108.131 50.2385 107.822 50.9159 107.724C51.2193 107.718 51.5176 107.803 51.7728 107.967C52.0281 108.132 52.2289 108.368 52.3499 108.646C52.6545 109.24 52.832 109.892 52.8709 110.558C52.9273 111.223 52.8707 111.892 52.7036 112.537C52.6333 112.815 52.5099 113.076 52.3403 113.307C52.2874 113.375 52.2184 113.429 52.1395 113.464C52.0949 113.481 52.0456 113.481 52.0009 113.464C51.934 113.464 51.8575 113.412 51.848 113.388C51.8281 113.354 51.8136 113.317 51.8049 113.278C51.7721 113.054 51.7884 112.826 51.8527 112.609C52.2251 111.422 52.9905 110.397 54.0229 109.703C54.4406 109.4 54.9412 109.233 55.4569 109.225C55.5665 109.23 55.6753 109.246 55.782 109.272C55.8687 109.295 55.9522 109.329 56.0305 109.373C56.1796 109.46 56.3045 109.583 56.3938 109.731C56.6475 110.192 56.796 110.703 56.8288 111.227C56.8851 111.863 56.8851 112.503 56.8288 113.139C56.7726 113.816 56.6817 114.489 56.5563 115.157C56.4321 115.821 56.2743 116.524 56.0783 117.131L59.1137 117.91Z" fill="black"/>
<path d="M61.5391 153.426C63.6471 156.404 63.2169 165.5 64.4931 166.776C65.7694 168.053 78.8333 167.914 79.732 167.164C80.6306 166.413 80.21 163.201 81.166 162.675C81.5723 162.465 61.5391 153.426 61.5391 153.426Z" fill="#3DA925"/>
<path opacity="0.1" d="M61.5391 153.426C63.6471 156.404 63.2169 165.5 64.4931 166.776C65.7694 168.053 78.8333 167.914 79.732 167.164C80.6306 166.413 80.21 163.201 81.166 162.675C81.5723 162.465 61.5391 153.426 61.5391 153.426Z" fill="black"/>
<path d="M117.387 153.574C114.753 157.398 116.177 165.524 114.901 166.776C113.625 168.029 100.561 167.914 99.6621 167.164C98.7634 166.413 99.1841 163.029 98.6631 162.384C98.3906 162.044 117.387 153.574 117.387 153.574Z" fill="#3DA925"/>
<path opacity="0.1" d="M117.387 153.574C114.753 157.398 116.177 165.524 114.901 166.776C113.625 168.029 100.561 167.914 99.6621 167.164C98.7634 166.413 99.1841 163.029 98.6631 162.384C98.3906 162.044 117.387 153.574 117.387 153.574Z" fill="black"/>
<path opacity="0.3" d="M81.1851 162.675C81.0323 162.789 80.9037 162.932 80.8069 163.096C80.71 163.261 80.6469 163.442 80.6211 163.631C74.5854 162.932 68.6847 161.352 63.1069 158.942C62.801 156.724 62.366 154.611 61.5391 153.44C61.5391 153.431 81.5723 162.47 81.1851 162.675Z" fill="black"/>
<path opacity="0.3" d="M117.386 153.574C116.406 155.008 115.985 157.011 115.78 159.052C110.431 161.422 104.761 162.989 98.954 163.703C98.962 163.247 98.8638 162.795 98.6672 162.384C98.3851 162.044 117.386 153.574 117.386 153.574Z" fill="black"/>
<path d="M88.5851 98.4454C62.2947 98.4454 52.1992 119.043 52.1992 131.098C52.1992 142.991 59.8473 163.201 88.5851 163.201C117.323 163.201 126.85 146.079 126.85 130.826C126.85 115.572 115.167 98.4454 88.5851 98.4454Z" fill="#3DA925"/>
<path opacity="0.1" d="M88.5851 98.4454C62.2947 98.4454 52.1992 119.043 52.1992 131.098C52.1992 142.991 59.8473 163.201 88.5851 163.201C117.323 163.201 126.85 146.079 126.85 130.826C126.85 115.572 115.167 98.4454 88.5851 98.4454Z" fill="black"/>
<path d="M96.0078 99.9368C96.0078 99.9368 108.025 90.7208 121.041 91.8107C125.52 92.1883 118.082 101.901 117.944 109.497L96.0078 99.9368Z" fill="#3DA925"/>
<path opacity="0.1" d="M96.0078 99.9368C96.0078 99.9368 108.025 90.7208 121.041 91.8107C125.52 92.1883 118.082 101.901 117.944 109.497L96.0078 99.9368Z" fill="black"/>
<path opacity="0.3" d="M112.927 105.778C112.85 106.256 116.999 108.034 117.43 107.762C117.86 107.489 118.29 101.514 121.674 95.1472C122.171 94.2103 113.73 100.625 112.927 105.778Z" fill="black"/>
<path opacity="0.3" d="M115.54 129.449C115.941 129.388 116.316 129.213 116.622 128.947C116.928 128.68 117.151 128.332 117.266 127.943C117.228 128.421 117.082 128.885 116.839 129.299C116.597 129.712 116.264 130.066 115.866 130.333C115.808 130.372 115.837 130.481 115.913 130.458C118.213 129.592 117.964 126.347 117.156 124.277C117.113 124.162 117.07 124.047 117.017 123.938C116.501 122.738 115.583 121.868 114.475 122.026C110.76 122.561 112.099 129.946 115.54 129.449Z" fill="black"/>
<path d="M124.375 118.933C124.948 120.658 130.168 119.258 131.483 120.367C133.552 122.088 132.979 143.402 131.086 145.118C130.025 146.074 124.107 145.065 122.443 146.237C120.78 147.408 124.375 118.933 124.375 118.933Z" fill="#3DA925"/>
<path opacity="0.1" d="M124.375 118.933C124.948 120.658 130.168 119.258 131.483 120.367C133.552 122.088 132.979 143.402 131.086 145.118C130.025 146.074 124.107 145.065 122.443 146.237C120.78 147.408 124.375 118.933 124.375 118.933Z" fill="black"/>
<path opacity="0.3" d="M131.775 132.207C131.775 137.398 131.34 141.609 130.819 141.609C130.298 141.609 129.863 137.398 129.863 132.207C129.863 127.016 130.293 122.805 130.819 122.805C131.345 122.805 131.775 127.016 131.775 132.207Z" fill="black"/>
<path opacity="0.3" d="M78.384 105.276C78.47 105.247 87.3419 102.365 95.5922 104.621L96.4144 101.615C87.2271 99.1003 77.7722 102.188 77.3945 102.317L78.3792 105.276L77.9012 103.799L78.384 105.276Z" fill="black"/>
<path d="M66.0563 150.534C54.2065 136.915 61.4578 121.103 61.7877 120.419C61.9903 119.959 62.007 119.438 61.8343 118.965C61.6617 118.492 61.313 118.105 60.8612 117.883C60.4094 117.662 59.8895 117.623 59.41 117.776C58.9306 117.929 58.5288 118.261 58.2886 118.703C56.6879 122.291 55.7409 126.135 55.4923 130.056C54.9235 138.717 57.7867 146.672 64.5744 152.087C66.6251 153.722 67.5954 152.288 66.0563 150.534Z" fill="white"/>
<path d="M60.9102 114.377C60.9092 114.797 61.0329 115.208 61.2655 115.558C61.4981 115.907 61.8293 116.18 62.217 116.342C62.6047 116.503 63.0316 116.546 63.4436 116.464C63.8556 116.383 64.2342 116.181 64.5315 115.885C64.8288 115.588 65.0314 115.21 65.1137 114.798C65.196 114.386 65.1543 113.959 64.9938 113.571C64.8333 113.183 64.5612 112.851 64.2121 112.618C63.863 112.384 63.4525 112.26 63.0325 112.26C62.4704 112.26 61.9313 112.483 61.5335 112.88C61.1356 113.277 60.9114 113.815 60.9102 114.377Z" fill="white"/>
<path d="M166.2 164.477H151.215V167.79H166.2V164.477Z" fill="#FFC727"/>
<g opacity="0.1">
<path d="M151.823 164.779C152.14 165.634 152.14 166.575 151.823 167.431C151.507 166.575 151.507 165.634 151.823 164.779Z" fill="black"/>
<path d="M152.937 164.779C153.253 165.634 153.253 166.575 152.937 167.431C152.62 166.575 152.62 165.634 152.937 164.779Z" fill="black"/>
<path d="M153.484 164.779C153.8 165.634 153.8 166.575 153.484 167.431C153.167 166.575 153.167 165.634 153.484 164.779Z" fill="black"/>
<path d="M156.48 164.779C156.792 165.635 156.792 166.575 156.48 167.431C156.163 166.575 156.163 165.634 156.48 164.779Z" fill="black"/>
<path d="M157.283 164.779C157.448 165.202 157.529 165.653 157.522 166.107C157.531 166.56 157.449 167.01 157.283 167.431C157.114 167.011 157.033 166.56 157.044 166.107C157.037 165.653 157.118 165.202 157.283 164.779Z" fill="black"/>
<path d="M160.636 164.779C160.952 165.634 160.952 166.575 160.636 167.431C160.319 166.575 160.319 165.634 160.636 164.779Z" fill="black"/>
<path d="M161.405 164.779C161.722 165.634 161.722 166.575 161.405 167.431C161.089 166.575 161.089 165.634 161.405 164.779Z" fill="black"/>
<path d="M162.828 164.779C163.145 165.634 163.145 166.575 162.828 167.431C162.516 166.575 162.516 165.635 162.828 164.779Z" fill="black"/>
<path d="M159.987 164.779C160.152 165.203 160.232 165.656 160.221 166.112C160.232 166.565 160.15 167.016 159.982 167.436C159.815 167.015 159.734 166.565 159.743 166.112C159.737 165.656 159.82 165.203 159.987 164.779Z" fill="black"/>
<path d="M154.487 164.779C154.804 165.634 154.804 166.575 154.487 167.431C154.171 166.575 154.171 165.634 154.487 164.779Z" fill="black"/>
<path d="M158.353 164.779C158.67 165.634 158.67 166.575 158.353 167.431C158.185 167.011 158.103 166.56 158.114 166.107C158.105 165.653 158.186 165.201 158.353 164.779Z" fill="black"/>
<path d="M158.913 164.779C159.23 165.634 159.23 166.575 158.913 167.431C158.597 166.575 158.597 165.634 158.913 164.779Z" fill="black"/>
<path d="M164.677 164.779C164.842 165.202 164.923 165.653 164.916 166.107C164.925 166.56 164.844 167.01 164.677 167.431C164.509 167.011 164.428 166.56 164.438 166.107C164.429 165.653 164.511 165.201 164.677 164.779Z" fill="black"/>
<path d="M165.517 164.779C165.682 165.202 165.763 165.653 165.756 166.107C165.767 166.56 165.685 167.011 165.517 167.431C165.35 167.01 165.269 166.56 165.278 166.107C165.271 165.653 165.352 165.202 165.517 164.779Z" fill="black"/>
<path d="M163.487 164.779C163.804 165.634 163.804 166.575 163.487 167.431C163.171 166.575 163.171 165.634 163.487 164.779Z" fill="black"/>
<path d="M155.823 164.779C155.99 165.201 156.071 165.653 156.062 166.107C156.073 166.56 155.992 167.011 155.823 167.431C155.507 166.575 155.507 165.634 155.823 164.779Z" fill="black"/>
</g>
<path opacity="0.1" d="M166.193 164.477V165.18L151.203 165.653V164.477H166.193Z" fill="black"/>
<path d="M164.946 161.165H149.961V164.477H164.946V161.165Z" fill="#FFC727"/>
<g opacity="0.1">
<path d="M164.27 164.119C163.952 163.265 163.952 162.325 164.27 161.471C164.589 162.325 164.589 163.265 164.27 164.119Z" fill="black"/>
<path d="M163.158 164.119C162.991 163.698 162.91 163.248 162.919 162.795C162.907 162.342 162.989 161.891 163.158 161.471C163.325 161.892 163.407 162.342 163.397 162.795C163.404 163.247 163.323 163.697 163.158 164.119Z" fill="black"/>
<path d="M162.614 164.119C162.295 163.265 162.295 162.325 162.614 161.471C162.933 162.325 162.933 163.265 162.614 164.119Z" fill="black"/>
<path d="M159.618 164.119C159.299 163.265 159.299 162.325 159.618 161.471C159.937 162.325 159.937 163.265 159.618 164.119Z" fill="black"/>
<path d="M158.794 164.119C158.63 163.697 158.549 163.247 158.555 162.795C158.546 162.342 158.627 161.892 158.794 161.471C158.964 161.891 159.045 162.342 159.033 162.795C159.043 163.248 158.961 163.698 158.794 164.119Z" fill="black"/>
<path d="M155.446 164.119C155.127 163.265 155.127 162.325 155.446 161.471C155.765 162.325 155.765 163.265 155.446 164.119Z" fill="black"/>
<path d="M154.685 164.119C154.519 163.698 154.437 163.248 154.446 162.795C154.435 162.342 154.516 161.891 154.685 161.471C155.004 162.325 155.004 163.265 154.685 164.119Z" fill="black"/>
<path d="M153.27 164.119C152.952 163.265 152.952 162.325 153.27 161.471C153.589 162.325 153.589 163.265 153.27 164.119Z" fill="black"/>
<path d="M156.103 164.119C155.939 163.697 155.858 163.247 155.864 162.795C155.853 162.342 155.934 161.891 156.103 161.471C156.271 161.892 156.352 162.342 156.342 162.795C156.349 163.247 156.268 163.697 156.103 164.119Z" fill="black"/>
<path d="M161.623 164.119C161.456 163.698 161.375 163.248 161.384 162.795C161.372 162.342 161.453 161.891 161.623 161.471C161.942 162.325 161.942 163.265 161.623 164.119Z" fill="black"/>
<path d="M157.739 164.119C157.42 163.265 157.42 162.325 157.739 161.471C158.058 162.325 158.058 163.265 157.739 164.119Z" fill="black"/>
<path d="M157.184 164.119C156.866 163.265 156.866 162.325 157.184 161.471C157.497 162.326 157.497 163.264 157.184 164.119Z" fill="black"/>
<path d="M151.415 164.119C151.096 163.265 151.096 162.325 151.415 161.471C151.584 161.891 151.666 162.342 151.654 162.795C151.663 163.248 151.582 163.698 151.415 164.119Z" fill="black"/>
<path d="M150.576 164.119C150.411 163.697 150.33 163.247 150.337 162.795C150.327 162.342 150.408 161.892 150.576 161.471C150.745 161.891 150.827 162.342 150.815 162.795C150.824 163.248 150.743 163.698 150.576 164.119Z" fill="black"/>
<path d="M152.606 164.119C152.287 163.265 152.287 162.325 152.606 161.471C152.925 162.325 152.925 163.265 152.606 164.119Z" fill="black"/>
<path d="M160.264 164.119C160.097 163.698 160.015 163.248 160.025 162.795C160.013 162.342 160.094 161.891 160.264 161.471C160.431 161.892 160.512 162.342 160.503 162.795C160.509 163.247 160.428 163.697 160.264 164.119Z" fill="black"/>
</g>
<path opacity="0.1" d="M164.946 161.165V161.867L149.961 162.341V161.165H164.946Z" fill="black"/>
<path d="M166.095 157.881H151.109V161.193H166.095V157.881Z" fill="#FFC727"/>
<g opacity="0.1">
<path d="M151.734 158.182C152.05 159.038 152.05 159.979 151.734 160.835C151.417 159.979 151.417 159.038 151.734 158.182Z" fill="black"/>
<path d="M152.847 158.182C153.014 158.605 153.095 159.057 153.086 159.511C153.097 159.964 153.015 160.414 152.847 160.835C152.53 159.979 152.53 159.038 152.847 158.182Z" fill="black"/>
<path d="M153.394 158.182C153.71 159.038 153.71 159.979 153.394 160.835C153.077 159.979 153.077 159.038 153.394 158.182Z" fill="black"/>
<path d="M156.405 158.182C156.722 159.038 156.722 159.979 156.405 160.835C156.089 159.979 156.089 159.038 156.405 158.182Z" fill="black"/>
<path d="M157.193 158.182C157.358 158.605 157.439 159.057 157.432 159.511C157.441 159.964 157.36 160.414 157.193 160.835C157.025 160.414 156.943 159.964 156.954 159.511C156.945 159.057 157.026 158.605 157.193 158.182Z" fill="black"/>
<path d="M160.546 158.182C160.863 159.038 160.863 159.979 160.546 160.835C160.229 159.979 160.229 159.038 160.546 158.182Z" fill="black"/>
<path d="M161.316 158.182C161.632 159.038 161.632 159.979 161.316 160.835C160.999 159.979 160.999 159.038 161.316 158.182Z" fill="black"/>
<path d="M162.737 158.182C163.054 159.038 163.054 159.979 162.737 160.835C162.421 159.979 162.421 159.038 162.737 158.182Z" fill="black"/>
<path d="M159.9 158.182C160.064 158.605 160.146 159.057 160.139 159.511C160.15 159.964 160.068 160.414 159.9 160.835C159.733 160.414 159.652 159.964 159.661 159.511C159.654 159.057 159.735 158.605 159.9 158.182Z" fill="black"/>
<path d="M154.382 158.182C154.699 159.038 154.699 159.979 154.382 160.835C154.065 159.979 154.065 159.038 154.382 158.182Z" fill="black"/>
<path d="M158.261 158.182C158.577 159.038 158.577 159.979 158.261 160.835C157.944 159.979 157.944 159.038 158.261 158.182Z" fill="black"/>
<path d="M158.823 158.182C159.136 159.039 159.136 159.978 158.823 160.835C158.507 159.979 158.507 159.038 158.823 158.182Z" fill="black"/>
<path d="M164.588 158.182C164.904 159.038 164.904 159.979 164.588 160.835C164.419 160.414 164.338 159.964 164.349 159.511C164.34 159.057 164.421 158.605 164.588 158.182Z" fill="black"/>
<path d="M165.427 158.182C165.592 158.605 165.673 159.057 165.666 159.511C165.675 159.964 165.594 160.414 165.427 160.835C165.259 160.414 165.178 159.964 165.188 159.511C165.182 159.057 165.263 158.605 165.427 158.182Z" fill="black"/>
<path d="M163.398 158.182C163.714 159.038 163.714 159.979 163.398 160.835C163.081 159.979 163.081 159.038 163.398 158.182Z" fill="black"/>
<path d="M155.736 158.182C155.903 158.605 155.984 159.057 155.975 159.511C155.986 159.964 155.904 160.414 155.736 160.835C155.569 160.414 155.488 159.964 155.497 159.511C155.49 159.057 155.571 158.605 155.736 158.182Z" fill="black"/>
</g>
<path opacity="0.1" d="M166.1 157.881V158.584L151.109 159.057V157.881H166.1Z" fill="black"/>
<path d="M56.5949 162.484H41.6094V165.797H56.5949V162.484Z" fill="#FFC727"/>
<g opacity="0.1">
<path d="M42.2257 162.766C42.5423 163.622 42.5423 164.563 42.2257 165.419C41.9091 164.563 41.9091 163.622 42.2257 162.766Z" fill="black"/>
<path d="M43.3416 162.766C43.5059 163.188 43.587 163.637 43.5806 164.09C43.5897 164.544 43.5085 164.996 43.3416 165.419C43.1725 164.997 43.0912 164.545 43.1026 164.09C43.0939 163.637 43.1751 163.187 43.3416 162.766Z" fill="black"/>
<path d="M43.8881 162.766C44.0524 163.188 44.1335 163.637 44.1271 164.09C44.1386 164.545 44.0573 164.997 43.8881 165.419C43.7213 164.996 43.64 164.544 43.6491 164.09C43.6427 163.637 43.7239 163.188 43.8881 162.766Z" fill="black"/>
<path d="M46.882 162.766C47.1985 163.622 47.1985 164.563 46.882 165.419C46.5654 164.563 46.5654 163.622 46.882 162.766Z" fill="black"/>
<path d="M47.6945 162.766C48.011 163.622 48.011 164.563 47.6945 165.419C47.3779 164.563 47.3779 163.622 47.6945 162.766Z" fill="black"/>
<path d="M51.0421 162.766C51.2086 163.187 51.2898 163.637 51.2811 164.09C51.2926 164.545 51.2113 164.997 51.0421 165.419C50.7255 164.563 50.7255 163.622 51.0421 162.766Z" fill="black"/>
<path d="M51.8178 162.766C51.982 163.188 52.0632 163.637 52.0568 164.09C52.0683 164.545 51.987 164.997 51.8178 165.419C51.6509 164.996 51.5697 164.544 51.5788 164.09C51.5724 163.637 51.6536 163.188 51.8178 162.766Z" fill="black"/>
<path d="M53.2335 162.766C53.4 163.187 53.4813 163.637 53.4725 164.09C53.484 164.545 53.4027 164.997 53.2335 165.419C52.917 164.563 52.917 163.622 53.2335 162.766Z" fill="black"/>
<path d="M50.3963 162.766C50.7129 163.622 50.7129 164.563 50.3963 165.419C50.2272 164.997 50.1459 164.545 50.1573 164.09C50.1486 163.637 50.2298 163.187 50.3963 162.766Z" fill="black"/>
<path d="M44.8768 162.766C45.041 163.188 45.1222 163.637 45.1158 164.09C45.1249 164.544 45.0437 164.996 44.8768 165.419C44.7076 164.997 44.6263 164.545 44.6378 164.09C44.6314 163.637 44.7126 163.188 44.8768 162.766Z" fill="black"/>
<path d="M48.7609 162.766C49.0774 163.622 49.0774 164.563 48.7609 165.419C48.4443 164.563 48.4443 163.622 48.7609 162.766Z" fill="black"/>
<path d="M49.3312 162.766C49.6478 163.622 49.6478 164.563 49.3312 165.419C49.0146 164.563 49.0146 163.622 49.3312 162.766Z" fill="black"/>
<path d="M55.089 162.766C55.4056 163.622 55.4056 164.563 55.089 165.419C54.7724 164.563 54.7724 163.622 55.089 162.766Z" fill="black"/>
<path d="M55.9288 162.766C56.2454 163.622 56.2454 164.563 55.9288 165.419C55.6123 164.563 55.6123 163.622 55.9288 162.766Z" fill="black"/>
<path d="M53.8937 162.766C54.0602 163.187 54.1414 163.637 54.1327 164.09C54.1441 164.545 54.0628 164.997 53.8937 165.419C53.5771 164.563 53.5771 163.622 53.8937 162.766Z" fill="black"/>
<path d="M46.2401 162.766C46.4043 163.188 46.4854 163.637 46.4791 164.09C46.4882 164.544 46.4069 164.996 46.2401 165.419C46.0709 164.997 45.9896 164.545 46.0011 164.09C45.9923 163.637 46.0736 163.187 46.2401 162.766Z" fill="black"/>
</g>
<path opacity="0.1" d="M56.5997 162.484V163.187L41.6094 163.66V162.484H56.5997Z" fill="black"/>
<path d="M55.5714 159.172H40.5859V162.484H55.5714V159.172Z" fill="#FFC727"/>
<g opacity="0.1">
<path d="M41.2048 159.473C41.3694 159.896 41.4506 160.347 41.4438 160.801C41.4546 161.254 41.3733 161.705 41.2048 162.125C41.0363 161.705 40.955 161.254 40.9658 160.801C40.959 160.347 41.0402 159.896 41.2048 159.473Z" fill="black"/>
<path d="M42.3163 159.473C42.6329 160.329 42.6329 161.269 42.3163 162.125C42.0039 161.269 42.0039 160.329 42.3163 159.473Z" fill="black"/>
<path d="M42.8702 159.473C43.1868 160.329 43.1868 161.269 42.8702 162.125C42.5537 161.269 42.5537 160.329 42.8702 159.473Z" fill="black"/>
<path d="M45.861 159.473C46.1776 160.329 46.1776 161.269 45.861 162.125C45.6926 161.705 45.6112 161.254 45.622 160.801C45.6129 160.347 45.6942 159.895 45.861 159.473Z" fill="black"/>
<path d="M46.671 159.473C46.9876 160.329 46.9876 161.269 46.671 162.125C46.3545 161.269 46.3545 160.329 46.671 159.473Z" fill="black"/>
<path d="M50.0187 159.473C50.3353 160.329 50.3353 161.269 50.0187 162.125C49.7021 161.269 49.7021 160.329 50.0187 159.473Z" fill="black"/>
<path d="M50.796 159.473C51.1126 160.329 51.1126 161.269 50.796 162.125C50.4795 161.269 50.4795 160.329 50.796 159.473Z" fill="black"/>
<path d="M52.1984 159.473C52.5149 160.329 52.5149 161.269 52.1984 162.125C51.8818 161.269 51.8818 160.329 52.1984 159.473Z" fill="black"/>
<path d="M49.3702 159.473C49.6868 160.329 49.6868 161.269 49.3702 162.125C49.0537 161.269 49.0537 160.329 49.3702 159.473Z" fill="black"/>
<path d="M43.8546 159.473C44.1712 160.329 44.1712 161.269 43.8546 162.125C43.538 161.269 43.538 160.329 43.8546 159.473Z" fill="black"/>
<path d="M47.7318 159.473C47.8987 159.895 47.9799 160.347 47.9708 160.801C47.9816 161.254 47.9003 161.705 47.7318 162.125C47.5653 161.704 47.4841 161.254 47.4928 160.801C47.4861 160.347 47.5672 159.896 47.7318 159.473Z" fill="black"/>
<path d="M48.2946 159.473C48.6112 160.329 48.6112 161.269 48.2946 162.125C48.1261 161.705 48.0448 161.254 48.0556 160.801C48.0465 160.347 48.1278 159.895 48.2946 159.473Z" fill="black"/>
<path d="M54.0656 159.473C54.2324 159.895 54.3137 160.347 54.3046 160.801C54.3154 161.254 54.2341 161.705 54.0656 162.125C53.749 161.269 53.749 160.329 54.0656 159.473Z" fill="black"/>
<path d="M54.8976 159.473C55.2142 160.329 55.2142 161.269 54.8976 162.125C54.581 161.269 54.581 160.329 54.8976 159.473Z" fill="black"/>
<path d="M52.8702 159.473C53.1868 160.329 53.1868 161.269 52.8702 162.125C52.5537 161.269 52.5537 160.329 52.8702 159.473Z" fill="black"/>
<path d="M45.214 159.473C45.5306 160.329 45.5306 161.269 45.214 162.125C44.8974 161.269 44.8974 160.329 45.214 159.473Z" fill="black"/>
</g>
<path opacity="0.1" d="M55.5714 159.172V159.874L40.5859 160.347V159.172H55.5714Z" fill="black"/>
<path d="M57.8839 152.575H42.8984V155.888H57.8839V152.575Z" fill="#FFC727"/>
<g opacity="0.1">
<path d="M43.5148 152.876C43.8313 153.732 43.8313 154.673 43.5148 155.529C43.1982 154.673 43.1982 153.732 43.5148 152.876Z" fill="black"/>
<path d="M44.6306 152.876C44.7952 153.299 44.8763 153.751 44.8696 154.205C44.8783 154.658 44.7971 155.108 44.6306 155.529C44.4621 155.108 44.3808 154.658 44.3916 154.205C44.3825 153.751 44.4637 153.299 44.6306 152.876Z" fill="black"/>
<path d="M45.1775 152.876C45.3421 153.299 45.4232 153.751 45.4165 154.205C45.4252 154.658 45.3439 155.108 45.1775 155.529C45.009 155.108 44.9276 154.658 44.9385 154.205C44.9317 153.751 45.0129 153.299 45.1775 152.876Z" fill="black"/>
<path d="M48.171 152.876C48.3379 153.299 48.4191 153.751 48.41 154.205C48.4208 154.658 48.3395 155.108 48.171 155.529C47.8545 154.673 47.8545 153.732 48.171 152.876Z" fill="black"/>
<path d="M48.9835 152.876C49.3001 153.732 49.3001 154.673 48.9835 155.529C48.667 154.673 48.667 153.732 48.9835 152.876Z" fill="black"/>
<path d="M52.3295 152.876C52.4964 153.299 52.5776 153.751 52.5685 154.205C52.5793 154.658 52.498 155.108 52.3295 155.529C52.163 155.108 52.0818 154.658 52.0905 154.205C52.0837 153.751 52.1649 153.299 52.3295 152.876Z" fill="black"/>
<path d="M53.1071 152.876C53.2717 153.299 53.3529 153.751 53.3461 154.205C53.3549 154.658 53.2736 155.108 53.1071 155.529C52.9386 155.108 52.8573 154.658 52.8681 154.205C52.8614 153.751 52.9425 153.299 53.1071 152.876Z" fill="black"/>
<path d="M54.5226 152.876C54.6895 153.299 54.7707 153.751 54.7616 154.205C54.7724 154.658 54.6911 155.108 54.5226 155.529C54.206 154.673 54.206 153.732 54.5226 152.876Z" fill="black"/>
<path d="M51.6827 152.876C51.9993 153.732 51.9993 154.673 51.6827 155.529C51.3662 154.673 51.3662 153.732 51.6827 152.876Z" fill="black"/>
<path d="M46.1657 152.876C46.3303 153.299 46.4115 153.751 46.4047 154.205C46.4135 154.658 46.3322 155.108 46.1657 155.529C45.9972 155.108 45.9159 154.658 45.9267 154.205C45.92 153.751 46.0011 153.299 46.1657 152.876Z" fill="black"/>
<path d="M50.0468 152.876C50.3634 153.732 50.3634 154.673 50.0468 155.529C49.7344 154.672 49.7344 153.733 50.0468 152.876Z" fill="black"/>
<path d="M50.6046 152.876C50.9212 153.732 50.9212 154.673 50.6046 155.529C50.288 154.673 50.288 153.732 50.6046 152.876Z" fill="black"/>
<path d="M56.3781 152.876C56.6946 153.732 56.6946 154.673 56.3781 155.529C56.0615 154.673 56.0615 153.732 56.3781 152.876Z" fill="black"/>
<path d="M57.2179 152.876C57.5345 153.732 57.5345 154.673 57.2179 155.529C56.9013 154.673 56.9013 153.732 57.2179 152.876Z" fill="black"/>
<path d="M55.185 152.876C55.3518 153.299 55.4331 153.751 55.424 154.205C55.4348 154.658 55.3534 155.108 55.185 155.529C55.0185 155.108 54.9372 154.658 54.9459 154.205C54.9392 153.751 55.0204 153.299 55.185 152.876Z" fill="black"/>
<path d="M47.529 152.876C47.6936 153.299 47.7748 153.751 47.768 154.205C47.7767 154.658 47.6955 155.108 47.529 155.529C47.3605 155.108 47.2792 154.658 47.29 154.205C47.2809 153.751 47.3621 153.299 47.529 152.876Z" fill="black"/>
</g>
<path opacity="0.1" d="M57.8839 152.575V153.278L42.8984 153.751V152.575H57.8839Z" fill="black"/>
<path d="M57.5089 149.262H42.5234V152.575H57.5089V149.262Z" fill="#FFC727"/>
<g opacity="0.1">
<path d="M56.8407 152.216C56.5219 151.363 56.5219 150.422 56.8407 149.568C57.1531 150.423 57.1531 151.361 56.8407 152.216Z" fill="black"/>
<path d="M55.7163 152.216C55.5517 151.795 55.4706 151.345 55.4773 150.892C55.4678 150.439 55.5491 149.989 55.7163 149.568C55.8858 149.989 55.9672 150.439 55.9553 150.892C55.9621 151.345 55.8809 151.795 55.7163 152.216Z" fill="black"/>
<path d="M55.1737 152.216C55.0069 151.795 54.9256 151.345 54.9347 150.892C54.9228 150.439 55.0042 149.989 55.1737 149.568C55.341 149.989 55.4222 150.439 55.4127 150.892C55.4195 151.345 55.3383 151.795 55.1737 152.216Z" fill="black"/>
<path d="M52.1922 152.216C51.8734 151.363 51.8734 150.422 52.1922 149.568C52.511 150.422 52.511 151.363 52.1922 152.216Z" fill="black"/>
<path d="M51.368 152.216C51.0492 151.363 51.0492 150.422 51.368 149.568C51.6868 150.422 51.6868 151.363 51.368 152.216Z" fill="black"/>
<path d="M48.0214 152.216C47.8545 151.795 47.7733 151.345 47.7824 150.892C47.7705 150.439 47.8519 149.989 48.0214 149.568C48.3402 150.422 48.3402 151.363 48.0214 152.216Z" fill="black"/>
<path d="M47.248 152.216C47.0811 151.795 46.9998 151.345 47.009 150.892C46.9971 150.439 47.0784 149.989 47.248 149.568C47.4152 149.989 47.4965 150.439 47.487 150.892C47.4937 151.345 47.4125 151.795 47.248 152.216Z" fill="black"/>
<path d="M45.8289 152.216C45.5101 151.363 45.5101 150.422 45.8289 149.568C46.1477 150.422 46.1477 151.363 45.8289 152.216Z" fill="black"/>
<path d="M48.6655 152.216C48.501 151.795 48.4198 151.345 48.4265 150.892C48.417 150.439 48.4983 149.989 48.6655 149.568C48.8351 149.989 48.9164 150.439 48.9045 150.892C48.9136 151.345 48.8324 151.795 48.6655 152.216Z" fill="black"/>
<path d="M54.1855 152.216C54.0209 151.795 53.9397 151.345 53.9465 150.892C53.9346 150.439 54.0159 149.989 54.1855 149.568C54.3527 149.989 54.434 150.439 54.4245 150.892C54.4312 151.345 54.35 151.795 54.1855 152.216Z" fill="black"/>
<path d="M50.286 152.216C49.9672 151.363 49.9672 150.422 50.286 149.568C50.6048 150.422 50.6048 151.363 50.286 152.216Z" fill="black"/>
<path d="M49.7469 152.216C49.4281 151.363 49.4281 150.422 49.7469 149.568C50.0657 150.422 50.0657 151.363 49.7469 152.216Z" fill="black"/>
<path d="M43.9774 152.216C43.6586 151.363 43.6586 150.422 43.9774 149.568C44.2962 150.422 44.2962 151.363 43.9774 152.216Z" fill="black"/>
<path d="M43.1375 152.216C42.8187 151.363 42.8187 150.422 43.1375 149.568C43.4563 150.422 43.4563 151.363 43.1375 152.216Z" fill="black"/>
<path d="M45.1688 152.216C44.85 151.363 44.85 150.422 45.1688 149.568C45.4876 150.422 45.4876 151.363 45.1688 152.216Z" fill="black"/>
<path d="M52.8257 152.216C52.6611 151.795 52.5799 151.345 52.5867 150.892C52.5772 150.439 52.6585 149.989 52.8257 149.568C52.9952 149.989 53.0766 150.439 53.0647 150.892C53.0714 151.345 52.9903 151.795 52.8257 152.216Z" fill="black"/>
</g>
<path opacity="0.1" d="M57.5089 149.262V149.965L42.5234 150.438V149.262H57.5089Z" fill="black"/>
<path d="M56.5949 145.95H41.6094V149.262H56.5949V145.95Z" fill="#FFC727"/>
<g opacity="0.1">
<path d="M42.2265 146.256C42.5453 147.11 42.5453 148.05 42.2265 148.904C41.9141 148.049 41.9141 147.111 42.2265 146.256Z" fill="black"/>
<path d="M43.3454 146.256C43.51 146.677 43.5912 147.127 43.5844 147.58C43.5935 148.033 43.5123 148.483 43.3454 148.904C43.1769 148.483 43.0956 148.033 43.1064 147.58C43.0997 147.127 43.1808 146.677 43.3454 146.256Z" fill="black"/>
<path d="M43.892 146.256C44.0589 146.677 44.1401 147.127 44.131 147.58C44.1418 148.033 44.0605 148.483 43.892 148.904C43.7252 148.483 43.6439 148.033 43.653 147.58C43.6463 147.127 43.7275 146.677 43.892 146.256Z" fill="black"/>
<path d="M46.8836 146.256C47.2024 147.11 47.2024 148.05 46.8836 148.904C46.5648 148.05 46.5648 147.11 46.8836 146.256Z" fill="black"/>
<path d="M47.6961 146.256C48.0149 147.11 48.0149 148.05 47.6961 148.904C47.3773 148.05 47.3773 147.11 47.6961 146.256Z" fill="black"/>
<path d="M51.0438 146.256C51.3626 147.11 51.3626 148.05 51.0438 148.904C50.725 148.05 50.725 147.11 51.0438 146.256Z" fill="black"/>
<path d="M51.8139 146.256C51.9808 146.677 52.062 147.127 52.0529 147.58C52.0637 148.033 51.9824 148.483 51.8139 148.904C51.6471 148.483 51.5658 148.033 51.5749 147.58C51.5682 147.127 51.6493 146.677 51.8139 146.256Z" fill="black"/>
<path d="M53.2352 146.256C53.554 147.11 53.554 148.05 53.2352 148.904C52.9164 148.05 52.9164 147.11 53.2352 146.256Z" fill="black"/>
<path d="M50.3962 146.256C50.5608 146.677 50.6419 147.127 50.6352 147.58C50.6443 148.033 50.5631 148.483 50.3962 148.904C50.2277 148.483 50.1464 148.033 50.1572 147.58C50.1481 147.127 50.2293 146.677 50.3962 146.256Z" fill="black"/>
<path d="M44.8803 146.256C45.0449 146.677 45.1261 147.127 45.1193 147.58C45.1301 148.033 45.0488 148.483 44.8803 148.904C44.7135 148.483 44.6322 148.033 44.6413 147.58C44.6346 147.127 44.7157 146.677 44.8803 146.256Z" fill="black"/>
<path d="M48.7586 146.256C49.0774 147.11 49.0774 148.05 48.7586 148.904C48.4398 148.05 48.4398 147.11 48.7586 146.256Z" fill="black"/>
<path d="M49.3328 146.256C49.6516 147.11 49.6516 148.05 49.3328 148.904C49.0141 148.05 49.0141 147.11 49.3328 146.256Z" fill="black"/>
<path d="M55.0907 146.256C55.4095 147.11 55.4095 148.05 55.0907 148.904C54.7719 148.05 54.7719 147.11 55.0907 146.256Z" fill="black"/>
<path d="M55.9266 146.256C56.2454 147.11 56.2454 148.05 55.9266 148.904C55.6078 148.05 55.6078 147.11 55.9266 146.256Z" fill="black"/>
<path d="M53.8953 146.256C54.2141 147.11 54.2141 148.05 53.8953 148.904C53.5766 148.05 53.5766 147.11 53.8953 146.256Z" fill="black"/>
<path d="M46.2321 146.256C46.3967 146.677 46.4779 147.127 46.4711 147.58C46.4803 148.033 46.399 148.483 46.2321 148.904C46.0636 148.483 45.9823 148.033 45.9931 147.58C45.9864 147.127 46.0676 146.677 46.2321 146.256Z" fill="black"/>
</g>
<path opacity="0.1" d="M56.5997 145.95V146.657L41.6094 147.131V145.95H56.5997Z" fill="black"/>
<path d="M56.5949 155.887H41.6094V159.2H56.5949V155.887Z" fill="#FFC727"/>
<g opacity="0.1">
<path d="M55.9288 158.842C55.6123 157.986 55.6123 157.045 55.9288 156.189C56.2454 157.045 56.2454 157.986 55.9288 158.842Z" fill="black"/>
<path d="M54.8077 158.842C54.4912 157.986 54.4912 157.045 54.8077 156.189C55.1243 157.045 55.1243 157.986 54.8077 158.842Z" fill="black"/>
<path d="M54.2609 158.842C53.9443 157.986 53.9443 157.045 54.2609 156.189C54.4294 156.609 54.5107 157.06 54.4999 157.513C54.509 157.967 54.4277 158.419 54.2609 158.842Z" fill="black"/>
<path d="M51.2673 158.842C51.1027 158.418 51.0215 157.967 51.0283 157.513C51.0175 157.06 51.0988 156.609 51.2673 156.189C51.4338 156.61 51.515 157.06 51.5063 157.513C51.5131 157.967 51.4319 158.418 51.2673 158.842Z" fill="black"/>
<path d="M50.464 158.842C50.1474 157.986 50.1474 157.045 50.464 156.189C50.7764 157.045 50.7764 157.985 50.464 158.842Z" fill="black"/>
<path d="M47.1107 158.842C46.9461 158.418 46.865 157.967 46.8717 157.513C46.863 157.06 46.9442 156.61 47.1107 156.189C47.2792 156.609 47.3605 157.06 47.3497 157.513C47.3565 157.967 47.2753 158.418 47.1107 158.842Z" fill="black"/>
<path d="M46.3351 158.842C46.0185 157.986 46.0185 157.045 46.3351 156.189C46.5036 156.609 46.5849 157.06 46.5741 157.513C46.5832 157.967 46.502 158.419 46.3351 158.842Z" fill="black"/>
<path d="M44.9196 158.842C44.755 158.418 44.6739 157.967 44.6806 157.513C44.6698 157.06 44.7511 156.609 44.9196 156.189C45.0861 156.61 45.1674 157.06 45.1586 157.513C45.1654 157.967 45.0842 158.418 44.9196 158.842Z" fill="black"/>
<path d="M47.7531 158.842C47.4365 157.986 47.4365 157.045 47.7531 156.189C48.0696 157.045 48.0696 157.986 47.7531 158.842Z" fill="black"/>
<path d="M53.2726 158.842C52.956 157.986 52.956 157.045 53.2726 156.189C53.4411 156.609 53.5224 157.06 53.5116 157.513C53.5207 157.967 53.4395 158.419 53.2726 158.842Z" fill="black"/>
<path d="M49.3937 158.842C49.0771 157.986 49.0771 157.045 49.3937 156.189C49.7103 157.045 49.7103 157.986 49.3937 158.842Z" fill="black"/>
<path d="M48.8532 158.842C48.6864 158.419 48.6051 157.967 48.6142 157.513C48.6034 157.06 48.6847 156.609 48.8532 156.189C49.0197 156.61 49.101 157.06 49.0922 157.513C49.099 157.967 49.0178 158.418 48.8532 158.842Z" fill="black"/>
<path d="M43.0695 158.842C42.7529 157.986 42.7529 157.045 43.0695 156.189C43.386 157.045 43.386 157.986 43.0695 158.842Z" fill="black"/>
<path d="M42.2257 158.842C41.9091 157.986 41.9091 157.045 42.2257 156.189C42.5423 157.045 42.5423 157.986 42.2257 158.842Z" fill="black"/>
<path d="M44.2556 158.842C44.091 158.418 44.0098 157.967 44.0166 157.513C44.0058 157.06 44.0871 156.609 44.2556 156.189C44.4241 156.609 44.5054 157.06 44.4946 157.513C44.5013 157.967 44.4202 158.418 44.2556 158.842Z" fill="black"/>
<path d="M51.9132 158.842C51.5966 157.986 51.5966 157.045 51.9132 156.189C52.2298 157.045 52.2298 157.986 51.9132 158.842Z" fill="black"/>
</g>
<path opacity="0.1" d="M56.5997 155.887V156.59L41.6094 157.063V155.887H56.5997Z" fill="black"/>
<path d="M40.3649 154.238C50.2309 156.012 47.621 170.624 37.7406 168.851C27.8602 167.078 30.4797 152.465 40.3649 154.238Z" fill="#FFC727"/>
<path opacity="0.1" d="M40.3649 154.238C50.2309 156.012 47.621 170.624 37.7406 168.851C27.8602 167.078 30.4797 152.465 40.3649 154.238Z" fill="black"/>
<path d="M39.4339 154.071C48.8363 155.758 46.2312 170.376 36.8097 168.684C27.3882 166.992 30.0172 152.384 39.4339 154.071Z" fill="#FFC727"/>
<path opacity="0.1" d="M32.1602 161.724C32.2127 164.329 33.728 166.848 37.0358 167.46C44.8512 168.861 47.0166 156.729 39.2108 155.328L39.0578 155.304C46.3761 156.772 44.2776 168.249 36.8255 166.91C35.5622 166.732 34.402 166.115 33.5488 165.166C32.6955 164.218 32.2039 162.999 32.1602 161.724Z" fill="black"/>
<g opacity="0.1">
<path d="M38.9357 156.829C38.9982 156.847 39.0514 156.888 39.0843 156.944C39.1172 157 39.1273 157.067 39.1125 157.13L39.0122 157.532C39.6524 157.743 40.2139 158.143 40.623 158.679C40.6581 158.713 40.6842 158.756 40.6992 158.802C40.7142 158.849 40.7176 158.899 40.7091 158.947C40.689 159.014 40.6442 159.07 40.5837 159.105C40.5232 159.139 40.4518 159.15 40.384 159.133C40.3502 159.125 40.3183 159.111 40.2904 159.09C40.2624 159.07 40.239 159.044 40.2215 159.014C39.8826 158.55 39.4159 158.194 38.8783 157.991L38.1804 160.797C39.6144 161.499 40.1211 162.231 39.8773 163.211C39.6097 164.277 38.5294 164.802 37.2674 164.53L37.0714 165.314C37.0675 165.349 37.0561 165.383 37.0379 165.413C37.0198 165.444 36.9953 165.47 36.9662 165.49C36.9371 165.51 36.904 165.524 36.8692 165.531C36.8343 165.537 36.7985 165.536 36.7642 165.527C36.7298 165.519 36.6976 165.503 36.6699 165.481C36.6421 165.459 36.6194 165.431 36.6032 165.4C36.5871 165.368 36.5778 165.333 36.5762 165.298C36.5745 165.263 36.5804 165.227 36.5934 165.194L36.7894 164.401C35.9653 164.13 35.2565 163.589 34.777 162.866C34.7483 162.835 34.7281 162.796 34.7181 162.754C34.708 162.712 34.7086 162.669 34.7197 162.627C34.7377 162.562 34.7799 162.507 34.8378 162.472C34.8956 162.437 34.9645 162.426 35.0304 162.441C35.0642 162.447 35.0963 162.46 35.1244 162.48C35.1525 162.5 35.1759 162.526 35.1929 162.556C35.5929 163.206 36.2035 163.701 36.9233 163.956L37.6355 161.088C36.2015 160.381 35.7235 159.654 35.9816 158.674C36.2397 157.694 37.3057 157.106 38.5389 157.384L38.6345 157.001C38.6534 156.94 38.6951 156.888 38.751 156.856C38.807 156.824 38.873 156.814 38.9357 156.829ZM37.7646 160.586L38.4433 157.847C37.4873 157.627 36.6795 158.048 36.5026 158.77C36.3258 159.492 36.5456 159.951 37.7646 160.586ZM38.0514 161.308L37.3774 164.076C38.3812 164.305 39.1795 163.885 39.3707 163.12C39.5619 162.355 39.2894 161.925 38.0514 161.332V161.308Z" fill="black"/>
</g>
</svg>
