<svg width="10" height="10" viewBox="0 0 10 10" fill="none" xmlns="http://www.w3.org/2000/svg">
<g clip-path="url(#clip0_1243_15507)">
<path d="M5 0C2.23875 0 0 2.23875 0 5C0 7.76125 2.23875 10 5 10C7.76125 10 10 7.76125 10 5C10 2.23875 7.76125 0 5 0ZM5 1.25C6.62719 1.25 8.00156 2.29813 8.52063 3.75H1.47938C1.99844 2.29813 3.37281 1.25 5 1.25ZM5 5.625C4.65469 5.625 4.375 5.34531 4.375 5C4.375 4.65469 4.65469 4.375 5 4.375C5.34531 4.375 5.625 4.65469 5.625 5C5.625 5.34531 5.34531 5.625 5 5.625ZM1.25 5C2.95781 5 4.34094 6.64563 4.37 8.68656C2.6025 8.38375 1.25 6.85187 1.25 5ZM5.63 8.68656C5.65906 6.64563 7.04219 5 8.75 5C8.75 6.85187 7.3975 8.38375 5.63 8.68656Z" fill="#3DA925"/>
</g>
<defs>
<clipPath id="clip0_1243_15507">
<rect width="10" height="10" fill="white"/>
</clipPath>
</defs>
</svg>
