<svg width="83" height="83" viewBox="0 0 83 83" fill="none" xmlns="http://www.w3.org/2000/svg">
<path d="M41.5 0.25C18.7712 0.25 0.25 18.7712 0.25 41.5C0.25 64.2288 18.7712 82.75 41.5 82.75C64.2288 82.75 82.75 64.2288 82.75 41.5C82.75 18.7712 64.2288 0.25 41.5 0.25ZM61.2175 32.0125L37.8287 55.4012C37.2512 55.9787 36.4675 56.3088 35.6425 56.3088C34.8175 56.3088 34.0338 55.9787 33.4562 55.4012L21.7825 43.7275C20.5862 42.5312 20.5862 40.5512 21.7825 39.355C22.9787 38.1587 24.9587 38.1587 26.155 39.355L35.6425 48.8425L56.845 27.64C58.0413 26.4438 60.0213 26.4438 61.2175 27.64C62.4138 28.8363 62.4138 30.775 61.2175 32.0125Z" fill="#3DA925"/>
</svg>
