<svg width="240" height="178" viewBox="0 0 240 178" fill="none" xmlns="http://www.w3.org/2000/svg">
<path d="M148.917 67.6558C150.454 62.5996 148.134 55.7454 135.931 52.3798C117.413 47.2622 104.089 66.4416 102.49 68.8698C104.196 66.0728 120.348 40.7922 139.066 45.8176C153.866 49.8594 153.036 61.278 148.917 67.6558Z" fill="#FF8200"/>
<path d="M148.917 67.6564C147.801 69.5691 146.09 71.0642 144.045 71.9134C137.529 73.9112 122.745 75.156 103.611 69.5005L102.336 69.1163C102.382 69.0311 102.433 68.9489 102.49 68.8704L102.582 68.7168H102.735C122.868 71.6367 136.883 69.4852 142.693 67.4105C143.962 66.7852 145.034 65.8214 145.791 64.6255C146.547 63.4297 146.959 62.0481 146.98 60.6331C147.028 59.8784 146.992 59.1208 146.873 58.374C147.987 59.6126 148.761 61.1188 149.119 62.7457C149.477 64.3725 149.408 66.0645 148.917 67.6564Z" fill="#37474F"/>
<path d="M136.869 40.9574C134.379 35.0867 127.648 29.6003 115.723 33.1964C97.6188 38.6521 101.138 65.2236 101.645 68.5431C100.954 64.8087 95.2214 30.5839 113.433 24.9745C127.848 20.5177 135.455 32.3051 136.869 40.9574Z" fill="#FF8200"/>
<path d="M136.869 41.238C137.429 43.5768 137.18 46.0363 136.162 48.2151C132.551 53.9014 121.947 63.5833 102.967 68.7931L101.707 69.1312C101.701 69.0237 101.701 68.916 101.707 68.8085C101.707 68.8085 101.707 68.6855 101.707 68.6087H101.845C119.611 60.064 128.955 49.9825 131.936 44.6651C133.089 42.575 132.505 38.8252 130.399 35.4442C129.897 34.6676 129.321 33.9419 128.678 33.2773C130.517 33.9706 132.193 35.0352 133.603 36.4048C135.012 37.7744 136.124 39.4197 136.869 41.238Z" fill="#FF8200"/>
<path d="M54.2961 67.6558C52.7593 62.5996 55.0799 55.7454 67.2822 52.3798C85.8008 47.2622 99.125 66.4416 100.723 68.8698C99.0174 66.0728 82.8655 40.7922 64.1471 45.8176C49.363 49.8594 50.1928 61.278 54.2961 67.6558Z" fill="#FF8200"/>
<path d="M54.2962 67.6564C55.4084 69.5721 57.1205 71.0681 59.168 71.9134C65.6841 73.9112 80.4682 75.156 99.6016 69.5005L100.877 69.1163L100.723 68.8704L100.631 68.7168H100.478C80.3452 71.6367 66.3295 69.4852 60.5203 67.4105C59.2509 66.7852 58.1787 65.8214 57.4222 64.6255C56.6656 63.4297 56.254 62.0481 56.2326 60.6331C56.1848 59.8784 56.2208 59.1208 56.3402 58.374C55.2262 59.6126 54.4523 61.1188 54.0941 62.7457C53.7359 64.3725 53.8055 66.0645 54.2962 67.6564Z" fill="#37474F"/>
<path d="M65.1309 41.2381C67.6205 35.3675 74.3518 29.881 86.2774 33.4772C104.381 38.9329 100.862 65.5044 100.355 68.8239C101.046 65.0894 106.779 30.8646 88.5673 25.2553C74.152 20.7985 66.5908 32.5858 65.1309 41.2381Z" fill="#FF8200"/>
<path d="M65.1312 41.238C64.5712 43.5768 64.8205 46.0363 65.8382 48.2151C69.4497 53.9014 80.0383 63.5833 99.0334 68.7931L100.294 69.1312C100.3 69.0237 100.3 68.916 100.294 68.8085C100.287 68.742 100.287 68.6751 100.294 68.6087H100.155C82.3897 60.064 73.0459 49.9825 70.0644 44.6651C68.8965 42.575 69.4804 38.8252 71.6013 35.4442C72.1135 34.671 72.6948 33.9458 73.3379 33.2773C71.4962 33.9688 69.8168 35.0326 68.4048 36.4023C66.9928 37.772 65.8784 39.4182 65.1312 41.238Z" fill="#FF8200"/>
<path d="M140.772 178H50.6223L46.7803 68.3633L144.921 70.3919L140.772 178Z" fill="#3DA925"/>
<path opacity="0.1" d="M140.772 178H50.6223L46.7803 68.3633L144.921 70.3919L140.772 178Z" fill="black"/>
<path d="M173.783 178H140.772L142.14 70.3921L177.825 73.2352L173.783 178Z" fill="#3DA925"/>
<g opacity="0.2">
<path d="M173.782 177.999H140.771L142.139 70.3916L177.824 73.2347L173.782 177.999Z" fill="black"/>
</g>
<path d="M41.4019 68.2555L43.6917 91.9532H142.14V63.4146L41.4019 68.2555Z" fill="#3DA925"/>
<path opacity="0.2" d="M41.4019 68.2555L43.6917 91.9532H142.14V63.4146L41.4019 68.2555Z" fill="black"/>
<path d="M180.914 91.9532H142.141V63.4146L184.664 68.4399L180.914 91.9532Z" fill="#3DA925"/>
<path opacity="0.3" d="M180.914 91.9532H142.141V63.4146L184.664 68.4399L180.914 91.9532Z" fill="black"/>
<path d="M169.482 66.6425L162.228 177.816H153.944L158.539 65.3516L169.482 66.6425Z" fill="#FF8200"/>
<path d="M105.073 65.3203V178H83.2958L80.8369 66.4268L105.073 65.3203Z" fill="#FF8200"/>
<path d="M87.952 125.487C87.8634 127.329 87.2909 129.115 86.2923 130.666C86.2923 130.312 86.1693 129.959 86.0771 129.59C85.9962 129.215 85.8936 128.846 85.7698 128.483C84.8803 125.926 83.5082 123.562 81.7279 121.522C81.5282 121.291 81.3437 121.061 81.1286 120.83L80.9749 120.646L80.6829 120.323C64.3619 99.6528 48.8247 133.155 48.502 133.924C48.502 133.924 47.6107 100.513 65.407 99.576C79.3766 98.869 88.7665 115.159 87.952 125.487Z" fill="#3DA925"/>
<path d="M86.2918 130.665C85.8868 131.249 85.3944 131.768 84.8318 132.202C76.3179 138.718 50.192 134.231 48.563 133.954C73.152 136.321 79.8679 127.377 81.0513 120.661L81.205 120.845C81.4201 121.076 81.6045 121.306 81.8043 121.537C83.5737 123.585 84.9445 125.946 85.8461 128.498C85.9691 128.867 86.0613 129.251 86.1535 129.605C86.2457 129.958 86.2303 130.312 86.2918 130.665Z" fill="#3DA925"/>
<path opacity="0.2" d="M86.2918 130.665C85.8868 131.249 85.3944 131.768 84.8318 132.202C76.3179 138.718 50.192 134.231 48.563 133.954C73.152 136.321 79.8679 127.377 81.0513 120.661L81.205 120.845C81.4201 121.076 81.6045 121.306 81.8043 121.537C83.5737 123.585 84.9445 125.946 85.8461 128.498C85.9691 128.867 86.0613 129.251 86.1535 129.605C86.2457 129.958 86.2303 130.312 86.2918 130.665Z" fill="black"/>
<path d="M8.40627 129.282C8.66651 131.109 9.40921 132.833 10.5578 134.277C10.5708 133.916 10.6067 133.557 10.6653 133.201C10.6653 132.817 10.7883 132.432 10.8651 132.048C11.5092 129.417 12.6517 126.934 14.2308 124.733L14.7533 123.995L14.8916 123.796L15.1529 123.457C29.4299 101.312 48.0868 133.185 48.4864 133.923C48.4864 133.923 46.1965 100.574 28.3695 101.343C14.4152 101.973 6.6543 119.093 8.40627 129.282Z" fill="#3DA925"/>
<path d="M10.5579 134.277C10.9934 134.821 11.5121 135.293 12.0948 135.675C21.1773 141.346 46.7653 134.4 48.3482 133.97H48.425C24.2048 138.657 16.6437 130.404 14.8303 123.827L14.692 124.026L14.1695 124.764C12.5991 126.97 11.4574 129.452 10.8038 132.079C10.727 132.464 10.6501 132.848 10.604 133.232C10.5672 133.579 10.5518 133.928 10.5579 134.277Z" fill="#3DA925"/>
<path opacity="0.2" d="M10.5579 134.277C10.9934 134.821 11.5121 135.293 12.0948 135.675C21.1773 141.346 46.7653 134.4 48.3482 133.97H48.425C24.2048 138.657 16.6437 130.404 14.8303 123.827L14.692 124.026L14.1695 124.764C12.5991 126.97 11.4574 129.452 10.8038 132.079C10.727 132.464 10.6501 132.848 10.604 133.232C10.5672 133.579 10.5518 133.928 10.5579 134.277Z" fill="black"/>
<path d="M96.282 178H1.2915L9.12922 137.889L86.7845 141.208L96.282 178Z" fill="#FF8200"/>
<path d="M118.196 178H88.7043L84.5703 141.208L112.925 143.683L118.196 178Z" fill="#FF8200"/>
<path d="M0 137.889V158.82L84.5709 156.223V132.279L0 137.889Z" fill="#368D22"/>
<path d="M116.382 158.82L84.5703 156.223V132.279L118.196 137.889L116.382 158.82Z" fill="#368D22"/>
<path d="M55.7559 178H35.8848L33.8716 135.645L57.3541 134.093L55.7559 178Z" fill="#3DA925"/>
<path d="M100.877 177.999H107.639L107.039 136.028L97.5879 134.461L100.877 177.999Z" fill="#3DA925"/>
<path d="M165.5 21.4906C165.705 22.7381 166.235 23.9096 167.037 24.887C167.022 24.6362 167.022 24.3847 167.037 24.1339C167.037 23.8727 167.114 23.6114 167.16 23.3348C167.557 21.5157 168.298 19.789 169.342 18.2479L169.696 17.7254L169.788 17.5871C169.853 17.5114 169.91 17.429 169.957 17.3412C179.393 1.85011 192.81 23.4885 193.102 23.9649C193.102 23.9649 191.073 1.05099 178.778 1.94234C169.158 2.55706 164.086 14.4827 165.5 21.4906Z" fill="#FF8200"/>
<path d="M167.082 24.887C167.402 25.2553 167.781 25.567 168.204 25.8091C174.567 29.559 192.056 24.2723 193.147 23.9957C176.549 27.6533 171.201 22.1054 169.833 17.6025L169.741 17.7408L169.388 18.2634C168.349 19.8079 167.609 21.5332 167.205 23.3502C167.205 23.6268 167.113 23.8881 167.082 24.1494C167.068 24.3951 167.068 24.6414 167.082 24.887Z" fill="#263238"/>
<path d="M220.273 17.4793C220.244 18.746 219.878 19.9822 219.212 21.0601C219.169 20.8165 219.112 20.5754 219.043 20.3378C218.981 20.0776 218.904 19.8211 218.813 19.5694C218.151 17.8274 217.166 16.2265 215.908 14.8514L215.493 14.375L215.37 14.2674L215.17 14.0523C203.568 0.0979782 193.455 23.4422 193.24 23.9801C193.24 23.9801 192.041 0.927866 204.29 0.0365137C213.849 -0.716525 220.595 10.3485 220.273 17.4793Z" fill="#FF8200"/>
<path d="M219.166 21.0601C218.896 21.4724 218.564 21.8405 218.182 22.1512C212.45 26.7616 194.377 24.1491 193.255 23.9954C210.16 25.1941 214.693 18.9239 215.385 14.2827L215.508 14.3903L215.923 14.8667C217.18 16.2418 218.166 17.8428 218.827 19.5847C218.918 19.8365 218.995 20.093 219.058 20.3532C219.106 20.5868 219.142 20.8227 219.166 21.0601Z" fill="#263238"/>
<path d="M224.897 178H160.305L162.671 27.9298L218.442 25.9473L224.897 178Z" fill="#3DA925"/>
<path opacity="0.6" d="M224.897 178H160.305L162.671 27.9298L218.442 25.9473L224.897 178Z" fill="#3DA925"/>
<path d="M238.114 178H219.765L216.952 25.9473L235.87 29.482L238.114 178Z" fill="#3DA925"/>
<path d="M159.429 26.1163V42.0684L216.952 40.1013V21.8286L159.429 26.1163Z" fill="#3DA925"/>
<path d="M159.429 26.1163V42.0684L216.952 40.1013V21.8286L159.429 26.1163Z" fill="#368D22"/>
<path d="M238.575 42.0684L216.952 40.1013V21.8286L239.805 26.1163L238.575 42.0684Z" fill="#3DA925"/>
<path opacity="0.1" d="M238.575 42.0684L216.952 40.1013V21.8286L239.805 26.1163L238.575 42.0684Z" fill="#368D22"/>
<path d="M177.963 24.7336L178.532 178H193.777L194.023 23.5503L177.963 24.7336Z" fill="#FF8200"/>
<path d="M226.051 23.5503L231.798 24.6107V178H227.004L226.051 23.5503Z" fill="#FF8200"/>
<path d="M183.28 102.45C184.264 99.115 182.758 94.5968 174.72 92.3838C162.503 89.0182 153.727 101.605 152.667 103.249C153.804 101.42 164.439 84.8073 176.78 88.0807C186.538 90.724 185.985 98.2544 183.28 102.45Z" fill="#3DA925"/>
<path d="M183.28 102.45C182.549 103.716 181.42 104.705 180.068 105.263C175.78 106.584 166.022 107.399 153.404 103.726L152.651 103.372L152.744 103.203V103.111H152.851C166.114 105.032 175.365 103.618 179.146 102.25C179.984 101.843 180.693 101.21 181.192 100.423C181.692 99.6361 181.962 98.7257 181.974 97.7937C182.013 97.2802 181.987 96.7639 181.897 96.2568C182.653 97.0753 183.18 98.0795 183.423 99.1672C183.666 100.255 183.616 101.388 183.28 102.45Z" fill="#3DA925"/>
<path opacity="0.2" d="M183.28 102.45C182.549 103.716 181.42 104.705 180.068 105.263C175.78 106.584 166.022 107.399 153.404 103.726L152.651 103.372L152.744 103.203V103.111H152.851C166.114 105.032 175.365 103.618 179.146 102.25C179.984 101.843 180.693 101.21 181.192 100.423C181.692 99.6361 181.962 98.7257 181.974 97.7937C182.013 97.2802 181.987 96.7639 181.897 96.2568C182.653 97.0753 183.18 98.0795 183.423 99.1672C183.666 100.255 183.616 101.388 183.28 102.45Z" fill="black"/>
<path d="M175.337 85.0371C173.692 81.1797 169.189 77.5528 161.398 79.9195C149.457 83.5156 151.777 101.035 152.177 103.202C151.731 100.743 147.935 78.1829 159.953 74.4945C169.389 71.5592 174.415 79.3355 175.337 85.0371Z" fill="#3DA925"/>
<path d="M175.334 85.0377C175.699 86.5829 175.537 88.2058 174.873 89.6481C172.491 93.398 165.499 99.7297 152.989 103.203L152.159 103.433V103.203C152.159 103.203 152.159 103.126 152.159 103.08C152.159 103.034 152.159 103.08 152.251 103.08C163.962 97.4551 170.125 90.7854 172.076 87.2968C172.845 85.9291 172.461 83.4548 171.047 81.2725C170.712 80.7627 170.331 80.2843 169.909 79.8433C171.12 80.294 172.225 80.9872 173.158 81.8805C174.091 82.7737 174.832 83.8481 175.334 85.0377Z" fill="#3DA925"/>
<path opacity="0.2" d="M175.334 85.0377C175.699 86.5829 175.537 88.2058 174.873 89.6481C172.491 93.398 165.499 99.7297 152.989 103.203L152.159 103.433V103.203C152.159 103.203 152.159 103.126 152.159 103.08C152.159 103.034 152.159 103.08 152.251 103.08C163.962 97.4551 170.125 90.7854 172.076 87.2968C172.845 85.9291 172.461 83.4548 171.047 81.2725C170.712 80.7627 170.331 80.2843 169.909 79.8433C171.12 80.294 172.225 80.9872 173.158 81.8805C174.091 82.7737 174.832 83.8481 175.334 85.0377Z" fill="black"/>
<path d="M120.916 102.45C119.917 99.115 121.439 94.5968 129.476 92.3838C141.679 89.0182 150.469 101.605 151.514 103.249C150.392 101.42 139.742 84.8073 127.417 88.0807C117.658 90.724 118.196 98.2544 120.916 102.45Z" fill="#3DA925"/>
<path d="M120.916 102.45C121.643 103.719 122.774 104.709 124.128 105.262C128.416 106.584 138.159 107.398 150.776 103.725L151.622 103.479L151.514 103.31V103.218H151.422C138.144 105.139 128.907 103.725 125.112 102.357C124.278 101.944 123.573 101.31 123.074 100.524C122.576 99.7386 122.302 98.831 122.284 97.9006C122.252 97.387 122.278 96.8716 122.361 96.3638C121.615 97.1671 121.09 98.1498 120.837 99.2164C120.583 100.283 120.611 101.397 120.916 102.45Z" fill="#3DA925"/>
<path opacity="0.2" d="M120.916 102.45C121.643 103.719 122.774 104.709 124.128 105.262C128.416 106.584 138.159 107.398 150.776 103.725L151.622 103.479L151.514 103.31V103.218H151.422C138.144 105.139 128.907 103.725 125.112 102.357C124.278 101.944 123.573 101.31 123.074 100.524C122.576 99.7386 122.302 98.831 122.284 97.9006C122.252 97.387 122.278 96.8716 122.361 96.3638C121.615 97.1671 121.09 98.1498 120.837 99.2164C120.583 100.283 120.611 101.397 120.916 102.45Z" fill="black"/>
<path d="M128.062 85.0371C129.707 81.1797 134.21 77.5528 142.001 79.9195C153.942 83.5156 151.622 101.035 151.222 103.202C151.668 100.743 155.449 78.1829 143.446 74.4945C133.995 71.5592 128.969 79.3355 128.062 85.0371Z" fill="#3DA925"/>
<path d="M128.063 85.0377C127.698 86.5829 127.86 88.2058 128.524 89.6481C130.906 93.398 137.898 99.7297 150.408 103.203L151.238 103.433V103.203C151.238 103.203 151.238 103.126 151.238 103.08C151.238 103.034 151.238 103.08 151.146 103.08C139.435 97.4551 133.272 90.7854 131.321 87.2968C130.552 85.9291 130.937 83.4548 132.35 81.2725C132.681 80.7591 133.062 80.2803 133.488 79.8433C132.275 80.2891 131.167 80.9806 130.233 81.8744C129.3 82.7683 128.561 83.8452 128.063 85.0377Z" fill="#3DA925"/>
<path opacity="0.2" d="M128.063 85.0377C127.698 86.5829 127.86 88.2058 128.524 89.6481C130.906 93.398 137.898 99.7297 150.408 103.203L151.238 103.433V103.203C151.238 103.203 151.238 103.126 151.238 103.08C151.238 103.034 151.238 103.08 151.146 103.08C139.435 97.4551 133.272 90.7854 131.321 87.2968C130.552 85.9291 130.937 83.4548 132.35 81.2725C132.681 80.7591 133.062 80.2803 133.488 79.8433C132.275 80.2891 131.167 80.9806 130.233 81.8744C129.3 82.7683 128.561 83.8452 128.063 85.0377Z" fill="black"/>
<path d="M182.036 177.999H117.382L114.724 106.845L184.879 109.227L182.036 177.999Z" fill="#FF8200"/>
<path d="M204.702 177.999H182.034L182.972 109.227L207.484 111.947L204.702 177.999Z" fill="#FF8200"/>
<path d="M109.468 105.677L111.035 128.253H182.974V101.067L109.468 105.677Z" fill="#368D22"/>
<path d="M208.759 127.577L182.972 128.253V101.067L211.141 106.845L208.759 127.577Z" fill="#368D22"/>
<path d="M201.491 104.877L196.773 177.999H191.071L194.237 103.387L201.491 104.877Z" fill="#3DA925"/>
<path opacity="0.1" d="M201.491 104.877L196.773 177.999H191.071L194.237 103.387L201.491 104.877Z" fill="black"/>
<path d="M154.789 102.88V177.999H139.82L138.114 103.94L154.789 102.88Z" fill="#3DA925"/>
</svg>
