<svg width="364" height="345" viewBox="0 0 364 345" fill="none" xmlns="http://www.w3.org/2000/svg">
<path d="M268.51 251.486C269.361 248.685 268.076 244.887 261.315 243.022C251.054 240.187 243.672 250.814 242.786 252.159C243.731 250.609 252.681 236.602 263.052 239.387C271.252 241.626 270.792 247.953 268.51 251.486Z" fill="#455A64"/>
<path d="M268.51 251.486C267.892 252.546 266.944 253.374 265.811 253.844C262.2 254.951 254.009 255.641 243.408 252.508L242.701 252.295C242.727 252.247 242.755 252.202 242.786 252.158L242.837 252.073H242.923C254.077 253.691 261.843 252.499 265.061 251.35C265.765 251.003 266.359 250.469 266.778 249.807C267.197 249.144 267.425 248.378 267.437 247.594C267.464 247.176 267.444 246.757 267.378 246.343C267.995 247.029 268.424 247.864 268.622 248.765C268.821 249.666 268.782 250.604 268.51 251.486Z" fill="#37474F"/>
<path d="M261.834 236.849C260.455 233.596 256.725 230.556 250.118 232.549C240.087 235.571 242.037 250.294 242.318 252.133C241.935 250.064 238.759 231.101 248.849 227.993C256.836 225.524 261.051 232.055 261.834 236.849Z" fill="#455A64"/>
<path d="M261.835 236.849C262.145 238.145 262.007 239.508 261.443 240.715C259.442 243.866 253.567 249.23 243.051 252.117L242.352 252.304C242.349 252.244 242.349 252.185 242.352 252.125C242.352 252.125 242.352 252.057 242.352 252.014H242.429C252.272 247.28 257.449 241.694 259.101 238.748C259.74 237.59 259.416 235.512 258.25 233.639C257.972 233.209 257.652 232.807 257.296 232.438C258.315 232.823 259.244 233.412 260.025 234.171C260.805 234.93 261.422 235.842 261.835 236.849Z" fill="#37474F"/>
<path d="M216.084 251.486C215.232 248.685 216.518 244.887 223.279 243.022C233.539 240.187 240.922 250.814 241.807 252.159C240.862 250.609 231.913 236.602 221.542 239.387C213.35 241.626 213.81 247.953 216.084 251.486Z" fill="#455A64"/>
<path d="M216.084 251.486C216.7 252.547 217.648 253.376 218.783 253.844C222.393 254.951 230.585 255.641 241.186 252.508L241.892 252.295L241.807 252.158L241.756 252.073H241.671C230.516 253.691 222.751 252.499 219.532 251.35C218.829 251.003 218.235 250.469 217.816 249.807C217.396 249.144 217.168 248.378 217.156 247.594C217.13 247.176 217.15 246.757 217.216 246.343C216.599 247.029 216.17 247.864 215.972 248.765C215.773 249.666 215.812 250.604 216.084 251.486Z" fill="#37474F"/>
<path d="M222.087 236.849C223.466 233.596 227.196 230.556 233.804 232.549C243.834 235.571 241.884 250.294 241.603 252.133C241.986 250.064 245.162 231.101 235.072 227.993C227.085 225.524 222.896 232.055 222.087 236.849Z" fill="#455A64"/>
<path d="M222.087 236.849C221.777 238.145 221.915 239.508 222.478 240.715C224.48 243.866 230.346 249.23 240.871 252.117L241.569 252.304C241.573 252.244 241.573 252.185 241.569 252.125C241.566 252.088 241.566 252.051 241.569 252.014H241.492C231.649 247.28 226.472 241.694 224.82 238.748C224.173 237.59 224.497 235.512 225.672 233.639C225.955 233.211 226.278 232.809 226.634 232.438C225.613 232.822 224.683 233.411 223.901 234.17C223.118 234.929 222.501 235.841 222.087 236.849Z" fill="#37474F"/>
<path d="M263.997 312.624H214.049L211.92 251.878L266.297 253.002L263.997 312.624Z" fill="#FF8200"/>
<path opacity="0.1" d="M263.997 312.624H214.049L211.92 251.878L266.297 253.002L263.997 312.624Z" fill="black"/>
<path d="M282.287 312.624H263.997L264.755 253.002L284.527 254.577L282.287 312.624Z" fill="#FF8200"/>
<g opacity="0.2">
<path d="M282.287 312.624H263.997L264.755 253.002L284.527 254.577L282.287 312.624Z" fill="black"/>
</g>
<path d="M208.939 251.818L210.208 264.948H264.755V249.136L208.939 251.818Z" fill="#FF8200"/>
<path opacity="0.2" d="M208.939 251.818L210.208 264.948H264.755V249.136L208.939 251.818Z" fill="black"/>
<path d="M286.238 264.948H264.755V249.136L288.316 251.92L286.238 264.948Z" fill="#FF8200"/>
<path opacity="0.3" d="M286.238 264.948H264.755V249.136L288.316 251.92L286.238 264.948Z" fill="black"/>
<path d="M279.904 250.924L275.885 312.522H271.295L273.841 250.209L279.904 250.924Z" fill="#37474F"/>
<path d="M244.217 250.191V312.623H232.151L230.789 250.804L244.217 250.191Z" fill="#455A64"/>
<path d="M234.731 283.528C234.682 284.548 234.365 285.538 233.812 286.397C233.812 286.201 233.743 286.006 233.692 285.801C233.647 285.594 233.591 285.389 233.522 285.188C233.029 283.771 232.269 282.462 231.283 281.331C231.172 281.203 231.07 281.075 230.951 280.948L230.865 280.846L230.704 280.667C221.661 269.214 213.052 287.777 212.873 288.202C212.873 288.202 212.379 269.691 222.24 269.172C229.98 268.78 235.182 277.806 234.731 283.528Z" fill="#FF8200"/>
<path d="M233.811 286.398C233.587 286.721 233.314 287.009 233.003 287.249C228.285 290.86 213.81 288.373 212.907 288.22C226.531 289.531 230.252 284.576 230.908 280.854L230.993 280.957C231.112 281.084 231.214 281.212 231.325 281.34C232.305 282.475 233.065 283.783 233.565 285.197C233.633 285.401 233.684 285.614 233.735 285.81C233.786 286.006 233.777 286.202 233.811 286.398Z" fill="#FF8200"/>
<path opacity="0.2" d="M233.811 286.398C233.587 286.721 233.314 287.009 233.003 287.249C228.285 290.86 213.81 288.373 212.907 288.22C226.531 289.531 230.252 284.576 230.908 280.854L230.993 280.957C231.112 281.084 231.214 281.212 231.325 281.34C232.305 282.475 233.065 283.783 233.565 285.197C233.633 285.401 233.684 285.614 233.735 285.81C233.786 286.006 233.777 286.202 233.811 286.398Z" fill="black"/>
<path d="M190.658 285.631C190.802 286.643 191.214 287.598 191.85 288.398C191.857 288.199 191.877 288 191.91 287.802C191.91 287.589 191.978 287.377 192.02 287.164C192.377 285.706 193.01 284.33 193.885 283.111L194.175 282.702L194.251 282.591L194.396 282.404C202.306 270.134 212.644 287.794 212.865 288.203C212.865 288.203 211.596 269.725 201.719 270.151C193.987 270.5 189.687 279.986 190.658 285.631Z" fill="#FF8200"/>
<path d="M191.849 288.399C192.091 288.7 192.378 288.962 192.701 289.173C197.733 292.315 211.911 288.467 212.788 288.228H212.83C199.411 290.825 195.221 286.253 194.217 282.608L194.14 282.719L193.85 283.128C192.98 284.35 192.348 285.725 191.986 287.181C191.943 287.394 191.9 287.607 191.875 287.82C191.855 288.012 191.846 288.205 191.849 288.399Z" fill="#FF8200"/>
<path opacity="0.2" d="M191.849 288.399C192.091 288.7 192.378 288.962 192.701 289.173C197.733 292.315 211.911 288.467 212.788 288.228H212.83C199.411 290.825 195.221 286.253 194.217 282.608L194.14 282.719L193.85 283.128C192.98 284.35 192.348 285.725 191.986 287.181C191.943 287.394 191.9 287.607 191.875 287.82C191.855 288.012 191.846 288.205 191.849 288.399Z" fill="black"/>
<path d="M239.346 312.623H186.715L191.057 290.399L234.084 292.239L239.346 312.623Z" fill="#455A64"/>
<path d="M251.488 312.623H235.148L232.857 292.238L248.568 293.609L251.488 312.623Z" fill="#37474F"/>
<path d="M186 290.4V301.997L232.858 300.558V287.292L186 290.4Z" fill="#37474F"/>
<path d="M250.483 301.997L232.857 300.558V287.292L251.488 290.4L250.483 301.997Z" fill="#263238"/>
<path d="M216.892 312.623H205.882L204.767 289.156L217.777 288.296L216.892 312.623Z" fill="#FF8200"/>
<path d="M241.893 312.624H245.639L245.307 289.369L240.07 288.501L241.893 312.624Z" fill="#FF8200"/>
<path d="M277.698 225.908C277.811 226.599 278.105 227.248 278.549 227.789C278.541 227.65 278.541 227.511 278.549 227.372C278.549 227.227 278.592 227.083 278.618 226.929C278.837 225.921 279.248 224.965 279.827 224.111L280.022 223.821L280.074 223.745C280.11 223.703 280.141 223.657 280.167 223.609C285.395 215.025 292.829 227.015 292.991 227.278C292.991 227.278 291.867 214.583 285.055 215.077C279.724 215.417 276.914 222.025 277.698 225.908Z" fill="#455A64"/>
<path d="M278.574 227.789C278.751 227.993 278.962 228.166 279.196 228.3C282.721 230.378 292.411 227.448 293.016 227.295C283.82 229.322 280.856 226.248 280.099 223.753L280.048 223.83L279.852 224.119C279.276 224.975 278.866 225.931 278.643 226.938C278.643 227.091 278.592 227.236 278.574 227.38C278.566 227.516 278.566 227.653 278.574 227.789Z" fill="#263238"/>
<path d="M308.045 223.685C308.03 224.387 307.827 225.071 307.458 225.669C307.434 225.534 307.403 225.4 307.364 225.269C307.33 225.124 307.287 224.982 307.236 224.843C306.87 223.878 306.324 222.991 305.627 222.229L305.397 221.965L305.329 221.905L305.218 221.786C298.79 214.054 293.187 226.989 293.068 227.287C293.068 227.287 292.403 214.514 299.19 214.02C304.486 213.603 308.224 219.734 308.045 223.685Z" fill="#455A64"/>
<path d="M307.432 225.669C307.283 225.898 307.099 226.102 306.887 226.274C303.711 228.828 293.698 227.381 293.076 227.296C302.443 227.96 304.955 224.486 305.338 221.914L305.406 221.974L305.636 222.238C306.332 223 306.879 223.887 307.245 224.852C307.295 224.991 307.338 225.133 307.373 225.277C307.399 225.407 307.419 225.538 307.432 225.669Z" fill="#263238"/>
<path d="M310.608 312.623H274.819L276.131 229.474L307.031 228.376L310.608 312.623Z" fill="#FF8200"/>
<path opacity="0.6" d="M310.608 312.623H274.819L276.131 229.474L307.031 228.376L310.608 312.623Z" fill="white"/>
<path d="M317.931 312.623H307.764L306.206 228.376L316.688 230.334L317.931 312.623Z" fill="#FF8200"/>
<path d="M274.334 228.47V237.309L306.206 236.219V226.095L274.334 228.47Z" fill="#FF8200"/>
<path opacity="0.4" d="M274.334 228.47V237.309L306.206 236.219V226.095L274.334 228.47Z" fill="white"/>
<path d="M318.187 237.309L306.206 236.219V226.095L318.868 228.47L318.187 237.309Z" fill="#FF8200"/>
<path opacity="0.1" d="M318.187 237.309L306.206 236.219V226.095L318.868 228.47L318.187 237.309Z" fill="black"/>
<path d="M284.604 227.703L284.919 312.623H293.365L293.502 227.048L284.604 227.703Z" fill="#455A64"/>
<path d="M311.247 227.048L314.432 227.635V312.623H311.775L311.247 227.048Z" fill="#455A64"/>
<path d="M287.55 270.764C288.095 268.916 287.26 266.413 282.807 265.187C276.037 263.322 271.175 270.296 270.588 271.207C271.218 270.193 277.11 260.989 283.948 262.802C289.355 264.267 289.048 268.439 287.55 270.764Z" fill="#FF8200"/>
<path d="M287.549 270.764C287.144 271.465 286.519 272.013 285.77 272.322C283.394 273.054 277.987 273.505 270.996 271.47L270.579 271.274L270.63 271.181V271.13H270.69C278.038 272.194 283.164 271.411 285.259 270.653C285.723 270.427 286.116 270.077 286.393 269.64C286.669 269.204 286.819 268.7 286.826 268.184C286.847 267.899 286.833 267.613 286.783 267.332C287.202 267.786 287.494 268.342 287.629 268.945C287.763 269.547 287.736 270.175 287.549 270.764Z" fill="#FF8200"/>
<path opacity="0.2" d="M287.549 270.764C287.144 271.465 286.519 272.013 285.77 272.322C283.394 273.054 277.987 273.505 270.996 271.47L270.579 271.274L270.63 271.181V271.13H270.69C278.038 272.194 283.164 271.411 285.259 270.653C285.723 270.427 286.116 270.077 286.393 269.64C286.669 269.204 286.819 268.7 286.826 268.184C286.847 267.899 286.833 267.613 286.783 267.332C287.202 267.786 287.494 268.342 287.629 268.945C287.763 269.547 287.736 270.175 287.549 270.764Z" fill="black"/>
<path d="M283.148 261.116C282.237 258.979 279.742 256.97 275.425 258.281C268.809 260.273 270.094 269.98 270.316 271.181C270.069 269.819 267.966 257.319 274.624 255.275C279.852 253.649 282.637 257.957 283.148 261.116Z" fill="#FF8200"/>
<path d="M283.147 261.116C283.349 261.972 283.26 262.872 282.892 263.671C281.572 265.748 277.698 269.257 270.766 271.181L270.307 271.309V271.181C270.307 271.181 270.307 271.138 270.307 271.113C270.307 271.087 270.307 271.113 270.358 271.113C276.846 267.996 280.261 264.301 281.342 262.368C281.768 261.61 281.555 260.239 280.772 259.03C280.586 258.748 280.375 258.483 280.141 258.238C280.812 258.488 281.425 258.872 281.941 259.367C282.458 259.862 282.869 260.457 283.147 261.116Z" fill="#FF8200"/>
<path opacity="0.2" d="M283.147 261.116C283.349 261.972 283.26 262.872 282.892 263.671C281.572 265.748 277.698 269.257 270.766 271.181L270.307 271.309V271.181C270.307 271.181 270.307 271.138 270.307 271.113C270.307 271.087 270.307 271.113 270.358 271.113C276.846 267.996 280.261 264.301 281.342 262.368C281.768 261.61 281.555 260.239 280.772 259.03C280.586 258.748 280.375 258.483 280.141 258.238C280.812 258.488 281.425 258.872 281.941 259.367C282.458 259.862 282.869 260.457 283.147 261.116Z" fill="black"/>
<path d="M252.995 270.764C252.442 268.916 253.285 266.413 257.738 265.187C264.499 263.322 269.37 270.296 269.949 271.207C269.327 270.193 263.426 260.989 256.597 262.802C251.19 264.267 251.488 268.439 252.995 270.764Z" fill="#FF8200"/>
<path d="M252.996 270.764C253.398 271.467 254.025 272.015 254.775 272.322C257.151 273.054 262.549 273.505 269.54 271.47L270.008 271.334L269.949 271.24V271.189H269.898C262.541 272.254 257.423 271.47 255.32 270.712C254.858 270.484 254.468 270.132 254.191 269.697C253.915 269.261 253.764 268.759 253.753 268.243C253.736 267.959 253.75 267.673 253.796 267.392C253.383 267.837 253.092 268.381 252.952 268.972C252.811 269.563 252.826 270.18 252.996 270.764Z" fill="#FF8200"/>
<path opacity="0.2" d="M252.996 270.764C253.398 271.467 254.025 272.015 254.775 272.322C257.151 273.054 262.549 273.505 269.54 271.47L270.008 271.334L269.949 271.24V271.189H269.898C262.541 272.254 257.423 271.47 255.32 270.712C254.858 270.484 254.468 270.132 254.191 269.697C253.915 269.261 253.764 268.759 253.753 268.243C253.736 267.959 253.75 267.673 253.796 267.392C253.383 267.837 253.092 268.381 252.952 268.972C252.811 269.563 252.826 270.18 252.996 270.764Z" fill="black"/>
<path d="M256.955 261.116C257.866 258.979 260.361 256.97 264.678 258.281C271.294 260.273 270.009 269.98 269.787 271.181C270.034 269.819 272.129 257.319 265.479 255.275C260.242 253.649 257.457 257.957 256.955 261.116Z" fill="#FF8200"/>
<path d="M256.955 261.116C256.753 261.972 256.843 262.872 257.211 263.671C258.53 265.748 262.405 269.257 269.336 271.181L269.796 271.309V271.181C269.796 271.181 269.796 271.138 269.796 271.113C269.796 271.087 269.796 271.113 269.745 271.113C263.256 267.996 259.842 264.301 258.76 262.368C258.335 261.61 258.548 260.239 259.331 259.03C259.514 258.746 259.725 258.48 259.961 258.238C259.289 258.485 258.675 258.868 258.158 259.364C257.641 259.859 257.231 260.456 256.955 261.116Z" fill="#FF8200"/>
<path opacity="0.2" d="M256.955 261.116C256.753 261.972 256.843 262.872 257.211 263.671C258.53 265.748 262.405 269.257 269.336 271.181L269.796 271.309V271.181C269.796 271.181 269.796 271.138 269.796 271.113C269.796 271.087 269.796 271.113 269.745 271.113C263.256 267.996 259.842 264.301 258.76 262.368C258.335 261.61 258.548 260.239 259.331 259.03C259.514 258.746 259.725 258.48 259.961 258.238C259.289 258.485 258.675 258.868 258.158 259.364C257.641 259.859 257.231 260.456 256.955 261.116Z" fill="black"/>
<path d="M286.86 312.624H251.038L249.564 273.199L288.435 274.519L286.86 312.624Z" fill="#37474F"/>
<path d="M299.419 312.624H286.859L287.379 274.52L300.96 276.027L299.419 312.624Z" fill="#455A64"/>
<path d="M246.652 272.553L247.521 285.061H287.379V269.998L246.652 272.553Z" fill="#263238"/>
<path d="M301.667 284.686L287.379 285.061V269.998L302.987 273.2L301.667 284.686Z" fill="#37474F"/>
<path d="M297.639 272.109L295.025 312.623H291.866L293.62 271.283L297.639 272.109Z" fill="#FF8200"/>
<path opacity="0.1" d="M297.639 272.109L295.025 312.623H291.866L293.62 271.283L297.639 272.109Z" fill="black"/>
<path d="M271.763 271.002V312.623H263.47L262.524 271.589L271.763 271.002Z" fill="#FF8200"/>
<path d="M93.5388 334.154C91.376 333.413 42.1595 295.504 41.2058 292.873C40.8226 291.877 45.9316 284.358 52.3604 275.502C52.42 275.409 52.4881 275.324 52.5562 275.23C53.8846 273.399 77.5647 242.873 77.5647 242.873L109.922 268.469L84.6066 299.327L84.1723 299.855C84.1723 299.855 96.5275 322.795 97.2683 325.8C98.0091 328.806 95.6761 334.903 93.5388 334.154Z" fill="#D3766A"/>
<path d="M41.1803 292.83C42.134 295.478 91.3505 333.378 93.5133 334.119C95.6761 334.86 97.9666 328.755 97.2258 325.766C96.485 322.777 84.1298 299.821 84.1298 299.821L84.5641 299.293L87.6976 295.955L55.9538 270.776C54.8979 272.02 52.7521 274.957 52.5478 275.23L52.3434 275.502C45.9316 284.392 40.8227 291.876 41.1803 292.83Z" fill="#EBEBEB"/>
<path d="M93.5727 334.392C91.3929 333.625 41.972 295.155 41.0183 292.489C40.6521 291.485 45.8292 283.974 52.3517 275.051L84.2914 299.744C84.2914 299.744 96.6211 322.939 97.3619 325.97C98.1027 329.002 95.744 335.158 93.5727 334.392Z" fill="#FF8200"/>
<path d="M94.3986 331.862C86.2754 325.212 52.8711 299.148 44.3306 293.187C44.2625 293.136 44.2284 293.187 44.3306 293.238C52.241 300.008 85.8496 325.8 94.3305 331.998C94.4753 332.135 94.5774 331.998 94.3986 331.862Z" fill="#263238"/>
<path d="M95.5651 321.729C94.6631 320.988 93.6167 320.442 92.4923 320.127C91.3679 319.811 90.1902 319.734 89.0341 319.899C86.951 320.174 85.0541 321.241 83.7378 322.879C83.7378 322.93 83.7889 322.998 83.84 322.956C85.3985 321.536 87.3747 320.659 89.4729 320.457C91.5712 320.254 93.6787 320.737 95.4799 321.832C95.4862 321.84 95.4941 321.846 95.5033 321.851C95.5124 321.855 95.5224 321.858 95.5326 321.858C95.5428 321.858 95.5529 321.856 95.5622 321.852C95.5714 321.848 95.5796 321.841 95.5862 321.834C95.5927 321.826 95.5974 321.816 95.5999 321.807C95.6024 321.797 95.6026 321.786 95.6006 321.776C95.5986 321.766 95.5943 321.757 95.5882 321.749C95.5821 321.741 95.5741 321.734 95.5651 321.729Z" fill="#263238"/>
<path d="M86.8628 303.09C83.5845 300.459 78.8246 298.637 74.6523 299.744C74.4905 299.786 74.5586 300.016 74.6949 300.042C78.782 300.78 82.7784 301.953 86.6158 303.541C86.6733 303.558 86.7346 303.554 86.7896 303.531C86.8446 303.508 86.8902 303.466 86.9189 303.414C86.9475 303.362 86.9576 303.301 86.9474 303.242C86.9372 303.184 86.9074 303.13 86.8628 303.09Z" fill="#263238"/>
<path d="M88.6428 306.079C85.3645 303.448 80.6046 301.626 76.4323 302.733C76.279 302.776 76.3386 303.006 76.4323 303.031C80.519 303.771 84.5152 304.944 88.3533 306.531C88.3829 306.55 88.416 306.563 88.4506 306.569C88.4853 306.575 88.5208 306.575 88.5552 306.567C88.5896 306.56 88.6222 306.545 88.6511 306.525C88.68 306.505 88.7047 306.479 88.7237 306.45C88.7427 306.42 88.7557 306.387 88.7619 306.352C88.7681 306.318 88.7674 306.282 88.7599 306.248C88.7524 306.213 88.7382 306.181 88.7181 306.152C88.698 306.123 88.6724 306.098 88.6428 306.079Z" fill="#263238"/>
<path d="M90.4308 309.068C87.144 306.445 82.3927 304.623 78.2203 305.73C78.0585 305.773 78.1181 306.003 78.2629 306.028C82.3507 306.759 86.3475 307.93 90.1839 309.519C90.2413 309.536 90.3026 309.532 90.3576 309.509C90.4126 309.485 90.4582 309.444 90.4869 309.392C90.5155 309.34 90.5256 309.279 90.5154 309.22C90.5052 309.161 90.4754 309.108 90.4308 309.068Z" fill="#263238"/>
<path d="M92.2102 312.056C88.932 309.434 84.1721 307.612 79.9998 308.718C79.838 308.718 79.9061 308.991 79.9998 309.017C84.0879 309.75 88.0847 310.924 91.9207 312.516C91.9815 312.548 92.052 312.556 92.1184 312.538C92.1847 312.521 92.2419 312.478 92.2784 312.42C92.315 312.362 92.3283 312.292 92.3157 312.225C92.303 312.158 92.2654 312.097 92.2102 312.056Z" fill="#263238"/>
<path d="M52.5731 286.963C48.8436 284.076 44.3477 289.866 48.0857 292.753C51.8238 295.64 56.3027 289.849 52.5731 286.963Z" fill="white"/>
<path d="M97.379 297.027C96.7829 294.328 93.6068 294.047 91.4185 294.686C87.7312 295.849 84.4154 297.964 81.8051 300.816C81.791 300.827 81.7795 300.84 81.7717 300.856C81.7638 300.871 81.7596 300.888 81.7596 300.906C81.7596 300.923 81.7638 300.941 81.7717 300.956C81.7795 300.972 81.791 300.985 81.8051 300.995C81.7693 301.068 81.7511 301.147 81.752 301.228C81.7529 301.308 81.7728 301.388 81.8102 301.459C81.8475 301.53 81.9013 301.592 81.967 301.639C82.0327 301.685 82.1085 301.716 82.1883 301.728C85.8241 301.932 89.6814 302.579 93.2577 301.685C95.3779 301.149 97.8984 299.582 97.379 297.027ZM87.8167 300.91C86.0285 300.851 84.2574 300.706 82.4693 300.714C84.3425 299.522 86.1647 298.262 88.1572 297.257C89.1111 296.758 90.0984 296.326 91.1119 295.963C92.6872 295.427 98.0942 295.188 95.6164 299.054C94.2114 301.183 89.9113 300.978 87.7741 300.91H87.8167Z" fill="#263238"/>
<path d="M72.5916 295.632C75.1461 298.322 78.7564 299.821 81.9581 301.592C82.0326 301.625 82.1136 301.639 82.1947 301.635C82.2759 301.63 82.3548 301.607 82.4252 301.566C82.4956 301.526 82.5555 301.469 82.6001 301.401C82.6446 301.333 82.6726 301.256 82.6819 301.175C82.6986 301.176 82.7155 301.174 82.7313 301.168C82.747 301.162 82.7612 301.153 82.7727 301.14C82.7842 301.128 82.7927 301.113 82.7976 301.097C82.8025 301.081 82.8037 301.064 82.8011 301.047C82.1199 297.24 80.4456 293.68 77.9475 290.727C76.4659 289.024 73.6304 287.577 71.689 289.535C69.7476 291.493 71.11 294.065 72.5916 295.632ZM72.0637 292.226C72.0637 287.628 76.4829 290.727 77.5218 292.021C78.1834 292.868 78.7866 293.758 79.327 294.687C80.4765 296.602 81.3365 298.646 82.2902 300.647C80.783 299.685 79.2077 298.859 77.658 297.948C75.8273 296.841 72.0807 294.721 72.0637 292.192V292.226Z" fill="#263238"/>
<path d="M62.2549 261.895L93.905 288.241C93.905 288.241 144.603 228.423 146.459 219.44C148.571 209.222 154.446 129.232 154.31 125.247C154.148 120.411 148.818 99.1572 148.818 99.1572H110.841C110.841 99.1572 105.528 203.772 104.421 207.016C103.237 210.499 62.2549 261.895 62.2549 261.895Z" fill="#37474F"/>
<path d="M58.8999 266.902L63.3532 258.506L96.2551 287.346L89.7837 293.026L58.8999 266.902Z" fill="#455A64"/>
<path d="M96.8934 280.313C91.9973 275.587 72.9067 260.422 70.497 259.179C70.4459 259.179 70.3692 259.238 70.4118 259.281C72.1148 261.333 88.3869 274.676 96.7401 280.466C96.8593 280.526 96.97 280.381 96.8934 280.313Z" fill="#263238"/>
<path d="M150.7 114.867C150.191 114.716 149.674 114.596 149.15 114.509C148.6 114.351 148.064 114.146 147.549 113.896C146.478 113.356 145.494 112.659 144.629 111.827C143.649 110.779 142.883 109.549 142.372 108.208C142.049 107.442 140.491 103.372 140.482 103.338C140.473 103.304 140.32 103.338 140.337 103.397C140.448 103.968 141.512 107.485 141.827 108.362C142.303 109.913 143.101 111.346 144.169 112.568C145.085 113.515 146.191 114.257 147.413 114.748C147.959 114.976 148.531 115.133 149.116 115.216C149.645 115.339 150.198 115.307 150.708 115.122C150.828 115.097 150.768 114.918 150.7 114.867Z" fill="#263238"/>
<path d="M117.108 101.013L116.308 122.019L115.397 143.026L113.379 185.03C112.996 192.029 112.629 199.02 112.187 206.028C112.136 206.879 112.059 207.782 111.974 208.685C111.976 208.822 111.95 208.958 111.897 209.085C111.847 209.202 111.79 209.315 111.727 209.425C111.616 209.63 111.488 209.817 111.369 210.013C111.131 210.387 110.875 210.745 110.628 211.111C109.607 212.55 108.551 213.955 107.495 215.369C105.375 218.162 103.186 220.904 101.006 223.654C96.6411 229.126 92.2417 234.581 87.8083 240.02L74.3887 256.215L87.4506 239.739C91.8018 234.246 96.1529 228.754 100.453 223.228C102.61 220.464 104.742 217.685 106.848 214.892C107.904 213.495 108.951 212.09 109.956 210.634C110.203 210.277 110.441 209.919 110.679 209.553C110.918 209.187 111.182 208.829 111.165 208.523C111.233 207.671 111.301 206.82 111.352 205.968C111.761 198.986 112.11 191.978 112.459 184.979L114.673 142.992L115.84 122.002L117.108 101.013Z" fill="#263238"/>
<path d="M147.217 213.862C146.936 216.416 146.689 218.358 146.459 219.439C145.42 224.48 128.969 245.563 114.749 263.07L104.991 201.762C106.737 179.998 110.841 99.1738 110.841 99.1738H129.736L147.217 213.862Z" fill="#263238"/>
<path d="M200.785 332.85C198.775 333.957 137.655 345.061 135.066 344.005C134.07 343.613 131.933 334.809 129.659 324.08L129.591 323.748C129.115 321.542 123.631 284.017 123.631 284.017L160.245 277.265L168.905 316.153L169.016 316.825C169.016 316.825 194.314 323.041 197.047 324.489C199.78 325.936 202.795 331.76 200.785 332.85Z" fill="#D3766A"/>
<path d="M128.697 319.507C128.995 320.955 129.285 322.368 129.591 323.764L129.651 324.105C131.933 334.817 134.07 343.638 135.066 344.022C137.621 345.077 198.784 333.974 200.785 332.867C202.786 331.76 199.789 325.97 197.072 324.505C194.356 323.041 169.05 316.842 169.05 316.842L168.939 316.169L168.283 311.988L128.697 319.507Z" fill="#EBEBEB"/>
<path d="M201.322 332.901C199.295 334 137.638 344.993 135.016 343.928C134.028 343.528 131.899 334.638 129.643 323.824L169.373 316.672C169.373 316.672 194.859 323.024 197.609 324.497C200.359 325.97 203.348 331.794 201.322 332.901Z" fill="#FF8200"/>
<path d="M199.993 330.594C189.613 332.178 147.89 339.56 137.749 341.919C137.672 341.919 137.681 341.995 137.749 341.987C148.069 340.641 189.733 332.918 200.01 330.756C200.24 330.713 200.215 330.56 199.993 330.594Z" fill="#263238"/>
<path d="M193.24 322.947C192.086 323.121 190.98 323.533 189.993 324.158C189.007 324.782 188.161 325.605 187.51 326.575C186.315 328.316 185.839 330.451 186.181 332.535C186.181 332.595 186.309 332.578 186.309 332.535C186.294 330.425 186.965 328.367 188.219 326.671C189.473 324.974 191.244 323.73 193.266 323.126C193.278 323.124 193.289 323.12 193.299 323.114C193.309 323.108 193.318 323.1 193.325 323.091C193.332 323.081 193.338 323.071 193.341 323.059C193.344 323.048 193.344 323.036 193.343 323.024C193.341 323.012 193.337 323.001 193.331 322.991C193.325 322.98 193.317 322.971 193.307 322.964C193.298 322.957 193.287 322.952 193.276 322.949C193.264 322.946 193.252 322.946 193.24 322.947Z" fill="#263238"/>
<path d="M173.562 316.944C169.415 317.617 164.877 319.933 162.91 323.756C162.833 323.901 163.046 324.003 163.157 323.918C166.44 321.383 169.982 319.202 173.724 317.413C173.766 317.378 173.796 317.332 173.811 317.28C173.826 317.228 173.824 317.173 173.806 317.122C173.789 317.071 173.756 317.027 173.712 316.995C173.668 316.963 173.616 316.945 173.562 316.944Z" fill="#263238"/>
<path d="M176.977 317.617C172.83 318.298 168.292 320.614 166.325 324.429C166.248 324.574 166.461 324.685 166.58 324.599C169.856 322.056 173.396 319.872 177.139 318.086C177.181 318.051 177.211 318.005 177.226 317.953C177.241 317.901 177.239 317.846 177.221 317.795C177.204 317.744 177.171 317.699 177.127 317.668C177.083 317.636 177.031 317.618 176.977 317.617Z" fill="#263238"/>
<path d="M180.391 318.29C176.245 318.971 171.715 321.287 169.748 325.102C169.671 325.255 169.884 325.358 169.995 325.272C173.271 322.732 176.811 320.551 180.553 318.767C180.599 318.734 180.632 318.687 180.649 318.633C180.666 318.58 180.665 318.522 180.647 318.469C180.629 318.416 180.595 318.37 180.549 318.338C180.503 318.306 180.448 318.289 180.391 318.29Z" fill="#263238"/>
<path d="M183.814 318.971C179.659 319.652 175.129 321.968 173.162 325.783C173.085 325.927 173.298 326.038 173.409 325.953C176.688 323.41 180.231 321.226 183.976 319.439C184.018 319.405 184.048 319.359 184.063 319.307C184.077 319.255 184.076 319.199 184.058 319.148C184.041 319.097 184.008 319.053 183.964 319.021C183.92 318.989 183.868 318.972 183.814 318.971Z" fill="#263238"/>
<path d="M138.634 331.633C133.994 332.484 135.297 339.688 139.946 338.845C144.595 338.002 143.284 330.79 138.634 331.633Z" fill="white"/>
<path d="M176.066 305.109C173.665 303.746 171.332 305.909 170.361 307.944C168.756 311.463 168.11 315.344 168.488 319.193C168.488 319.21 168.492 319.227 168.5 319.242C168.508 319.257 168.52 319.27 168.534 319.279C168.549 319.289 168.565 319.294 168.583 319.295C168.6 319.297 168.617 319.293 168.632 319.286C168.663 319.361 168.711 319.428 168.773 319.481C168.834 319.534 168.907 319.572 168.986 319.592C169.064 319.612 169.146 319.613 169.225 319.595C169.305 319.578 169.379 319.542 169.441 319.491C171.996 316.936 175.095 314.509 176.815 311.231C177.82 309.315 178.34 306.395 176.066 305.109ZM172.558 314.799C171.323 316.093 170.003 317.353 168.837 318.656C169.133 316.453 169.545 314.268 170.072 312.108C170.34 311.068 170.679 310.046 171.085 309.051C171.74 307.519 175.189 303.338 176.398 307.766C177.071 310.209 174.014 313.266 172.558 314.799Z" fill="#263238"/>
<path d="M158.482 322.556C162.178 322.471 165.712 320.776 169.152 319.601C169.226 319.569 169.291 319.52 169.343 319.457C169.394 319.395 169.43 319.321 169.448 319.242C169.465 319.163 169.464 319.081 169.443 319.003C169.423 318.925 169.384 318.853 169.33 318.792C169.344 318.782 169.356 318.768 169.364 318.753C169.372 318.737 169.376 318.72 169.376 318.703C169.376 318.685 169.372 318.668 169.364 318.653C169.356 318.637 169.344 318.624 169.33 318.613C166.043 316.578 162.279 315.439 158.414 315.31C156.158 315.31 153.186 316.408 153.305 319.167C153.476 321.781 156.32 322.632 158.482 322.556ZM155.562 320.648C152.156 317.6 157.401 316.391 159.061 316.451C160.135 316.528 161.202 316.679 162.254 316.902C164.424 317.386 166.567 317.983 168.675 318.69C166.972 319.167 165.269 319.78 163.566 320.325C161.539 320.929 157.452 322.326 155.562 320.648Z" fill="#263238"/>
<path d="M141.265 99.157C141.265 99.157 140.26 115.395 135.782 126.958C135.782 126.958 129.319 130.986 128.638 131.625L167.117 304.955L127.667 312.619C127.667 312.619 112.161 228.644 110.841 222.888C108.73 213.649 91.9721 135.065 91.2568 130.594C89.7071 121.228 98.3243 99.1484 98.3243 99.1484L141.265 99.157Z" fill="#37474F"/>
<path d="M163.089 296.295C152.24 297.921 131.498 302.315 128.943 303.371C128.884 303.371 128.943 303.507 128.943 303.507C131.702 303.465 156.975 298.449 163.106 296.491C163.233 296.457 163.199 296.278 163.089 296.295Z" fill="#263238"/>
<path d="M103.152 114.867C103.944 114.688 104.787 114.748 105.587 114.645C106.449 114.544 107.302 114.385 108.142 114.169C109.71 113.761 111.216 113.145 112.621 112.338C113.984 111.481 115.106 110.291 115.882 108.881C116.342 108.14 118.437 104.146 118.437 104.121C118.437 104.095 118.692 104.121 118.666 104.198C118.547 104.76 117.176 108.225 116.751 109.094C116.036 110.731 114.873 112.133 113.396 113.138C111.865 114.071 110.177 114.717 108.414 115.046C107.512 115.231 106.594 115.337 105.673 115.361C104.814 115.436 103.948 115.356 103.118 115.122C102.973 115.097 103.041 114.918 103.152 114.867Z" fill="#263238"/>
<path d="M136.718 126.524C133.123 127.794 129.647 129.378 126.33 131.258C126.308 131.274 126.292 131.297 126.285 131.323C126.278 131.35 126.28 131.377 126.291 131.402C126.302 131.427 126.321 131.447 126.345 131.46C126.369 131.472 126.397 131.476 126.423 131.471C129.923 129.998 133.491 128.601 136.914 126.941C136.969 126.915 137.012 126.868 137.033 126.811C137.053 126.753 137.05 126.69 137.024 126.634C136.998 126.579 136.952 126.536 136.894 126.516C136.837 126.495 136.773 126.498 136.718 126.524Z" fill="#263238"/>
<path d="M138.046 102.597C138.046 102.478 137.825 102.443 137.825 102.597C137.79 106.491 137.56 110.382 137.135 114.254C136.956 116.05 135.432 125.97 132.307 125.212C131.788 125.093 131.524 124.574 131.455 123.782C131.473 122.754 131.621 121.732 131.898 120.742C132.256 118.664 132.554 116.587 132.75 114.484C133.158 110.577 133.158 106.639 132.75 102.733C132.75 102.706 132.739 102.68 132.72 102.661C132.701 102.642 132.675 102.631 132.648 102.631C132.62 102.631 132.594 102.642 132.575 102.661C132.556 102.68 132.545 102.706 132.545 102.733C132.59 108.146 132.226 113.554 131.455 118.911C131.038 121.466 129.701 125.366 132.401 125.792C135.1 126.217 136.99 119.72 137.339 117.941C138.241 112.879 138.479 107.72 138.046 102.597Z" fill="#263238"/>
<path d="M132.393 125.46C132.108 126.128 131.867 126.814 131.669 127.512C131.464 128.057 131.361 128.634 131.362 129.215C131.368 129.238 131.38 129.259 131.397 129.275C131.414 129.291 131.435 129.303 131.457 129.308C131.48 129.314 131.504 129.312 131.526 129.305C131.549 129.298 131.569 129.284 131.584 129.266C131.901 128.763 132.139 128.215 132.29 127.64C132.537 127.01 132.793 126.38 133.014 125.733C133.028 125.655 133.015 125.576 132.978 125.507C132.941 125.438 132.882 125.383 132.811 125.352C132.739 125.32 132.659 125.314 132.583 125.333C132.507 125.353 132.44 125.398 132.393 125.46Z" fill="#263238"/>
<path d="M101.534 99.1572C100.461 103.278 99.4393 107.408 98.5112 111.555C97.5831 115.702 96.7146 119.874 96.1951 124.089L96.0504 125.664C95.9993 126.192 96.0504 126.712 95.9993 127.231L96.4676 130.356L97.6512 136.623L100.206 149.123L110.637 199.106L121.076 249.08L126.244 274.097L131.353 299.106L125.81 274.191L120.369 249.225L109.734 199.285C106.285 182.621 102.803 165.966 99.516 149.259L97.0977 136.725L95.9652 130.441L95.5225 127.248C95.5374 126.171 95.617 125.097 95.7609 124.029C96.3569 119.772 97.3106 115.651 98.3154 111.512C99.3201 107.374 100.385 103.253 101.534 99.1572Z" fill="#263238"/>
<path d="M128.22 316.076L124.312 307.417L167.27 299.089L167.789 307.68L128.22 316.076Z" fill="#455A64"/>
<path d="M113.336 36.2227C112.11 45.9809 108.993 57.5102 112.399 67.081C115.073 74.5997 121.527 80.0408 128.356 83.7448C143.36 91.8766 165.116 94.5332 177.275 79.9556C182.128 74.1314 183.9 61.3164 177.054 56.0286C173.537 53.3208 169.16 52.4097 165.064 50.9196C162.497 50.0996 160.147 48.7115 158.189 46.8585C156.231 45.0055 154.716 42.7352 153.757 40.2163C149.559 29.7769 151.151 22.5051 151.066 11.5719C151.132 10.4889 150.972 9.4039 150.595 8.38636C150.218 7.36883 149.633 6.4411 148.878 5.6625C147.229 3.78281 145.101 2.38507 142.721 1.61789C140.716 0.549869 138.479 -0.0059051 136.207 4.7314e-05C131.362 0.119257 126.389 4.1809 122.447 6.64173C118.505 9.10255 116.487 11.9295 115.822 16.6298C114.903 23.1182 114.162 29.7173 113.336 36.2227Z" fill="#263238"/>
<path d="M111.752 40.7866C113.455 31.914 115.329 23.0925 117.142 14.2539C117.142 14.2029 117.236 14.2114 117.227 14.2539C115.95 21.5768 114.767 28.8997 113.387 36.2055C112.033 43.3581 110.152 50.6299 109.436 57.8761C107.818 74.1568 124.048 82.1353 137.978 82.4503C138.609 82.4503 138.515 83.4721 137.876 83.4381C125.657 82.7739 111.437 77.4776 108.823 63.8537C107.393 56.4541 110.364 47.9903 111.752 40.7866Z" fill="#263238"/>
<path d="M150.342 10.6607C150.342 10.6245 150.357 10.5899 150.382 10.5643C150.408 10.5388 150.443 10.5244 150.479 10.5244C150.515 10.5244 150.55 10.5388 150.575 10.5643C150.601 10.5899 150.615 10.6245 150.615 10.6607C150.3 19.661 149.099 30.1174 153.578 38.3343C155.782 42.3839 159.164 45.6682 163.277 47.7519C166.529 49.3953 170.089 49.804 173.554 50.7747C187.102 54.5809 185.739 73.1776 175.155 79.6234C174.934 79.7596 174.695 79.3765 174.908 79.2317C182.401 74.1908 185.543 64.1772 180.4 56.2413C176.279 49.8636 167.279 51.0642 161.259 47.3176C148.776 39.569 149.023 23.6545 150.342 10.6607Z" fill="#263238"/>
<path d="M141.657 43.8262C150.555 50.0081 183.823 72.428 184.402 81.6497C184.93 90.1647 175.376 94.4221 168.743 91.0928C163.889 88.6831 140.763 60.1579 136.522 52.0942C132.443 44.4137 132.869 37.755 141.657 43.8262Z" fill="#C7C7C7"/>
<path d="M136.48 52.0944C140.737 60.1581 163.847 88.7088 168.7 91.093C170.33 91.8911 172.132 92.2743 173.946 92.2084L134.198 42.9834C133.61 44.8908 134.521 48.3734 136.48 52.0944Z" fill="#263238"/>
<path d="M150.019 86.0525L150.087 103.389L97.1235 99.5403C97.1235 99.5403 101.117 59.5625 122.2 43.4692C128.935 38.3602 134.377 40.259 138.43 45.0019C139.358 46.0833 153.51 67.0727 154.004 74.2423C154.429 80.1687 150.019 86.0525 150.019 86.0525Z" fill="#C7C7C7"/>
<path d="M139.562 82.0162C136.802 81.8908 134.037 82.0248 131.302 82.4164C129.931 82.6378 128.569 82.9358 127.198 83.2679C126.517 83.4382 125.844 83.5744 125.163 83.7107C124.46 83.8741 123.736 83.9286 123.017 83.8725C122.958 83.8725 122.94 83.9832 123.017 84.0002C123.672 84.147 124.339 84.2381 125.01 84.2727C125.666 84.2767 126.321 84.2254 126.968 84.1194C128.365 83.915 129.752 83.6255 131.14 83.4041C133.95 82.9528 136.76 82.5015 139.57 82.3142C139.681 82.3057 139.698 82.0247 139.562 82.0162Z" fill="#263238"/>
<path d="M145.693 86.1797C143.533 85.5196 141.328 85.0188 139.094 84.6811C137.965 84.5236 136.828 84.4269 135.688 84.3916C135.152 84.3916 134.607 84.3916 134.062 84.3916C133.517 84.3916 132.861 84.4938 132.265 84.4853C132.206 84.4853 132.189 84.613 132.265 84.613C132.827 84.613 133.381 84.7918 133.968 84.8684L135.671 85.0813C136.787 85.2261 137.902 85.3878 139.018 85.5241C141.257 85.788 143.488 86.0776 145.71 86.4437C145.778 86.4352 145.804 86.2138 145.693 86.1797Z" fill="#263238"/>
<path d="M120.42 43.8781C110.824 48.9019 78.5692 74.6512 78.2371 83.8984C77.9306 92.4134 91.2225 98.7741 97.762 95.3085C102.556 92.754 121.297 61.2486 125.325 53.0913C129.157 45.2916 128.654 39.561 120.42 43.8781Z" fill="#C7C7C7"/>
<path d="M101.415 91.6977C102.266 90.3098 114.979 70.8446 115.89 69.4822C116.802 68.1198 117.593 66.7148 118.513 65.378C119.433 64.0411 120.344 62.8235 121.289 61.5122C121.289 61.4611 121.4 61.5122 121.374 61.5718C120.608 62.9938 119.807 64.4073 118.973 65.8293C118.505 66.6041 118.011 67.3619 117.517 68.1113C118.357 67.1562 119.262 66.26 120.225 65.4291C120.276 65.4291 120.335 65.4716 120.293 65.5142C119.603 66.3061 118.871 67.0639 118.138 67.8303C117.789 68.1964 117.44 68.5796 117.091 68.9543L116.708 69.3545C116.597 69.5248 116.478 69.6865 116.376 69.8568C111.811 77.4172 106.857 84.7358 101.534 91.7829C101.466 91.7914 101.381 91.7488 101.415 91.6977Z" fill="#263238"/>
<path d="M127.548 40.6168C127.599 41.6216 133.559 48.9955 138.004 49.5745C139.452 49.7704 138.353 41.6216 138.353 41.6216L138.592 41.0596L141.862 33.2684L133.423 25.4602L132.189 24.4043C132.189 24.4043 131.431 26.5926 130.486 29.3345C130.486 29.4622 130.4 29.5899 130.349 29.7262C130.298 29.8624 130.239 30.0242 130.196 30.1689C130.06 30.5776 129.915 31.0204 129.779 31.4121C129.643 31.8038 129.574 32.0422 129.481 32.3743C129.387 32.7064 129.276 33.0385 129.174 33.3791C128.469 35.7522 127.926 38.1703 127.548 40.6168Z" fill="#D3766A"/>
<path d="M130.52 29.3004C130.929 31.7294 131.864 34.0398 133.258 36.0707C134.652 38.1016 136.472 39.8041 138.592 41.0596L141.861 33.2684L133.423 25.4602L132.188 24.4043C132.188 24.4043 131.439 26.5586 130.52 29.3004Z" fill="#263238"/>
<path d="M154.582 20.6233C154.889 35.4649 146.067 37.3211 142.832 37.3807C139.928 37.4403 130.059 37.2615 128.194 22.5306C126.33 7.79974 133.142 2.97175 139.8 2.46937C146.459 1.96698 154.284 5.78169 154.582 20.6233Z" fill="#D3766A"/>
<path d="M128.484 21.5C132.017 21.7639 132.358 16.2037 132.358 16.2037C132.358 16.2037 136.386 16.1015 137.101 9.66417C137.796 11.0119 138.793 12.1806 140.014 13.0788C141.236 13.9769 142.649 14.5802 144.143 14.8413C145.284 15.0882 141.656 11.8355 141.656 11.8355C141.656 11.8355 145.99 16.3144 154.659 15.2926C155.272 15.2245 154.582 6.10492 148.068 2.57972C141.554 -0.945477 135.381 0.408402 130.944 4.36786C129.717 4.91314 128.644 5.75231 127.818 6.81119C126.992 7.87008 126.44 9.11607 126.21 10.439C125.325 15.0797 127.113 21.3978 128.484 21.5Z" fill="#263238"/>
<path d="M130.715 22.6073C130.715 22.6073 127.786 17.7708 125.606 18.7841C123.426 19.7974 125.419 26.6604 127.82 27.7418C128.116 27.8962 128.441 27.9895 128.774 28.0164C129.107 28.0433 129.443 28.0032 129.76 27.8984C130.077 27.7937 130.371 27.6264 130.622 27.4064C130.874 27.1865 131.079 26.9184 131.226 26.6179L130.715 22.6073Z" fill="#D3766A"/>
<path d="M126.228 20.7344V20.8025C127.931 21.654 128.714 23.2804 129.242 24.9834C129.153 24.8038 129.026 24.6455 128.871 24.5195C128.715 24.3935 128.534 24.3027 128.34 24.2533C128.145 24.204 127.943 24.1973 127.746 24.2336C127.549 24.27 127.362 24.3485 127.198 24.4639C127.189 24.4679 127.181 24.4745 127.176 24.4828C127.17 24.4911 127.168 24.5008 127.168 24.5108C127.168 24.5207 127.17 24.5304 127.176 24.5388C127.181 24.5471 127.189 24.5536 127.198 24.5576C127.515 24.4727 127.85 24.4904 128.156 24.6082C128.462 24.726 128.723 24.9378 128.901 25.2133C129.194 25.659 129.437 26.1359 129.625 26.6353C129.693 26.797 129.983 26.7289 129.932 26.5501C130.085 24.3107 128.578 21.1175 126.228 20.7344Z" fill="#263238"/>
<path d="M151.722 17.9747C151.381 17.9151 151.066 17.8044 150.734 17.7192C150.37 17.6804 150.03 17.5182 149.772 17.2594C149.702 17.1676 149.664 17.0554 149.664 16.9401C149.664 16.8248 149.702 16.7126 149.772 16.6208C149.946 16.4652 150.159 16.3599 150.389 16.3164C150.618 16.2729 150.855 16.2928 151.074 16.3739C151.545 16.4598 151.965 16.7216 152.249 17.1062C152.308 17.195 152.34 17.2988 152.342 17.4053C152.344 17.5118 152.316 17.6167 152.261 17.7077C152.205 17.7987 152.125 17.8721 152.03 17.9194C151.934 17.9667 151.827 17.9858 151.722 17.9747Z" fill="#263238"/>
<path d="M142.159 17.4642C142.508 17.4642 142.823 17.3535 143.172 17.2939C143.547 17.2951 143.913 17.1724 144.211 16.9448C144.281 16.8529 144.319 16.7408 144.319 16.6254C144.319 16.5101 144.281 16.398 144.211 16.3061C144.052 16.1346 143.848 16.0098 143.623 15.9453C143.398 15.8808 143.16 15.8789 142.934 15.94C142.457 15.9867 142.014 16.2081 141.691 16.5616C141.629 16.6472 141.593 16.748 141.585 16.853C141.578 16.958 141.6 17.063 141.648 17.1564C141.697 17.2499 141.77 17.3281 141.86 17.3824C141.95 17.4367 142.054 17.465 142.159 17.4642Z" fill="#263238"/>
<path d="M144.109 21.3048C144.109 21.2622 144.024 21.3048 144.024 21.3899C144.024 22.4032 143.88 23.5613 142.96 23.8763V23.9359C144.084 23.7997 144.28 22.2585 144.109 21.3048Z" fill="#263238"/>
<path d="M143.232 20.2314C141.606 20.0696 141.401 23.3224 142.908 23.4756C144.415 23.6289 144.586 20.3506 143.232 20.2314Z" fill="#263238"/>
<path d="M142.577 20.3511C142.287 20.5214 141.981 20.828 141.64 20.845C141.299 20.862 140.959 20.4959 140.72 20.1553C140.72 20.1553 140.669 20.1553 140.661 20.1553C140.618 20.7769 140.814 21.4325 141.512 21.5688C142.211 21.705 142.594 21.16 142.79 20.547C142.79 20.4703 142.696 20.2915 142.577 20.3511Z" fill="#263238"/>
<path d="M149.602 21.5859C149.602 21.5859 149.678 21.637 149.67 21.6796C149.568 22.6844 149.619 23.8509 150.521 24.2341V24.2937C149.397 24.0723 149.321 22.5226 149.602 21.5859Z" fill="#263238"/>
<path d="M150.572 20.5889C152.207 20.5889 152.105 23.8416 150.572 23.8501C149.039 23.8586 149.201 20.5974 150.572 20.5889Z" fill="#263238"/>
<path d="M151.245 20.8275C151.5 21.0063 151.747 21.3299 152.054 21.3554C152.361 21.381 152.684 21.0489 152.905 20.7168H152.957C152.957 21.3469 152.727 21.9855 152.105 22.0877C151.483 22.1899 151.168 21.6364 151.041 21.0063C151.024 20.9297 151.143 20.7509 151.245 20.8275Z" fill="#263238"/>
<path d="M143.65 29.4533C143.863 29.7088 144.067 30.0579 144.425 30.1345C144.8 30.1632 145.176 30.1139 145.531 29.9898C145.531 29.9898 145.6 29.9898 145.531 30.0494C145.367 30.2327 145.155 30.3676 144.92 30.4396C144.684 30.5116 144.434 30.518 144.195 30.4581C143.996 30.3835 143.824 30.2512 143.701 30.0782C143.578 29.9053 143.51 29.6995 143.505 29.4874C143.53 29.4278 143.616 29.4108 143.65 29.4533Z" fill="#263238"/>
<path d="M148.051 26.0135C148.051 26.0135 148.179 27.5292 148.145 28.2444C148.145 28.304 147.966 28.3296 147.728 28.3296C147.111 28.4096 146.484 28.3194 145.916 28.0688C145.347 27.8181 144.857 27.4165 144.5 26.9076C144.495 26.8927 144.494 26.8764 144.497 26.8609C144.501 26.8454 144.51 26.8315 144.522 26.8212C144.534 26.8109 144.55 26.8046 144.565 26.8033C144.581 26.802 144.597 26.8057 144.611 26.8139C145.477 27.4712 146.53 27.8351 147.617 27.8527C147.676 27.6569 147.302 25.2982 147.412 25.2982C147.963 25.3747 148.502 25.5235 149.013 25.741C148.826 22.5735 148.162 19.457 147.992 16.2979C147.992 16.1872 148.153 16.1617 148.179 16.2979C149.024 19.5765 149.543 22.9307 149.729 26.3115C149.763 26.7543 148.324 26.1497 148.051 26.0135Z" fill="#263238"/>
<path d="M147.269 27.9295C146.885 28.4213 146.38 28.8056 145.804 29.0449C145.486 29.1671 145.138 29.1879 144.808 29.1046C144.084 28.9087 144.075 28.2531 144.212 27.6826C144.287 27.3875 144.396 27.1019 144.535 26.8311C145.306 27.4785 146.264 27.8633 147.269 27.9295Z" fill="#263238"/>
<path d="M145.804 29.045C145.486 29.1671 145.138 29.1879 144.808 29.1046C144.084 28.9088 144.075 28.2531 144.212 27.6826C144.591 27.6997 144.954 27.8431 145.242 28.0899C145.531 28.3367 145.728 28.6729 145.804 29.045Z" fill="#FF9CBD"/>
<path d="M138.361 41.6385L135.202 47.9651L127.752 39.0244L125.197 41.4938C125.197 41.4938 132.069 55.2965 132.171 54.7005L135.33 49.285L138.898 53.5424L139.383 43.6651L138.361 41.6385Z" fill="white"/>
<path d="M139.451 48.6205C139.451 46.9942 139.545 45.3508 139.494 43.7159C139.494 43.6563 139.408 43.6222 139.391 43.7159C138.932 45.2571 138.872 51.5071 138.744 52.9887C138.591 52.8099 135.415 49.2421 135.381 49.2932C134.717 50.1447 132.409 54.0871 132.239 54.4022C131.157 52.2138 126.951 44.2268 125.623 42.1321C125.614 42.1227 125.602 42.1165 125.59 42.1142C125.577 42.112 125.564 42.1138 125.552 42.1196C125.541 42.1253 125.532 42.1346 125.526 42.1461C125.52 42.1575 125.518 42.1706 125.52 42.1832C126.457 44.4737 132 55.2196 132.102 55.2026C133.3 53.3494 134.402 51.4368 135.406 49.472C135.926 50.2298 139.102 54.2234 139.136 53.9764C139.335 52.1979 139.44 50.4101 139.451 48.6205Z" fill="#263238"/>
<path d="M131.976 49.4467C131.942 49.7548 131.827 50.0485 131.644 50.2982V50.1194C131.633 50.0561 131.619 49.9935 131.601 49.9321C131.487 49.4983 131.29 49.0907 131.022 48.7315L130.928 48.6037L130.886 48.5441C128.425 44.9253 125.453 50.2471 125.394 50.4174C125.394 50.4174 125.64 44.8657 128.604 44.9253C130.869 44.9338 132.24 47.7437 131.976 49.4467Z" fill="#455A64"/>
<path d="M131.643 50.2806C131.568 50.373 131.479 50.4534 131.379 50.519C129.889 51.4982 125.615 50.4424 125.351 50.3742C129.387 51.0554 130.613 49.659 130.885 48.5605L130.979 48.6883C131.247 49.0475 131.444 49.4551 131.558 49.8889C131.576 49.9503 131.59 50.0129 131.601 50.0762L131.643 50.2806Z" fill="#37474F"/>
<path d="M118.752 49.1225C118.773 49.4279 118.876 49.7221 119.05 49.974C119.046 49.9144 119.046 49.8547 119.05 49.7952C119.047 49.7328 119.047 49.6702 119.05 49.6078C119.188 49.1807 119.408 48.7844 119.697 48.4413C119.725 48.3995 119.757 48.3597 119.791 48.3221L119.842 48.271C122.464 44.7713 125.181 50.2805 125.232 50.4082C125.232 50.4082 125.232 44.8565 122.285 44.7713C120.072 44.6692 118.573 47.411 118.752 49.1225Z" fill="#455A64"/>
<path d="M119.05 49.9743C119.116 50.0735 119.2 50.16 119.297 50.2298C120.736 51.2771 125.053 50.4256 125.325 50.3745C121.255 50.8599 120.097 49.4038 119.876 48.2969C119.842 48.3345 119.811 48.3743 119.782 48.4161C119.493 48.7592 119.273 49.1555 119.135 49.5826C119.132 49.645 119.132 49.7076 119.135 49.77C119.102 49.8361 119.074 49.9044 119.05 49.9743Z" fill="#37474F"/>
<path d="M127.3 75.2212L117.457 74.5144L118.351 50.085L129.948 51.3707L127.3 75.2212Z" fill="#FF8200"/>
<path opacity="0.1" d="M127.3 75.2212L117.457 74.5144L118.351 50.085L129.948 51.3707L127.3 75.2212Z" fill="black"/>
<path d="M132.086 75.5617L127.301 75.2211L129.327 51.3281L134.666 52.3414L132.086 75.5617Z" fill="#FF8200"/>
<g opacity="0.2">
<path d="M132.086 75.5617L127.301 75.2211L129.327 51.3281L134.666 52.3414L132.086 75.5617Z" fill="black"/>
</g>
<path d="M117.168 49.9742L117.296 55.2705L128.987 56.1135L129.438 49.7783L117.168 49.9742Z" fill="#FF8200"/>
<path opacity="0.2" d="M117.168 49.9742L117.296 55.2705L128.987 56.1135L129.438 49.7783L117.168 49.9742Z" fill="black"/>
<path d="M135.049 56.5562L128.986 56.1135L129.438 49.7783L136.258 51.3876L135.049 56.5562Z" fill="#FF8200"/>
<path opacity="0.3" d="M135.049 56.5562L128.986 56.1135L129.438 49.7783L136.258 51.3876L135.049 56.5562Z" fill="black"/>
<path d="M133.763 50.8084L130.374 75.4422L129.378 75.3656L132.205 50.4082L133.763 50.8084Z" fill="#37474F"/>
<path d="M125.419 49.9062L123.614 74.9573L121.323 74.787L122.558 49.9573L125.419 49.9062Z" fill="#455A64"/>
<path d="M157.835 36.7675C158.219 35.7542 157.835 34.3151 155.4 33.4466C151.671 32.1183 148.656 35.8564 148.29 36.3332C148.682 35.7882 152.369 30.8325 156.132 32.1523C159.079 33.1912 158.738 35.5243 157.835 36.7675Z" fill="#FF8200"/>
<path d="M157.835 36.7677C157.582 37.1477 157.206 37.43 156.771 37.5681C155.408 37.8917 152.352 37.9257 148.511 36.4782L148.256 36.3845V36.3334C152.343 37.1849 155.255 36.9891 156.464 36.6485C156.735 36.5424 156.97 36.3624 157.143 36.1291C157.316 35.8957 157.42 35.6183 157.444 35.3287C157.461 35.173 157.461 35.016 157.444 34.8604C157.669 35.1169 157.823 35.4277 157.892 35.7622C157.961 36.0966 157.941 36.4431 157.835 36.7677Z" fill="#FF8200"/>
<path opacity="0.2" d="M157.835 36.7677C157.582 37.1477 157.206 37.43 156.771 37.5681C155.408 37.8917 152.352 37.9257 148.511 36.4782L148.256 36.3845V36.3334C152.343 37.1849 155.255 36.9891 156.464 36.6485C156.735 36.5424 156.97 36.3624 157.143 36.1291C157.316 35.8957 157.42 35.6183 157.444 35.3287C157.461 35.173 157.461 35.016 157.444 34.8604C157.669 35.1169 157.823 35.4277 157.892 35.7622C157.961 36.0966 157.941 36.4431 157.835 36.7677Z" fill="black"/>
<path d="M155.724 31.173C155.298 29.9299 154.021 28.7037 151.466 29.2657C147.677 30.1172 148.001 35.6264 148.06 36.3076C147.975 35.5327 147.302 28.4227 151.126 27.5372C154.165 26.8474 155.562 29.3764 155.724 31.173Z" fill="#FF8200"/>
<path d="M155.723 31.1737C155.799 31.663 155.709 32.1634 155.468 32.5957C154.616 33.7112 152.326 35.5249 148.358 36.3253L148.094 36.3764V36.3083C151.866 34.8181 153.935 32.9023 154.616 31.8379C154.754 31.5239 154.809 31.1799 154.776 30.8386C154.743 30.4973 154.624 30.17 154.429 29.888C154.338 29.7202 154.232 29.5607 154.114 29.4111C154.489 29.5777 154.826 29.8204 155.103 30.1238C155.38 30.4271 155.591 30.7847 155.723 31.1737Z" fill="#FF8200"/>
<path opacity="0.2" d="M155.723 31.1737C155.799 31.663 155.709 32.1634 155.468 32.5957C154.616 33.7112 152.326 35.5249 148.358 36.3253L148.094 36.3764V36.3083C151.866 34.8181 153.935 32.9023 154.616 31.8379C154.754 31.5239 154.809 31.1799 154.776 30.8386C154.743 30.4973 154.624 30.17 154.429 29.888C154.338 29.7202 154.232 29.5607 154.114 29.4111C154.489 29.5777 154.826 29.8204 155.103 30.1238C155.38 30.4271 155.591 30.7847 155.723 31.1737Z" fill="black"/>
<path d="M138.387 35.3712C138.158 34.3153 138.728 32.9359 141.283 32.425C145.157 31.6587 147.609 35.7884 147.899 36.3078C147.584 35.7118 144.646 30.2792 140.729 31.0456C137.638 31.6501 137.638 33.9747 138.387 35.3712Z" fill="#FF8200"/>
<path d="M138.387 35.3708C138.582 35.7834 138.912 36.1169 139.323 36.3159C140.634 36.8268 143.649 37.2951 147.659 36.4181L147.923 36.3585V36.3074C143.751 36.6054 140.907 35.9583 139.757 35.4559C139.505 35.3089 139.299 35.0952 139.161 34.8382C139.022 34.5813 138.958 34.2912 138.974 33.9998C138.973 33.8446 138.993 33.6899 139.034 33.54C138.778 33.7642 138.584 34.0502 138.471 34.3708C138.358 34.6914 138.329 35.0357 138.387 35.3708Z" fill="#FF8200"/>
<path opacity="0.2" d="M138.387 35.3708C138.582 35.7834 138.912 36.1169 139.323 36.3159C140.634 36.8268 143.649 37.2951 147.659 36.4181L147.923 36.3585V36.3074C143.751 36.6054 140.907 35.9583 139.757 35.4559C139.505 35.3089 139.299 35.0952 139.161 34.8382C139.022 34.5813 138.958 34.2912 138.974 33.9998C138.973 33.8446 138.993 33.6899 139.034 33.54C138.778 33.7642 138.584 34.0502 138.471 34.3708C138.358 34.6914 138.329 35.0357 138.387 35.3708Z" fill="black"/>
<path d="M141.001 30.1094C141.597 28.9428 143.062 27.921 145.454 28.8321C149.09 30.2201 148.009 35.6441 147.821 36.2913C148.017 35.5334 149.695 28.6278 146.042 27.1717C143.155 26.0478 141.418 28.3553 141.001 30.1094Z" fill="#FF8200"/>
<path d="M141.001 30.1087C140.85 30.5819 140.865 31.0927 141.043 31.5562C141.699 32.7739 143.726 34.9026 147.549 36.265L147.804 36.3587V36.2905C144.279 34.281 142.508 32.0331 141.98 30.9346C141.897 30.6113 141.896 30.2725 141.976 29.9486C142.056 29.6246 142.216 29.3256 142.44 29.0784C142.554 28.9272 142.682 28.7875 142.823 28.6611C142.437 28.7656 142.076 28.9478 141.762 29.1968C141.449 29.4457 141.19 29.756 141.001 30.1087Z" fill="#FF8200"/>
<path opacity="0.2" d="M141.001 30.1087C140.85 30.5819 140.865 31.0927 141.043 31.5562C141.699 32.7739 143.726 34.9026 147.549 36.265L147.804 36.3587V36.2905C144.279 34.281 142.508 32.0331 141.98 30.9346C141.897 30.6113 141.896 30.2725 141.976 29.9486C142.056 29.6246 142.216 29.3256 142.44 29.0784C142.554 28.9272 142.682 28.7875 142.823 28.6611C142.437 28.7656 142.076 28.9478 141.762 29.1968C141.449 29.4457 141.19 29.756 141.001 30.1087Z" fill="black"/>
<path d="M156.064 55.4746L135.935 54.0271L136.36 36.6055L158.15 38.913L156.064 55.4746Z" fill="#37474F"/>
<path d="M163.123 55.9862L156.064 55.4753L157.555 38.8711L165.124 40.2675L163.123 55.9862Z" fill="#455A64"/>
<path d="M134.751 36.1201L134.734 43.179L157.129 44.7969L157.733 36.333L134.751 36.1201Z" fill="#263238"/>
<path d="M165.176 45.163L157.129 44.7969L157.733 36.333L166.385 38.7683L165.176 45.163Z" fill="#37474F"/>
<path d="M163.421 37.9338L160.654 55.7386L158.883 55.6109L161.19 37.3037L163.421 37.9338Z" fill="#FF8200"/>
<path opacity="0.1" d="M163.421 37.9338L160.654 55.7386L158.883 55.6109L161.19 37.3037L163.421 37.9338Z" fill="black"/>
<path d="M148.92 36.2652L147.583 54.8704L142.926 54.5298L143.709 36.2227L148.92 36.2652Z" fill="#FF8200"/>
<path d="M155.46 77.1033L126.39 75.0087L128.936 54.4961L154.106 55.4072L155.46 77.1033Z" fill="#FF8200"/>
<path opacity="0.6" d="M155.46 77.1033L126.39 75.0087L128.936 54.4961L154.106 55.4072L155.46 77.1033Z" fill="white"/>
<path d="M161.403 77.5287L153.144 76.9327L153.425 55.3643L161.829 57.5611L161.403 77.5287Z" fill="#FF8200"/>
<path d="M127.53 53.5762L127.02 60.7543L152.965 61.7336L153.561 53.5166L127.53 53.5762Z" fill="#FF8200"/>
<path opacity="0.4" d="M127.53 53.5762L127.02 60.7543L152.965 61.7336L153.561 53.5166L127.53 53.5762Z" fill="white"/>
<path d="M162.638 63.3259L152.965 61.7336L153.561 53.5166L163.711 56.1818L162.638 63.3259Z" fill="#FF8200"/>
<path opacity="0.1" d="M162.638 63.3259L152.965 61.7336L153.561 53.5166L163.711 56.1818L162.638 63.3259Z" fill="black"/>
<path d="M135.917 53.5502L134.589 75.5955L141.452 76.0894L143.189 53.5332L135.917 53.5502Z" fill="#455A64"/>
<path d="M157.605 54.5723L160.151 55.2449L158.559 77.3243L156.404 77.171L157.605 54.5723Z" fill="#455A64"/>
<path d="M119.842 118.665L158.542 121.458L158.491 77.5717L126.756 76.6436L119.842 118.665Z" fill="#455A64"/>
<path d="M110.909 118.026L122.924 118.886L127.65 76.7109L116.027 76.8812L110.909 118.026Z" fill="#263238"/>
<path d="M162.212 77.8358L161.599 86.3593L127.216 82.8255L127.914 73.0674L162.212 77.8358Z" fill="#37474F"/>
<path d="M114.179 82.9447L127.215 82.8255L127.914 73.0674L114.051 74.3702L114.179 82.9447Z" fill="#455A64"/>
<path d="M136.352 119.857L144.449 120.436L148.468 75.9282L138.957 74.6084L136.352 119.857Z" fill="#FF8200"/>
<path d="M117.96 118.528L115.209 118.333L118.65 73.9355L122.549 73.5693L117.96 118.528Z" fill="#FF8200"/>
<path d="M84.7087 78.6359C77.4369 76.7882 76.4236 86.9466 78.3225 91.8342C82.8184 103.415 90.3286 114.773 102.709 122.096C105.792 123.919 110.756 99.5147 108.193 96.6707C105.894 94.0991 96.6041 81.6588 84.7087 78.6359Z" fill="#D3766A"/>
<path d="M118.522 106.259C117.551 104.99 118.215 104.471 120.965 105.177C123.716 105.884 134.002 111.027 135.492 107.281C136.982 103.534 122.362 96.5092 117.696 95.6747C113.03 94.8402 105.179 95.1468 105.179 95.1468C107.75 97.0882 113.557 102.385 118.522 106.259Z" fill="#D3766A"/>
<path d="M92.5254 114.22C100.189 121.662 109.436 127.648 119.646 128.449C120.776 128.562 121.911 128.295 122.873 127.691C127.445 128.133 129.029 126.107 129.029 126.107C133.406 125.255 134.734 122.914 134.734 122.914C134.734 122.914 140.107 123.374 140.924 120.172C141.844 116.587 134.113 116.647 129.855 114.084C120.08 108.208 107.827 97.122 105.162 95.1465L92.5254 114.22Z" fill="#D3766A"/>
<path d="M115.26 115.122C118.101 116.875 121.057 118.433 124.107 119.788C127.539 121.054 131.06 122.064 134.64 122.811C134.663 122.811 134.685 122.82 134.701 122.836C134.717 122.852 134.726 122.874 134.726 122.896C134.726 122.919 134.717 122.941 134.701 122.957C134.685 122.973 134.663 122.982 134.64 122.982C127.578 122.236 120.856 119.564 115.209 115.258C115.082 115.156 115.141 115.046 115.26 115.122Z" fill="#263238"/>
<path d="M110.884 120.513C113.804 121.977 118.956 124.532 129.046 125.996V126.056C122.585 125.981 116.272 124.109 110.816 120.649C110.637 120.547 110.688 120.411 110.884 120.513Z" fill="#263238"/>
<path d="M108.568 123.45C113.677 125.758 117.083 126.575 122.856 127.665V127.725C116.197 127.171 113.855 126.218 108.465 123.612C108.278 123.527 108.372 123.382 108.568 123.45Z" fill="#263238"/>
<path d="M106.865 95.1121C108.687 95.0496 110.506 95.0496 112.323 95.1121C114.137 95.1888 115.942 95.408 117.721 95.7677C119.472 96.2187 121.181 96.8169 122.83 97.5559C124.499 98.2825 126.128 99.0801 127.718 99.9486C129.312 100.812 130.845 101.782 132.307 102.852C133.034 103.369 133.694 103.972 134.274 104.649C134.557 104.98 134.8 105.343 134.998 105.73C135.187 106.095 135.278 106.503 135.262 106.914C135.194 107.706 134.351 108.166 133.508 108.259C132.629 108.354 131.741 108.308 130.877 108.123C129.109 107.746 127.372 107.234 125.683 106.59L123.128 105.62C122.273 105.281 121.397 104.997 120.506 104.768C120.271 104.71 120.032 104.67 119.79 104.649C119.561 104.649 119.331 104.649 119.092 104.649C118.844 104.644 118.596 104.664 118.351 104.708L118.139 104.777C118.056 104.814 117.978 104.863 117.909 104.921L117.806 105.058C117.786 105.11 117.769 105.164 117.755 105.219C117.733 105.317 117.733 105.419 117.755 105.517C117.865 105.764 118.021 105.986 118.215 106.173C118.383 106.341 118.559 106.5 118.743 106.65C119.101 106.948 119.467 107.22 119.833 107.501C122.754 109.69 125.666 111.878 128.774 113.819C129.549 114.328 130.377 114.751 131.243 115.08C132.095 115.386 132.946 115.667 133.798 115.931C135.501 116.485 137.306 116.979 138.966 117.634C139.366 117.773 139.728 118.003 140.024 118.306C140.319 118.609 140.54 118.977 140.669 119.38C140.715 119.805 140.652 120.234 140.485 120.628C140.318 121.021 140.053 121.366 139.716 121.628C139.009 122.166 138.182 122.523 137.306 122.667C136.423 122.839 135.522 122.902 134.624 122.854H134.555V122.905C134.23 123.346 133.849 123.744 133.423 124.089C133 124.439 132.544 124.747 132.061 125.008C131.575 125.273 131.068 125.495 130.545 125.672C130.022 125.845 129.487 125.978 128.944 126.073C128.273 126.759 127.429 127.251 126.5 127.495C127.44 127.266 128.302 126.79 128.995 126.115C129.545 126.029 130.089 125.903 130.622 125.74C131.156 125.577 131.674 125.366 132.171 125.11C132.67 124.852 133.143 124.547 133.585 124.199C134.032 123.852 134.432 123.448 134.777 122.999L134.675 123.05C135.596 123.122 136.523 123.08 137.433 122.922C138.36 122.781 139.238 122.412 139.988 121.849C140.375 121.553 140.679 121.163 140.872 120.716C141.064 120.268 141.138 119.779 141.086 119.295C140.981 118.81 140.725 118.372 140.354 118.043C140.001 117.723 139.598 117.461 139.162 117.268C137.459 116.578 135.705 116.076 133.976 115.497C133.125 115.216 132.273 114.926 131.422 114.645C130.589 114.322 129.792 113.911 129.046 113.419C125.981 111.486 123.086 109.281 120.174 107.093C119.808 106.82 119.441 106.548 119.109 106.241C118.769 106.003 118.479 105.699 118.258 105.347C118.258 105.296 118.258 105.347 118.258 105.347H118.309H118.428C118.632 105.329 118.837 105.329 119.041 105.347C119.263 105.347 119.484 105.347 119.705 105.347C119.918 105.367 120.129 105.404 120.335 105.458C121.203 105.691 122.056 105.976 122.89 106.309L125.444 107.271C127.162 107.921 128.927 108.437 130.724 108.813C131.645 109.005 132.59 109.048 133.525 108.94C134.017 108.886 134.49 108.716 134.905 108.447C135.126 108.302 135.312 108.11 135.45 107.885C135.589 107.659 135.676 107.406 135.705 107.144C135.687 106.157 135.291 105.215 134.598 104.513C133.989 103.813 133.297 103.19 132.537 102.656C131.047 101.586 129.482 100.624 127.854 99.7783C126.242 98.9211 124.593 98.1377 122.907 97.4282C121.227 96.7059 119.486 96.1359 117.704 95.7252C115.908 95.402 114.088 95.2226 112.263 95.1887C110.486 95.0355 108.687 95.0099 106.865 95.1121Z" fill="#263238"/>
<path d="M177.632 77.2052C183.499 74.1824 186.377 82.6888 185.713 87.2529C184.138 98.0669 179.948 109.29 170.786 118.009C168.504 120.172 159.427 100.238 161.062 97.292C162.535 94.6353 168.053 82.1524 177.632 77.2052Z" fill="#D3766A"/>
<path d="M154.097 107.553C154.684 106.276 154.012 105.961 151.798 107.11C149.584 108.26 141.776 114.688 139.766 111.776C137.756 108.864 148.886 99.9491 152.726 98.3227C156.566 96.6963 163.352 95.3936 163.352 95.3936C161.53 97.5649 157.613 103.244 154.097 107.553Z" fill="#D3766A"/>
<path d="M177.956 109.247C172.847 117.123 166.112 124.088 157.52 126.788C156.575 127.119 155.545 127.119 154.599 126.788C150.776 128.065 149.022 126.643 149.022 126.643C145.088 126.745 143.496 125.042 143.496 125.042C143.496 125.042 138.983 126.49 137.655 123.909C136.147 121.014 142.764 119.541 145.931 116.501C153.152 109.536 161.462 97.6153 163.353 95.4014L177.956 109.247Z" fill="#D3766A"/>
<path d="M158.627 114.509C156.537 116.573 154.31 118.494 151.96 120.257C149.27 122.02 146.452 123.58 143.53 124.923C143.511 124.931 143.495 124.946 143.487 124.965C143.479 124.984 143.479 125.006 143.487 125.025C143.495 125.044 143.51 125.059 143.53 125.067C143.549 125.075 143.57 125.075 143.59 125.067C149.483 123.028 154.705 119.411 158.687 114.611C158.814 114.5 158.738 114.415 158.627 114.509Z" fill="#263238"/>
<path d="M163.464 118.273C161.25 120.112 157.333 123.314 148.988 126.566C148.988 126.566 148.988 126.626 148.988 126.618C154.511 125.276 159.553 122.425 163.549 118.384C163.685 118.273 163.617 118.137 163.464 118.273Z" fill="#263238"/>
<path d="M166.026 120.325C162.143 123.296 159.316 124.684 154.616 126.754C154.616 126.754 154.616 126.813 154.616 126.805C160.202 125.017 162.033 123.739 166.137 120.444C166.29 120.325 166.18 120.206 166.026 120.325Z" fill="#263238"/>
<path d="M39.6542 187.612C36.153 181.565 33.5459 175.043 31.9141 168.249C30.2877 161.139 30.2111 153.884 30.705 146.638C31.3265 137.459 32.3313 128.288 33.1402 119.126C33.1402 118.973 33.3701 119.015 33.3616 119.126C32.7485 127.045 32.1355 134.964 31.5905 142.891C31.0881 150.265 30.739 157.707 32.0588 165.03C34.6133 179.506 42.5322 192.474 51.8902 203.586C57.7144 210.509 64.1943 216.869 70.6231 223.17C70.6913 223.239 70.6231 223.358 70.5295 223.29C59.0087 212.62 47.4794 201.415 39.6542 187.612Z" fill="#263238"/>
<path d="M34.9626 117.253C34.9626 117.253 37.6959 123.988 37.3468 124.388C36.9977 124.789 28.1251 125.547 27.9037 125.189C27.6823 124.831 28.6956 117.772 28.6956 117.772L34.9626 117.253Z" fill="#FF8200"/>
<path d="M27.401 62.3484C42.4555 61.0542 55.6707 72.1236 56.3774 90.5585C57.0842 108.993 40.497 118.3 32.9187 118.956C27.4521 119.416 5.3387 116.759 3.39728 93.6239C1.75389 73.8266 12.3976 63.6087 27.401 62.3484Z" fill="#FF8200"/>
<path opacity="0.2" d="M34.271 94.3936C41.3618 88.4753 42.3123 77.9293 36.394 70.8386C30.4757 63.7478 19.9297 62.7973 12.839 68.7156C5.7482 74.6339 4.79773 85.1798 10.716 92.2706C16.6343 99.3614 27.1802 100.312 34.271 94.3936Z" fill="white"/>
<path opacity="0.4" d="M30.7022 79.4827C31.7404 74.0555 28.1824 68.8142 22.7552 67.7759C17.3279 66.7377 12.0866 70.2957 11.0484 75.7229C10.0101 81.1502 13.5681 86.3915 18.9953 87.4297C24.4226 88.468 29.6639 84.91 30.7022 79.4827Z" fill="white"/>
<path d="M44.7548 224.32C40.9146 212.722 42.1152 200.887 44.6101 189.136C45.999 182.238 48.0463 175.488 50.7238 168.981C50.7834 168.828 50.9963 168.938 50.9452 169.083C48.6645 174.926 46.923 180.966 45.7426 187.126C44.4072 193.066 43.5191 199.097 43.0859 205.17C42.4558 217.15 46.1853 228.356 52.0266 238.685C55.3219 244.5 59.1281 249.984 62.9173 255.476C63.0194 255.612 62.798 255.766 62.6959 255.621C55.6966 245.914 48.5866 235.798 44.7548 224.32Z" fill="#263238"/>
<path d="M52.7075 171.093C52.7075 171.093 53.2524 178.34 52.8012 178.621C52.3499 178.902 43.6646 176.918 43.5709 176.5C43.4773 176.083 46.5767 169.688 46.5767 169.688L52.7075 171.093Z" fill="#455A64"/>
<path d="M62.2614 116.495C76.9838 119.901 86.197 134.427 81.2328 152.198C76.2686 169.969 57.6463 173.767 50.2383 172.064C44.8909 170.837 24.6423 161.531 29.8535 138.923C34.3068 119.586 47.5902 113.114 62.2614 116.495Z" fill="#455A64"/>
<path d="M62.2614 116.495C76.9838 119.901 86.197 134.427 81.2328 152.198C76.2686 169.969 57.6463 173.767 50.2383 172.064C44.8909 170.837 24.6423 161.531 29.8535 138.923C34.3068 119.586 47.5902 113.114 62.2614 116.495Z" fill="#455A64"/>
<path opacity="0.2" d="M67.5046 139.389C69.5869 130.391 63.9805 121.408 54.9822 119.325C45.9839 117.243 37.0013 122.85 34.9189 131.848C32.8365 140.846 38.443 149.829 47.4413 151.911C56.4395 153.993 65.4222 148.387 67.5046 139.389Z" fill="white"/>
<path opacity="0.4" d="M40.259 137.281C41.3688 138.916 42.9385 140.185 44.7696 140.929C46.6007 141.672 48.6111 141.856 50.5468 141.458C52.4825 141.059 54.2565 140.095 55.6448 138.689C57.0332 137.282 57.9734 135.496 58.3468 133.555C58.7202 131.615 58.51 129.607 57.7427 127.785C56.9754 125.964 55.6855 124.411 54.036 123.323C52.3864 122.234 50.4513 121.659 48.475 121.67C46.4988 121.681 44.5701 122.277 42.9327 123.384C41.8436 124.12 40.9104 125.064 40.1865 126.161C39.4625 127.258 38.9621 128.487 38.7137 129.778C38.4654 131.069 38.474 132.396 38.7392 133.683C39.0043 134.97 39.5208 136.193 40.259 137.281Z" fill="white"/>
<path d="M355.33 222.711C357.383 216.07 358.462 209.166 358.532 202.215C358.532 194.961 357.008 187.919 354.93 180.996C352.29 172.234 349.284 163.566 346.475 154.855C346.432 154.719 346.219 154.804 346.262 154.94C348.612 162.485 350.962 170.029 353.244 177.59C355.364 184.632 357.323 191.776 357.689 199.159C358.413 213.779 353.61 228.109 346.994 240.942C342.881 248.937 338.011 256.532 333.14 264.085C333.089 264.17 333.2 264.264 333.259 264.179C342.106 251.279 350.8 237.825 355.33 222.711Z" fill="#263238"/>
<path d="M343.375 154.761C343.375 154.761 343.877 161.974 344.363 162.186C344.848 162.399 353.108 159.181 353.15 158.78C353.193 158.38 349.208 152.505 349.208 152.505L343.375 154.761Z" fill="#37474F"/>
<path d="M326.174 102.386C312.175 107.835 305.185 123.469 312.618 140.252C320.052 157.035 338.929 158.133 345.971 155.357C351.08 153.382 369.651 141.342 361.298 119.824C354.103 101.432 340.104 96.9618 326.174 102.386Z" fill="#37474F"/>
<path opacity="0.2" d="M329.393 138.753C338.582 138.753 346.031 131.304 346.031 122.115C346.031 112.926 338.582 105.477 329.393 105.477C320.204 105.477 312.755 112.926 312.755 122.115C312.755 131.304 320.204 138.753 329.393 138.753Z" fill="white"/>
<path opacity="0.4" d="M318.86 125.384C320.195 126.832 321.93 127.851 323.844 128.313C325.758 128.775 327.766 128.658 329.615 127.979C331.463 127.299 333.068 126.086 334.226 124.494C335.385 122.902 336.046 121.002 336.124 119.034C336.203 117.067 335.696 115.12 334.668 113.44C333.64 111.761 332.137 110.424 330.349 109.599C328.561 108.774 326.569 108.497 324.624 108.805C322.679 109.112 320.869 109.99 319.422 111.326C318.462 112.212 317.686 113.279 317.138 114.465C316.59 115.651 316.281 116.933 316.229 118.239C316.176 119.544 316.382 120.847 316.834 122.074C317.285 123.3 317.974 124.425 318.86 125.384Z" fill="white"/>
<path d="M326.932 278.1C333.54 267.882 335.362 256.208 335.907 244.279C336.307 237.29 336.036 230.278 335.098 223.341C335.098 223.187 334.843 223.238 334.86 223.392C335.582 229.586 335.739 235.834 335.328 242.057C335.118 248.109 334.458 254.137 333.353 260.091C330.951 271.782 324.54 281.626 316.323 290.098C311.699 294.866 306.658 299.183 301.626 303.518C301.498 303.628 301.626 303.824 301.805 303.713C310.975 296.127 320.393 288.191 326.932 278.1Z" fill="#263238"/>
<path d="M332.654 224.882C332.654 224.882 330.312 231.694 330.67 232.103C331.028 232.511 339.892 232.741 340.088 232.375C340.283 232.009 338.904 225.061 338.904 225.061L332.654 224.882Z" fill="#FF8200"/>
<path d="M337.185 169.935C322.164 169.5 309.639 181.174 309.937 199.524C310.235 217.874 327.222 226.21 334.775 226.431C340.233 226.593 362.023 222.744 362.721 199.66C363.309 179.94 352.154 170.369 337.185 169.935Z" fill="#FF8200"/>
<path opacity="0.2" d="M315.471 194.066C316.338 197.237 318.126 200.08 320.609 202.236C323.092 204.391 326.157 205.762 329.419 206.176C332.681 206.59 335.992 206.027 338.934 204.56C341.876 203.093 344.317 200.786 345.949 197.932C347.58 195.078 348.329 191.804 348.101 188.524C347.873 185.244 346.678 182.105 344.666 179.505C342.655 176.904 339.918 174.958 336.801 173.912C333.683 172.867 330.326 172.768 327.154 173.63C325.044 174.204 323.069 175.188 321.34 176.526C319.611 177.864 318.162 179.529 317.077 181.427C315.993 183.325 315.292 185.418 315.017 187.587C314.741 189.755 314.895 191.957 315.471 194.066Z" fill="white"/>
<path opacity="0.4" d="M320.674 187.74C321.191 189.64 322.259 191.343 323.745 192.636C325.23 193.928 327.065 194.75 329.018 195C330.971 195.249 332.954 194.914 334.716 194.036C336.478 193.158 337.94 191.778 338.918 190.069C339.896 188.36 340.345 186.4 340.208 184.436C340.072 182.472 339.356 180.593 338.151 179.035C336.947 177.478 335.308 176.313 333.441 175.688C331.574 175.062 329.564 175.004 327.664 175.521C326.402 175.863 325.22 176.451 324.186 177.251C323.151 178.05 322.285 179.046 321.635 180.181C320.986 181.316 320.567 182.568 320.402 183.865C320.237 185.162 320.329 186.479 320.674 187.74Z" fill="white"/>
</svg>
