<svg width="24" height="24" viewBox="0 0 24 24" fill="none" xmlns="http://www.w3.org/2000/svg">
<path d="M22.6452 15.0998C23.3922 15.0998 24 14.4921 24 13.7451C24 12.9981 23.3922 12.3904 22.6452 12.3904H20.9338V11.6092H22.6452C23.3922 11.6092 24 11.0015 24 10.2545C24 9.50751 23.3922 8.89978 22.6452 8.89978H20.9338V8.11866H22.6452C23.3922 8.11866 23.9999 7.51092 23.9999 6.76393C23.9999 6.01693 23.3922 5.40919 22.6452 5.40919H20.9337V4.62812H22.6452C23.3922 4.62812 23.9999 4.02038 23.9999 3.27339C23.9999 2.52639 23.3922 1.9187 22.6452 1.9187L18.5017 1.91894C17.636 1.91894 16.8275 2.25076 16.2249 2.85334C15.6224 3.45592 15.2905 4.26442 15.2905 5.1301V18.8211C15.2905 20.3739 16.3884 21.6745 17.8485 21.9889C17.8566 21.9909 17.8647 21.993 17.873 21.9946C18.0857 22.0386 18.3058 22.0619 18.5314 22.0619H18.7373C18.7839 22.0744 18.8328 22.081 18.8834 22.081H22.6452C23.3922 22.081 24 21.4733 24 20.7263C24 19.9793 23.3922 19.3715 22.6452 19.3715H20.9338V18.5904H22.6452C23.3922 18.5904 24 17.9827 24 17.2357C24 16.4887 23.3922 15.881 22.6452 15.881H20.9338V15.0998H22.6452ZM20.3694 17.0097H22.6452C22.7698 17.0097 22.8713 17.111 22.8713 17.2357C22.8713 17.3604 22.7699 17.4618 22.6452 17.4618H20.3694C20.0577 17.4618 19.805 17.7145 19.805 18.0261V19.9359C19.805 20.2476 20.0577 20.5002 20.3694 20.5002H22.6452C22.7698 20.5002 22.8713 20.6016 22.8713 20.7263C22.8713 20.851 22.7699 20.9524 22.6452 20.9524H19.0295C18.9829 20.9399 18.9339 20.9333 18.8833 20.9333H18.545V7.07316C18.545 6.76149 18.2923 6.50883 17.9806 6.50883C17.669 6.50883 17.4163 6.76149 17.4163 7.07316V20.6139C16.8182 20.2405 16.4191 19.5767 16.4191 18.8211V5.1301C16.4191 3.96235 17.3339 3.04759 18.5016 3.04759L22.6452 3.04736C22.7698 3.04736 22.8712 3.14875 22.8712 3.27343C22.8712 3.39807 22.7698 3.49951 22.6452 3.49951H20.3693C20.0577 3.49951 19.805 3.75217 19.805 4.06384V5.97362C19.805 6.28529 20.0577 6.53794 20.3693 6.53794H22.6452C22.7698 6.53794 22.8712 6.63933 22.8712 6.76402C22.8712 6.88871 22.7698 6.9901 22.6452 6.9901H20.3693C20.0577 6.9901 19.805 7.24275 19.805 7.55442V9.46416C19.805 9.77583 20.0577 10.0285 20.3693 10.0285H22.6452C22.7698 10.0285 22.8712 10.1299 22.8712 10.2546C22.8712 10.3792 22.7698 10.4806 22.6452 10.4806H20.3693C20.0577 10.4806 19.805 10.7333 19.805 11.045V12.9547C19.805 13.2664 20.0577 13.5191 20.3693 13.5191H22.6452C22.7698 13.5191 22.8712 13.6205 22.8712 13.7451C22.8712 13.8698 22.7698 13.9712 22.6452 13.9712H20.3693C20.0577 13.9712 19.805 14.2239 19.805 14.5356V16.4453C19.805 16.757 20.0577 17.0097 20.3694 17.0097Z" fill="black" fill-opacity="0.8"/>
<path d="M18.534 5.26969C18.5267 5.23416 18.5159 5.19858 18.5018 5.16418C18.4877 5.13033 18.4702 5.09757 18.4499 5.0671C18.429 5.03607 18.4059 5.00729 18.3793 4.98132C18.3534 4.95535 18.3246 4.93168 18.2936 4.91077C18.2631 4.89047 18.2304 4.87294 18.1965 4.85883C18.1626 4.84472 18.1271 4.83399 18.091 4.82668C18.0182 4.81201 17.9431 4.81201 17.8703 4.82668C17.8342 4.83399 17.7987 4.84472 17.7648 4.85883C17.731 4.87294 17.6976 4.89043 17.6672 4.91077C17.6367 4.93163 17.6074 4.95535 17.5814 4.98132C17.5554 5.00729 17.5317 5.03607 17.5114 5.0671C17.4911 5.09757 17.4736 5.13029 17.4595 5.16418C17.4454 5.19858 17.4346 5.23416 17.4273 5.26969C17.42 5.3064 17.416 5.34361 17.416 5.38032C17.416 5.41702 17.42 5.45424 17.4273 5.49038C17.4346 5.52652 17.4454 5.56205 17.4595 5.59589C17.4736 5.6303 17.4911 5.66307 17.5114 5.69354C17.5317 5.72457 17.5554 5.75335 17.5814 5.77932C17.6074 5.80529 17.6367 5.82896 17.6672 5.8493C17.6976 5.8696 17.7309 5.88713 17.7648 5.90124C17.7987 5.91535 17.8342 5.92608 17.8703 5.93339C17.907 5.94071 17.9437 5.94469 17.981 5.94469C18.0177 5.94469 18.0543 5.94075 18.091 5.93339C18.1272 5.92604 18.1627 5.91535 18.1965 5.90124C18.2304 5.88713 18.2631 5.86964 18.2936 5.8493C18.3246 5.829 18.3534 5.80529 18.3794 5.77932C18.4059 5.75335 18.429 5.72457 18.4499 5.69354C18.4702 5.66307 18.4878 5.63035 18.5019 5.59589C18.516 5.56205 18.5267 5.52647 18.534 5.49038C18.5413 5.45429 18.5448 5.41702 18.5448 5.38032C18.5448 5.34361 18.5413 5.3064 18.534 5.26969Z" fill="black" fill-opacity="0.8"/>
<path d="M5.34808 18.5479C5.29295 18.0989 5.06627 17.6982 4.70978 17.4197C4.32981 17.1228 3.93424 17.0605 3.66921 17.0605C3.14299 17.0605 2.65572 17.2978 2.33247 17.7116C2.05394 18.068 1.9309 18.5117 1.98602 18.9607C2.04115 19.4096 2.26783 19.8103 2.62432 20.0888C3.00428 20.3857 3.39986 20.448 3.66489 20.448C4.19111 20.448 4.67833 20.2106 5.00162 19.797C5.2802 19.4406 5.40325 18.9969 5.34808 18.5479ZM4.11231 19.1021C4.00441 19.2403 3.84138 19.3194 3.66499 19.3194C3.53744 19.3194 3.42114 19.2791 3.31933 19.1995C3.20036 19.1066 3.12475 18.9729 3.10633 18.8232C3.08796 18.6735 3.12897 18.5255 3.22192 18.4065C3.32983 18.2684 3.49282 18.1892 3.66921 18.1892C3.79675 18.1892 3.91305 18.2296 4.01486 18.3092C4.13383 18.4021 4.20944 18.5357 4.22786 18.6855C4.24624 18.8353 4.20522 18.9832 4.11231 19.1021Z" fill="black" fill-opacity="0.8"/>
<path d="M12.875 16.4957C11.8276 15.1552 10.0275 14.7417 8.53331 15.3846L12.0633 10.0933C12.0653 10.0903 12.0674 10.0872 12.0693 10.0842C13.0964 8.47808 13.2521 6.47703 12.4858 4.73136L11.2489 1.91371C11.1609 1.71328 10.9649 1.58179 10.746 1.57636C10.5262 1.57111 10.3249 1.69265 10.2272 1.88859L6.82561 8.7072L3.42399 1.88859C3.32626 1.69265 3.12442 1.57078 2.90514 1.57636C2.68628 1.5817 2.49025 1.71318 2.40226 1.91371L1.16537 4.73136C0.399062 6.47703 0.55478 8.47808 1.58186 10.0842C1.58397 10.0875 1.58608 10.0908 1.58823 10.0939L5.13024 15.3889C4.53582 15.1293 3.88079 15.0319 3.22013 15.113C2.24748 15.2324 1.37954 15.7235 0.776264 16.4957C-0.469202 18.0899 -0.185515 20.4001 1.40861 21.6455C2.06017 22.1545 2.84598 22.4237 3.65992 22.4237C3.81066 22.4237 3.96245 22.4145 4.11441 22.3958C5.08707 22.2764 5.955 21.7853 6.55828 21.0131C6.65677 20.8871 6.74532 20.7556 6.82561 20.6202C6.90591 20.7556 6.99446 20.8871 7.09294 21.0131C7.81556 21.938 8.89631 22.4217 9.98793 22.4217C10.7778 22.4217 11.5735 22.1682 12.2427 21.6454C13.8367 20.4001 14.1204 18.0899 12.875 16.4957ZM4.77212 12.8235L2.52976 9.47136C1.70907 8.18459 1.58533 6.58269 2.19892 5.18497L2.95173 3.47005L6.19496 9.97132L4.77212 12.8235ZM5.66888 20.3183C5.25118 20.853 4.65029 21.1929 3.97688 21.2756C3.30348 21.3584 2.63814 21.1738 2.10348 20.7561C1.56878 20.3384 1.22884 19.7374 1.14615 19.064C1.06347 18.3906 1.24797 17.7253 1.66572 17.1906C2.08342 16.6559 2.68431 16.316 3.35771 16.2333C3.46295 16.2204 3.56804 16.214 3.67238 16.214C4.23591 16.214 4.78004 16.4005 5.23112 16.7528C5.76582 17.1705 6.10575 17.7715 6.18844 18.4449C6.27113 19.1183 6.08658 19.7836 5.66888 20.3183ZM6.78619 15.9697L6.16383 14.906C6.16378 14.9059 6.16374 14.9057 6.1636 14.9056L5.53261 13.8273L10.6995 3.47005L11.4523 5.18497C12.0659 6.58278 11.9421 8.18487 11.1213 9.47164L6.78619 15.9697ZM11.5478 20.7561C10.4441 21.6184 8.84461 21.4219 7.98225 20.3183C7.56455 19.7836 7.38005 19.1183 7.46274 18.4449C7.54542 17.7714 7.88541 17.1705 8.42006 16.7528C8.87119 16.4004 9.41526 16.2139 9.97879 16.2139C10.0831 16.2139 10.1882 16.2203 10.2935 16.2332C10.9669 16.3159 11.5678 16.6559 11.9856 17.1906C12.8479 18.2943 12.6515 19.8938 11.5478 20.7561Z" fill="black" fill-opacity="0.8"/>
<path d="M11.3185 17.7118C10.9953 17.2981 10.5081 17.0608 9.98179 17.0608C9.71676 17.0608 9.32118 17.1231 8.94121 17.4199C8.58473 17.6985 8.35804 18.0992 8.30292 18.5481C8.24779 18.9971 8.37079 19.4408 8.64932 19.7972C8.97257 20.211 9.45979 20.4483 9.98615 20.4483C10.2511 20.4483 10.6467 20.386 11.0266 20.0891C11.3827 19.8109 11.6092 19.4103 11.6644 18.9609C11.7196 18.5115 11.5967 18.0679 11.3185 17.7118ZM10.5442 18.8233C10.5257 18.9734 10.4504 19.1071 10.3318 19.1997C10.23 19.2793 10.1137 19.3196 9.98615 19.3196C9.80967 19.3196 9.64659 19.2404 9.53868 19.1023C9.44578 18.9835 9.40471 18.8354 9.42309 18.6857C9.44146 18.5359 9.51712 18.4023 9.63609 18.3093C9.7379 18.2297 9.8542 18.1894 9.98174 18.1894C10.1581 18.1894 10.3212 18.2686 10.4291 18.4067C10.5218 18.5253 10.5626 18.6732 10.5442 18.8233Z" fill="black" fill-opacity="0.8"/>
<path d="M9.94068 7.57828C9.6636 7.43573 9.32329 7.54462 9.18065 7.82175L6.56123 12.91C6.41859 13.187 6.52757 13.5274 6.8047 13.67C6.88734 13.7126 6.97556 13.7327 7.06256 13.7327C7.26716 13.7327 7.46465 13.621 7.56477 13.4265L10.1842 8.33831C10.3268 8.06114 10.2178 7.72092 9.94068 7.57828Z" fill="black" fill-opacity="0.8"/>
<path d="M11.0105 6.46427C11.0032 6.42818 10.9925 6.39316 10.9784 6.35876C10.9643 6.32491 10.9468 6.29215 10.9265 6.26168C10.9056 6.23065 10.8824 6.20187 10.8565 6.1759C10.8299 6.14937 10.8012 6.12626 10.7701 6.10535C10.7397 6.08505 10.7069 6.06752 10.673 6.05341C10.6392 6.0393 10.6036 6.02857 10.5675 6.02126C10.4947 6.00659 10.4197 6.00659 10.3469 6.02126C10.3108 6.02857 10.2752 6.0393 10.2414 6.05341C10.2075 6.06752 10.1742 6.08501 10.1437 6.10535C10.1127 6.12621 10.0839 6.14937 10.058 6.1759C10.032 6.20187 10.0083 6.23065 9.98797 6.26168C9.96767 6.29215 9.95014 6.32487 9.93603 6.35876C9.92192 6.39316 9.91119 6.42818 9.90387 6.46427C9.89656 6.50098 9.89258 6.53763 9.89258 6.5749C9.89258 6.7233 9.95295 6.8689 10.0579 6.9739C10.0839 6.99987 10.1127 7.02354 10.1437 7.04388C10.1742 7.06418 10.2074 7.08171 10.2413 7.09582C10.2752 7.10993 10.3107 7.12066 10.3468 7.12797C10.3829 7.13529 10.4202 7.13927 10.4569 7.13927C10.4942 7.13927 10.5308 7.13533 10.5675 7.12797C10.6037 7.12066 10.6392 7.10993 10.673 7.09582C10.7069 7.08171 10.7397 7.06423 10.7701 7.04388C10.8012 7.02358 10.8299 6.99987 10.8565 6.9739C10.9614 6.86894 11.0212 6.72335 11.0212 6.5749C11.0213 6.53763 11.0179 6.50093 11.0105 6.46427Z" fill="black" fill-opacity="0.8"/>
</svg>
