<svg width="308" height="297" viewBox="0 0 308 297" fill="none" xmlns="http://www.w3.org/2000/svg">
<path d="M47.2011 46.322H23.8643V159.86H47.2011V46.322Z" fill="#A6A6A6"/>
<path d="M107.404 46.322H47.209V159.86H107.404V46.322Z" fill="#DBDBDB"/>
<path d="M105.514 48.1477H49.0986V158.073H105.514V48.1477Z" fill="#C7C7C7"/>
<path d="M105.514 48.1477H87.5684V158.073H105.514V48.1477Z" fill="#A6A6A6"/>
<path d="M140 163.134L107.404 159.86V46.322L140 43.0476V163.134Z" fill="#C7C7C7"/>
<path d="M88.7105 81.8398H58.5762V113.245H88.7105V81.8398Z" fill="#DBDBDB"/>
<path d="M62.0188 81.8398H58.5762V113.245H62.0188V81.8398Z" fill="#A6A6A6"/>
<path d="M66.0548 84.4581C66.0563 84.6434 65.9957 84.8249 65.8806 84.9796C65.7656 85.1343 65.6014 85.2552 65.4088 85.3271C65.2162 85.3989 65.0039 85.4183 64.7988 85.383C64.5937 85.3476 64.4051 85.259 64.2569 85.1284C64.1086 84.9979 64.0074 84.8312 63.9661 84.6495C63.9248 84.4679 63.9453 84.2794 64.0249 84.1081C64.1045 83.9368 64.2397 83.7903 64.4133 83.6872C64.5869 83.5841 64.7911 83.5291 65.0001 83.5291C65.1382 83.5282 65.2752 83.5516 65.4031 83.5979C65.5311 83.6442 65.6474 83.7125 65.7455 83.7989C65.8435 83.8852 65.9213 83.9879 65.9744 84.1011C66.0275 84.2142 66.0548 84.3356 66.0548 84.4581Z" fill="#C7C7C7"/>
<path d="M65.0001 111.582C65.5826 111.582 66.0549 111.163 66.0549 110.647C66.0549 110.13 65.5826 109.711 65.0001 109.711C64.4175 109.711 63.9453 110.13 63.9453 110.647C63.9453 111.163 64.4175 111.582 65.0001 111.582Z" fill="#C7C7C7"/>
<path d="M86.9093 84.4581C86.9108 84.6434 86.8502 84.8249 86.7351 84.9796C86.6201 85.1343 86.4559 85.2552 86.2633 85.3271C86.0707 85.3989 85.8584 85.4183 85.6533 85.383C85.4482 85.3476 85.2596 85.259 85.1113 85.1284C84.9631 84.9979 84.8619 84.8312 84.8206 84.6495C84.7793 84.4679 84.7998 84.2794 84.8794 84.1081C84.959 83.9368 85.0942 83.7903 85.2678 83.6872C85.4414 83.5841 85.6456 83.5291 85.8546 83.5291C85.9927 83.5282 86.1297 83.5516 86.2576 83.5979C86.3856 83.6442 86.5019 83.7125 86.6 83.7989C86.698 83.8852 86.7758 83.9879 86.8289 84.1011C86.882 84.2142 86.9093 84.3356 86.9093 84.4581Z" fill="#C7C7C7"/>
<path d="M86.9093 110.647C86.9093 110.832 86.8475 111.013 86.7316 111.166C86.6157 111.32 86.451 111.44 86.2582 111.511C86.0655 111.582 85.8534 111.6 85.6488 111.564C85.4442 111.528 85.2562 111.439 85.1087 111.308C84.9612 111.177 84.8608 111.011 84.8201 110.829C84.7794 110.648 84.8003 110.46 84.8801 110.289C84.9599 110.118 85.0951 109.972 85.2686 109.869C85.442 109.766 85.646 109.711 85.8546 109.711C85.9934 109.71 86.131 109.734 86.2594 109.781C86.3878 109.827 86.5044 109.896 86.6026 109.983C86.7007 110.07 86.7784 110.174 86.831 110.288C86.8837 110.402 86.9103 110.524 86.9093 110.647Z" fill="#C7C7C7"/>
<path d="M67.388 89.4672C67.388 89.7694 67.2868 90.0649 67.0974 90.3161C66.9079 90.5673 66.6386 90.763 66.3237 90.8783C66.0087 90.9937 65.6622 91.0235 65.3281 90.9641C64.994 90.9047 64.6873 90.7586 64.4469 90.5444C64.2065 90.3303 64.0431 90.0576 63.9775 89.761C63.9119 89.4645 63.947 89.1573 64.0785 88.8784C64.2099 88.5995 64.4316 88.3616 64.7157 88.1946C64.9997 88.0276 65.3332 87.9392 65.674 87.9404C66.1292 87.9422 66.5652 88.1038 66.8864 88.3899C67.2076 88.676 67.388 89.0634 67.388 89.4672Z" fill="#263238"/>
<path d="M67.388 94.736C67.388 95.0382 67.2868 95.3337 67.0974 95.5849C66.9079 95.8361 66.6386 96.0318 66.3237 96.1471C66.0087 96.2625 65.6622 96.2923 65.3281 96.2329C64.994 96.1735 64.6873 96.0274 64.4469 95.8132C64.2065 95.5991 64.0431 95.3264 63.9775 95.0298C63.9119 94.7333 63.947 94.4261 64.0785 94.1472C64.2099 93.8683 64.4316 93.6304 64.7157 93.4634C64.9997 93.2964 65.3332 93.208 65.674 93.2092C65.8997 93.2092 66.1232 93.2488 66.3316 93.3256C66.54 93.4024 66.7293 93.515 66.8886 93.6568C67.0478 93.7987 67.1739 93.967 67.2596 94.1522C67.3453 94.3374 67.3889 94.5358 67.388 94.736Z" fill="#263238"/>
<path d="M62.43 155.383C61.844 145.794 65.1402 126.401 67.323 113.57C68.3191 107.684 69.1102 103.032 69.1835 101.356C69.4032 96.5096 65.6163 95.3987 65.4551 95.3532L65.88 94.1123C65.9312 94.1123 70.9121 95.5221 70.6484 101.408C70.5679 103.156 69.7768 107.84 68.7659 113.752C66.5685 126.538 63.3163 145.846 63.8949 155.331L62.43 155.383Z" fill="#DD6A57"/>
<path d="M65.323 155.41C64.5319 148.211 66.6048 136.387 68.5972 124.953C70.736 112.745 72.9408 100.122 71.1828 94.918C69.7179 90.5977 65.7552 90.1299 65.5867 90.1104L65.7478 88.811C65.9603 88.811 70.8386 89.3633 72.5819 94.5347C74.4351 100.018 72.3035 112.219 70.0475 125.135C68.0625 136.491 66.0115 148.231 66.7806 155.273L65.323 155.41Z" fill="#455A64"/>
<path d="M84.345 113.245H81.0195V158.073H84.345V113.245Z" fill="#3DA925"/>
<path d="M80.6467 48.1477H77.3213V81.84H80.6467V48.1477Z" fill="white"/>
<path d="M74.3246 155.351H57.375V158.073H74.3246V155.351Z" fill="#DBDBDB"/>
<path d="M69.5499 0H62.1592V46.322H69.5499V0Z" fill="#263238"/>
<path d="M76.9041 46.322H79.3506V-1.14441e-05H76.9041V46.322Z" fill="#263238"/>
<path d="M82.6824 46.322H85.1289V-1.14441e-05H82.6824V46.322Z" fill="#263238"/>
<path d="M72.8235 211.587C72.8235 212.659 72.091 213.536 71.2267 213.536C70.3624 213.536 69.6299 212.666 69.6299 211.587C69.6299 210.509 70.3624 209.638 71.2267 209.638C72.091 209.638 72.8235 210.496 72.8235 211.587Z" fill="#A6A6A6"/>
<path d="M76.9041 206.182H79.3506V159.86H76.9041V206.182Z" fill="#263238"/>
<path d="M76.9102 206.182H79.3566L70.9404 212.458V210.697L76.9102 206.182Z" fill="#263238"/>
<path d="M67.6956 159.86H64.0039V212.737H67.6956V159.86Z" fill="#C7C7C7"/>
<path d="M58.7892 219.266C59.6711 219.266 60.386 218.396 60.386 217.324C60.386 216.251 59.6711 215.381 58.7892 215.381C57.9073 215.381 57.1924 216.251 57.1924 217.324C57.1924 218.396 57.9073 219.266 58.7892 219.266Z" fill="#A6A6A6"/>
<path d="M64.0043 212.737H67.6961L58.4961 218.584V216.193L64.0043 212.737Z" fill="#C7C7C7"/>
<path d="M78.3098 211.587C78.3098 212.659 77.5774 213.536 76.713 213.536C75.8487 213.536 75.1162 212.666 75.1162 211.587C75.1162 210.509 75.8487 209.638 76.713 209.638C77.5774 209.638 78.3098 210.496 78.3098 211.587Z" fill="#A6A6A6"/>
<path d="M82.6824 206.182H85.1289V159.86H82.6824V206.182Z" fill="#263238"/>
<path d="M82.6836 206.182H85.1301L76.7139 212.458V210.697L82.6836 206.182Z" fill="#263238"/>
<path d="M176.322 209.709C173.839 207.546 170.624 204.934 166.8 205.87C163.218 206.747 161.849 210.21 161.211 213.094C160.384 216.81 159.746 220.565 159.08 224.314C158.413 228.063 157.776 231.883 157.161 235.67C156.819 237.81 156.477 239.947 156.135 242.083L155.63 245.292C155.469 246.345 155.271 247.391 155.205 248.45C155.205 248.787 155.776 248.839 155.864 248.515C156.326 246.734 156.516 244.876 156.809 243.064C157.102 241.251 157.403 239.426 157.703 237.6C158.303 233.988 158.914 230.373 159.534 226.757C160.154 223.14 160.787 219.526 161.431 215.914C161.988 212.854 162.244 209.047 165.306 207.026C166.136 206.521 167.097 206.211 168.1 206.127C169.102 206.043 170.112 206.187 171.034 206.545C173.048 207.228 174.652 208.494 176.235 209.794C176.301 209.846 176.374 209.748 176.322 209.709Z" fill="#263238"/>
<path d="M172.925 207.5C172.925 207.5 167.797 205.876 165.329 209.17C162.86 212.464 165.82 220.864 188.966 225.555C188.29 219.136 186.408 212.862 183.399 206.994C178.433 197.391 169.592 201.03 172.925 207.5Z" fill="#3DA925"/>
<path d="M187.64 224.184C187.289 223.608 186.9 223.051 186.476 222.515C186.087 221.988 185.699 221.462 185.296 220.936C185.003 220.54 184.696 220.15 184.395 219.76C184.395 219.669 184.395 219.565 184.439 219.468C184.483 219.37 184.491 219.11 184.512 218.935C184.571 218.552 184.637 218.168 184.703 217.778C184.769 217.389 184.835 217.018 184.915 216.635C184.973 216.224 185.076 215.819 185.223 215.427C185.223 215.368 185.128 215.336 185.12 215.427C185.07 215.658 185.002 215.886 184.915 216.109C184.857 216.278 184.805 216.453 184.762 216.622C184.644 217.012 184.542 217.408 184.439 217.798C184.337 218.188 184.271 218.526 184.205 218.889C184.168 219.065 184.139 219.24 184.11 219.416C183.699 218.889 183.282 218.376 182.842 217.869C181.612 216.434 180.315 215.05 178.968 213.698C179.092 211.542 179.034 209.404 179.568 207.28C179.568 207.221 179.488 207.189 179.473 207.247C178.862 209.248 178.571 211.314 178.609 213.387L177.144 211.964C176.016 210.89 174.866 209.833 173.694 208.793C173.642 208.754 173.569 208.793 173.62 208.858C175.569 210.723 177.422 212.659 179.224 214.634C177.811 214.613 176.397 214.661 174.99 214.777C173.423 214.874 171.863 215.056 170.302 215.245C170.236 215.245 170.258 215.349 170.302 215.336C171.854 215.141 173.417 215.017 174.983 214.965C176.492 214.907 177.993 214.965 179.502 214.965C180.479 216.035 181.443 217.118 182.396 218.214H181.136C180.403 218.214 179.729 218.266 179.026 218.318C177.59 218.421 176.163 218.61 174.756 218.883C174.69 218.883 174.705 218.987 174.756 218.974C176.177 218.837 177.598 218.714 179.034 218.668C179.715 218.668 180.396 218.668 181.077 218.668H182.147C182.341 218.689 182.539 218.671 182.725 218.617L184.593 220.773C185.081 221.345 185.57 221.923 186.058 222.508C186.541 223.106 186.981 223.755 187.523 224.314C187.542 224.328 187.567 224.334 187.592 224.332C187.617 224.329 187.639 224.318 187.655 224.301C187.67 224.284 187.678 224.262 187.675 224.24C187.672 224.218 187.66 224.198 187.64 224.184Z" fill="#263238"/>
<path d="M175.137 212.165C174.316 212.07 173.488 212.033 172.661 212.055C171.833 212.055 171.005 212.055 170.185 212.107C170.171 212.107 170.158 212.111 170.149 212.12C170.139 212.128 170.134 212.14 170.134 212.152C170.134 212.164 170.139 212.176 170.149 212.184C170.158 212.193 170.171 212.198 170.185 212.198C171.027 212.139 171.862 212.126 172.705 212.139C173.547 212.152 174.324 212.217 175.137 212.198C175.159 212.198 175.166 212.165 175.137 212.165Z" fill="#263238"/>
<path d="M182.402 213.815C182.497 213.12 182.592 212.412 182.761 211.724C182.764 211.717 182.765 211.709 182.764 211.702C182.763 211.694 182.76 211.687 182.756 211.681C182.751 211.675 182.745 211.67 182.737 211.666C182.73 211.663 182.722 211.661 182.713 211.661C182.705 211.661 182.697 211.663 182.689 211.666C182.682 211.67 182.675 211.675 182.671 211.681C182.666 211.687 182.663 211.694 182.662 211.702C182.661 211.709 182.662 211.717 182.666 211.724C182.541 212.412 182.395 213.101 182.277 213.789C182.219 214.134 182.168 214.478 182.116 214.829C182.048 215.152 182.016 215.481 182.021 215.81C182.026 215.823 182.035 215.834 182.048 215.842C182.06 215.85 182.075 215.855 182.091 215.855C182.106 215.855 182.121 215.85 182.134 215.842C182.146 215.834 182.155 215.823 182.16 215.81C182.233 215.487 182.272 215.158 182.277 214.829C182.314 214.485 182.358 214.153 182.402 213.815Z" fill="#263238"/>
<path d="M180.879 206.045C180.674 206.734 180.476 207.423 180.337 208.118C180.263 208.469 180.197 208.826 180.146 209.177C180.075 209.519 180.048 209.868 180.066 210.216C180.066 210.216 180.117 210.216 180.132 210.216C180.223 209.892 180.284 209.562 180.315 209.229C180.366 208.891 180.424 208.547 180.49 208.209C180.63 207.494 180.776 206.786 180.974 206.078C180.996 206.019 180.893 205.993 180.879 206.045Z" fill="#263238"/>
<path d="M150.73 247.696C150.603 246.397 150.464 245.097 150.313 243.798C150.005 241.238 149.656 238.685 149.265 236.138C148.885 233.598 148.533 231.051 148.057 228.518C147.884 227.344 147.587 226.186 147.171 225.061C147.023 224.577 146.751 224.13 146.376 223.755C146.001 223.379 145.534 223.086 145.01 222.898C142.285 222.06 140.446 224.568 139.348 226.341C139.348 226.393 139.406 226.432 139.443 226.387C140.102 225.542 141.919 223.19 143.984 223.301C145.376 223.372 146.489 224.243 147.156 227.322C148.819 234.982 150.32 250.529 150.489 251.549C150.584 252.088 151.016 252.062 151.016 251.484C151.023 250.23 150.862 248.957 150.73 247.696Z" fill="#263238"/>
<path d="M140.116 225.438C140.116 225.438 142.497 217.98 137.238 221.709C128.448 227.92 128.162 241.414 128.162 241.414C128.162 241.414 143.742 233.39 145.676 228.102C148.525 220.189 140.116 225.438 140.116 225.438Z" fill="#3DA925"/>
<path d="M143.046 229.063C141.823 229.284 140.585 229.427 139.384 229.59L137.633 229.804C137.238 229.856 136.842 229.888 136.439 229.934C137.604 228.511 138.768 227.101 139.882 225.652C139.926 225.6 139.831 225.542 139.779 225.588C138.858 226.433 137.99 227.322 137.179 228.251C136.952 227.673 136.718 227.095 136.49 226.523C136.219 225.873 135.941 225.191 135.758 224.503C135.761 224.496 135.762 224.488 135.761 224.481C135.76 224.473 135.758 224.466 135.753 224.46C135.748 224.454 135.742 224.449 135.734 224.445C135.727 224.442 135.719 224.44 135.71 224.44C135.702 224.44 135.694 224.442 135.686 224.445C135.679 224.449 135.673 224.454 135.668 224.46C135.663 224.466 135.66 224.473 135.659 224.481C135.658 224.488 135.66 224.496 135.663 224.503C135.875 225.152 136.022 225.88 136.227 226.569C136.432 227.257 136.659 227.868 136.959 228.518C136.388 229.167 135.839 229.817 135.311 230.532C135.04 229.882 134.711 229.232 134.469 228.518C134.469 228.466 134.352 228.518 134.374 228.518C134.652 229.278 134.798 230.064 135.062 230.824C134.703 231.285 134.33 231.753 134.007 232.221C133.377 233.078 132.784 233.955 132.205 234.819C132.161 234.838 132.124 234.867 132.1 234.904C132.075 234.941 132.063 234.984 132.066 235.027C131.085 236.535 130.147 238.068 129.224 239.614C129.217 239.625 129.216 239.638 129.22 239.651C129.224 239.663 129.234 239.673 129.246 239.679C129.259 239.685 129.274 239.686 129.287 239.683C129.301 239.679 129.313 239.671 129.319 239.66C130.242 238.133 131.268 236.645 132.337 235.183C132.488 235.169 132.64 235.169 132.791 235.183L133.333 235.086C133.736 235.008 134.132 234.91 134.535 234.826C135.326 234.651 136.102 234.488 136.908 234.365C136.974 234.365 136.945 234.261 136.908 234.274C135.963 234.436 135.018 234.527 134.066 234.625C133.619 234.67 133.165 234.722 132.718 234.787H132.652C133.216 234.033 133.78 233.286 134.359 232.546C134.938 231.805 135.502 231.097 136.088 230.382C136.63 230.311 137.164 230.187 137.699 230.096L139.508 229.784C140.717 229.57 141.911 229.336 143.127 229.135C143.127 229.148 143.097 229.057 143.046 229.063Z" fill="#263238"/>
<path d="M133.671 229.804L133.458 229.206C133.315 228.796 133.198 228.38 133.107 227.959C133.107 227.9 132.99 227.926 133.004 227.959C133.107 228.381 133.217 228.797 133.326 229.219C133.425 229.641 133.56 230.056 133.729 230.46C133.737 230.482 133.754 230.5 133.777 230.51C133.8 230.52 133.826 230.522 133.85 230.515C133.875 230.508 133.895 230.493 133.906 230.473C133.918 230.453 133.92 230.43 133.912 230.408C133.847 230.22 133.751 229.986 133.671 229.804Z" fill="#263238"/>
<path d="M144.621 227.342C143.889 227.433 143.2 227.478 142.482 227.537C141.765 227.595 141.054 227.68 140.344 227.771C140.3 227.771 140.3 227.829 140.344 227.829C141.076 227.784 141.772 227.738 142.482 227.654C143.193 227.569 143.947 227.478 144.629 227.433C144.694 227.426 144.687 227.329 144.621 227.342Z" fill="#263238"/>
<path d="M162.193 238.256C161.915 232.766 161.527 227.283 160.904 221.813C160.596 219.091 160.245 216.369 159.813 213.659C159.427 210.997 158.835 208.362 158.04 205.772C157.502 203.758 156.505 201.864 155.11 200.205C154.416 199.4 153.503 198.765 152.456 198.359C151.409 197.953 150.263 197.79 149.126 197.885C146.415 198.184 144.233 199.698 142.35 201.342C140.233 203.187 138.292 205.201 136.329 207.189L134.864 208.696C134.82 208.741 134.864 208.806 134.937 208.761C136.857 206.812 138.849 204.908 140.929 203.096C142.856 201.419 144.841 199.587 147.521 198.892C148.761 198.542 150.088 198.515 151.345 198.814C152.342 199.096 153.241 199.602 153.953 200.283C155.369 201.744 156.374 203.483 156.883 205.357C158.545 210.405 159.146 215.693 159.761 220.903C160.377 226.114 160.816 231.506 161.116 236.827C161.417 242.148 161.651 247.521 162.23 252.848C162.303 253.498 162.398 254.147 162.493 254.797C162.552 255.239 163.328 255.239 163.284 254.797C162.757 249.281 162.471 243.772 162.193 238.256Z" fill="#263238"/>
<path d="M141.977 201.939C141.977 201.939 145.515 196.138 141.332 194.273C137.15 192.408 123.181 206.253 119.102 226.49C119.102 226.49 141.677 217.629 149.338 208.8C157 199.971 148.313 198.028 141.977 201.939Z" fill="#3DA925"/>
<path d="M145.295 206.656C142.76 206.656 140.226 206.487 137.692 206.5L139.12 205.051C139.83 204.41 140.493 203.728 141.105 203.011C141.142 202.966 141.061 202.894 141.01 202.933C140.323 203.462 139.681 204.035 139.091 204.649C138.453 205.246 137.823 205.844 137.194 206.448C136.217 207.384 135.262 208.326 134.33 209.274C134.33 209.183 134.33 209.092 134.33 209.001C134.33 208.605 134.33 208.215 134.33 207.819C134.33 207.059 134.33 206.292 134.33 205.532C134.33 203.986 134.33 202.427 134.461 200.887C134.461 200.822 134.366 200.828 134.359 200.887C134.234 202.44 134.059 203.986 133.971 205.539C133.927 206.299 133.905 207.065 133.897 207.832C133.897 208.222 133.897 208.618 133.897 209.008C133.897 209.222 133.897 209.45 133.897 209.658L133.451 210.093C131.429 212.146 129.503 214.27 127.591 216.434C127.598 216.313 127.598 216.191 127.591 216.07C127.591 215.836 127.532 215.596 127.503 215.355C127.437 214.842 127.356 214.329 127.276 213.815C127.195 213.302 127.107 212.847 127.012 212.367C126.917 211.886 126.763 211.282 126.712 210.73C126.712 210.665 126.595 210.678 126.617 210.73C126.722 211.273 126.79 211.822 126.822 212.373C126.88 212.867 126.932 213.367 126.983 213.861C127.034 214.355 127.078 214.848 127.137 215.349C127.137 215.583 127.188 215.823 127.217 216.063C127.217 216.18 127.217 216.297 127.268 216.421C127.279 216.52 127.316 216.616 127.378 216.7L126.411 217.817C125.13 219.325 123.877 220.839 122.617 222.365C122.617 222.411 122.654 222.476 122.69 222.43C123.884 221.053 125.108 219.702 126.353 218.363C127.276 218.396 128.228 218.363 129.158 218.324C130.088 218.285 131.114 218.324 132.088 218.324C132.154 218.324 132.147 218.233 132.088 218.233H129.158C128.265 218.233 127.356 218.194 126.463 218.233C127.554 217.057 128.66 215.888 129.766 214.719L130.975 213.419C131.352 213.458 131.733 213.458 132.11 213.419H133.443C134.278 213.419 135.113 213.419 135.948 213.419C137.67 213.419 139.391 213.348 141.12 213.341C141.186 213.341 141.178 213.25 141.12 213.25C139.398 213.25 137.67 213.166 135.948 213.127C135.113 213.127 134.278 213.081 133.443 213.075H132.11C131.854 213.075 131.59 213.075 131.334 213.075L134.183 210.086C134.205 210.074 134.223 210.056 134.234 210.034C135.157 209.066 136.08 208.085 137.018 207.137L137.406 206.747C140.036 206.818 142.665 206.663 145.295 206.708C145.368 206.754 145.361 206.656 145.295 206.656Z" fill="#263238"/>
<path d="M143.998 210.632H143.383C143.373 210.635 143.365 210.641 143.359 210.649C143.354 210.656 143.351 210.665 143.351 210.674C143.351 210.683 143.354 210.692 143.359 210.7C143.365 210.707 143.373 210.713 143.383 210.716H143.998C144.071 210.729 144.064 210.632 143.998 210.632Z" fill="#263238"/>
<path d="M142.637 210.638C141.824 210.638 141.011 210.638 140.197 210.593H138.974C138.597 210.551 138.216 210.551 137.839 210.593C137.839 210.593 137.839 210.651 137.839 210.658C138.212 210.727 138.594 210.751 138.974 210.729H140.19H142.629C142.703 210.736 142.703 210.645 142.637 210.638Z" fill="#263238"/>
<path d="M135.538 217.402C133.887 217.157 132.217 217.023 130.543 216.999V217.031C132.206 217.174 133.861 217.252 135.509 217.486C135.575 217.499 135.604 217.408 135.538 217.402Z" fill="#263238"/>
<path d="M128.749 210.957C128.749 210.827 128.749 210.697 128.698 210.573C128.654 210.281 128.602 209.995 128.551 209.703C128.456 209.157 128.346 208.605 128.229 208.059C128.229 208.007 128.119 208.02 128.126 208.059C128.207 208.624 128.273 209.19 128.331 209.761C128.331 210.041 128.383 210.32 128.412 210.599C128.404 210.868 128.449 211.136 128.544 211.392C128.588 211.476 128.734 211.444 128.756 211.392C128.79 211.248 128.787 211.1 128.749 210.957Z" fill="#263238"/>
<path d="M161.973 194.488C161.16 193.156 160.135 191.389 158.121 191.506C156.45 191.596 155.703 193.104 155.344 194.351C154.246 198.204 154.172 202.264 153.953 206.214C153.506 214.563 153.096 222.917 153.037 231.272C153.037 233.585 153.037 235.902 153.037 238.224C153.037 240.582 153.037 242.96 153.228 245.318C153.236 245.358 153.261 245.394 153.296 245.42C153.331 245.446 153.376 245.46 153.422 245.46C153.468 245.46 153.512 245.446 153.547 245.42C153.583 245.394 153.607 245.358 153.616 245.318C153.616 243.304 153.55 241.277 153.543 239.257C153.535 237.236 153.543 235.313 153.586 233.345C153.66 229.351 153.779 225.358 153.945 221.365C154.114 217.395 154.312 213.432 154.495 209.463C154.588 207.479 154.685 205.497 154.788 203.518C154.883 201.569 154.978 199.672 155.227 197.762C155.366 196.696 155.542 195.624 155.799 194.572C155.921 193.787 156.28 193.046 156.839 192.428C157.223 192.095 157.729 191.894 158.265 191.859C158.801 191.825 159.334 191.959 159.769 192.24C160.685 192.829 161.406 193.625 161.856 194.546C161.915 194.591 162.003 194.54 161.973 194.488Z" fill="#263238"/>
<path d="M161.424 193.851C161.424 193.851 159.769 188.653 163.431 191.252C169.533 195.579 169.752 204.98 169.752 204.98C169.752 204.98 158.904 199.393 157.557 195.702C155.55 190.213 161.424 193.851 161.424 193.851Z" fill="#3DA925"/>
<path d="M167.467 201.127C167.372 200.984 167.262 200.841 167.16 200.698C167.174 200.551 167.174 200.404 167.16 200.257C167.16 200.036 167.16 199.808 167.16 199.607C167.16 199.165 167.16 198.73 167.211 198.308C167.211 198.296 167.206 198.284 167.196 198.275C167.186 198.267 167.173 198.262 167.16 198.262C167.146 198.262 167.133 198.267 167.123 198.275C167.114 198.284 167.108 198.296 167.108 198.308C167.108 198.736 167.064 199.165 167.05 199.607C167.05 199.821 167.05 200.042 167.05 200.257C167.05 200.341 167.05 200.439 167.05 200.53C166.625 199.945 166.193 199.367 165.739 198.795C165.607 198.626 165.468 198.47 165.336 198.301C165.269 197.738 165.256 197.171 165.299 196.605C165.299 196.001 165.299 195.404 165.343 194.799C165.343 194.787 165.338 194.776 165.328 194.767C165.318 194.759 165.305 194.754 165.292 194.754C165.278 194.754 165.265 194.759 165.256 194.767C165.246 194.776 165.241 194.787 165.241 194.799C165.241 195.449 165.182 196.053 165.145 196.683C165.107 197.131 165.095 197.58 165.109 198.028C164.061 196.761 162.948 195.547 161.82 194.332C161.783 194.293 161.703 194.332 161.739 194.39C162.472 195.17 163.109 195.975 163.761 196.787C162.486 196.521 161.19 196.372 159.886 196.203C159.82 196.203 159.798 196.287 159.886 196.294C161.256 196.476 162.604 196.781 163.966 197.047C164.486 197.697 164.999 198.347 165.512 198.996L166.127 199.795H166.068L165.643 199.743L164.742 199.672C164.12 199.626 163.49 199.6 162.867 199.568C162.801 199.568 162.801 199.659 162.867 199.665C163.483 199.665 164.098 199.717 164.713 199.776L165.68 199.88L166.105 199.925H166.229L167.27 201.29C167.885 202.095 168.434 202.953 169.086 203.732C169.123 203.778 169.196 203.732 169.174 203.68C168.661 202.801 168.091 201.949 167.467 201.127Z" fill="#263238"/>
<path d="M164.771 195.26V194.65C164.757 194.216 164.776 193.782 164.83 193.35C164.83 193.338 164.825 193.327 164.815 193.318C164.805 193.31 164.792 193.305 164.779 193.305C164.765 193.305 164.752 193.31 164.743 193.318C164.733 193.327 164.728 193.338 164.728 193.35C164.728 193.773 164.676 194.188 164.654 194.611C164.654 194.819 164.654 195.033 164.654 195.26V195.553C164.632 195.651 164.632 195.753 164.654 195.852C164.654 195.862 164.659 195.872 164.667 195.879C164.675 195.887 164.687 195.891 164.698 195.891C164.71 195.891 164.721 195.887 164.729 195.879C164.738 195.872 164.742 195.862 164.742 195.852C164.757 195.759 164.757 195.665 164.742 195.572L164.771 195.26Z" fill="#263238"/>
<path d="M163.431 197.411C163.023 197.355 162.612 197.318 162.2 197.3C161.753 197.268 161.307 197.229 160.86 197.177C160.846 197.177 160.833 197.182 160.824 197.19C160.814 197.199 160.809 197.21 160.809 197.222C160.809 197.235 160.814 197.246 160.824 197.255C160.833 197.263 160.846 197.268 160.86 197.268C161.717 197.32 162.567 197.456 163.424 197.482C163.468 197.502 163.475 197.417 163.431 197.411Z" fill="#263238"/>
<path d="M162.223 222.19C159.945 220.669 157.894 218.487 154.825 218.376C152.29 218.292 150.518 219.981 149.5 221.865C148.989 222.865 148.575 223.902 148.262 224.964C147.803 226.389 147.37 227.818 146.965 229.252C146.174 232.071 145.5 234.923 144.936 237.788C144.629 239.387 144.343 240.991 144.116 242.596C143.821 244.226 143.642 245.871 143.581 247.521C143.581 247.583 143.606 247.643 143.653 247.69C143.699 247.737 143.764 247.767 143.834 247.774C143.903 247.781 143.974 247.765 144.031 247.729C144.089 247.693 144.129 247.64 144.145 247.579C144.453 246.234 144.585 244.844 144.812 243.486C145.039 242.128 145.266 240.751 145.544 239.387C146.062 236.667 146.667 233.955 147.361 231.253C148.013 228.706 148.657 226.12 149.558 223.638C150.225 221.865 151.287 219.792 153.455 219.149C156.744 218.181 159.732 220.65 162.142 222.255C162.208 222.3 162.281 222.235 162.223 222.19Z" fill="#263238"/>
<path d="M159.893 220.747C159.893 220.747 157.791 215.42 160.831 214.374C165.387 212.808 177.319 224.73 174.982 242.96C174.982 242.96 165.768 238.458 158.963 233.39C152.158 228.323 150.407 221.696 153.411 219.994C156.414 218.292 159.893 220.747 159.893 220.747Z" fill="#3DA925"/>
<path d="M173.575 239.081C173.259 238.445 172.889 237.83 172.469 237.243C172.081 236.593 171.686 235.995 171.275 235.378C170.484 234.176 169.701 232.974 168.887 231.779L168.485 231.201C168.485 231.129 168.485 231.058 168.536 230.986L168.675 230.46C168.778 230.064 168.851 229.667 168.939 229.265C169.1 228.485 169.254 227.692 169.495 226.926C169.495 226.867 169.4 226.848 169.393 226.926C169.202 227.712 168.924 228.478 168.66 229.245C168.536 229.615 168.397 229.992 168.287 230.376C168.287 230.506 168.206 230.635 168.17 230.765C167.188 229.343 166.192 227.92 165.123 226.549C165.191 226.36 165.226 226.163 165.225 225.964C165.225 225.698 165.291 225.432 165.328 225.165C165.408 224.567 165.489 223.963 165.584 223.366C165.782 222.19 165.98 221.02 166.316 219.864C166.316 219.805 166.229 219.792 166.214 219.864C165.884 221.014 165.525 222.164 165.284 223.327C165.159 223.898 165.049 224.476 164.961 225.048C164.917 225.341 164.881 225.633 164.852 225.919C164.852 226.003 164.852 226.094 164.815 226.179C164.478 225.769 164.148 225.354 163.804 224.951C162.749 223.723 161.658 222.521 160.559 221.326C160.515 221.28 160.435 221.326 160.471 221.378C162.352 223.5 164.081 225.724 165.65 228.037L166.551 229.336H166.251C165.862 229.291 165.474 229.271 165.086 229.239C164.309 229.174 163.54 229.109 162.764 229.057C161.211 228.946 159.651 228.862 158.098 228.719C158.032 228.719 158.017 228.803 158.098 228.81C159.666 228.966 161.233 229.187 162.793 229.388L165.101 229.661C165.686 229.768 166.283 229.823 166.88 229.823L168.712 232.461C168.575 232.451 168.438 232.451 168.302 232.461H166.104C165.101 232.461 164.104 232.461 163.101 232.461C163.035 232.461 163.042 232.552 163.101 232.552C164.119 232.552 165.13 232.61 166.141 232.656L167.606 232.734L168.338 232.779C168.546 232.818 168.76 232.818 168.968 232.779L170.528 235.021C171.004 235.709 171.488 236.398 171.993 237.08C172.454 237.809 172.976 238.506 173.553 239.166C173.517 239.166 173.605 239.133 173.575 239.081Z" fill="#263238"/>
<path d="M169.188 224.321C169.096 224.907 168.956 225.487 168.771 226.055C168.602 226.647 168.412 227.231 168.192 227.809C168.189 227.817 168.188 227.824 168.189 227.832C168.189 227.84 168.191 227.847 168.195 227.854C168.199 227.861 168.204 227.867 168.21 227.873C168.217 227.878 168.224 227.882 168.233 227.884C168.241 227.887 168.249 227.888 168.258 227.887C168.267 227.887 168.275 227.885 168.283 227.882C168.291 227.878 168.298 227.874 168.304 227.868C168.309 227.862 168.314 227.856 168.317 227.848C168.522 227.27 168.705 226.692 168.866 226.107C169.027 225.523 169.13 224.918 169.291 224.334C169.292 224.328 169.292 224.322 169.29 224.316C169.288 224.31 169.285 224.304 169.281 224.3C169.273 224.29 169.261 224.283 169.247 224.282C169.233 224.28 169.22 224.283 169.209 224.29C169.198 224.298 169.19 224.309 169.188 224.321Z" fill="#263238"/>
<path d="M162.413 227.887C162.273 227.78 162.094 227.72 161.908 227.719L161.044 227.615L159.418 227.439C158.297 227.322 157.169 227.225 156.048 227.101C155.982 227.101 155.968 227.186 156.048 227.192C157.103 227.303 158.158 227.446 159.22 227.569C159.733 227.634 160.253 227.699 160.773 227.751L161.505 227.822C161.797 227.822 162.087 227.866 162.362 227.952C162.413 227.978 162.45 227.92 162.413 227.887Z" fill="#263238"/>
<path d="M169.166 235.917C168.638 235.878 168.104 235.859 167.576 235.846H166.771H166.382C166.214 235.862 166.045 235.862 165.877 235.846C165.804 235.846 165.796 235.95 165.877 235.937C166.033 235.924 166.19 235.924 166.346 235.937H166.763L167.569 235.976C168.096 236.008 168.631 236.034 169.166 236.034C169.232 236.015 169.232 235.924 169.166 235.917Z" fill="#263238"/>
<path d="M172.419 233.884L172.594 233.085C172.704 232.559 172.814 232.032 172.917 231.506C172.917 231.494 172.911 231.483 172.902 231.474C172.892 231.465 172.879 231.461 172.865 231.461C172.852 231.461 172.839 231.465 172.829 231.474C172.819 231.483 172.814 231.494 172.814 231.506C172.69 232.019 172.558 232.533 172.426 233.046C172.36 233.299 172.294 233.559 172.235 233.813C172.235 233.936 172.177 234.053 172.155 234.17C172.113 234.292 172.095 234.419 172.104 234.547C172.104 234.592 172.184 234.625 172.221 234.547C172.33 234.338 172.397 234.114 172.419 233.884Z" fill="#263238"/>
<path d="M171.196 249.613L170.683 257.162L169.167 279.446H138.102L136.586 257.162L136.073 249.613H171.196Z" fill="#455A64"/>
<path d="M171.196 249.613L170.683 257.162H136.586L136.073 249.613H171.196Z" fill="#263238"/>
<path d="M173.569 244.272H133.692V251.828H173.569V244.272Z" fill="#455A64"/>
<path d="M218.345 250.21C218.345 250.21 218.345 279.29 218.345 279.31C218.345 284.871 218.294 289.75 217.987 292.271C217.99 292.283 217.99 292.297 217.987 292.31C217.986 292.907 217.831 293.496 217.532 294.031L217.496 294.064C215.635 295.194 165.534 296.714 163.768 296.247C162.003 295.779 163.365 291.27 165.233 289.841C167.101 288.412 186.014 280.213 186.014 280.213L186.336 251.139L218.345 250.21Z" fill="#EB9481"/>
<path d="M218.339 273.339V279.31C218.339 284.871 218.287 289.75 217.98 292.271C217.983 292.284 217.983 292.297 217.98 292.31C217.907 292.898 217.754 293.476 217.526 294.031L217.489 294.064C215.629 295.194 165.527 296.715 163.762 296.247C161.996 295.779 163.359 291.27 165.226 289.841C167.094 288.412 186.007 280.213 186.007 280.213L185.919 274.151L218.339 273.339Z" fill="white"/>
<path d="M163.754 296.253C165.526 296.721 215.621 295.201 217.481 294.07C218.214 293.648 218.375 287.164 218.338 279.316C218.338 279.238 218.338 279.154 218.338 279.076L186.006 279.725V280.213C186.006 280.213 167.123 288.405 165.226 289.841C163.329 291.277 161.981 295.785 163.754 296.253Z" fill="#3DA925"/>
<path d="M164.289 294.506C172.727 294.07 206.809 292.998 215.189 293.128C215.255 293.128 215.255 293.174 215.189 293.18C206.838 293.778 172.749 294.603 164.296 294.629C164.083 294.629 164.076 294.519 164.289 294.506Z" fill="#263238"/>
<path d="M183.333 280.382C186.637 279.732 190.717 280.063 193.339 282.084C193.442 282.162 193.339 282.292 193.2 282.259C189.981 281.447 186.673 280.942 183.333 280.752C183.285 280.744 183.241 280.721 183.209 280.687C183.177 280.653 183.16 280.611 183.16 280.567C183.16 280.523 183.177 280.48 183.209 280.446C183.241 280.413 183.285 280.39 183.333 280.382Z" fill="#263238"/>
<path d="M180.967 281.739C184.271 281.09 188.35 281.415 190.973 283.442C191.075 283.52 190.973 283.643 190.841 283.617C187.63 282.804 184.329 282.299 180.996 282.11C180.947 282.105 180.9 282.085 180.865 282.053C180.831 282.022 180.81 281.98 180.806 281.936C180.803 281.891 180.817 281.847 180.846 281.811C180.876 281.776 180.919 281.75 180.967 281.739Z" fill="#263238"/>
<path d="M178.616 283.091C181.919 282.441 186.006 282.772 188.621 284.793C188.724 284.871 188.621 285.001 188.49 284.975C185.279 284.159 181.978 283.653 178.645 283.467C178.597 283.46 178.553 283.438 178.521 283.406C178.488 283.373 178.469 283.332 178.465 283.289C178.462 283.246 178.475 283.203 178.502 283.167C178.529 283.131 178.569 283.104 178.616 283.091Z" fill="#263238"/>
<path d="M219.957 229.304V229.622L219.231 280.537L184.16 279.914L191.36 124.699H220.982L219.957 229.304Z" fill="#455A64"/>
<path d="M185.626 274.729C191.105 274.684 189.53 274.632 195.009 274.638C197.683 274.638 215.292 274.703 217.789 275.093C217.801 275.097 217.81 275.104 217.817 275.112C217.824 275.121 217.828 275.131 217.828 275.142C217.828 275.153 217.824 275.163 217.817 275.172C217.81 275.18 217.801 275.187 217.789 275.191C215.284 275.535 197.675 275.191 195.002 275.158C189.523 275.054 191.098 275.028 185.626 274.866C185.614 274.869 185.601 274.87 185.589 274.868C185.576 274.866 185.565 274.862 185.554 274.855C185.544 274.849 185.536 274.84 185.53 274.83C185.524 274.82 185.521 274.809 185.521 274.798C185.521 274.786 185.524 274.775 185.53 274.765C185.536 274.755 185.544 274.747 185.554 274.74C185.565 274.733 185.576 274.729 185.589 274.727C185.601 274.725 185.614 274.726 185.626 274.729Z" fill="#263238"/>
<path d="M213.277 257.467C213.35 252.816 213.436 248.164 213.533 243.512C213.729 234.209 213.924 224.897 214.119 215.576C214.5 197.065 214.835 178.555 215.123 160.048C215.306 149.608 215.298 139.161 215.599 128.721H215.65C215.841 138.024 215.723 147.334 215.709 156.657C215.694 165.98 215.643 175.27 215.54 184.593C215.34 203.104 215.013 221.616 214.559 240.127C214.42 245.325 214.273 250.568 214.075 255.785C213.877 261.002 213.738 266.231 213.343 271.442C213.338 271.455 213.329 271.466 213.316 271.474C213.304 271.482 213.289 271.487 213.273 271.487C213.258 271.487 213.243 271.482 213.23 271.474C213.218 271.466 213.208 271.455 213.204 271.442C213.086 266.771 213.211 262.113 213.277 257.467Z" fill="#263238"/>
<path d="M220.982 125.018L220.206 204.272L196.459 124.706H220.975L220.982 125.018Z" fill="#263238"/>
<path d="M273.853 235.664C273.853 235.664 290.774 260.053 290.788 260.066C293.535 265.069 295.842 269.493 296.795 271.884C296.799 271.897 296.799 271.91 296.795 271.923C297.087 272.459 297.235 273.049 297.227 273.644C297.228 273.66 297.228 273.675 297.227 273.69C296.099 275.425 251.703 296.065 249.879 296.325C248.055 296.585 247.089 291.991 248.092 289.971C249.096 287.95 262.112 273.307 262.112 273.307L245.484 248.827L273.853 235.664Z" fill="#EB9481"/>
<path d="M297.242 273.651C297.245 273.657 297.247 273.664 297.247 273.67C297.247 273.677 297.245 273.684 297.242 273.69C296.121 275.424 251.718 296.065 249.894 296.325C248.07 296.584 247.104 291.991 248.1 289.971C249.096 287.95 262.127 273.3 262.127 273.3L259.16 268.928C266.419 265.497 279.611 259.475 287.8 255.739C289.58 258.305 290.796 260.066 290.796 260.073C293.55 265.069 295.857 269.493 296.81 271.877C296.813 271.892 296.813 271.908 296.81 271.923C297.107 272.46 297.255 273.052 297.242 273.651Z" fill="white"/>
<path d="M249.879 296.325C251.703 296.065 296.099 275.424 297.227 273.69C297.666 273.04 294.656 267.122 290.781 260.047C290.744 259.971 290.702 259.897 290.656 259.826L261.848 272.819L262.111 273.248C262.111 273.248 249.103 287.892 248.092 289.919C247.081 291.946 248.055 296.584 249.879 296.325Z" fill="#3DA925"/>
<path d="M249.476 294.564C256.867 290.919 287.052 276.847 294.67 273.774C294.729 273.774 294.751 273.774 294.67 273.813C287.433 277.569 257.123 291.42 249.52 294.701C249.381 294.74 249.322 294.642 249.476 294.564Z" fill="#263238"/>
<path d="M259.753 274.502C262.412 272.644 266.25 271.371 269.597 272.189C269.729 272.222 269.678 272.384 269.597 272.397C266.296 272.894 263.064 273.705 259.958 274.814C259.913 274.823 259.867 274.82 259.825 274.804C259.782 274.788 259.747 274.761 259.724 274.726C259.701 274.691 259.692 274.65 259.697 274.61C259.702 274.569 259.721 274.532 259.753 274.502Z" fill="#263238"/>
<path d="M258.295 276.626C260.954 274.768 264.792 273.495 268.139 274.313C268.271 274.313 268.22 274.508 268.139 274.521C264.85 275.024 261.63 275.839 258.537 276.951C258.488 276.98 258.429 276.99 258.372 276.979C258.315 276.969 258.265 276.939 258.233 276.896C258.201 276.853 258.189 276.8 258.201 276.75C258.212 276.699 258.246 276.655 258.295 276.626Z" fill="#263238"/>
<path d="M256.845 278.751C259.497 276.893 263.342 275.619 266.689 276.438C266.821 276.47 266.77 276.633 266.653 276.646C263.363 277.15 260.144 277.964 257.05 279.076C257.003 279.091 256.95 279.091 256.903 279.076C256.855 279.06 256.815 279.03 256.791 278.991C256.766 278.952 256.758 278.906 256.768 278.862C256.778 278.818 256.805 278.779 256.845 278.751Z" fill="#263238"/>
<path d="M196.254 124.68C196.378 125.219 198.451 133.775 200.598 141.065C202.158 146.411 203.769 151.109 204.685 151.596C205.732 152.142 210.816 154.143 212.522 154.773C212.522 154.773 223.964 205.448 229.999 221.118C235.573 235.612 258.632 274.346 258.632 274.346L292.084 259.358C292.084 259.358 265.957 220.046 263.21 212.99C258.954 202.056 242.994 148.672 242.994 148.672C242.994 148.672 243.118 131.956 236.775 124.634L196.254 124.68Z" fill="#455A64"/>
<path d="M259.13 268.59C263.906 266.219 262.499 266.842 267.312 264.517C269.663 263.38 285.14 255.928 287.543 255.213C287.594 255.213 287.638 255.272 287.594 255.298C285.58 256.668 269.963 263.88 267.583 264.971C262.726 267.213 264.089 266.524 259.203 268.713C259.186 268.718 259.167 268.716 259.15 268.71C259.133 268.704 259.119 268.692 259.111 268.678C259.102 268.663 259.1 268.647 259.103 268.631C259.107 268.615 259.116 268.601 259.13 268.59Z" fill="#263238"/>
<path d="M234.424 144.04C233.509 143.832 232.527 143.767 231.589 143.637C230.857 143.527 230.088 143.41 229.341 143.267C227.907 143.039 226.548 142.53 225.363 141.779C224.067 140.889 223.415 139.531 222.785 138.232C222.411 137.459 222.053 136.686 221.642 135.919L221.071 134.808C220.799 134.377 220.554 133.932 220.339 133.476C220.339 133.405 220.199 133.476 220.229 133.476C220.356 133.791 220.461 134.112 220.544 134.438C220.675 134.815 220.793 135.185 220.925 135.555C221.159 136.205 221.379 136.887 221.657 137.55C222.032 138.767 222.568 139.94 223.254 141.045C224.631 142.994 227.099 143.78 229.568 144.053C230.3 144.138 230.989 144.177 231.707 144.216C232.603 144.287 233.505 144.287 234.402 144.216C234.419 144.207 234.433 144.195 234.443 144.18C234.454 144.166 234.46 144.15 234.463 144.133C234.465 144.116 234.462 144.098 234.456 144.082C234.449 144.066 234.438 144.052 234.424 144.04Z" fill="#263238"/>
<path d="M201.989 150.427C205.618 151.599 209.125 153.049 212.471 154.76C212.603 154.825 212.515 155.007 212.376 154.948C208.845 153.603 205.241 152.317 201.799 150.803C201.749 150.777 201.713 150.736 201.695 150.687C201.678 150.639 201.682 150.586 201.705 150.54C201.729 150.493 201.77 150.456 201.823 150.435C201.875 150.414 201.934 150.411 201.989 150.427Z" fill="#263238"/>
<path d="M200.913 128.968C200.913 128.864 201.133 128.838 201.133 128.968C201.134 132.463 201.332 135.956 201.726 139.434C201.887 141.045 203.352 149.965 206.509 149.316C207.037 149.205 207.308 148.744 207.388 148.016C207.376 147.093 207.236 146.174 206.971 145.281C206.619 143.41 206.341 141.539 206.158 139.655C205.791 136.143 205.836 132.608 206.29 129.104C206.296 129.085 206.309 129.068 206.326 129.056C206.344 129.044 206.366 129.037 206.389 129.037C206.411 129.037 206.433 129.044 206.451 129.056C206.469 129.068 206.481 129.085 206.487 129.104C206.397 133.972 206.717 138.838 207.447 143.663C207.843 145.983 209.161 149.51 206.429 149.835C203.697 150.16 201.836 144.345 201.499 142.747C200.629 138.196 200.432 133.564 200.913 128.968Z" fill="#263238"/>
<path d="M206.436 149.543C206.727 150.143 206.972 150.759 207.168 151.388C207.372 151.874 207.474 152.39 207.468 152.908C207.464 152.929 207.452 152.948 207.436 152.963C207.419 152.978 207.398 152.988 207.375 152.993C207.352 152.998 207.328 152.997 207.305 152.99C207.283 152.983 207.263 152.97 207.249 152.954C206.919 152.497 206.672 151.997 206.516 151.473C206.274 150.901 206.018 150.336 205.784 149.757C205.767 149.684 205.78 149.608 205.82 149.543C205.861 149.478 205.927 149.427 206.006 149.402C206.085 149.376 206.171 149.376 206.25 149.402C206.329 149.428 206.395 149.478 206.436 149.543Z" fill="#263238"/>
<path d="M283.061 254.459C278.3 246.507 273.392 238.627 268.463 230.759C266.031 226.861 263.497 223.041 261.182 219.11C258.999 215.214 257.226 211.147 255.886 206.961C252.956 198.472 250.168 189.94 247.521 181.364C244.875 172.788 242.401 164.178 240.101 155.533C239.515 153.376 238.878 151.213 238.409 149.036C237.992 146.832 237.992 144.581 238.409 142.377C238.767 140.322 238.784 138.232 238.46 136.173C238.092 134.12 237.546 132.096 236.827 130.118C236.461 129.072 236.058 128.032 235.655 126.999C235.643 126.979 235.623 126.964 235.599 126.956C235.576 126.948 235.55 126.947 235.525 126.954C235.501 126.961 235.481 126.975 235.467 126.994C235.453 127.013 235.447 127.035 235.45 127.058C236.915 131.242 238.38 135.471 238.058 139.908C237.904 142.039 237.266 144.131 237.325 146.275C237.481 148.403 237.889 150.511 238.541 152.564C240.812 161.265 243.253 169.928 245.866 178.551C248.478 187.174 251.24 195.759 254.15 204.304C255.571 208.456 256.897 212.679 258.911 216.648C260.926 220.618 263.482 224.373 265.892 228.167C270.858 236.009 275.868 243.831 280.996 251.594C281.64 252.575 282.299 253.543 282.951 254.537C282.995 254.583 283.098 254.524 283.061 254.459Z" fill="#263238"/>
<path d="M211.073 84.6727C206.37 88.7461 183.011 105.898 169.585 105.248C157.016 104.598 142.989 80.6641 139.121 76.0709C137.422 74.0504 156.415 62.0249 158.708 63.7855C161 65.5461 171.043 84.7571 173.203 85.3678C175.364 85.9785 192.98 82.3273 203.653 79.9625C213.307 77.7991 217.54 79.0594 211.073 84.6727Z" fill="#EB9481"/>
<path d="M182.234 83.9775L189.999 99.6867C189.999 99.6867 205.11 91.8321 210.808 86.2579C216.507 80.6837 216.126 77.8121 204.531 79.2414C196.954 80.2264 189.492 81.8114 182.234 83.9775Z" fill="#3DA925"/>
<path d="M179.839 84.1465L184.161 82.7432L192.079 99.3229L188.013 101.181L179.839 84.1465Z" fill="#3DA925"/>
<path opacity="0.1" d="M179.839 84.1465L184.161 82.7432L192.079 99.3229L188.013 101.181L179.839 84.1465Z" fill="black"/>
<path d="M163.374 72.764C160.869 61.7845 151.72 52.3641 149.794 51.0778C148.153 49.9798 147.296 49.4276 147.296 49.4276C144.366 47.4006 142.234 47.7449 142.234 47.7449C142.234 47.7449 139.663 44.529 137.21 45.588C134.456 46.7639 138.616 51.0518 139.275 54.6835C140.792 62.9279 140.345 75.0184 140.513 77.4222L163.374 72.764Z" fill="#EB9481"/>
<path d="M147.706 62.2977C147.297 59.8817 146.7 57.4938 145.918 55.1512C144.887 52.6322 143.646 50.1849 142.205 47.8294C142.195 47.8138 142.193 47.7955 142.198 47.7785C142.204 47.7614 142.217 47.747 142.234 47.7384C142.252 47.7298 142.272 47.7277 142.291 47.7326C142.311 47.7374 142.327 47.7489 142.337 47.7644C145.666 52.0547 147.606 57.0721 147.947 62.2717C147.945 62.2968 147.933 62.3205 147.913 62.3386C147.893 62.3567 147.867 62.3683 147.838 62.3713C147.81 62.3743 147.782 62.3687 147.757 62.3553C147.733 62.3419 147.715 62.3216 147.706 62.2977Z" fill="#263238"/>
<path d="M153.448 62.2132C152.818 59.8808 151.676 55.7944 147.215 49.4665C147.215 49.4665 147.215 49.421 147.259 49.4665C150.695 53.0907 152.929 57.49 153.712 62.1742C153.734 62.2976 153.492 62.3691 153.448 62.2132Z" fill="#263238"/>
<path d="M140.388 64.682C140.109 65.8255 139.428 65.702 138.41 63.8309C137.392 61.9599 135.136 53.7804 131.986 54.7355C128.837 55.6905 132.199 67.1703 134.184 70.1718C136.169 73.1733 140.527 77.4157 140.527 77.4157C140.366 75.0444 140.615 69.3077 140.388 64.682Z" fill="#EB9481"/>
<path d="M191.391 131.618C192.219 132.346 239.134 130.163 239.383 129.877C240.043 129.085 225.041 85.4653 213.183 77.903C210.633 76.2788 203.184 77.7861 201.463 79.3518C200.357 80.3328 198.115 86.5892 196.548 91.6957C193.376 102 190.695 130.982 191.391 131.618Z" fill="#3DA925"/>
<path d="M191.207 131.976C191.207 131.976 190.936 110.666 195.382 93.8136C198.576 81.7296 200.18 79.8261 200.18 79.8261L201.44 79.3583L199.147 89.2854L208.67 88.8826C208.67 88.8826 212.713 78.2733 213.336 78.0135C213.731 77.851 215.335 79.2673 215.335 79.2673C215.335 79.2673 211.673 90.5198 212.171 95.113C212.669 99.7062 216.309 106.885 219.357 109.049C222.404 111.212 232.798 109.256 233.039 109.308C233.281 109.36 240.364 130.917 240.481 131.209C240.598 131.501 191.207 131.976 191.207 131.976Z" fill="#455A64"/>
<path d="M197.462 99.8296C199.192 100.876 201.135 101.613 203.183 102C204.311 102.071 209.541 100.499 210.31 100.083C210.698 99.8751 210.149 92.8456 209.965 92.4103C209.782 91.975 197.96 92.0919 197.638 92.4103C196.92 93.2548 197.088 99.5437 197.462 99.8296ZM197.916 92.865C198.297 92.5597 208.801 92.2478 209.636 92.7741C209.753 94.2294 210.017 99.6217 209.848 99.8036C209.68 99.9855 204.23 101.688 203.256 101.577C201.791 101.421 198.429 99.9725 197.858 99.6282C197.447 99.3293 197.652 93.0794 197.916 92.865Z" fill="#263238"/>
<path d="M240.101 131.313C240.379 131.553 242.166 146.366 241.104 146.957C240.042 147.548 225.678 149.556 224.638 149.062C223.598 148.568 222.485 133.762 222.58 133.567C222.675 133.372 239.588 130.858 240.101 131.313Z" fill="#3DA925"/>
<path opacity="0.1" d="M223.078 140.168C223.481 144.268 224.067 148.802 224.638 149.069C225.686 149.556 240.02 147.548 241.104 146.957C241.69 146.632 241.412 142.078 241.002 137.966C240.832 135.736 240.531 133.515 240.101 131.313C239.588 130.852 222.675 133.379 222.58 133.567C222.536 133.658 222.748 136.757 223.078 140.168Z" fill="black"/>
<path d="M241.873 130.858C242.115 130.663 240.532 125.134 239.587 123.744C239.587 123.744 224.161 126.141 211.021 126.993C201.191 127.642 189.984 127.168 189.925 127.415C189.867 127.662 189.42 133.587 189.647 134.074C189.874 134.561 204.758 134.724 213.225 134.327C221.693 133.931 241.067 131.521 241.873 130.858Z" fill="#3DA925"/>
<path d="M197.251 134.75C197.558 134.951 208.238 135.075 208.45 134.867C208.663 134.659 208.743 127.337 207.908 126.908C207.41 126.655 197.983 126.72 197.383 126.96C196.782 127.2 196.958 134.542 197.251 134.75ZM198.401 127.837C198.892 127.649 206.539 127.61 206.942 127.805C207.615 128.136 207.55 133.795 207.388 133.951C207.227 134.107 198.555 134.009 198.306 133.847C198.057 133.684 197.939 128.026 198.423 127.837H198.401Z" fill="#DBDBDB"/>
<path d="M197.626 131.357L200.622 131.367L200.626 130.353L197.631 130.343L197.626 131.357Z" fill="#DBDBDB"/>
<path d="M211.241 130.767C211.255 130.861 211.307 130.947 211.387 131.01C211.467 131.072 211.57 131.107 211.677 131.107C211.784 131.107 211.887 131.072 211.967 131.01C212.047 130.947 212.099 130.861 212.113 130.767C212.099 130.673 212.047 130.587 211.967 130.525C211.887 130.462 211.784 130.428 211.677 130.428C211.57 130.428 211.467 130.462 211.387 130.525C211.307 130.587 211.255 130.673 211.241 130.767Z" fill="#263238"/>
<path d="M215.79 130.501C215.787 130.552 215.795 130.603 215.815 130.651C215.834 130.699 215.864 130.743 215.903 130.78C215.942 130.818 215.989 130.848 216.041 130.869C216.093 130.89 216.15 130.902 216.207 130.904C216.265 130.905 216.322 130.897 216.376 130.879C216.431 130.861 216.48 130.834 216.522 130.799C216.564 130.764 216.598 130.722 216.622 130.675C216.646 130.628 216.659 130.578 216.661 130.527C216.663 130.476 216.654 130.425 216.633 130.378C216.613 130.33 216.582 130.287 216.543 130.25C216.503 130.213 216.456 130.183 216.403 130.163C216.35 130.142 216.294 130.131 216.236 130.131C216.18 130.129 216.123 130.137 216.07 130.155C216.017 130.172 215.968 130.199 215.927 130.234C215.885 130.268 215.852 130.309 215.828 130.355C215.805 130.401 215.792 130.451 215.79 130.501Z" fill="#263238"/>
<path d="M239.103 128.739L233.797 129.271L232.269 117.283C232.214 116.855 232.353 116.425 232.656 116.088C232.959 115.751 233.4 115.535 233.882 115.486L235.527 115.321C236.01 115.273 236.494 115.397 236.874 115.665C237.254 115.933 237.498 116.325 237.553 116.753L239.081 128.741L239.103 128.739Z" fill="#37474F"/>
<path d="M234.83 130.442L238.396 130.084L238.237 128.832L234.67 129.19L234.83 130.442Z" fill="#37474F"/>
<path d="M237.773 143.817L238.901 143.704L237.182 130.212L236.053 130.325L237.773 143.817Z" fill="#EBEBEB"/>
<path d="M237.346 145.047C237.346 145.047 238.305 147.055 238.379 147.048L238.752 147.009L239.126 146.97C239.206 146.97 239.631 144.82 239.631 144.82L238.899 143.696L237.778 143.806L237.346 145.047Z" fill="#EBEBEB"/>
<path d="M237.501 127.561L238.426 127.468L237.086 116.958L236.162 117.051L237.501 127.561Z" fill="#263238"/>
<path d="M235.79 127.729L236.715 127.636L235.375 117.127L234.451 117.219L235.79 127.729Z" fill="#263238"/>
<path d="M234.084 127.88L235.009 127.788L233.671 117.278L232.747 117.37L234.084 127.88Z" fill="#263238"/>
<path d="M232.266 124.624L235.312 124.27L234.688 120.057L231.642 120.411L232.266 124.624Z" fill="#EBEBEB"/>
<path d="M231.538 121.23L229.48 121.49C229.165 121.522 227.766 120.405 226.799 120.515L225.737 120.639C224.821 120.743 221.071 122.023 221.386 124.147L221.569 125.407C221.569 125.407 221.935 124.231 222.778 123.92C223.174 123.776 223.617 123.774 224.014 123.916C224.411 124.058 224.729 124.332 224.902 124.68C225.17 125.287 225.39 125.91 225.561 126.544L229.341 126.102C229.41 125.341 229.555 124.587 229.773 123.848C230.037 123.276 231.824 123.198 231.824 123.198L231.538 121.23Z" fill="#EBEBEB"/>
<path d="M227.413 133.951L229.759 133.68L228.655 126.155L226.309 126.426L227.413 133.951Z" fill="#EBEBEB"/>
<path d="M228.77 147.254L232.271 146.851L229.816 130.106L226.315 130.51L228.77 147.254Z" fill="#263238"/>
<path d="M223.078 140.168C223.481 144.267 224.067 148.802 224.638 149.069C225.686 149.556 240.02 147.548 241.104 146.957C241.69 146.632 241.412 142.078 241.002 137.966L223.078 140.168Z" fill="#3DA925"/>
<path d="M204.465 85.1534C207.307 85.4782 211.629 81.2553 213.152 78.0524C213.255 77.825 212.632 75.6551 212.017 72.9914C211.651 71.3672 211.285 69.5546 211.087 67.8784L199.543 71.5361C200.467 73.5662 201.107 75.6892 201.447 77.8575C201.477 78.0885 201.477 78.3216 201.447 78.5526C201.444 78.5915 201.444 78.6307 201.447 78.6696C201.36 80.0014 201.711 84.8415 204.465 85.1534Z" fill="#EB9481"/>
<path d="M210.537 68.054C210.434 70.1654 209.512 77.8381 202.67 78.6112C202.264 78.6551 201.856 78.6746 201.447 78.6697C201.439 78.6288 201.439 78.5871 201.447 78.5463C201.469 78.3171 201.469 78.0867 201.447 77.8576C201.102 75.6872 200.46 73.5622 199.535 71.5297L210.537 68.054Z" fill="#263238"/>
<path d="M210.333 55.8333C212.149 59.4 211.49 70.3861 208.868 73.1147C205.051 77.0778 198.034 78.2147 194.042 73.9853C190.175 69.8923 191.317 55.5864 194.335 53.0397C198.759 49.2781 207.652 50.5579 210.333 55.8333Z" fill="#EB9481"/>
<path d="M199.997 63.7141C199.997 63.7141 200.056 63.7531 200.056 63.7791C199.99 64.5197 200.056 65.3773 200.788 65.6566C200.788 65.6566 200.788 65.7021 200.788 65.6956C199.873 65.5397 199.799 64.4028 199.997 63.7141Z" fill="#263238"/>
<path d="M200.781 62.9735C202.129 62.941 202.107 65.3318 200.854 65.3643C199.602 65.3968 199.653 63.019 200.781 62.9735Z" fill="#263238"/>
<path d="M195.192 63.6685C195.192 63.6685 195.127 63.7074 195.127 63.7334C195.127 64.4741 195.024 65.3251 194.27 65.5655V65.611C195.192 65.5265 195.339 64.3961 195.192 63.6685Z" fill="#263238"/>
<path d="M194.452 62.9148C193.112 62.8173 192.987 65.2016 194.225 65.2991C195.463 65.3965 195.58 63.0187 194.452 62.9148Z" fill="#263238"/>
<path d="M201.857 61.8883C201.504 61.7922 201.157 61.6794 200.817 61.5505C200.432 61.479 200.084 61.2962 199.828 61.0307C199.765 60.9341 199.74 60.8215 199.757 60.7108C199.775 60.6001 199.833 60.4978 199.924 60.42C200.132 60.2839 200.379 60.201 200.638 60.1804C200.896 60.1598 201.156 60.2022 201.389 60.3031C201.884 60.4297 202.308 60.7174 202.575 61.1087C202.636 61.2033 202.663 61.3122 202.653 61.4208C202.643 61.5294 202.596 61.6327 202.518 61.7171C202.44 61.8015 202.336 61.8631 202.218 61.8936C202.1 61.9242 201.974 61.9223 201.857 61.8883Z" fill="#263238"/>
<path d="M193.419 61.7195C193.782 61.6555 194.142 61.5753 194.496 61.4791C194.887 61.4429 195.253 61.292 195.536 61.0503C195.622 60.9592 195.669 60.8442 195.669 60.7255C195.669 60.6067 195.622 60.4918 195.536 60.4006C195.348 60.252 195.118 60.1508 194.871 60.1074C194.624 60.0639 194.368 60.08 194.13 60.1538C193.619 60.2416 193.164 60.4967 192.855 60.8684C192.786 60.9533 192.746 61.0542 192.741 61.1587C192.735 61.2633 192.764 61.367 192.824 61.4572C192.884 61.5474 192.972 61.6203 193.078 61.6668C193.183 61.7134 193.302 61.7317 193.419 61.7195Z" fill="#263238"/>
<path d="M200.759 70.607C200.561 70.7825 200.356 71.0163 200.026 71.0358C199.714 71.0284 199.406 70.962 199.125 70.8409C199.125 70.8409 199.074 70.8409 199.089 70.8799C199.208 71.0264 199.369 71.1417 199.556 71.2137C199.743 71.2857 199.949 71.3118 200.151 71.2892C200.321 71.2509 200.474 71.1688 200.591 71.0531C200.709 70.9375 200.785 70.7935 200.81 70.6395C200.854 70.6006 200.788 70.5811 200.759 70.607Z" fill="#263238"/>
<path d="M197.448 69.3661C197.835 69.735 198.322 70.0101 198.862 70.1652C199.16 70.2494 199.48 70.2494 199.778 70.1652C200.422 69.9638 200.393 69.4311 200.232 68.9763C200.14 68.7484 200.02 68.5305 199.873 68.3267C199.211 68.8941 198.361 69.2584 197.448 69.3661Z" fill="#263238"/>
<path d="M198.861 70.1652C199.159 70.2493 199.479 70.2493 199.777 70.1652C200.422 69.9638 200.392 69.4311 200.231 68.9763C199.886 69.0111 199.564 69.1469 199.316 69.3622C199.068 69.5776 198.908 69.8601 198.861 70.1652Z" fill="#F291B8"/>
<path d="M210.134 64.1363C207.702 64.7859 205.234 55.4761 205.234 55.4761C203.996 56.4282 202.6 57.2061 201.095 57.7824C199.533 58.2726 197.914 58.6061 196.268 58.7764C195.902 58.7764 199.652 56.2427 199.652 56.2427C199.652 56.2427 195.624 58.601 192.144 58.1917C191.068 58.0553 192.811 50.0642 200.4 49.4211C205.527 48.9793 208.457 52.611 208.457 52.611C208.457 52.611 211.943 54.7029 212.31 56.2427C212.778 58.2762 212.705 63.4866 210.134 64.1363Z" fill="#263238"/>
<path d="M208.186 64.604C208.186 64.604 210.501 60.8618 212.391 61.5635C214.28 62.2651 212.823 67.5015 210.816 68.3851C210.57 68.5101 210.298 68.5903 210.017 68.621C209.735 68.6517 209.45 68.6323 209.177 68.5639C208.904 68.4955 208.649 68.3796 208.428 68.2228C208.206 68.066 208.022 67.8716 207.886 67.6509L208.186 64.604Z" fill="#EB9481"/>
<path d="M211.899 63.0513V63.1032C210.5 63.7529 209.877 65.0523 209.489 66.3516C209.558 66.213 209.66 66.0894 209.788 65.9892C209.917 65.8891 210.068 65.8148 210.231 65.7715C210.395 65.7283 210.568 65.7171 210.737 65.7387C210.906 65.7604 211.067 65.8143 211.211 65.8969C211.247 65.8969 211.211 65.9748 211.211 65.9683C210.943 65.9206 210.666 65.9474 210.417 66.0451C210.168 66.1429 209.959 66.3067 209.819 66.514C209.585 66.8603 209.396 67.2285 209.255 67.612C209.204 67.7354 208.955 67.6965 208.991 67.5535C208.771 65.8709 209.943 63.4151 211.899 63.0513Z" fill="#263238"/>
<path d="M191.135 56.8858C191.135 56.8858 193.266 45.7503 204.481 47.3615C215.695 48.9727 213.754 60.1342 213.754 60.1342L191.135 56.8858Z" fill="#3DA925"/>
<path d="M214.739 59.4523L190.437 55.9612L190.148 57.5388L214.45 61.0299L214.739 59.4523Z" fill="#3DA925"/>
<path d="M202.407 57.6916L197.346 56.964L200.532 46.2053L205.593 46.933L202.407 57.6916Z" fill="#3DA925"/>
<path opacity="0.1" d="M202.407 57.6916L197.346 56.964L200.532 46.2053L205.593 46.933L202.407 57.6916Z" fill="black"/>
<path d="M201.44 78.2082L204.311 84.3412L212.845 76.4541L215.328 78.9294C215.328 78.9294 207.044 91.4097 206.985 90.851L204.055 85.5691L199.968 89.3047L200.18 80.0208L201.44 78.2082Z" fill="#3DA925"/>
<path d="M199.777 84.7115C199.865 83.1783 199.916 81.6385 200.084 80.1118C200.084 80.0533 200.187 80.0273 200.202 80.1118C200.568 81.5866 200.202 87.4467 200.202 88.85C200.37 88.6875 203.989 85.5561 204.025 85.6016C204.655 86.4397 206.809 90.2858 206.955 90.6366C208.259 88.6551 213.291 81.4436 214.844 79.5921C214.852 79.58 214.865 79.5712 214.88 79.5675C214.895 79.5639 214.911 79.5657 214.925 79.5726C214.938 79.5795 214.948 79.5909 214.952 79.6043C214.956 79.6177 214.954 79.632 214.946 79.644C213.796 81.736 207.146 91.4422 207.043 91.4162C205.909 89.6032 204.885 87.7382 203.974 85.829C203.366 86.4786 199.718 90.0389 199.696 89.8115C199.622 88.1114 199.649 86.4091 199.777 84.7115Z" fill="#263238"/>
<path d="M152.612 128.922C152.267 130.402 151.462 131.768 150.29 132.865C149.118 133.962 147.624 134.748 145.976 135.133L147.499 128.636L143.778 126.629L139.486 127.155L137.963 133.652C136.678 132.757 135.687 131.573 135.091 130.225C134.495 128.876 134.316 127.41 134.573 125.98C134.829 124.549 135.512 123.205 136.55 122.087C137.588 120.968 138.944 120.116 140.478 119.618C142.011 119.12 143.667 118.995 145.274 119.255C146.881 119.514 148.38 120.15 149.617 121.096C150.854 122.042 151.784 123.263 152.311 124.635C152.837 126.006 152.941 127.477 152.612 128.896V128.922Z" fill="#37474F"/>
<path d="M145.105 82.717C145.453 81.2366 146.258 79.8714 147.432 78.7744C148.605 77.6773 150.1 76.8919 151.749 76.5061L150.225 83.0029L153.931 84.9974L158.224 84.4712L159.747 77.9744C161.031 78.8699 162.022 80.0534 162.618 81.4024C163.214 82.7515 163.392 84.2171 163.135 85.6479C162.878 87.0787 162.195 88.4226 161.157 89.5408C160.118 90.659 158.761 91.5107 157.227 92.0081C155.693 92.5055 154.037 92.6303 152.43 92.3698C150.823 92.1093 149.324 91.4729 148.087 90.5263C146.851 89.5797 145.921 88.3573 145.396 86.9856C144.87 85.6138 144.767 84.1424 145.098 82.7235L145.105 82.717Z" fill="#37474F"/>
<path d="M156.354 87.9974L148.312 86.7383L141.146 122.746L149.189 124.005L156.354 87.9974Z" fill="#37474F"/>
<path d="M218.998 92.4686C216.939 98.0039 209.988 118.683 197.8 123.725C186.388 128.441 165.849 122.575 159.52 121.23C156.759 120.639 160.077 104.15 162.743 102.876C165.409 101.603 187.054 107.015 189.281 106.638C191.508 106.261 202.356 96.3602 209.695 89.0968C216.625 82.2557 222.836 82.1193 218.998 92.4686Z" fill="#EB9481"/>
<path d="M195.222 124.582C194.907 119.489 193.808 114.59 191.955 110.939C191.349 109.693 190.556 108.526 189.596 107.47C189.336 107.177 189.052 106.901 188.746 106.645C188.644 106.56 188.534 106.469 188.424 106.391C188.279 106.272 188.125 106.161 187.963 106.06C187.148 105.492 186.195 105.103 185.179 104.923C185.036 104.897 184.892 104.877 184.747 104.865H184.388H183.905C183.829 104.858 183.753 104.858 183.678 104.865C183.612 104.855 183.545 104.855 183.48 104.865C182.618 104.905 181.769 105.072 180.967 105.358L182.213 105.599H182.279H182.337H182.425C182.772 105.531 183.125 105.488 183.48 105.469H184.081H184.476C185.481 105.579 186.436 105.922 187.245 106.463C190.863 108.75 193.932 114.909 194.445 124.719C194.496 125.654 194.518 126.629 194.518 127.636C194.518 133.126 193.617 138.187 191.991 141.883C190.768 144.644 188.563 147.925 184.886 148.127H184.278H184.103H183.766C183.739 148.131 183.712 148.131 183.685 148.127C178.221 147.334 172.837 138.784 172.837 124.94C172.837 124.68 172.837 124.413 172.837 124.16L172.104 124.024C172.104 124.329 172.104 124.634 172.104 124.94C172.104 131.826 173.701 138.849 176.587 143.488C177.124 144.364 177.755 145.193 178.47 145.963C178.721 146.229 178.987 146.483 179.268 146.723C179.393 146.834 179.525 146.944 179.649 147.042C180.747 147.964 182.133 148.571 183.626 148.783H183.795H184.022H184.879C186.124 148.716 187.322 148.332 188.329 147.678C188.468 147.594 188.6 147.503 188.739 147.406C189.037 147.183 189.32 146.947 189.589 146.697C190.666 145.643 191.54 144.438 192.174 143.131C192.343 142.806 192.504 142.481 192.658 142.124C194.321 138.349 195.236 133.204 195.236 127.636C195.317 126.635 195.288 125.602 195.222 124.582Z" fill="#263238"/>
<path d="M197.557 123.822C197.074 118.729 195.638 113.882 193.28 110.354C192.505 109.171 191.54 108.094 190.416 107.158C190.154 106.94 189.88 106.734 189.595 106.541C188.2 105.572 186.513 104.989 184.746 104.865H184.475H183.904C183.828 104.858 183.752 104.858 183.677 104.865C183.611 104.855 183.545 104.855 183.479 104.865C183.387 104.858 183.293 104.858 183.201 104.865H183.113L182.461 104.917H182.358C181.752 104.984 181.154 105.1 180.571 105.261L180.74 105.293L180.967 105.332L182.212 105.573H182.278L182.651 105.521H183.025H183.259C183.332 105.514 183.406 105.514 183.479 105.521H184.08C184.211 105.511 184.344 105.511 184.475 105.521C185.802 105.616 187.082 105.997 188.204 106.632C188.668 106.887 189.109 107.173 189.522 107.489C190.641 108.344 191.609 109.342 192.393 110.452C194.649 113.564 196.312 118.125 196.788 124.095C196.884 125.239 196.935 126.44 196.935 127.688C196.935 133.165 195.836 138.219 193.844 141.916C193.467 142.618 193.034 143.296 192.547 143.943C191.766 145.025 190.774 145.975 189.617 146.749C188.342 147.594 186.812 148.085 185.222 148.159H184.893H184.285H184.109H183.779H183.662H183.53H183.347C183.282 148.168 183.215 148.168 183.15 148.159C182.781 148.105 182.418 148.022 182.065 147.912C181.926 147.873 181.794 147.828 181.655 147.776C180.499 147.373 179.428 146.797 178.491 146.074C177.114 145.02 175.935 143.778 174.997 142.397C172.184 138.395 170.273 132.489 170.273 125.05C170.273 124.617 170.273 124.184 170.273 123.751L169.54 123.601C169.54 124.069 169.54 124.543 169.54 125.018C169.54 130.975 171.005 137.037 173.664 141.565C174.37 142.795 175.228 143.952 176.22 145.015C177.887 146.933 180.263 148.27 182.93 148.789H183.069H183.267H183.355H183.45H183.611H183.779H183.831H184.058H185.039C187.198 148.709 189.256 147.959 190.855 146.671C191.92 145.813 192.836 144.819 193.573 143.722C193.895 143.241 194.21 142.734 194.503 142.189C196.539 138.408 197.667 133.256 197.667 127.681C197.741 126.382 197.682 125.096 197.557 123.822Z" fill="#263238"/>
<path d="M199.872 122.692C198.839 115.545 195.565 109.048 190.174 106.261C188.463 105.372 186.525 104.882 184.541 104.839H183.904C183.829 104.832 183.753 104.832 183.677 104.839C183.612 104.829 183.545 104.829 183.479 104.839C183.387 104.832 183.294 104.832 183.201 104.839H182.945L182.461 104.884H182.359C181.679 104.944 181.003 105.042 180.337 105.176H180.44H180.571L180.74 105.209L180.967 105.248L182.212 105.488L182.615 105.449H182.652H183.025H183.26C183.333 105.443 183.406 105.443 183.479 105.449H183.706H184.49C185.665 105.473 186.828 105.666 187.933 106.021C188.23 106.112 188.521 106.218 188.804 106.339C188.99 106.409 189.173 106.487 189.354 106.573C189.706 106.739 190.049 106.921 190.379 107.119C191.908 108.039 193.23 109.205 194.276 110.556L194.313 110.601C196.891 113.85 198.517 118.293 199.154 123.023C199.36 124.552 199.463 126.09 199.462 127.629C199.462 133.1 198.173 138.148 195.836 141.838C195.469 142.424 195.058 142.989 194.606 143.527C193.605 144.773 192.338 145.832 190.877 146.645C190.366 146.93 189.827 147.174 189.266 147.373C188.98 147.485 188.686 147.58 188.387 147.659C187.542 147.899 186.665 148.041 185.779 148.081C185.618 148.091 185.457 148.091 185.296 148.081C185.181 148.088 185.066 148.088 184.952 148.081H184.688C184.512 148.081 184.344 148.081 184.168 148.081H183.948H183.882H183.728H183.567H183.384C183.318 148.087 183.252 148.087 183.186 148.081H183.033L182.762 148.036C182.742 148.041 182.722 148.041 182.703 148.036C181.663 147.844 180.655 147.532 179.707 147.107C179.217 146.892 178.743 146.652 178.286 146.385C177.561 145.973 176.877 145.506 176.242 144.989C174.739 143.774 173.448 142.369 172.412 140.818C169.731 136.92 167.98 131.534 167.98 124.992C167.98 124.407 167.98 123.822 168.031 123.25L167.299 123.095C167.299 123.744 167.24 124.355 167.24 124.992C167.24 135.802 172.844 146.951 182.373 148.672C182.523 148.705 182.675 148.731 182.827 148.75H182.923H183.062H183.26H183.318H183.413H183.626L184.358 148.796H185.142C189.823 148.718 193.712 146.424 196.408 142.176C198.81 138.388 200.129 133.229 200.129 127.649C200.164 125.993 200.078 124.337 199.872 122.692Z" fill="#263238"/>
<path d="M191.391 101.909C187.676 101.98 184.022 102.765 180.682 104.209H180.623C180.106 104.442 179.6 104.696 179.107 104.969H178.939L178.147 104.813C182.086 102.569 186.652 101.343 191.332 101.272L191.391 101.909Z" fill="#263238"/>
<path d="M188.533 103.24C185.6 103.398 182.729 104.06 180.081 105.19L179.114 105.001H178.945C179.48 104.741 180.044 104.501 180.63 104.273H180.689C183.155 103.332 185.782 102.764 188.46 102.591L188.533 103.24Z" fill="#263238"/>
<path d="M188.086 101.181C184.457 101.675 181.003 102.902 177.993 104.767L177.033 104.598C180.253 102.481 184.007 101.094 187.969 100.557L188.086 101.181Z" fill="#263238"/>
<path d="M141.004 93.1574C140.529 93.624 140.226 94.2081 140.136 94.8316C140.045 95.4551 140.172 96.0882 140.498 96.6461C139.323 96.8959 138.286 97.5057 137.568 98.3678C136.389 99.9335 138.638 102.266 138.638 102.266C137.488 102.757 136.531 103.542 135.891 104.52C134.931 106.118 136.821 108.75 136.821 108.75C136.045 109.717 135.686 110.9 135.81 112.082C136.286 115.227 141.267 117.221 144.41 118.521C147.552 119.82 157.865 120.886 159.792 121.269L169.417 103.403C169.417 103.403 157.169 94.0214 153.221 92.956C149.867 92.0659 142.901 91.4357 141.004 93.1574Z" fill="#EB9481"/>
<path d="M140.79 96.4188C144.585 96.6137 148.115 97.7961 151.69 98.7966C151.706 98.8018 151.72 98.8126 151.727 98.8266C151.735 98.8406 151.736 98.8567 151.73 98.8713C151.724 98.886 151.712 98.898 151.696 98.9047C151.68 98.9114 151.662 98.9122 151.646 98.9071C148.093 97.8741 144.321 97.4778 140.761 96.5747C140.738 96.5713 140.717 96.5598 140.703 96.5427C140.689 96.5256 140.684 96.5044 140.688 96.4838C140.692 96.4631 140.705 96.4446 140.724 96.4324C140.743 96.4203 140.767 96.4154 140.79 96.4188Z" fill="#263238"/>
<path d="M138.843 102.052C139.7 102.167 140.535 102.386 141.326 102.701C142.19 102.981 143.04 103.279 143.889 103.585C145.589 104.202 147.273 104.852 148.936 105.534C149.009 105.534 148.98 105.67 148.936 105.644C147.237 105.034 145.53 104.442 143.809 103.897C142.944 103.624 142.08 103.351 141.216 103.091C140.378 102.889 139.567 102.606 138.799 102.246C138.782 102.233 138.77 102.216 138.763 102.197C138.756 102.178 138.755 102.158 138.759 102.138C138.764 102.119 138.774 102.1 138.788 102.085C138.803 102.07 138.821 102.058 138.843 102.052Z" fill="#263238"/>
<path d="M136.908 108.763C137.679 108.881 138.422 109.114 139.106 109.451C139.875 109.75 140.644 110.036 141.413 110.328C142.958 110.9 144.504 111.478 146.064 112.005C146.145 112.005 146.108 112.141 146.064 112.115C144.467 111.582 142.87 111.076 141.281 110.536L138.944 109.724C138.208 109.537 137.515 109.233 136.901 108.828C136.901 108.828 136.871 108.763 136.908 108.763Z" fill="#263238"/>
<path d="M176.191 104.358C173.798 103.762 171.367 103.294 168.911 102.955C166.823 101.062 164.564 99.3233 162.157 97.7571C159.793 96.1927 157.301 94.7877 154.7 93.5537C154.635 93.5537 154.583 93.6057 154.642 93.6447C157.11 95.0805 159.513 96.6462 161.857 98.2509C164.201 99.8556 166.347 101.571 168.552 103.279C168.64 103.338 174.514 104.111 176.155 104.468C176.221 104.488 176.257 104.377 176.191 104.358Z" fill="#263238"/>
<path d="M197.383 99.0046L213.497 108.457C213.497 108.457 218.464 98.3289 219.833 90.9161C221.203 83.5033 219.152 81.2879 210.267 88.051C201.382 94.8142 197.383 99.0046 197.383 99.0046Z" fill="#3DA925"/>
<path d="M195.529 100.284L198.364 97.075L214.955 107.45L212.603 110.933L195.529 100.284Z" fill="#3DA925"/>
<path opacity="0.1" d="M195.529 100.284L198.364 97.075L214.955 107.45L212.603 110.933L195.529 100.284Z" fill="black"/>
<path d="M219.511 96.6852C219.514 96.6737 219.513 96.6615 219.507 96.6506C219.502 96.6398 219.492 96.6309 219.48 96.6256C219.468 96.6203 219.454 96.6188 219.441 96.6213C219.428 96.6239 219.416 96.6304 219.408 96.6397C218.347 98.3003 217.396 100.014 216.559 101.772C216.149 102.636 215.753 103.507 215.372 104.371C214.991 105.235 214.676 106.157 214.303 107.041C214.303 107.087 214.369 107.119 214.391 107.041C214.793 106.177 215.262 105.345 215.687 104.494C216.017 103.845 216.346 103.162 216.683 102.493C217.448 101.692 218.071 100.791 218.529 99.8231C218.529 99.8231 218.529 99.7777 218.478 99.8231C218.148 100.278 217.848 100.765 217.518 101.226C217.321 101.499 217.13 101.766 216.925 102.032L216.991 101.896C217.87 100.18 218.71 98.4437 219.511 96.6852Z" fill="#263238"/>
<path d="M120.903 266.732H43.0332V294.746H120.903V266.732Z" fill="#3DA925"/>
<path d="M124.345 259.137H39.6045V266.732H124.345V259.137Z" fill="#3DA925"/>
<path opacity="0.1" d="M120.911 266.732H43.0332V272.079H120.911V266.732Z" fill="black"/>
<path d="M91.0248 263.841H74.002V269.636H91.0248V263.841Z" fill="#263238"/>
<path d="M97.148 259.137H93.112V254.602H70.8299V259.137H66.7939V251.022H97.148V259.137Z" fill="#263238"/>
</svg>
