<svg width="88" height="88" viewBox="0 0 88 88" fill="none" xmlns="http://www.w3.org/2000/svg">
<g clip-path="url(#clip0_352_19830)">
<path d="M44 0C19.701 0 0 19.701 0 44C0 68.299 19.701 88 44 88C68.299 88 88 68.299 88 44C88 19.701 68.299 0 44 0ZM44 11C58.3192 11 70.4137 20.2235 74.9815 33H13.0185C17.5863 20.2235 29.6807 11 44 11ZM44 49.5C40.9613 49.5 38.5 47.0387 38.5 44C38.5 40.9613 40.9613 38.5 44 38.5C47.0387 38.5 49.5 40.9613 49.5 44C49.5 47.0387 47.0387 49.5 44 49.5ZM11 44C26.0288 44 38.2002 58.4815 38.456 76.4417C22.902 73.777 11 60.2965 11 44ZM49.544 76.4417C49.7998 58.4815 61.9712 44 77 44C77 60.2965 65.098 73.777 49.544 76.4417Z" fill="#3DA925"/>
</g>
<defs>
<clipPath id="clip0_352_19830">
<rect width="88" height="88" fill="white"/>
</clipPath>
</defs>
</svg>
