<svg width="350" height="77" viewBox="0 0 350 77" fill="none" xmlns="http://www.w3.org/2000/svg">
<rect width="350" height="77" rx="8" fill="#C7E7BF"/>
<path d="M85.598 32V27.324L81.818 22.13H83.162L86.2 26.316L89.224 22.13H90.526L86.746 27.352V32H85.598ZM93.1244 32.126C92.4618 32.126 91.8878 31.9813 91.4024 31.692C90.9171 31.4027 90.5391 30.9967 90.2684 30.474C90.0071 29.942 89.8764 29.3167 89.8764 28.598C89.8764 27.8793 90.0071 27.2587 90.2684 26.736C90.5391 26.204 90.9171 25.7933 91.4024 25.504C91.8878 25.2147 92.4618 25.07 93.1244 25.07C93.7778 25.07 94.3471 25.2147 94.8324 25.504C95.3271 25.7933 95.7051 26.204 95.9664 26.736C96.2371 27.2587 96.3724 27.8793 96.3724 28.598C96.3724 29.3167 96.2371 29.942 95.9664 30.474C95.7051 30.9967 95.3271 31.4027 94.8324 31.692C94.3471 31.9813 93.7778 32.126 93.1244 32.126ZM93.1244 31.216C93.7591 31.216 94.2678 30.992 94.6504 30.544C95.0331 30.0867 95.2244 29.438 95.2244 28.598C95.2244 27.7487 95.0331 27.1 94.6504 26.652C94.2678 26.204 93.7591 25.98 93.1244 25.98C92.4804 25.98 91.9671 26.204 91.5844 26.652C91.2111 27.1 91.0244 27.7487 91.0244 28.598C91.0244 29.438 91.2111 30.0867 91.5844 30.544C91.9671 30.992 92.4804 31.216 93.1244 31.216ZM100.484 32.126C98.8504 32.126 98.0337 31.2253 98.0337 29.424V25.196H99.1677V29.41C99.1677 30.0167 99.2891 30.4647 99.5317 30.754C99.7837 31.0433 100.176 31.188 100.708 31.188C101.286 31.188 101.758 30.9967 102.122 30.614C102.486 30.222 102.668 29.704 102.668 29.06V25.196H103.802V32H102.696V30.852C102.481 31.2627 102.178 31.58 101.786 31.804C101.403 32.0187 100.969 32.126 100.484 32.126ZM105.923 32V25.196H107.029V26.414C107.393 25.5927 108.14 25.14 109.269 25.056L109.675 25.014L109.759 25.994L109.045 26.078C108.401 26.134 107.911 26.3393 107.575 26.694C107.239 27.0393 107.071 27.5153 107.071 28.122V32H105.923ZM116.679 32.126C116.212 32.126 115.792 32.0373 115.419 31.86C115.055 31.6733 114.765 31.4213 114.551 31.104C114.336 30.7867 114.229 30.432 114.229 30.04C114.229 29.5453 114.355 29.1533 114.607 28.864C114.868 28.5747 115.293 28.3693 115.881 28.248C116.478 28.1173 117.29 28.052 118.317 28.052H118.765V27.618C118.765 27.0393 118.643 26.624 118.401 26.372C118.167 26.1107 117.789 25.98 117.267 25.98C116.856 25.98 116.459 26.0407 116.077 26.162C115.694 26.274 115.302 26.4607 114.901 26.722L114.509 25.896C114.863 25.644 115.293 25.4433 115.797 25.294C116.31 25.1447 116.8 25.07 117.267 25.07C118.144 25.07 118.793 25.2847 119.213 25.714C119.642 26.1433 119.857 26.8107 119.857 27.716V32H118.793V30.824C118.615 31.2253 118.34 31.5427 117.967 31.776C117.603 32.0093 117.173 32.126 116.679 32.126ZM116.861 31.272C117.421 31.272 117.878 31.0807 118.233 30.698C118.587 30.306 118.765 29.8113 118.765 29.214V28.794H118.331C117.575 28.794 116.977 28.8313 116.539 28.906C116.109 28.9713 115.806 29.0927 115.629 29.27C115.461 29.438 115.377 29.6713 115.377 29.97C115.377 30.3527 115.507 30.6653 115.769 30.908C116.039 31.1507 116.403 31.272 116.861 31.272ZM124.844 32.126C124.163 32.126 123.575 31.9813 123.08 31.692C122.586 31.3933 122.203 30.978 121.932 30.446C121.671 29.9047 121.54 29.2747 121.54 28.556C121.54 27.4733 121.834 26.624 122.422 26.008C123.01 25.3827 123.818 25.07 124.844 25.07C125.264 25.07 125.68 25.1447 126.09 25.294C126.501 25.4433 126.842 25.6533 127.112 25.924L126.72 26.75C126.45 26.4887 126.151 26.2973 125.824 26.176C125.507 26.0547 125.204 25.994 124.914 25.994C124.205 25.994 123.659 26.218 123.276 26.666C122.894 27.1047 122.702 27.7393 122.702 28.57C122.702 29.382 122.894 30.026 123.276 30.502C123.659 30.9687 124.205 31.202 124.914 31.202C125.204 31.202 125.507 31.1413 125.824 31.02C126.151 30.8987 126.45 30.7027 126.72 30.432L127.112 31.258C126.842 31.5287 126.496 31.7433 126.076 31.902C125.666 32.0513 125.255 32.126 124.844 32.126ZM131.188 32.126C130.507 32.126 129.919 31.9813 129.424 31.692C128.93 31.3933 128.547 30.978 128.276 30.446C128.015 29.9047 127.884 29.2747 127.884 28.556C127.884 27.4733 128.178 26.624 128.766 26.008C129.354 25.3827 130.162 25.07 131.188 25.07C131.608 25.07 132.024 25.1447 132.434 25.294C132.845 25.4433 133.186 25.6533 133.456 25.924L133.064 26.75C132.794 26.4887 132.495 26.2973 132.168 26.176C131.851 26.0547 131.548 25.994 131.258 25.994C130.549 25.994 130.003 26.218 129.62 26.666C129.238 27.1047 129.046 27.7393 129.046 28.57C129.046 29.382 129.238 30.026 129.62 30.502C130.003 30.9687 130.549 31.202 131.258 31.202C131.548 31.202 131.851 31.1413 132.168 31.02C132.495 30.8987 132.794 30.7027 133.064 30.432L133.456 31.258C133.186 31.5287 132.84 31.7433 132.42 31.902C132.01 32.0513 131.599 32.126 131.188 32.126ZM137.476 32.126C136.813 32.126 136.239 31.9813 135.754 31.692C135.269 31.4027 134.891 30.9967 134.62 30.474C134.359 29.942 134.228 29.3167 134.228 28.598C134.228 27.8793 134.359 27.2587 134.62 26.736C134.891 26.204 135.269 25.7933 135.754 25.504C136.239 25.2147 136.813 25.07 137.476 25.07C138.129 25.07 138.699 25.2147 139.184 25.504C139.679 25.7933 140.057 26.204 140.318 26.736C140.589 27.2587 140.724 27.8793 140.724 28.598C140.724 29.3167 140.589 29.942 140.318 30.474C140.057 30.9967 139.679 31.4027 139.184 31.692C138.699 31.9813 138.129 32.126 137.476 32.126ZM137.476 31.216C138.111 31.216 138.619 30.992 139.002 30.544C139.385 30.0867 139.576 29.438 139.576 28.598C139.576 27.7487 139.385 27.1 139.002 26.652C138.619 26.204 138.111 25.98 137.476 25.98C136.832 25.98 136.319 26.204 135.936 26.652C135.563 27.1 135.376 27.7487 135.376 28.598C135.376 29.438 135.563 30.0867 135.936 30.544C136.319 30.992 136.832 31.216 137.476 31.216ZM144.835 32.126C143.202 32.126 142.385 31.2253 142.385 29.424V25.196H143.519V29.41C143.519 30.0167 143.641 30.4647 143.883 30.754C144.135 31.0433 144.527 31.188 145.059 31.188C145.638 31.188 146.109 30.9967 146.473 30.614C146.837 30.222 147.019 29.704 147.019 29.06V25.196H148.153V32H147.047V30.852C146.833 31.2627 146.529 31.58 146.137 31.804C145.755 32.0187 145.321 32.126 144.835 32.126ZM150.275 32V25.196H151.381V26.358C151.605 25.9287 151.922 25.6067 152.333 25.392C152.744 25.1773 153.206 25.07 153.719 25.07C155.334 25.07 156.141 25.966 156.141 27.758V32H155.007V27.828C155.007 27.1933 154.881 26.7313 154.629 26.442C154.386 26.1433 153.994 25.994 153.453 25.994C152.828 25.994 152.328 26.19 151.955 26.582C151.591 26.9647 151.409 27.478 151.409 28.122V32H150.275ZM160.962 32.126C160.159 32.126 159.557 31.916 159.156 31.496C158.755 31.0667 158.554 30.4507 158.554 29.648V26.078H157.224V25.196H158.554V23.11H159.688V25.196H161.844V26.078H159.688V29.536C159.688 30.068 159.8 30.474 160.024 30.754C160.248 31.0247 160.612 31.16 161.116 31.16C161.265 31.16 161.415 31.1413 161.564 31.104C161.713 31.0667 161.849 31.0293 161.97 30.992L162.166 31.86C162.045 31.9253 161.867 31.986 161.634 32.042C161.401 32.098 161.177 32.126 160.962 32.126ZM168.724 32L165.798 25.196H167.03L169.284 30.712L171.566 25.196H172.728L169.788 32H168.724ZM176.898 32.126C175.824 32.126 174.975 31.8133 174.35 31.188C173.724 30.5533 173.412 29.6947 173.412 28.612C173.412 27.912 173.552 27.296 173.832 26.764C174.112 26.2227 174.494 25.8073 174.98 25.518C175.474 25.2193 176.044 25.07 176.688 25.07C177.612 25.07 178.335 25.3687 178.858 25.966C179.38 26.554 179.642 27.366 179.642 28.402V28.836H174.518C174.555 29.6107 174.779 30.2033 175.19 30.614C175.6 31.0153 176.17 31.216 176.898 31.216C177.308 31.216 177.7 31.1553 178.074 31.034C178.447 30.9033 178.802 30.6933 179.138 30.404L179.53 31.202C179.222 31.4913 178.83 31.72 178.354 31.888C177.878 32.0467 177.392 32.126 176.898 32.126ZM176.716 25.91C176.072 25.91 175.563 26.1107 175.19 26.512C174.816 26.9133 174.597 27.4407 174.532 28.094H178.662C178.634 27.4033 178.452 26.8667 178.116 26.484C177.789 26.1013 177.322 25.91 176.716 25.91ZM181.283 32V25.196H182.389V26.414C182.753 25.5927 183.499 25.14 184.629 25.056L185.035 25.014L185.119 25.994L184.405 26.078C183.761 26.134 183.271 26.3393 182.935 26.694C182.599 27.0393 182.431 27.5153 182.431 28.122V32H181.283ZM186.16 23.502V22.228H187.56V23.502H186.16ZM186.3 32V25.196H187.434V32H186.3ZM189.918 32V26.078H188.574V25.196H189.918V24.958C189.918 24.0527 190.142 23.3667 190.59 22.9C191.048 22.4333 191.748 22.172 192.69 22.116L193.208 22.088L193.278 22.97L192.69 22.998C192.112 23.0353 191.692 23.208 191.43 23.516C191.178 23.8147 191.052 24.2487 191.052 24.818V25.196H195.252V32H194.118V26.078H191.052V32H189.918ZM193.992 23.502V22.228H195.378V23.502H193.992ZM200.259 32.126C199.577 32.126 198.989 31.9813 198.495 31.692C198 31.3933 197.617 30.978 197.347 30.446C197.085 29.9047 196.955 29.2747 196.955 28.556C196.955 27.4733 197.249 26.624 197.837 26.008C198.425 25.3827 199.232 25.07 200.259 25.07C200.679 25.07 201.094 25.1447 201.505 25.294C201.915 25.4433 202.256 25.6533 202.527 25.924L202.135 26.75C201.864 26.4887 201.565 26.2973 201.239 26.176C200.921 26.0547 200.618 25.994 200.329 25.994C199.619 25.994 199.073 26.218 198.691 26.666C198.308 27.1047 198.117 27.7393 198.117 28.57C198.117 29.382 198.308 30.026 198.691 30.502C199.073 30.9687 199.619 31.202 200.329 31.202C200.618 31.202 200.921 31.1413 201.239 31.02C201.565 30.8987 201.864 30.7027 202.135 30.432L202.527 31.258C202.256 31.5287 201.911 31.7433 201.491 31.902C201.08 32.0513 200.669 32.126 200.259 32.126ZM205.942 32.126C205.476 32.126 205.056 32.0373 204.682 31.86C204.318 31.6733 204.029 31.4213 203.814 31.104C203.6 30.7867 203.492 30.432 203.492 30.04C203.492 29.5453 203.618 29.1533 203.87 28.864C204.132 28.5747 204.556 28.3693 205.144 28.248C205.742 28.1173 206.554 28.052 207.58 28.052H208.028V27.618C208.028 27.0393 207.907 26.624 207.664 26.372C207.431 26.1107 207.053 25.98 206.53 25.98C206.12 25.98 205.723 26.0407 205.34 26.162C204.958 26.274 204.566 26.4607 204.164 26.722L203.772 25.896C204.127 25.644 204.556 25.4433 205.06 25.294C205.574 25.1447 206.064 25.07 206.53 25.07C207.408 25.07 208.056 25.2847 208.476 25.714C208.906 26.1433 209.12 26.8107 209.12 27.716V32H208.056V30.824C207.879 31.2253 207.604 31.5427 207.23 31.776C206.866 32.0093 206.437 32.126 205.942 32.126ZM206.124 31.272C206.684 31.272 207.142 31.0807 207.496 30.698C207.851 30.306 208.028 29.8113 208.028 29.214V28.794H207.594C206.838 28.794 206.241 28.8313 205.802 28.906C205.373 28.9713 205.07 29.0927 204.892 29.27C204.724 29.438 204.64 29.6713 204.64 29.97C204.64 30.3527 204.771 30.6653 205.032 30.908C205.303 31.1507 205.667 31.272 206.124 31.272ZM213.954 32.126C213.151 32.126 212.549 31.916 212.148 31.496C211.747 31.0667 211.546 30.4507 211.546 29.648V26.078H210.216V25.196H211.546V23.11H212.68V25.196H214.836V26.078H212.68V29.536C212.68 30.068 212.792 30.474 213.016 30.754C213.24 31.0247 213.604 31.16 214.108 31.16C214.257 31.16 214.407 31.1413 214.556 31.104C214.705 31.0667 214.841 31.0293 214.962 30.992L215.158 31.86C215.037 31.9253 214.859 31.986 214.626 32.042C214.393 32.098 214.169 32.126 213.954 32.126ZM215.979 23.502V22.228H217.379V23.502H215.979ZM216.119 32V25.196H217.253V32H216.119ZM222.201 32.126C221.538 32.126 220.964 31.9813 220.479 31.692C219.993 31.4027 219.615 30.9967 219.345 30.474C219.083 29.942 218.953 29.3167 218.953 28.598C218.953 27.8793 219.083 27.2587 219.345 26.736C219.615 26.204 219.993 25.7933 220.479 25.504C220.964 25.2147 221.538 25.07 222.201 25.07C222.854 25.07 223.423 25.2147 223.909 25.504C224.403 25.7933 224.781 26.204 225.043 26.736C225.313 27.2587 225.449 27.8793 225.449 28.598C225.449 29.3167 225.313 29.942 225.043 30.474C224.781 30.9967 224.403 31.4027 223.909 31.692C223.423 31.9813 222.854 32.126 222.201 32.126ZM222.201 31.216C222.835 31.216 223.344 30.992 223.727 30.544C224.109 30.0867 224.301 29.438 224.301 28.598C224.301 27.7487 224.109 27.1 223.727 26.652C223.344 26.204 222.835 25.98 222.201 25.98C221.557 25.98 221.043 26.204 220.661 26.652C220.287 27.1 220.101 27.7487 220.101 28.598C220.101 29.438 220.287 30.0867 220.661 30.544C221.043 30.992 221.557 31.216 222.201 31.216ZM227.152 32V25.196H228.258V26.358C228.482 25.9287 228.799 25.6067 229.21 25.392C229.621 25.1773 230.083 25.07 230.596 25.07C232.211 25.07 233.018 25.966 233.018 27.758V32H231.884V27.828C231.884 27.1933 231.758 26.7313 231.506 26.442C231.263 26.1433 230.871 25.994 230.33 25.994C229.705 25.994 229.205 26.19 228.832 26.582C228.468 26.9647 228.286 27.478 228.286 28.122V32H227.152ZM238.565 23.502V22.228H239.965V23.502H238.565ZM238.705 32V25.196H239.839V32H238.705ZM244.255 32.126C243.723 32.126 243.219 32.0513 242.743 31.902C242.267 31.7527 241.875 31.5427 241.567 31.272L241.931 30.474C242.267 30.7447 242.635 30.9453 243.037 31.076C243.447 31.1973 243.863 31.258 244.283 31.258C244.815 31.258 245.216 31.16 245.487 30.964C245.757 30.768 245.893 30.502 245.893 30.166C245.893 29.9047 245.804 29.6993 245.627 29.55C245.449 29.3913 245.169 29.27 244.787 29.186L243.513 28.906C242.355 28.654 241.777 28.0567 241.777 27.114C241.777 26.498 242.019 26.0033 242.505 25.63C242.999 25.2567 243.643 25.07 244.437 25.07C244.903 25.07 245.347 25.1447 245.767 25.294C246.196 25.434 246.551 25.644 246.831 25.924L246.453 26.722C246.182 26.47 245.865 26.2787 245.501 26.148C245.146 26.008 244.791 25.938 244.437 25.938C243.914 25.938 243.517 26.0407 243.247 26.246C242.976 26.4513 242.841 26.722 242.841 27.058C242.841 27.5807 243.186 27.9167 243.877 28.066L245.151 28.332C245.748 28.4627 246.201 28.6727 246.509 28.962C246.817 29.242 246.971 29.6247 246.971 30.11C246.971 30.7353 246.723 31.23 246.229 31.594C245.734 31.9487 245.076 32.126 244.255 32.126ZM254.59 32.126C254.058 32.126 253.554 32.0513 253.078 31.902C252.602 31.7527 252.21 31.5427 251.902 31.272L252.266 30.474C252.602 30.7447 252.971 30.9453 253.372 31.076C253.783 31.1973 254.198 31.258 254.618 31.258C255.15 31.258 255.552 31.16 255.822 30.964C256.093 30.768 256.228 30.502 256.228 30.166C256.228 29.9047 256.14 29.6993 255.962 29.55C255.785 29.3913 255.505 29.27 255.122 29.186L253.848 28.906C252.691 28.654 252.112 28.0567 252.112 27.114C252.112 26.498 252.355 26.0033 252.84 25.63C253.335 25.2567 253.979 25.07 254.772 25.07C255.239 25.07 255.682 25.1447 256.102 25.294C256.532 25.434 256.886 25.644 257.166 25.924L256.788 26.722C256.518 26.47 256.2 26.2787 255.836 26.148C255.482 26.008 255.127 25.938 254.772 25.938C254.25 25.938 253.853 26.0407 253.582 26.246C253.312 26.4513 253.176 26.722 253.176 27.058C253.176 27.5807 253.522 27.9167 254.212 28.066L255.486 28.332C256.084 28.4627 256.536 28.6727 256.844 28.962C257.152 29.242 257.306 29.6247 257.306 30.11C257.306 30.7353 257.059 31.23 256.564 31.594C256.07 31.9487 255.412 32.126 254.59 32.126ZM261.696 32.126C260.894 32.126 260.292 31.916 259.89 31.496C259.489 31.0667 259.288 30.4507 259.288 29.648V26.078H257.958V25.196H259.288V23.11H260.422V25.196H262.578V26.078H260.422V29.536C260.422 30.068 260.534 30.474 260.758 30.754C260.982 31.0247 261.346 31.16 261.85 31.16C262 31.16 262.149 31.1413 262.298 31.104C262.448 31.0667 262.583 31.0293 262.704 30.992L262.9 31.86C262.779 31.9253 262.602 31.986 262.368 32.042C262.135 32.098 261.911 32.126 261.696 32.126ZM263.721 23.502V22.228H265.121V23.502H263.721ZM263.861 32V25.196H264.995V32H263.861ZM269.201 32.126C268.51 32.126 267.987 31.9253 267.633 31.524C267.287 31.1133 267.115 30.5207 267.115 29.746V22.13H268.249V29.662C268.249 30.6607 268.645 31.16 269.439 31.16C269.672 31.16 269.882 31.132 270.069 31.076L270.041 32.028C269.751 32.0933 269.471 32.126 269.201 32.126ZM273.343 32.126C272.653 32.126 272.13 31.9253 271.775 31.524C271.43 31.1133 271.257 30.5207 271.257 29.746V22.13H272.391V29.662C272.391 30.6607 272.788 31.16 273.581 31.16C273.815 31.16 274.025 31.132 274.211 31.076L274.183 32.028C273.894 32.0933 273.614 32.126 273.343 32.126ZM278.856 23.502V22.228H280.256V23.502H278.856ZM278.996 32V25.196H280.13V32H278.996ZM282.25 32V25.196H283.356V26.358C283.58 25.9287 283.897 25.6067 284.308 25.392C284.718 25.1773 285.18 25.07 285.694 25.07C287.308 25.07 288.116 25.966 288.116 27.758V32H286.982V27.828C286.982 27.1933 286.856 26.7313 286.604 26.442C286.361 26.1433 285.969 25.994 285.428 25.994C284.802 25.994 284.303 26.19 283.93 26.582C283.566 26.9647 283.384 27.478 283.384 28.122V32H282.25ZM83.064 52.52V43.196H84.17V44.414C84.3753 43.994 84.6787 43.6673 85.08 43.434C85.4907 43.1913 85.9667 43.07 86.508 43.07C87.1147 43.07 87.642 43.2147 88.09 43.504C88.5473 43.784 88.8973 44.19 89.14 44.722C89.392 45.2447 89.518 45.87 89.518 46.598C89.518 47.3167 89.392 47.942 89.14 48.474C88.8973 48.9967 88.5473 49.4027 88.09 49.692C87.642 49.9813 87.1147 50.126 86.508 50.126C85.9853 50.126 85.5187 50.0093 85.108 49.776C84.6973 49.5427 84.394 49.2207 84.198 48.81V52.52H83.064ZM86.27 49.216C86.9047 49.216 87.4133 48.992 87.796 48.544C88.1787 48.0867 88.37 47.438 88.37 46.598C88.37 45.7487 88.1787 45.1 87.796 44.652C87.4133 44.204 86.9047 43.98 86.27 43.98C85.6353 43.98 85.1267 44.204 84.744 44.652C84.3613 45.1 84.17 45.7487 84.17 46.598C84.17 47.438 84.3613 48.0867 84.744 48.544C85.1267 48.992 85.6353 49.216 86.27 49.216ZM91.2261 50V43.196H92.3321V44.414C92.6961 43.5927 93.4428 43.14 94.5721 43.056L94.9781 43.014L95.0621 43.994L94.3481 44.078C93.7041 44.134 93.2141 44.3393 92.8781 44.694C92.5421 45.0393 92.3741 45.5153 92.3741 46.122V50H91.2261ZM98.9897 50.126C98.327 50.126 97.753 49.9813 97.2677 49.692C96.7823 49.4027 96.4043 48.9967 96.1337 48.474C95.8723 47.942 95.7417 47.3167 95.7417 46.598C95.7417 45.8793 95.8723 45.2587 96.1337 44.736C96.4043 44.204 96.7823 43.7933 97.2677 43.504C97.753 43.2147 98.327 43.07 98.9897 43.07C99.643 43.07 100.212 43.2147 100.698 43.504C101.192 43.7933 101.57 44.204 101.832 44.736C102.102 45.2587 102.238 45.8793 102.238 46.598C102.238 47.3167 102.102 47.942 101.832 48.474C101.57 48.9967 101.192 49.4027 100.698 49.692C100.212 49.9813 99.643 50.126 98.9897 50.126ZM98.9897 49.216C99.6243 49.216 100.133 48.992 100.516 48.544C100.898 48.0867 101.09 47.438 101.09 46.598C101.09 45.7487 100.898 45.1 100.516 44.652C100.133 44.204 99.6243 43.98 98.9897 43.98C98.3457 43.98 97.8323 44.204 97.4497 44.652C97.0763 45.1 96.8897 45.7487 96.8897 46.598C96.8897 47.438 97.0763 48.0867 97.4497 48.544C97.8323 48.992 98.3457 49.216 98.9897 49.216ZM106.951 52.646C106.363 52.646 105.808 52.5667 105.285 52.408C104.772 52.2587 104.314 52.03 103.913 51.722L104.291 50.896C104.711 51.1947 105.126 51.4093 105.537 51.54C105.957 51.6707 106.41 51.736 106.895 51.736C108.239 51.736 108.911 51.0453 108.911 49.664V48.46C108.715 48.8893 108.407 49.23 107.987 49.482C107.576 49.7247 107.105 49.846 106.573 49.846C105.948 49.846 105.406 49.7013 104.949 49.412C104.492 49.1227 104.137 48.726 103.885 48.222C103.642 47.7087 103.521 47.116 103.521 46.444C103.521 45.772 103.642 45.184 103.885 44.68C104.137 44.1667 104.492 43.77 104.949 43.49C105.406 43.21 105.948 43.07 106.573 43.07C107.105 43.07 107.576 43.1913 107.987 43.434C108.407 43.6767 108.715 44.008 108.911 44.428V43.196H110.017V49.51C110.017 50.5553 109.756 51.3393 109.233 51.862C108.72 52.3847 107.959 52.646 106.951 52.646ZM106.783 48.922C107.436 48.922 107.954 48.698 108.337 48.25C108.72 47.802 108.911 47.2 108.911 46.444C108.911 45.688 108.72 45.0907 108.337 44.652C107.954 44.204 107.436 43.98 106.783 43.98C106.139 43.98 105.626 44.204 105.243 44.652C104.86 45.0907 104.669 45.688 104.669 46.444C104.669 47.2 104.86 47.802 105.243 48.25C105.626 48.698 106.139 48.922 106.783 48.922ZM112.144 50V43.196H113.25V44.414C113.614 43.5927 114.361 43.14 115.49 43.056L115.896 43.014L115.98 43.994L115.266 44.078C114.622 44.134 114.132 44.3393 113.796 44.694C113.46 45.0393 113.292 45.5153 113.292 46.122V50H112.144ZM120.146 50.126C119.072 50.126 118.223 49.8133 117.598 49.188C116.972 48.5533 116.66 47.6947 116.66 46.612C116.66 45.912 116.8 45.296 117.08 44.764C117.36 44.2227 117.742 43.8073 118.228 43.518C118.722 43.2193 119.292 43.07 119.936 43.07C120.86 43.07 121.583 43.3687 122.106 43.966C122.628 44.554 122.89 45.366 122.89 46.402V46.836H117.766C117.803 47.6107 118.027 48.2033 118.438 48.614C118.848 49.0153 119.418 49.216 120.146 49.216C120.556 49.216 120.948 49.1553 121.322 49.034C121.695 48.9033 122.05 48.6933 122.386 48.404L122.778 49.202C122.47 49.4913 122.078 49.72 121.602 49.888C121.126 50.0467 120.64 50.126 120.146 50.126ZM119.964 43.91C119.32 43.91 118.811 44.1107 118.438 44.512C118.064 44.9133 117.845 45.4407 117.78 46.094H121.91C121.882 45.4033 121.7 44.8667 121.364 44.484C121.037 44.1013 120.57 43.91 119.964 43.91ZM126.827 50.126C126.295 50.126 125.791 50.0513 125.315 49.902C124.839 49.7527 124.447 49.5427 124.139 49.272L124.503 48.474C124.839 48.7447 125.207 48.9453 125.609 49.076C126.019 49.1973 126.435 49.258 126.855 49.258C127.387 49.258 127.788 49.16 128.059 48.964C128.329 48.768 128.465 48.502 128.465 48.166C128.465 47.9047 128.376 47.6993 128.199 47.55C128.021 47.3913 127.741 47.27 127.359 47.186L126.085 46.906C124.927 46.654 124.349 46.0567 124.349 45.114C124.349 44.498 124.591 44.0033 125.077 43.63C125.571 43.2567 126.215 43.07 127.009 43.07C127.475 43.07 127.919 43.1447 128.339 43.294C128.768 43.434 129.123 43.644 129.403 43.924L129.025 44.722C128.754 44.47 128.437 44.2787 128.073 44.148C127.718 44.008 127.363 43.938 127.009 43.938C126.486 43.938 126.089 44.0407 125.819 44.246C125.548 44.4513 125.413 44.722 125.413 45.058C125.413 45.5807 125.758 45.9167 126.449 46.066L127.723 46.332C128.32 46.4627 128.773 46.6727 129.081 46.962C129.389 47.242 129.543 47.6247 129.543 48.11C129.543 48.7353 129.295 49.23 128.801 49.594C128.306 49.9487 127.648 50.126 126.827 50.126ZM133.567 50.126C133.035 50.126 132.531 50.0513 132.055 49.902C131.579 49.7527 131.187 49.5427 130.879 49.272L131.243 48.474C131.579 48.7447 131.948 48.9453 132.349 49.076C132.76 49.1973 133.175 49.258 133.595 49.258C134.127 49.258 134.528 49.16 134.799 48.964C135.07 48.768 135.205 48.502 135.205 48.166C135.205 47.9047 135.116 47.6993 134.939 47.55C134.762 47.3913 134.482 47.27 134.099 47.186L132.825 46.906C131.668 46.654 131.089 46.0567 131.089 45.114C131.089 44.498 131.332 44.0033 131.817 43.63C132.312 43.2567 132.956 43.07 133.749 43.07C134.216 43.07 134.659 43.1447 135.079 43.294C135.508 43.434 135.863 43.644 136.143 43.924L135.765 44.722C135.494 44.47 135.177 44.2787 134.813 44.148C134.458 44.008 134.104 43.938 133.749 43.938C133.226 43.938 132.83 44.0407 132.559 44.246C132.288 44.4513 132.153 44.722 132.153 45.058C132.153 45.5807 132.498 45.9167 133.189 46.066L134.463 46.332C135.06 46.4627 135.513 46.6727 135.821 46.962C136.129 47.242 136.283 47.6247 136.283 48.11C136.283 48.7353 136.036 49.23 135.541 49.594C135.046 49.9487 134.388 50.126 133.567 50.126Z" fill="#181818"/>
<path d="M50.4133 59.7985C46.9783 61.9198 43.0207 63.0433 38.9835 63.0433C34.9463 63.0433 30.9887 61.9198 27.5537 59.7985C23.5316 57.3119 20.4302 53.5814 18.7198 49.1729C17.0093 44.7644 16.7833 39.9184 18.0758 35.3698C19.3683 30.8212 22.109 26.8182 25.8821 23.9679C29.6551 21.1176 34.2548 19.5755 38.9835 19.5755C43.7122 19.5755 48.3119 21.1176 52.085 23.9679C55.8581 26.8182 58.5987 30.8212 59.8912 35.3698C61.1838 39.9184 60.9577 44.7644 59.2473 49.1729C57.5368 53.5814 54.4354 57.3119 50.4133 59.7985Z" fill="#3DA925"/>
<path d="M38.1043 36.2909C46.1669 41.0347 56.7214 44.1137 59.3421 42.456C61.9628 40.7984 66.1445 27.3977 65.8151 24.2149C65.679 22.8401 56.3383 22.1061 55.4074 23.2482C54.4766 24.3903 53.4813 32.5174 52.9765 33.2728C52.6184 33.817 44.3661 32.5031 39.2034 31.9839C35.9096 31.6474 33.851 33.7884 38.1043 36.2909Z" fill="#AD6359"/>
<path d="M65.7102 26.03C66.0288 24.6552 67.1423 17.5449 66.9847 15.7011C66.8272 13.8573 66.0216 8.5836 64.6003 8.54064C63.179 8.49767 63.2899 10.073 63.2899 10.073C63.2899 10.073 62.5954 7.89978 61.1597 8.00361C59.7241 8.10743 59.9818 10.5098 59.9818 10.5098C59.9818 10.5098 59.1047 8.33299 57.6798 8.53348C56.2548 8.73397 56.9243 11.1327 56.9243 11.1327C56.9243 11.1327 56.2083 9.10273 55.1127 9.76507C53.7845 10.5599 55.5137 14.1544 55.5281 16.2094C55.5281 16.6749 54.9087 25.6361 54.9087 25.6361L65.7102 26.03Z" fill="#AD6359"/>
<path d="M56.8891 10.9608C58.1565 13.6066 58.2531 14.9814 57.9166 17.8492C57.9166 17.9064 57.9918 17.9279 58.0025 17.8706C58.5897 15.0924 58.7186 13.3488 57.0144 10.8928C56.9141 10.7711 56.8103 10.8319 56.8891 10.9608Z" fill="#263238"/>
<path d="M59.8809 10.3451C60.955 13.2092 61.0731 14.7022 60.955 17.731C60.955 17.7415 60.9591 17.7515 60.9665 17.7589C60.9739 17.7663 60.9839 17.7704 60.9944 17.7704C61.0048 17.7704 61.0148 17.7663 61.0222 17.7589C61.0296 17.7515 61.0337 17.7415 61.0337 17.731C61.4097 14.7702 61.4992 13.0266 60.0492 10.3057C59.9668 10.1804 59.8308 10.2054 59.8809 10.3451Z" fill="#263238"/>
<path d="M63.2805 10.2411C64.1218 13.1053 64.3223 14.7199 63.8139 17.645C63.8106 17.6592 63.8131 17.6742 63.8208 17.6866C63.8285 17.699 63.8408 17.7079 63.8551 17.7112C63.8693 17.7145 63.8843 17.7121 63.8967 17.7043C63.9092 17.6966 63.918 17.6843 63.9213 17.67C64.7269 14.7378 64.4942 12.7007 63.37 10.2268C63.2948 10.0549 63.2268 10.0621 63.2805 10.2411Z" fill="#263238"/>
<path d="M54.6636 27.4906C54.6636 27.4906 52.4904 24.5262 51.8245 23.0118C51.1586 21.4974 50.7504 14.9456 52.1575 14.7773C53.9798 14.5589 54.9608 18.2931 55.2006 20.187C55.2006 20.187 59.4146 19.6786 60.6999 22.2098C61.9851 24.741 54.6636 27.4906 54.6636 27.4906Z" fill="#AD6359"/>
<path d="M52.6761 14.8811C54.4662 15.88 54.638 18.3861 55.0104 20.2049C55.0151 20.2317 55.026 20.257 55.0424 20.2787C55.0588 20.3004 55.0801 20.3179 55.1046 20.3298C55.129 20.3417 55.156 20.3476 55.1831 20.347C55.2103 20.3465 55.237 20.3395 55.261 20.3266C57.0511 20.2299 59.5787 20.613 60.7351 22.1167C60.7418 22.1249 60.7513 22.1303 60.7618 22.1319C60.7722 22.1335 60.7829 22.1312 60.7918 22.1255C60.8006 22.1197 60.8071 22.1109 60.8098 22.1007C60.8126 22.0905 60.8115 22.0796 60.8067 22.0702C59.7828 20.3087 57.3196 19.7287 55.3791 19.9578C55.0211 18.0854 54.7562 15.5792 52.6868 14.8811C52.6725 14.8596 52.6653 14.8739 52.6761 14.8811Z" fill="#263238"/>
<path d="M50.5898 43.4441L52.7916 32.7035C52.7916 32.7035 44.4068 31.318 39.262 31.4003C34.1173 31.4827 32.4167 33.4661 38.8754 37.3256C42.6525 39.6007 46.5646 41.644 50.5898 43.4441Z" fill="#455A64"/>
<path d="M50.7121 32.8682C50.2777 34.3456 49.8815 35.835 49.5235 37.3363C49.348 38.0738 49.1654 38.8113 48.9972 39.556C48.8289 40.3007 48.7143 41.1026 48.5425 41.8688C48.5425 41.9225 48.6141 41.9476 48.6284 41.8939C48.8182 41.1599 49.058 40.4367 49.2549 39.7028C49.4519 38.9688 49.613 38.1812 49.8099 37.4222C50.1703 35.9185 50.4937 34.4065 50.7801 32.8861C50.7807 32.8777 50.7783 32.8695 50.7735 32.8627C50.7686 32.8559 50.7616 32.8511 50.7535 32.849C50.7454 32.8468 50.7369 32.8476 50.7293 32.8511C50.7218 32.8546 50.7157 32.8606 50.7121 32.8682Z" fill="#263238"/>
<path d="M48.72 60.7187C47.3454 61.4149 45.8987 61.9587 44.4059 62.3406L44.098 62.4193C43.9046 62.4694 43.7042 62.5124 43.5108 62.5554C40.485 63.2125 37.3534 63.2125 34.3276 62.5554C34.034 62.4909 33.7404 62.4193 33.4504 62.3406C31.7094 61.8872 30.0326 61.2159 28.4596 60.3428C28.3343 60.2784 28.2126 60.2103 28.1016 60.1352C27.9083 60.0242 27.7149 59.906 27.518 59.7771C26.7143 59.2792 25.9441 58.7291 25.2124 58.1302C25.1229 58.0658 25.0369 57.9942 24.951 57.919C24.2169 57.3007 23.5244 56.6345 22.8781 55.9248L22.6847 55.7136C22.3196 55.3007 21.9699 54.8746 21.6357 54.4355C21.693 54.1992 21.7539 53.9629 21.8112 53.7194C21.8327 53.6514 21.847 53.5798 21.8649 53.5118C22.0331 52.8602 22.2229 52.1978 22.4019 51.514C22.4198 51.4424 22.4449 51.3744 22.4628 51.2992C22.6489 50.6512 22.8459 49.9817 23.0642 49.3122C23.081 49.2406 23.1024 49.169 23.1287 49.0974C23.3399 48.4422 23.5619 47.7727 23.7982 47.0996C23.8197 47.0352 23.8483 46.9636 23.8734 46.892C24.1097 46.2332 24.3531 45.5673 24.6145 44.8978C24.6395 44.8333 24.6646 44.7653 24.6932 44.6973C24.9546 44.0314 25.2339 43.3726 25.5239 42.7067C25.5525 42.6315 25.5847 42.5635 25.6169 42.4919C25.9141 41.8224 26.2256 41.16 26.5514 40.4977C26.58 40.4333 26.6122 40.3652 26.6445 40.3044C26.9786 39.6313 27.3283 38.9666 27.6935 38.3102C27.708 38.278 27.7248 38.2469 27.7436 38.2171L27.8152 38.0918C28.1947 37.4187 28.5921 36.7528 29.011 36.1048C29.0539 36.0332 29.1005 35.9616 29.147 35.89C29.5874 35.2097 30.0528 34.5438 30.5361 33.8994C30.5702 33.846 30.6073 33.7946 30.6471 33.7454L30.6937 33.6881C31.1197 33.1225 31.5672 32.5675 32.0291 32.0377C32.14 31.9102 32.2597 31.7906 32.3871 31.6796L32.4408 31.6367C32.5053 31.5866 32.5661 31.54 32.6377 31.4935C32.6494 31.4831 32.6627 31.4746 32.6771 31.4684C34.8682 30.0077 39.0427 30.5948 39.5762 31.3717C39.6001 31.4023 39.6217 31.4346 39.6406 31.4684L39.7122 31.5722C40.154 32.2498 40.5557 32.9528 40.9152 33.6774C41.2732 34.3576 41.5954 35.1095 41.9248 35.8792C42.222 36.5774 42.5084 37.3113 42.7912 38.0739C42.7912 38.1133 42.8199 38.1491 42.8306 38.1849C42.8474 38.2192 42.8606 38.2552 42.87 38.2923C43.1349 39.0083 43.3927 39.7244 43.6469 40.4905C43.8617 41.1457 44.0801 41.8116 44.2842 42.4847C44.3056 42.5599 44.3307 42.6243 44.3522 42.6995C44.567 43.3905 44.7782 44.0922 44.9787 44.7939C44.9861 44.8303 44.9957 44.8661 45.0074 44.9014C45.2043 45.5673 45.3869 46.2332 45.5695 46.8955C45.5695 46.9564 45.5945 47.0101 45.6124 47.0674C45.7986 47.7512 45.9704 48.4314 46.1459 49.1009L46.2031 49.3158C46.375 49.9853 46.5397 50.6512 46.6972 51.3028C46.6972 51.3242 46.6972 51.3422 46.6972 51.3601C46.6972 51.378 46.7223 51.4639 46.733 51.5176C46.8977 52.1978 47.0552 52.8637 47.2056 53.5153C47.3775 54.2743 47.5421 55.0119 47.6925 55.7172C47.7104 55.7924 47.7247 55.8604 47.7391 55.9284C47.893 56.6444 48.0398 57.3318 48.1723 57.9834C48.1723 58.0336 48.1723 58.0837 48.2009 58.1338C48.3549 58.8964 48.4909 59.6017 48.609 60.2354C48.609 60.2712 48.6091 60.3034 48.627 60.3356L48.72 60.7187Z" fill="#FF8200"/>
<path opacity="0.1" d="M33.4509 62.3404C33.7409 62.4192 34.0344 62.4908 34.328 62.5552H43.5113C43.7046 62.5122 43.9051 62.4693 44.0984 62.4192L44.4063 62.3404H33.4509ZM48.656 60.2424C48.656 60.2066 48.6381 60.1708 48.631 60.135H28.0877C28.213 60.2102 28.3348 60.2782 28.4457 60.3426H48.656C48.656 60.3104 48.656 60.2782 48.656 60.2424ZM48.2192 57.9904C48.2121 57.9705 48.2061 57.9502 48.2013 57.9296H24.9371C25.0231 58.0048 25.109 58.0764 25.1985 58.1408H48.23C48.2192 58.0907 48.2085 58.0406 48.2013 57.9904H48.2192ZM47.7395 55.7242H22.678L22.8714 55.9354H47.7753C47.7538 55.8674 47.7395 55.8137 47.7216 55.7242H47.7395ZM21.3354 55.7242C21.3321 55.7606 21.3249 55.7966 21.314 55.8316C21.314 55.7958 21.314 55.76 21.339 55.7242H21.3354ZM47.2239 53.5223H21.8474C21.8474 53.5904 21.8152 53.662 21.7973 53.73H47.2776L47.2239 53.5223ZM46.7155 51.3742C46.7155 51.3563 46.7155 51.3384 46.7155 51.3169H22.4489C22.431 51.3921 22.4059 51.4601 22.388 51.5317H46.7657C46.7514 51.4745 46.7406 51.4243 46.7263 51.3671L46.7155 51.3742ZM46.1499 49.1079H23.1184C23.0914 49.1781 23.0686 49.2498 23.0504 49.3227H46.2179L46.1499 49.1079ZM45.6164 47.0744C45.5985 47.0171 45.5878 46.9634 45.5735 46.9025H23.8631C23.838 46.9741 23.8094 47.0457 23.7843 47.1102H45.6236C45.6231 47.0981 45.6243 47.0861 45.6272 47.0744H45.6164ZM44.9827 44.8009L44.9505 44.6971H24.6901C24.6615 44.7651 24.6364 44.8332 24.6078 44.8976H45.0149C45.0061 44.8658 44.9989 44.8335 44.9935 44.8009H44.9827ZM44.2882 42.4917H25.6138C25.5816 42.5633 25.5494 42.6313 25.5207 42.7065H44.3598C44.3598 42.6313 44.3204 42.5669 44.2989 42.4917H44.2882ZM43.5721 40.2899H26.6485C26.6163 40.3507 26.584 40.4188 26.5554 40.4832H43.6688C43.6376 40.4204 43.6101 40.3559 43.5864 40.2899H43.5721ZM42.831 38.1883C42.831 38.1525 42.806 38.1167 42.7916 38.0773H27.8192L27.7512 38.2026C27.7324 38.2325 27.7156 38.2636 27.7011 38.2957H42.8847C42.8754 38.2586 42.8622 38.2226 42.8453 38.1883H42.831ZM41.9252 35.8826H29.1475C29.1045 35.9542 29.058 36.0258 29.0186 36.0974H42.0219C41.9968 36.0223 41.9646 35.9507 41.9396 35.8826H41.9252ZM40.912 33.6737H30.7013L30.6547 33.7309C30.6149 33.7801 30.5778 33.8315 30.5437 33.8849H41.0266C40.9908 33.8133 40.9586 33.7417 40.9264 33.6737H40.912ZM39.7091 31.5685L39.6375 31.4647H32.6847C32.6703 31.4709 32.657 31.4793 32.6453 31.4897C32.5737 31.5363 32.5129 31.5828 32.4484 31.6329L32.3947 31.6759H39.7914C39.7659 31.642 39.7431 31.6061 39.7234 31.5685H39.7091Z" fill="black"/>
<path d="M39.173 37.1143C37.4831 37.4186 34.755 34.7156 33.731 32.5889C33.663 32.4457 33.9602 30.9635 34.2323 29.1447C34.397 28.042 34.5509 26.8069 34.6118 25.6719L41.6397 27.7807C41.1576 29.1781 40.8486 30.6294 40.7196 32.102C40.7151 32.2588 40.7235 32.4156 40.7447 32.571C40.7468 32.596 40.7468 32.6212 40.7447 32.6462C40.8485 33.5412 40.8055 36.8171 39.173 37.1143Z" fill="#AD6359"/>
<path d="M40.7538 32.6462C40.7538 32.6963 40.7538 32.75 40.7538 32.8109C36.4826 31.9087 35.1651 29.7462 34.4097 27.7556C34.4956 27.0575 34.5672 26.3486 34.5994 25.6719L41.6274 27.7771C41.1456 29.1757 40.8378 30.6282 40.7108 32.102C40.7027 32.2588 40.7111 32.416 40.7359 32.571C40.7387 32.5967 40.7447 32.622 40.7538 32.6462Z" fill="#263238"/>
<path d="M32.9989 17.5414C32.2149 20.0654 33.5181 27.3762 35.3117 28.998C37.9074 31.3681 42.175 31.6116 44.1942 28.4897C46.1526 25.4608 44.2838 15.9589 42.2824 14.4767C39.3466 12.2964 34.1553 13.8108 32.9989 17.5414Z" fill="#AD6359"/>
<path d="M38.9874 22.1598C38.9874 22.1598 38.9516 22.192 38.9552 22.2099C39.0554 22.7004 39.0912 23.284 38.6724 23.5203C38.6724 23.5203 38.6724 23.5525 38.6724 23.5453C39.2273 23.3592 39.1736 22.5894 38.9874 22.1598Z" fill="#263238"/>
<path d="M38.4739 21.7051C37.6684 21.7803 37.8832 23.3807 38.6279 23.3091C39.3725 23.2375 39.147 21.6407 38.4739 21.7051Z" fill="#263238"/>
<path d="M42.0676 21.6872C42.0676 21.6657 42.1106 21.6872 42.1142 21.723C42.1643 22.2206 42.3039 22.797 42.7765 22.8901C42.7765 22.8901 42.7765 22.9188 42.7765 22.9152C42.2108 22.9116 42.0354 22.1597 42.0676 21.6872Z" fill="#263238"/>
<path d="M42.4439 21.111C43.2315 20.9427 43.518 22.5431 42.7769 22.6863C42.0357 22.8295 41.7816 21.2506 42.4439 21.111Z" fill="#263238"/>
<path d="M37.7422 21.0572C37.9444 20.9677 38.1416 20.8673 38.3329 20.7564C38.5558 20.6792 38.747 20.5307 38.8771 20.334C38.9031 20.2643 38.9067 20.1882 38.8875 20.1163C38.8682 20.0445 38.8271 19.9804 38.7697 19.933C38.6375 19.8595 38.4879 19.8231 38.3366 19.8275C38.1854 19.8319 38.0382 19.877 37.9105 19.9581C37.6281 20.0812 37.4011 20.3043 37.2732 20.5846C37.2444 20.6504 37.2361 20.7233 37.2492 20.7938C37.2624 20.8644 37.2965 20.9293 37.3471 20.9803C37.3976 21.0312 37.4623 21.0658 37.5328 21.0795C37.6033 21.0932 37.6762 21.0855 37.7422 21.0572Z" fill="#263238"/>
<path d="M42.9545 20.2192C42.7336 20.2057 42.5136 20.1794 42.2958 20.1404C42.0597 20.1468 41.8285 20.0723 41.6406 19.9292C41.592 19.8724 41.5624 19.8018 41.556 19.7273C41.5496 19.6528 41.5666 19.5782 41.6048 19.5139C41.7038 19.4005 41.8315 19.3158 41.9744 19.2685C42.1174 19.2213 42.2704 19.2133 42.4175 19.2454C42.7244 19.26 43.0151 19.3875 43.2338 19.6034C43.2876 19.6546 43.3241 19.7214 43.3383 19.7943C43.3525 19.8673 43.3436 19.9428 43.3129 20.0105C43.2822 20.0782 43.2312 20.1346 43.167 20.172C43.1028 20.2094 43.0285 20.2259 42.9545 20.2192Z" fill="#263238"/>
<path d="M39.8343 25.1243C39.9859 25.3034 40.173 25.4494 40.3837 25.5529C40.5944 25.6564 40.8242 25.7152 41.0587 25.7257C41.2643 25.7383 41.4706 25.7202 41.6709 25.672C41.71 25.6663 41.7483 25.6567 41.7855 25.6434L41.8893 25.6112C41.9148 25.6028 41.9369 25.5864 41.9523 25.5645C41.9678 25.5426 41.9758 25.5163 41.9752 25.4894C41.9776 25.4728 41.9776 25.4559 41.9752 25.4393V25.3964C41.9323 25.0133 41.8177 24.4404 41.8177 24.4404C41.9681 24.4906 42.7199 24.7161 42.6841 24.5192C42.3655 22.8795 42.011 21.0607 41.3487 19.5069C41.3449 19.4956 41.3369 19.4863 41.3263 19.4807C41.3158 19.4752 41.3036 19.4739 41.2921 19.4771C41.2806 19.4803 41.2708 19.4878 41.2647 19.498C41.2586 19.5082 41.2566 19.5204 41.2592 19.532C41.5027 21.118 42.0254 22.6503 42.2939 24.24C42.0259 24.1561 41.7476 24.1103 41.4669 24.1039C41.4132 24.1254 41.7067 25.2138 41.7103 25.3856C41.7125 25.3914 41.7125 25.3978 41.7103 25.4035C41.0802 25.5718 40.5718 25.4429 39.8916 25.0956C39.8307 25.0491 39.7985 25.0885 39.8343 25.1243Z" fill="#263238"/>
<path d="M41.3712 25.5288C41.2088 25.8046 40.9783 26.0339 40.7017 26.1948C40.5482 26.2766 40.3728 26.3079 40.2005 26.2843C39.821 26.2341 39.7708 25.9012 39.8031 25.604C39.8237 25.4478 39.8609 25.2941 39.914 25.1458C40.3459 25.4269 40.8569 25.5612 41.3712 25.5288Z" fill="#263238"/>
<path d="M40.7017 26.1946C40.5482 26.2764 40.3728 26.3077 40.2005 26.2841C39.821 26.234 39.7708 25.901 39.8031 25.6038C39.9974 25.5873 40.1916 25.6366 40.3546 25.7437C40.5175 25.8508 40.6398 26.0096 40.7017 26.1946Z" fill="#FF9CBD"/>
<path opacity="0.2" d="M33.0117 22.5538C33.47 22.2817 34.2469 20.6491 34.5906 19.9796C34.9343 19.3101 34.6658 16.1989 34.5583 15.2788C33.8291 15.8771 33.2872 16.6725 32.9974 17.5701C32.6608 18.6191 32.7074 20.5775 33.0117 22.5538Z" fill="#263238"/>
<path d="M40.8041 17.0973C40.5801 17.4418 40.2717 17.7234 39.9083 17.9151C39.5448 18.1069 39.1384 18.2025 38.7275 18.1929C38.3093 18.1832 37.9004 18.067 37.5395 17.8553C37.1786 17.6435 36.8778 17.3432 36.6653 16.9828C36.6653 16.9613 36.6188 16.9828 36.6295 16.9828C36.8195 17.3817 37.1145 17.7214 37.4828 17.9655C37.8511 18.2096 38.2789 18.3488 38.7204 18.3683C39.1574 18.3666 39.5862 18.2494 39.9634 18.0288C40.3406 17.8081 40.6528 17.4917 40.8685 17.1116C40.8721 17.0973 40.8255 17.0651 40.8041 17.0973Z" fill="#263238"/>
<path d="M37.5562 11.5264C36.1743 11.7376 35.0035 12.6684 34.6204 13.6745C34.4064 14.2501 34.395 14.8816 34.5882 15.4646C34.5882 15.4897 34.6455 15.4646 34.6384 15.4646C34.5415 14.942 34.5871 14.4029 34.7704 13.904C34.9538 13.405 35.268 12.9647 35.6802 12.6291C36.1276 12.24 36.6595 11.9605 37.2337 11.8126C37.8079 11.6647 38.4086 11.6525 38.9883 11.777C39.5532 11.8872 40.0606 12.1942 40.4204 12.6434C40.4526 12.6899 40.5529 12.6434 40.5242 12.5968C40.0301 11.777 38.8129 11.3366 37.5562 11.5264Z" fill="#263238"/>
<path d="M45.9919 13.4813C45.6756 12.8282 45.1394 12.3073 44.4775 12.0099C43.561 11.5946 42.6122 11.7986 41.6706 12.0099C41.6668 12.0115 41.6635 12.0143 41.6612 12.0178C41.6589 12.0213 41.6577 12.0254 41.6577 12.0296C41.6577 12.0337 41.6589 12.0378 41.6612 12.0413C41.6635 12.0448 41.6668 12.0476 41.6706 12.0493C42.469 11.8667 43.2924 11.7235 44.0872 12.0099C44.7453 12.2409 45.3031 12.6925 45.6661 13.288C46.0189 13.9029 46.1382 14.6244 46.0021 15.3202C45.866 16.0159 45.4836 16.6393 44.925 17.0759C44.5976 17.3194 44.2238 17.4933 43.8267 17.5868C43.4296 17.6804 43.0175 17.6917 42.6158 17.6201C42.5836 17.6201 42.5692 17.6594 42.6158 17.6666C43.3408 17.8177 44.096 17.6993 44.7399 17.3335C45.3838 16.9677 45.8722 16.3797 46.1136 15.6796C46.345 14.9568 46.3017 14.1741 45.9919 13.4813Z" fill="#263238"/>
<path d="M32.7581 19.0199C32.7581 19.0199 31.1327 16.707 32.0421 15.1353C32.5648 14.2474 34.6449 14.0935 34.6449 14.0935C35.0926 13.2032 35.8756 12.5271 36.8216 12.2139C38.5043 11.6017 40.6847 12.3535 40.6847 12.3535C40.6847 12.3535 42.2099 11.2078 43.8568 11.8952C46.1553 12.8512 46.2985 16.1521 44.2721 17.4732C42.84 18.4005 40.6202 17.3193 40.6202 17.3193C40.4269 17.3694 38.5509 18.8444 36.793 17.2298C36.793 17.2298 35.6867 18.4936 34.4694 17.8563C34.3363 18.2012 34.1011 18.4973 33.7954 18.7052C33.4897 18.9131 33.1278 19.0228 32.7581 19.0199Z" fill="#263238"/>
<path d="M34.5366 23.4989C34.5366 23.4989 32.8468 21.1646 31.7835 21.7696C30.7201 22.3747 32.0198 25.7795 33.2836 26.227C33.442 26.296 33.6128 26.3321 33.7855 26.3332C33.9583 26.3343 34.1295 26.3003 34.2888 26.2334C34.4481 26.1665 34.5921 26.068 34.7123 25.9438C34.8324 25.8196 34.9261 25.6724 34.9878 25.511L34.5366 23.4989Z" fill="#AD6359"/>
<path d="M32.1849 22.7361C32.1801 22.7361 32.1756 22.738 32.1722 22.7414C32.1689 22.7447 32.167 22.7493 32.167 22.754C32.167 22.7588 32.1689 22.7633 32.1722 22.7667C32.1756 22.7701 32.1801 22.7719 32.1849 22.7719C33.0728 23.13 33.5525 23.9248 33.8891 24.7661C33.8354 24.6777 33.7632 24.602 33.6775 24.5442C33.5917 24.4863 33.4945 24.4477 33.3924 24.4311C33.2904 24.4144 33.1859 24.42 33.0862 24.4476C32.9865 24.4751 32.894 24.524 32.815 24.5907C32.8115 24.5951 32.8093 24.6004 32.8087 24.6061C32.8082 24.6117 32.8094 24.6173 32.812 24.6223C32.8147 24.6273 32.8188 24.6314 32.8238 24.634C32.8288 24.6367 32.8344 24.6378 32.8401 24.6372C32.9943 24.5851 33.1609 24.5823 33.3168 24.6291C33.4727 24.6759 33.6101 24.7701 33.7101 24.8986C33.8757 25.1148 34.0185 25.3475 34.1361 25.5932C34.1791 25.6719 34.3187 25.6254 34.2901 25.5359C34.2885 25.5288 34.2885 25.5215 34.2901 25.5144C34.2865 24.3902 33.3878 22.8292 32.1849 22.7361Z" fill="#263238"/>
<path d="M29.1291 33.423C21.4781 40.5368 11.586 55.7671 13.1685 59.0107C14.9299 62.6232 25.5846 52.6451 25.5703 52.0365C25.5703 51.5746 29.5623 43.1755 32.5804 36.3874C35.5985 29.5993 31.0194 31.6651 29.1291 33.423Z" fill="#AD6359"/>
<path d="M13.1696 59.0109C14.7162 61.4419 19.1879 62.0863 30.2937 64.7607C31.8296 65.1188 37.3646 54.9903 35.7428 54.5106C33.7021 53.9055 25.6466 52.0045 25.0416 51.9364C19.9254 51.3887 12.117 57.3604 13.1696 59.0109Z" fill="#AD6359"/>
<path d="M32.0524 54.1095C32.0524 54.1095 36.5599 54.0557 38.9371 54.7646C42.1199 55.7098 44.4793 57.8364 45.4137 58.7852C47.365 60.7722 50.7124 66.9194 49.1085 68.1904C47.6764 69.3432 44.5581 62.8845 44.5581 62.8845C44.5581 62.8845 48.8042 68.9494 46.8029 70.0127C44.8015 71.0761 41.6259 63.3786 41.6259 63.3786C41.6259 63.3786 45.8541 69.7048 43.6165 70.4782C41.923 71.0617 38.6543 64.2486 38.6543 64.2486C38.6543 64.2486 42.2524 69.712 40.5375 70.3851C38.6436 71.1334 35.2316 65.0327 35.2316 65.0327C30.5773 66.0172 27.9745 64.5851 26.2345 63.3464C25.8157 63.0457 32.0524 54.1095 32.0524 54.1095Z" fill="#AD6359"/>
<path d="M43.2235 60.6972C43.7462 61.3882 44.2975 62.0899 44.745 62.8453C45.1926 63.6008 45.6401 64.3383 46.0339 65.1152C46.5617 66.1232 46.9748 67.1872 47.2655 68.2873C46.6103 66.3719 44.9992 63.7046 44.5374 62.9635C44.0756 62.2224 43.6531 61.467 43.1948 60.7294C43.1805 60.6936 43.2091 60.6793 43.2235 60.6972Z" fill="#263238"/>
<path d="M40.5256 62.3118C41.1593 63.2284 41.8216 64.1019 42.4124 65.0579C43.0031 66.0138 43.4864 66.9375 43.9984 67.922C44.0413 67.9972 43.9984 67.9936 43.9411 67.922C43.3826 66.9661 42.7883 66.1319 42.2154 65.176C41.6426 64.2201 41.1092 63.257 40.5041 62.3333C40.4934 62.3118 40.5184 62.3011 40.5256 62.3118Z" fill="#263238"/>
<path d="M37.9626 63.2859C38.9661 64.6668 39.8251 66.1472 40.526 67.7038C40.5618 67.779 40.4938 67.7683 40.4508 67.7038C39.6274 66.1966 38.9901 65.0366 37.916 63.3324C37.916 63.2966 37.9411 63.2572 37.9626 63.2859Z" fill="#263238"/>
<path d="M18.7243 53.4759C20.7318 52.1602 23.1525 51.6277 25.5267 51.9794C25.5554 51.9794 25.5554 52.0331 25.5267 52.0295C23.0671 51.8541 19.691 52.9997 18.7243 53.5189C18.7172 53.5332 18.6993 53.4938 18.7243 53.4759Z" fill="#263238"/>
<path d="M18.1465 43.4157L27.6555 48.8504C27.6555 48.8504 31.5938 41.3141 33.1082 36.3984C34.6226 31.4828 33.2765 29.238 27.5982 34.1895C24.2634 37.0703 21.107 40.1514 18.1465 43.4157Z" fill="#455A64"/>
<path d="M28.1634 46.831C26.8936 45.9574 25.6024 45.122 24.2896 44.3248C23.6416 43.9274 22.9972 43.5193 22.342 43.1326C21.6868 42.746 20.9636 42.3808 20.2869 41.9834C20.2404 41.9547 20.1903 42.0228 20.2368 42.055C20.8741 42.4631 21.4863 42.9178 22.1236 43.3295C22.7609 43.7413 23.4519 44.1566 24.1178 44.5683C25.4353 45.3822 26.7707 46.1615 28.124 46.9062C28.1634 46.9097 28.2028 46.8632 28.1634 46.831Z" fill="#263238"/>
<path d="M27.2573 48.6213C27.4005 48.6857 27.5402 48.7466 27.6798 48.8146L27.6189 48.8325C27.8874 48.1379 28.1918 47.4648 28.4853 46.7846C28.7789 46.1044 29.1083 45.4456 29.4377 44.7833C29.7671 44.1209 30.1 43.4622 30.4616 42.8142C30.8232 42.1661 31.1777 41.5181 31.5751 40.888C31.3209 41.5861 31.0309 42.2664 30.7301 42.943C30.4294 43.6197 30.1179 44.2892 29.7957 44.9587C29.4735 45.6282 29.1369 46.2798 28.7897 46.935C28.4424 47.5902 28.0736 48.2382 27.7156 48.8719L27.6905 48.9113L27.6547 48.8898C27.5079 48.8038 27.3826 48.7108 27.2573 48.6213Z" fill="#263238"/>
<path d="M31.7615 42.209C31.3625 42.8552 30.8135 43.3956 30.1611 43.7843C30.3593 43.4589 30.6001 43.1615 30.8772 42.9C31.141 42.6326 31.4382 42.4003 31.7615 42.209Z" fill="#263238"/>
</svg>
