<svg width="345" height="140" viewBox="0 0 345 140" fill="none" xmlns="http://www.w3.org/2000/svg">
<g opacity="0.8">
<path d="M0 129.112L3.9976 128.389C3.9976 128.389 -0.261321 124.019 2.32962 121.334C4.92055 118.648 8.89036 121.022 8.89036 121.022C8.89036 121.022 8.27877 114.634 13.2216 113.294C18.1644 111.954 22.5067 121.512 22.5067 121.512C22.5067 121.512 23.235 119.288 26.9213 120.15C30.6075 121.011 33.5265 126.054 33.5265 126.054L79.2571 129.112" fill="white"/>
<path d="M0 129.113L3.99204 128.362C3.08937 127.489 2.36766 126.446 1.86814 125.293C0.544871 122.586 2.42414 120.061 5.30975 119.972C6.5857 119.976 7.83879 120.311 8.94596 120.945L8.80696 121.034C8.7418 120.07 8.80537 119.102 8.996 118.154C9.70211 113.89 14.0889 111.321 17.625 114.485C19.849 116.347 21.3725 118.883 22.629 121.462H22.401C22.6463 120.885 23.1013 120.422 23.6743 120.167C26.5988 118.983 29.6457 120.99 31.5082 123.153C32.2973 124.003 32.9805 124.946 33.5432 125.96L79.2682 129.102L33.5321 126.133C33.4765 126.133 33.4876 126.133 33.4654 126.088C32.8495 125.102 32.1481 124.172 31.3692 123.308C29.8403 121.601 27.822 120.072 25.4368 120.084C24.3248 120.039 23.0682 120.495 22.6568 121.568L22.5512 121.829L22.4288 121.579C21.1723 119.049 19.6489 116.575 17.4805 114.702C15.1453 112.567 11.9984 112.995 10.2525 115.608C9.28688 117.244 8.85362 119.141 9.01268 121.034V121.207L8.86256 121.123C7.78439 120.498 6.56174 120.164 5.31531 120.156C3.50833 120.156 1.52898 121.524 1.57346 123.464C1.61794 125.404 2.82446 127.039 4.04764 128.424H4.00316L0 129.124V129.113Z" fill="#263238"/>
</g>
<path d="M165.585 23.8912C161.932 27.1216 158.084 31.5695 153.208 32.8483C149.383 33.838 145.363 32.7093 141.949 30.9412C134.438 27.0493 127.316 18.8817 129.912 9.85234C130.952 6.24393 135.706 1.95721 139.776 3.2916C141.861 3.98103 143.451 5.51557 145.191 6.7888C146.24 7.6138 147.462 8.19209 148.765 8.48083C150.068 8.76957 151.42 8.76135 152.719 8.45679C158.157 7.27808 160.698 4.60375 165.196 1.60138C165.622 1.27486 166.111 1.0401 166.633 0.91188C167.154 0.783661 167.697 0.764748 168.226 0.856336C170.536 1.33888 172.607 2.60837 174.086 4.44807C175.387 6.46633 175.103 9.62994 175.198 11.9262C175.292 14.2225 174.686 15.8182 172.946 17.4139C170.516 19.6101 168.037 21.734 165.585 23.8912Z" fill="#263238"/>
<path d="M164.15 25.7933C167.308 22.6352 170.399 19.416 173.518 16.219C173.518 16.219 173.518 16.1634 173.518 16.1857C170.877 18.7432 168.203 21.2619 165.595 23.8528C162.988 26.4438 160.591 29.1848 157.812 31.4922C151.595 36.6796 143.817 32.2484 139.82 26.6328C139.636 26.3771 139.264 26.694 139.441 26.9442C143.111 31.7646 149.244 36.107 155.515 33.416C158.924 31.9481 161.564 28.3786 164.15 25.7933Z" fill="#263238"/>
<path d="M165.753 1.62985C165.82 1.57425 165.753 1.47973 165.664 1.52977C162.067 4.15407 158.119 7.55676 153.51 8.00711C151.24 8.22459 148.957 7.75176 146.96 6.65048C145.381 5.77201 144.225 4.42651 142.862 3.2756C137.542 -1.21128 130.303 4.5099 130.603 10.6314C130.603 10.7593 130.831 10.7537 130.831 10.6314C130.831 6.18345 134.044 2.09688 138.726 1.99681C142.484 1.91341 144.492 5.92769 147.7 7.3566C154.349 10.3034 160.793 5.78313 165.753 1.62985Z" fill="#263238"/>
<path d="M141.838 46.1761C141.838 46.1761 141.432 42.3341 141.454 41.5391C141.476 40.744 145.535 38.0029 145.535 38.0029C145.535 38.0029 146.491 30.6638 147.259 29.0069C147.47 28.5455 154.392 27.8949 155.293 28.7178C156.193 29.5407 160.625 46.4763 160.625 46.4763L141.838 46.1761Z" fill="#3DA925"/>
<path opacity="0.5" d="M141.838 46.1761C141.838 46.1761 141.432 42.3341 141.454 41.5391C141.476 40.744 145.535 38.0029 145.535 38.0029C145.535 38.0029 146.491 30.6638 147.259 29.0069C147.47 28.5455 154.392 27.8949 155.293 28.7178C156.193 29.5407 160.625 46.4763 160.625 46.4763L141.838 46.1761Z" fill="white"/>
<path d="M167.471 26.6219C171.363 34.4058 177.668 43.3407 179.703 44.5416C182.31 46.0595 195.41 45.9372 196.127 45.8427C197.901 45.598 197.762 33.5607 195.855 33.7386C192.958 34.0111 185.018 35.1342 184.256 34.656C183.495 34.1779 177.851 29.7688 171.947 24.7093C167.894 21.2121 165.058 21.7959 167.471 26.6219Z" fill="#D3766A"/>
<path d="M201.222 32.4923C203.322 32.0456 205.51 32.3218 207.433 33.2763C209.229 34.1659 209.601 37.2628 209.279 37.9466C208.956 38.6305 206.254 42.5725 204.447 41.7218C202.64 40.8712 205.276 38.1023 205.387 37.6964C205.498 37.2905 205.654 36.7735 205.298 36.6512C204.942 36.5288 197.625 36.5344 197.625 36.5344L201.222 32.4923Z" fill="#D3766A"/>
<path d="M201.561 32.4324C201.661 32.4769 207.41 32.8549 209.206 33.7445C211.002 34.6341 211.369 37.731 211.047 38.4149C210.724 39.0988 208.027 43.0408 206.221 42.1901C204.414 41.3394 207.049 38.5706 207.16 38.1647C207.271 37.7588 207.427 37.2473 207.066 37.1194C206.704 36.9915 199.398 37.0027 199.398 37.0027L201.561 32.4324Z" fill="#D3766A"/>
<path d="M205.705 41.6655C205.664 41.2509 205.733 40.8327 205.906 40.4534C206.053 40.0542 206.259 39.6794 206.517 39.3414C206.772 39.0648 207.002 38.7673 207.207 38.4518C207.364 38.1171 207.433 37.7477 207.407 37.3788C207.407 37.0563 207.084 37.0174 206.817 36.9896C206.419 36.9673 206.02 36.9673 205.622 36.9896L204.343 37.034C203.901 37.0321 203.459 37.0581 203.02 37.1119C203.014 37.1145 203.009 37.1188 203.005 37.1242C203.002 37.1296 203 37.136 203 37.1425C203 37.149 203.002 37.1553 203.005 37.1607C203.009 37.1662 203.014 37.1704 203.02 37.173C203.39 37.1926 203.762 37.1926 204.132 37.173C204.549 37.173 204.972 37.173 205.389 37.173C205.806 37.173 206.173 37.173 206.567 37.173C206.757 37.1528 206.948 37.1815 207.123 37.2565C207.246 37.351 207.123 37.7235 207.123 37.8458C207.047 38.2073 206.865 38.5381 206.601 38.7966C206.352 39.0738 206.132 39.3755 205.945 39.6973C205.763 39.9982 205.639 40.3299 205.578 40.6758C205.556 41.0051 205.577 41.3358 205.639 41.6599C205.639 41.7211 205.711 41.71 205.705 41.6655Z" fill="#263238"/>
<path d="M202.38 32.2868C202.491 32.2868 208.201 31.5474 210.136 32.0644C212.071 32.5815 213.05 35.5394 212.866 36.2733C212.683 37.0072 210.82 41.4107 208.88 40.927C206.939 40.4433 208.98 37.2185 209.002 36.8015C209.024 36.3845 209.085 35.8452 208.707 35.7896C208.329 35.734 201.168 37.1963 201.168 37.1963L202.38 32.2868Z" fill="#D3766A"/>
<path d="M208.285 40.5217C208.166 40.1223 208.153 39.699 208.246 39.2929C208.307 38.868 208.435 38.4553 208.624 38.0698C208.816 37.7456 208.983 37.4073 209.124 37.0578C209.217 36.693 209.217 36.3107 209.124 35.9458C209.041 35.6345 208.729 35.6567 208.463 35.6845C208.067 35.732 207.675 35.8045 207.289 35.9014C206.872 35.9903 206.461 36.096 206.044 36.1905C205.611 36.2792 205.184 36.3943 204.765 36.5352C204.732 36.5352 204.737 36.5964 204.765 36.5908C205.139 36.5446 205.51 36.4777 205.877 36.3907L207.117 36.1571C207.501 36.0904 207.884 36.0014 208.273 35.9403C208.456 35.8951 208.647 35.8951 208.829 35.9403C208.968 36.007 208.952 36.3906 208.952 36.4963C208.948 36.8652 208.836 37.2248 208.629 37.5304C208.438 37.8501 208.281 38.1893 208.162 38.5424C208.046 38.8745 207.99 39.2246 207.996 39.5765C208.042 39.9026 208.128 40.2218 208.251 40.5272C208.229 40.5884 208.301 40.5606 208.285 40.5217Z" fill="#263238"/>
<path d="M202.087 51.1496L204.77 52.511L214.367 33.6015L211.685 32.2402L202.087 51.1496Z" fill="#263238"/>
<path d="M214.841 42.4921L209.492 40.5093L208.313 43.6894L213.662 45.6722L214.841 42.4921Z" fill="#263238"/>
<path d="M216.641 42.4355L213.164 41.1465L211.51 45.609L214.987 46.8981L216.641 42.4355Z" fill="#263238"/>
<path d="M193.566 34.4654C193.566 34.4654 200.038 32.6529 201.551 32.4305C203.552 32.1302 206.693 33.1144 206.799 34.7101C206.799 35.1715 204.809 37.1064 204.664 37.49C204.253 38.5186 204.325 40.826 206.032 41.5877C207.739 42.3494 209.991 40.3979 211.664 40.8538C213.338 41.3097 210.98 43.6671 209.112 44.7903C207.219 45.8306 205.069 46.3126 202.913 46.1802C201.2 46.0412 195.774 45.8522 195.774 45.8522L193.566 34.4654Z" fill="#D3766A"/>
<path d="M208.691 41.3659C207.823 41.5549 206.806 41.8496 205.955 41.4882C205.105 41.1268 204.782 40.2872 204.715 39.3976C204.602 38.498 204.837 37.5892 205.371 36.8568C205.911 36.2233 206.621 35.7582 207.418 35.5168C208.392 35.2267 209.403 35.0787 210.42 35.0776C210.464 35.0776 210.453 35.0053 210.42 35.0053C209.48 35.0053 206.606 34.8329 205.116 36.7344C204.576 37.4855 204.343 38.4142 204.465 39.3309C204.444 39.7623 204.532 40.1919 204.721 40.5805C204.909 40.9691 205.192 41.3041 205.544 41.5549C206.5 42.1109 207.74 41.6995 208.741 41.4326C208.774 41.3992 208.735 41.3547 208.691 41.3659Z" fill="#263238"/>
<path d="M195.752 32.8534L194.746 47.5317C194.746 47.5317 182.286 47.0202 179.6 45.2354C176.915 43.4507 170.115 32.5476 167.569 27.0766C165.022 21.6056 167.963 21.0496 171.511 24.0242C175.058 26.9988 183.831 34.1822 184.254 34.2823C184.677 34.3824 195.752 32.8534 195.752 32.8534Z" fill="#455A64"/>
<path d="M192.146 41.7447C192.279 40.01 192.424 38.2753 192.491 36.535C192.53 35.5454 192.574 34.5613 192.607 33.5716C192.607 33.5327 192.541 33.5271 192.541 33.5716C192.335 35.3063 192.14 37.0466 192.012 38.7924C191.885 40.5382 191.757 42.2618 191.657 43.9965C191.601 44.9862 191.573 45.9703 191.579 46.9599H191.612C191.868 45.2308 192.012 43.4905 192.146 41.7447Z" fill="#263238"/>
<path d="M194.846 46.0706L194.746 47.5329C194.746 47.5329 182.28 47.0214 179.601 45.2422C176.921 43.463 170.115 32.5488 167.569 27.0778C165.706 23.0802 166.779 21.7014 168.875 22.4186C175.392 28.2343 187.701 39.2986 194.846 46.0706Z" fill="#37474F"/>
<path d="M149.773 50.4357L178.924 50.9138L176.639 42.1847C176.639 42.1847 179.058 39.9607 177.857 35.5739C177.162 33.0052 173.931 28.157 171.902 25.7161C166.948 19.7614 162.645 22.4525 161.271 23.9814C156.028 29.8305 149.773 50.4357 149.773 50.4357Z" fill="#455A64"/>
<path d="M162.513 22.9465L169.012 23.0966L169.274 23.269L162.274 23.1078C162.352 23.0522 162.407 22.9966 162.513 22.9465ZM160.244 25.2873L171.754 25.5486L171.609 25.3762L160.367 25.1205L160.244 25.2873ZM158.871 27.4723L173.51 27.8115L173.388 27.6447L158.971 27.3167C158.935 27.3664 158.901 27.4184 158.871 27.4723ZM157.709 29.6963L175.045 30.0966C175.006 30.041 174.973 29.9799 174.934 29.9187L157.787 29.5295C157.759 29.5629 157.731 29.6185 157.709 29.6741V29.6963ZM156.653 31.9203L176.402 32.3706L176.307 32.2094L156.731 31.7591L156.653 31.9203ZM155.685 34.1443L177.508 34.6447C177.508 34.5891 177.464 34.5335 177.441 34.4723L155.758 33.9775L155.685 34.1443ZM154.773 36.3404L178.125 36.8964C178.125 36.8464 178.125 36.7908 178.125 36.7352L154.874 36.1792C154.812 36.1681 154.79 36.2237 154.773 36.2737V36.3404ZM153.901 38.5644L178.103 39.1204C178.103 39.0648 178.103 39.0092 178.103 38.9536L153.945 38.3976L153.901 38.5644ZM153.072 40.7884L177.347 41.3444L177.436 41.1832L153.133 40.6272L153.072 40.7884ZM152.277 43.0124L176.963 43.5684L176.919 43.4016L152.338 42.8456C152.31 42.7789 152.299 42.8345 152.277 42.8901V43.0124ZM151.504 45.2364L177.547 45.8369L177.503 45.67L151.565 44.9139C151.549 44.9745 151.529 45.034 151.504 45.0918V45.2364ZM150.77 47.4604L178.136 48.0886L178.092 47.9163L150.848 47.2936L150.77 47.4604ZM150.059 49.6843L178.72 50.3404L178.676 50.1681L150.109 49.3619C150.086 49.4008 150.075 49.4619 150.059 49.512V49.6843Z" fill="white"/>
<path d="M168.834 41.6726C170.08 41.5605 171.333 41.5401 172.582 41.6114C173.204 41.6559 173.816 41.7282 174.433 41.8116C174.739 41.856 175.05 41.8894 175.356 41.9172C175.677 41.9588 176.002 41.9588 176.323 41.9172C176.357 41.9172 176.362 41.9561 176.323 41.9617C176.025 42.0337 175.723 42.0839 175.417 42.1118C175.121 42.1312 174.824 42.1312 174.528 42.1118C173.894 42.0729 173.266 42.0061 172.637 41.9561C171.37 41.8671 170.102 41.7782 168.829 41.7782C168.818 41.774 168.808 41.7664 168.802 41.7566C168.796 41.7467 168.792 41.7351 168.793 41.7233C168.794 41.7116 168.798 41.7004 168.805 41.6912C168.813 41.6821 168.823 41.6756 168.834 41.6726Z" fill="#263238"/>
<path d="M165.982 43.3064C166.974 43.0191 167.982 42.787 169.001 42.6114C169.507 42.5224 170.018 42.4668 170.535 42.4224L171.269 42.3723C171.542 42.3723 171.825 42.3723 172.086 42.3723C172.114 42.3723 172.125 42.4112 172.086 42.4112C171.836 42.439 171.581 42.5058 171.33 42.5447L170.569 42.6614L169.04 42.9061C168.022 43.0562 167.005 43.2119 165.993 43.3953C165.943 43.4009 165.932 43.3231 165.982 43.3064Z" fill="#263238"/>
<path d="M164.685 23.2307C164.836 23.7534 167.521 27.0504 169.928 26.8169C170.712 26.7391 170.484 22.4468 170.484 22.4468L170.54 22.1299L171.285 17.6708L165.903 14.5795L165.125 14.1736C165.125 14.1736 164.997 15.419 164.847 16.9536V17.176C164.847 17.2649 164.847 17.3483 164.819 17.4262C164.791 17.6597 164.769 17.8932 164.747 18.1323C164.724 18.3713 164.719 18.4825 164.708 18.6883C164.697 18.894 164.708 19.0608 164.669 19.2443C164.584 20.5719 164.59 21.9038 164.685 23.2307Z" fill="#D3766A"/>
<path d="M164.871 16.948C165.382 18.1732 166.154 19.2727 167.132 20.1703C168.11 21.0679 169.272 21.7422 170.537 22.1466L171.287 17.6708L165.905 14.5795L165.127 14.1736C165.127 14.1736 165.021 15.4023 164.871 16.948Z" fill="#263238"/>
<path d="M177.042 9.58421C179.166 17.2959 174.818 19.4364 173.15 19.8924C171.643 20.3094 166.45 21.527 163.543 14.0766C160.635 6.62631 163.509 3.2125 166.923 2.10051C170.337 0.988521 174.918 1.87812 177.042 9.58421Z" fill="#D3766A"/>
<path d="M175.574 8.55726C175.385 8.55726 175.207 8.55726 175.018 8.55726C174.828 8.58739 174.633 8.55623 174.462 8.46829C174.413 8.4295 174.379 8.37586 174.364 8.31559C174.349 8.25532 174.354 8.19177 174.379 8.1347C174.445 8.02763 174.539 7.94023 174.65 7.88157C174.761 7.82291 174.887 7.79513 175.012 7.8011C175.27 7.77665 175.527 7.84791 175.735 8.00126C175.787 8.03786 175.827 8.08992 175.848 8.15012C175.869 8.21032 175.871 8.27565 175.854 8.33696C175.836 8.39826 175.799 8.45247 175.749 8.49197C175.699 8.53148 175.638 8.55431 175.574 8.55726Z" fill="#263238"/>
<path d="M170.175 9.65234C170.353 9.58562 170.503 9.49666 170.676 9.41326C170.862 9.35201 171.022 9.23077 171.132 9.06855C171.158 9.01082 171.164 8.94606 171.148 8.8846C171.133 8.82314 171.098 8.7685 171.048 8.72939C170.939 8.66644 170.816 8.6333 170.69 8.6333C170.564 8.6333 170.44 8.66644 170.331 8.72939C170.087 8.82549 169.889 9.01018 169.775 9.24647C169.746 9.30267 169.736 9.3665 169.746 9.4289C169.755 9.49129 169.784 9.54906 169.829 9.59401C169.873 9.63895 169.93 9.66878 169.993 9.67925C170.055 9.68973 170.119 9.68031 170.175 9.65234Z" fill="#263238"/>
<path d="M171.999 11.4695C171.999 11.4695 171.96 11.5084 171.971 11.5306C172.133 12.0477 172.227 12.6426 171.805 12.9762C171.805 12.9762 171.805 13.0151 171.805 13.004C172.372 12.7649 172.233 11.9365 171.999 11.4695Z" fill="#263238"/>
<path d="M171.37 11.0531C170.508 11.2199 170.909 12.9323 171.709 12.7767C172.51 12.621 172.093 10.9085 171.37 11.0531Z" fill="#263238"/>
<path d="M171.039 11.221C170.917 11.3545 170.811 11.5602 170.633 11.6213C170.455 11.6825 170.227 11.5491 170.077 11.4101C170.077 11.4101 170.044 11.4101 170.077 11.4101C170.15 11.7437 170.355 12.0495 170.717 12.0161C171.078 11.9827 171.212 11.638 171.217 11.2933C171.167 11.2488 171.095 11.171 171.039 11.221Z" fill="#263238"/>
<path d="M174.898 10.6707C174.898 10.6707 174.943 10.6707 174.948 10.704C175.054 11.26 175.26 11.816 175.782 11.905V11.9328C175.188 11.9828 174.91 11.1933 174.898 10.6707Z" fill="#263238"/>
<path d="M175.247 10.0028C176.086 9.747 176.542 11.4428 175.769 11.6707C174.996 11.8987 174.546 10.2196 175.247 10.0028Z" fill="#263238"/>
<path d="M175.645 10.0186C175.801 10.0742 175.979 10.2021 176.14 10.1688C176.301 10.1354 176.418 9.91299 176.49 9.70728C176.49 9.70728 176.49 9.70728 176.518 9.70728C176.588 9.84865 176.605 10.0104 176.566 10.1633C176.528 10.3162 176.436 10.4503 176.307 10.5413C176.034 10.6747 175.751 10.4523 175.59 10.1465C175.556 10.102 175.578 10.002 175.645 10.0186Z" fill="#263238"/>
<path d="M172.975 15.8358C173.111 15.9701 173.29 16.0527 173.48 16.0693C173.681 16.0281 173.871 15.9447 174.036 15.8247C174.036 15.8247 174.075 15.8247 174.064 15.8247C174.009 15.9449 173.922 16.0474 173.812 16.121C173.702 16.1946 173.574 16.2364 173.442 16.2417C173.326 16.2378 173.215 16.1982 173.124 16.1285C173.032 16.0588 172.965 15.9624 172.93 15.8525C172.891 15.8414 172.93 15.8247 172.975 15.8358Z" fill="#263238"/>
<path d="M174.663 13.3776C174.813 13.7414 174.945 14.1125 175.058 14.4896C175.058 14.5285 174.986 14.5674 174.858 14.6063C174.553 14.7444 174.217 14.7957 173.885 14.7545C173.553 14.7133 173.24 14.5812 172.978 14.3728C172.945 14.345 172.978 14.295 173.023 14.3061C173.577 14.5117 174.183 14.5351 174.752 14.3728C174.752 14.2616 174.196 13.0829 174.246 13.0662C174.541 13.0237 174.841 13.0237 175.136 13.0662C174.546 11.4594 173.707 9.96376 173.145 8.35137C173.144 8.34002 173.147 8.32862 173.152 8.31873C173.158 8.30883 173.167 8.30092 173.177 8.29607C173.187 8.29121 173.199 8.28964 173.21 8.29158C173.221 8.29351 173.232 8.29886 173.24 8.30689C174.19 9.89236 174.98 11.5686 175.597 13.3108C175.664 13.4943 174.83 13.4054 174.663 13.3776Z" fill="#263238"/>
<path d="M174.755 14.4606C174.629 14.8187 174.412 15.1384 174.127 15.3891C173.969 15.5197 173.775 15.5992 173.571 15.6171C173.121 15.6171 172.982 15.2613 172.954 14.911C172.932 14.7263 172.932 14.5397 172.954 14.355C173.528 14.5823 174.159 14.6193 174.755 14.4606Z" fill="#263238"/>
<path d="M174.138 15.389C173.98 15.5196 173.786 15.5991 173.582 15.617C173.132 15.617 172.993 15.2612 172.965 14.9109C173.186 14.8492 173.421 14.8627 173.633 14.9493C173.846 15.0359 174.023 15.1905 174.138 15.389Z" fill="#FF9BBC"/>
<path d="M163.896 14.9728C164.348 14.6193 164.701 14.1552 164.921 13.6253C165.141 13.0955 165.221 12.5179 165.153 11.9482C166.402 11.0542 167.391 9.84311 168.016 8.43989C168.016 8.61225 167.866 9.86324 167.777 10.4971C172.575 8.51218 173.337 4.38113 173.337 4.38113C174.477 5.057 175.449 5.9805 176.184 7.08327C176.184 7.08327 175.572 4.01417 173.559 2.29615C172.897 1.68708 172.084 1.26637 171.204 1.07768C170.324 0.888988 169.409 0.939188 168.555 1.22307C167.259 1.1868 165.976 1.50009 164.843 2.13009C163.709 2.76008 162.765 3.68357 162.111 4.80368C159.621 9.00701 163.896 14.9728 163.896 14.9728Z" fill="#263238"/>
<path d="M171.418 8.86744C170.708 9.47646 169.911 9.97675 169.055 10.3519C170.378 9.6715 171.485 8.63563 172.252 7.36069C172.576 6.81657 172.83 6.23372 173.008 5.62598C173.23 4.96813 173.319 4.27254 173.269 3.57993C173.269 3.52989 173.341 3.52433 173.347 3.57993C173.464 4.25882 173.464 4.95265 173.347 5.63155C173.212 6.30159 172.954 6.94072 172.585 7.51637C172.258 8.02676 171.859 8.48739 171.401 8.88412L171.418 8.86744Z" fill="#263238"/>
<path d="M161.981 14.8908L161.637 14.7963C161.681 14.635 162.082 13.2339 162.821 12.9448C163.56 12.6557 168.236 12.1052 168.437 12.083L168.475 12.4333C167.124 12.5945 163.471 13.0616 162.949 13.2728C162.426 13.4841 162.082 14.4905 161.981 14.8908Z" fill="#A6A6A6"/>
<path d="M173.34 11.7208L173.062 11.5039C173.385 11.0925 174.174 10.4531 174.97 10.9924L174.769 11.2815C174.08 10.7978 173.374 11.6874 173.34 11.7208Z" fill="#A6A6A6"/>
<g opacity="0.9">
<path d="M171.757 14.7831C171.55 14.8555 171.336 14.904 171.118 14.9276C170.625 14.9767 170.129 14.8865 169.686 14.6672C169.242 14.448 168.869 14.1085 168.609 13.6875C168.349 13.2665 168.212 12.7809 168.215 12.2861C168.217 11.7913 168.359 11.3072 168.623 10.8889C168.888 10.4706 169.264 10.135 169.71 9.92025C170.156 9.70555 170.653 9.62041 171.145 9.67454C171.637 9.72867 172.103 9.91989 172.492 10.2264C172.88 10.5329 173.175 10.9424 173.342 11.4082C173.439 11.6719 173.492 11.95 173.497 12.231C173.511 12.7851 173.35 13.3294 173.038 13.7873C172.726 14.2452 172.278 14.5935 171.757 14.7831Z" fill="#37474F"/>
<g opacity="0.1">
<path d="M171.495 9.73549L168.365 13.1827C168.205 12.7295 168.172 12.2409 168.271 11.7704L170.072 9.77997C170.533 9.63509 171.026 9.6197 171.495 9.73549Z" fill="white"/>
<path d="M173.043 10.8133L169.618 14.6108C169.469 14.5266 169.328 14.4299 169.195 14.3217L172.743 10.4297C172.855 10.5475 172.955 10.676 173.043 10.8133Z" fill="white"/>
<path d="M173.363 11.5541L170.328 14.89H170.211L173.33 11.4429L173.363 11.5541Z" fill="white"/>
</g>
</g>
<g opacity="0.9">
<path d="M177.202 13.5828C177.144 13.5877 177.087 13.5877 177.029 13.5828C176.023 13.6829 175.011 12.7432 174.722 11.3922C174.569 10.7525 174.623 10.0805 174.878 9.47398C174.975 9.21049 175.137 8.97579 175.349 8.79162C175.561 8.60746 175.816 8.4798 176.09 8.42047C176.365 8.36114 176.65 8.37206 176.919 8.45223C177.188 8.5324 177.433 8.67922 177.63 8.87907C178.106 9.32482 178.43 9.90794 178.558 10.5471C178.875 12.0093 178.258 13.3604 177.202 13.5828Z" fill="#37474F"/>
<g opacity="0.1">
<path d="M178.576 10.5575L176.035 13.3374C175.734 13.1546 175.474 12.9102 175.273 12.6202L178.131 9.46216C178.344 9.79743 178.495 10.1685 178.576 10.5575Z" fill="white"/>
<path d="M177.133 8.55553L174.709 11.2354C174.706 11.1928 174.706 11.1501 174.709 11.1075L177.055 8.5166L177.133 8.55553Z" fill="white"/>
</g>
</g>
<path d="M164.068 16.7568C164.196 16.7726 164.324 16.7726 164.452 16.7568C164.579 16.7578 164.705 16.7371 164.824 16.6957C164.981 16.6529 165.125 16.575 165.247 16.4677C165.345 16.3859 165.431 16.2904 165.503 16.1842C165.605 16.0341 165.679 15.8663 165.719 15.6893L164.897 13.6655C164.897 13.6655 162.728 11.5305 161.727 12.3478C160.727 13.1651 162.684 16.5122 164.068 16.7568Z" fill="#D3766A"/>
<path d="M162.344 13.311C162.344 13.311 162.344 13.3444 162.344 13.35C162.804 13.4806 163.231 13.7065 163.598 14.013C163.965 14.3195 164.263 14.6998 164.473 15.1291C164.403 15.0469 164.315 14.9809 164.217 14.9357C164.119 14.8905 164.012 14.867 163.903 14.867C163.795 14.867 163.688 14.8905 163.59 14.9357C163.491 14.9809 163.404 15.0469 163.333 15.1291C163.333 15.1291 163.333 15.1792 163.372 15.1736C163.523 15.0922 163.696 15.0597 163.866 15.0807C164.037 15.1016 164.196 15.1749 164.323 15.2904C164.529 15.4892 164.715 15.707 164.879 15.9409C164.935 16.0132 165.074 15.9409 165.024 15.8519C164.829 14.6677 163.617 13.2221 162.344 13.311Z" fill="#263238"/>
<path d="M160.479 24.8027C156.031 29.2507 144.989 46.342 148.191 49.639C151.394 52.9361 170.82 48.9607 176.069 46.6756C177.626 45.9973 171.226 36.0116 169.397 36.2618C167.885 36.4731 160.095 39.2753 159.889 38.8249C159.684 38.3746 161.001 34.6716 163.081 28.0609C165.505 20.4493 162.441 22.8345 160.479 24.8027Z" fill="#D3766A"/>
<path d="M166.039 39.2651C168.102 37.1877 170.394 35.3522 172.872 33.7941C175.285 32.3874 180.873 29.9021 188.145 33.972C189.875 34.9395 191.648 37.5359 188.257 36.9855C185.849 36.5908 184.443 35.6178 182.997 35.6456C182.997 35.6456 184.865 39.2151 183.831 40.9053C182.928 42.3855 181.921 43.7995 180.817 45.1364C180.528 44.9883 180.248 44.8231 179.978 44.6416C179.978 44.6416 178.866 46.1316 176.086 46.6821L166.039 39.2651Z" fill="#D3766A"/>
<path d="M175.367 32.8152C176.802 33.0876 179.815 33.7215 182.139 35.1059C184.702 36.6404 189.217 40.2878 188.061 42.167C187.215 43.5459 185.37 42.3005 185.37 42.3005C185.37 42.3005 186.921 44.202 185.881 45.2806C184.941 46.2592 183.568 45.2139 183.568 45.2139C183.568 45.2139 184.308 46.5316 183.218 47.2989C181.906 48.2218 180.566 45.3195 178.431 45.1082C177.958 45.0582 175.367 32.8152 175.367 32.8152Z" fill="#D3766A"/>
<path d="M180.071 37.5415C182.276 38.5322 184.126 40.1711 185.376 42.2397C185.403 42.2953 185.376 42.3453 185.342 42.3008C183.777 40.5142 182.002 38.9236 180.055 37.5638C180.055 37.5638 180.055 37.5359 180.071 37.5415Z" fill="#263238"/>
<path d="M178.604 40.1645C180.692 41.3517 182.42 43.0805 183.608 45.1684C183.608 45.224 183.608 45.2741 183.574 45.2296C182.102 43.3634 180.423 41.6698 178.57 40.1811C178.57 40.1811 178.593 40.1589 178.604 40.1645Z" fill="#263238"/>
<path d="M182.964 35.6176C184.126 35.6566 185.273 35.9013 186.35 36.3403C186.936 36.5426 187.534 36.7098 188.14 36.8407C188.696 36.9575 189.508 37.1354 189.891 36.5794C189.973 36.4193 190.009 36.2399 189.996 36.0607C189.984 35.8814 189.922 35.709 189.819 35.5619C189.533 35.1408 189.184 34.7659 188.785 34.45C188.785 34.45 188.785 34.411 188.785 34.4222C189.169 34.7096 189.523 35.0356 189.841 35.3952C190.053 35.6434 190.184 35.9495 190.219 36.2736C190.219 36.9686 189.508 37.28 188.918 37.2633C188.564 37.2408 188.212 37.1849 187.868 37.0965C187.539 37.0187 187.211 36.9241 186.883 36.8241C186.216 36.6128 185.566 36.3681 184.899 36.1513C184.257 35.9538 183.603 35.7978 182.941 35.6843L182.964 35.6176Z" fill="#263238"/>
<path d="M186.661 38.9802C185.504 37.7894 184.27 36.675 182.969 35.6443C182.969 35.6443 182.969 35.6053 182.969 35.6109C184.388 36.4687 185.696 37.4997 186.861 38.68C187.491 39.3166 187.988 40.0727 188.323 40.904C188.473 41.236 188.489 41.6133 188.367 41.9566C188.244 42.2999 187.993 42.5823 187.667 42.7443C187.332 42.913 186.95 42.9639 186.583 42.8889C186.145 42.7709 185.734 42.5667 185.376 42.2884C185.376 42.2884 185.376 42.2439 185.376 42.255C185.669 42.4633 186.006 42.6016 186.36 42.6594C186.715 42.7173 187.078 42.6931 187.422 42.5886C187.709 42.4691 187.937 42.2413 188.056 41.9548C188.149 41.6075 188.113 41.2384 187.956 40.9151C187.633 40.2033 187.196 39.5496 186.661 38.9802Z" fill="#263238"/>
<path d="M167.131 36.6839L172.585 49.2605C172.585 49.2605 149.4 53.6417 147.565 49.5663C145.731 45.4908 155.188 30.1064 159.375 25.6974C164.223 20.5656 164.757 22.3892 163.567 27.0429C162.322 31.9134 159.997 38.9412 159.997 38.9412L167.131 36.6839Z" fill="#455A64"/>
<path d="M152.883 41.9998C153.978 41.2985 155.123 40.6779 156.308 40.1428C157.48 39.6167 158.69 39.1781 159.927 38.8307C160.628 38.6249 161.339 38.4526 162.051 38.2747C162.051 38.2747 162.079 38.3025 162.051 38.308C160.81 38.6626 159.59 39.0896 158.398 39.5868C157.214 40.065 156.035 40.5709 154.862 41.0936C154.201 41.3938 153.556 41.7218 152.905 42.0387L152.883 41.9998Z" fill="#263238"/>
<path d="M167.058 36.6455C166.941 36.6733 160.269 38.5914 160.058 38.6804C160.085 38.5859 161.814 33.354 161.837 33.3039C161.959 33.0926 162.587 31.9417 162.732 31.6359C162.571 31.9084 162.087 32.5644 162.02 32.6923C162.148 32.3476 162.693 30.5907 162.86 30.0347C162.86 30.0347 162.86 30.0347 162.832 30.0347C161.97 31.6359 159.446 39.2531 159.457 39.2475C159.468 39.242 166.957 36.7789 167.091 36.7289C167.102 36.7244 167.111 36.7158 167.115 36.7048C167.12 36.6939 167.12 36.6815 167.116 36.6705C167.111 36.6594 167.103 36.6506 167.092 36.6459C167.081 36.6412 167.069 36.641 167.058 36.6455Z" fill="#263238"/>
<path d="M167.216 44.7347C166.621 43.328 166.032 41.9214 165.376 40.5425C165.009 39.7585 164.642 38.969 164.264 38.1851C164.264 38.1851 164.197 38.1851 164.208 38.1851C164.764 39.6195 165.32 41.054 165.915 42.4607C166.51 43.8673 167.122 45.2684 167.75 46.6584C168.121 47.4554 168.501 48.2356 168.89 48.9992H168.918C168.423 47.5591 167.822 46.1469 167.216 44.7347Z" fill="#263238"/>
<path d="M172.898 49.4661C172.676 49.0769 172.409 48.5154 172.176 48.1373C172.114 48.0372 172.037 48.0539 172.087 48.1373C172.248 48.4876 172.381 48.8823 172.543 49.2493L171.564 49.405L170.452 49.6051C169.718 49.7275 168.979 49.8442 168.228 49.9554C166.745 50.1778 165.244 50.3632 163.724 50.5114C160.71 50.8524 157.679 51.038 154.645 51.0674C153.8 51.0674 152.977 51.0674 152.104 51.0118C151.267 50.9881 150.432 50.9195 149.602 50.8061C149.602 50.8061 149.574 50.8395 149.602 50.845C150.315 51.0207 151.04 51.1416 151.771 51.2064C152.538 51.2676 153.305 51.312 154.072 51.3287C155.601 51.3621 157.136 51.3287 158.659 51.2286C161.69 51.0563 164.714 50.7505 167.717 50.3279C168.562 50.2056 169.385 50.0777 170.241 49.9387L171.508 49.7219C171.978 49.677 172.443 49.5914 172.898 49.4661Z" fill="#263238"/>
<path d="M219.28 39.999C217.99 40.6679 216.815 41.5389 215.799 42.5788C214.415 44.1078 212.652 48.8727 212.652 48.8727C212.652 48.8727 228.526 50.4906 228.482 49.3064C228.437 48.1221 219.28 39.999 219.28 39.999Z" fill="#263238"/>
<path d="M110.643 43.579C110.643 43.579 108.485 29.9015 107.579 29.2844C106.673 28.6672 93.9739 28.5949 93.1233 29.1454C92.2726 29.6958 91.8556 35.6894 91.1328 35.8173C90.41 35.9452 86.0788 36.4511 84.6833 36.9682C83.2877 37.4853 83.2266 42.1056 83.2266 42.1056L110.643 43.579Z" fill="#3DA925"/>
<path opacity="0.5" d="M110.643 43.579C110.643 43.579 108.485 29.9015 107.579 29.2844C106.673 28.6672 93.9739 28.5949 93.1233 29.1454C92.2726 29.6958 91.8556 35.6894 91.1328 35.8173C90.41 35.9452 86.0788 36.4511 84.6833 36.9682C83.2877 37.4853 83.2266 42.1056 83.2266 42.1056L110.643 43.579Z" fill="white"/>
<path d="M312.625 108.698L243.977 109.154C243.977 109.154 247.646 66.6925 280.672 69.5447C313.698 72.397 312.625 108.698 312.625 108.698Z" fill="#3DA925"/>
<path opacity="0.5" d="M312.625 108.698L243.977 109.154C243.977 109.154 247.646 66.6925 280.672 69.5447C313.698 72.397 312.625 108.698 312.625 108.698Z" fill="black"/>
<path d="M107.153 108.652L38.6992 103.481C38.6992 103.481 45.8326 61.4592 78.514 67.0136C111.195 72.568 107.153 108.652 107.153 108.652Z" fill="#3DA925"/>
<path opacity="0.5" d="M107.153 108.652L38.6992 103.481C38.6992 103.481 45.8326 61.4592 78.514 67.0136C111.195 72.568 107.153 108.652 107.153 108.652Z" fill="black"/>
<path opacity="0.6" d="M259.15 45.2683L260.607 46.1022C260.607 46.1022 251.405 46.9529 249.376 46.725C247.346 46.497 211.334 24.1794 210.834 23.9625C210.334 23.7457 186.898 14.8887 186.898 14.8887C186.898 14.8887 219.007 25.1134 221.081 25.864C223.155 26.6146 259.15 45.2683 259.15 45.2683Z" fill="white"/>
<path d="M341.725 102.07C341.725 102.07 334.798 108.403 332.646 108.992C330.494 109.581 310.573 111.366 309.394 110.977C308.216 110.588 314.298 74.3812 280.255 72.3518C246.211 70.3224 249.953 112.495 249.119 112.478C248.285 112.461 103.665 111.366 103.014 110.771C102.364 110.176 107.385 71.9348 74.3251 71.5178C42.6722 71.1175 44.4737 106.129 43.2227 106.167C41.9717 106.206 17.6914 103.293 15.6509 102.737C13.6104 102.181 10.6469 96.2819 10.4301 95.7703C10.2133 95.2588 10.8582 93.9078 10.8582 93.9078C10.8582 93.9078 7.7224 83.8998 7.56116 79.9189C7.39992 75.938 14.9003 64.8792 14.9003 64.8792L20.1656 47.1597C20.1656 47.1597 17.7081 45.6918 17.3856 45.1859C17.0631 44.6799 16.7128 42.7729 16.7128 42.7729L67.453 38.6029C68.0326 38.1966 68.6509 37.8484 69.2989 37.5632C69.8549 37.4186 73.1185 37.3241 73.1185 37.3241C73.1185 37.3241 78.4339 41.3495 80.6078 41.8722C82.7817 42.3948 226.879 49.4393 227.68 49.1835C228.48 48.9277 207.858 28.5283 205.751 26.5934C203.644 24.6585 185.691 19.7046 185.474 19.1764C185.257 18.6483 185.207 14.4505 185.774 14.5116C186.341 14.5728 208.998 22.8961 211.595 24.3416C214.191 25.7872 248.846 46.2423 249.869 46.6482C250.892 47.054 260.489 46.17 260.583 46.0922C260.678 46.0143 259.127 45.4695 259.127 45.2693C259.127 45.0691 261.679 45.6585 262.229 45.6585C262.78 45.6585 304.14 51.8189 310.94 54.2375C317.74 56.6561 327.892 62.8888 332.451 67.27C337.011 71.6513 341.208 78.3232 341.97 78.7736C342.732 79.2239 344.566 79.3296 344.889 82.2374C345.211 85.1453 344.8 88.131 344.155 88.7537C343.51 89.3764 341.436 90.0269 341.225 90.266C341.014 90.5051 340.736 97.4939 340.841 97.7497C340.947 98.0054 341.787 98.2056 341.875 98.8227C341.964 99.4399 342.148 101.375 341.725 102.07Z" fill="#3DA925"/>
<path opacity="0.3" d="M254.588 86.0576C253.794 87.5806 253.108 89.158 252.536 90.7779C227.517 89.994 114.044 86.38 114.266 85.2792C114.488 84.1783 234.611 85.7518 254.588 86.0576Z" fill="white"/>
<path d="M306.565 105.541C308.638 90.6409 298.24 76.8819 283.34 74.8091C268.44 72.7363 254.681 83.1346 252.609 98.0343C250.536 112.934 260.934 126.693 275.834 128.766C290.734 130.839 304.493 120.44 306.565 105.541Z" fill="#263238"/>
<path d="M287.589 120.024C297.655 115.628 302.252 103.905 297.856 93.8391C293.461 83.7732 281.737 79.1765 271.671 83.5721C261.605 87.9677 257.009 99.6911 261.404 109.757C265.8 119.823 277.523 124.42 287.589 120.024Z" fill="#DBDBDB"/>
<path d="M292.597 114.768C299.758 107.607 299.758 95.9964 292.597 88.8355C285.436 81.6746 273.826 81.6746 266.665 88.8355C259.504 95.9964 259.504 107.607 266.665 114.768C273.826 121.928 285.436 121.928 292.597 114.768Z" fill="#A6A6A6"/>
<path d="M276.11 97.6673L281.809 96.8389C279.479 94.3424 284.772 83.6673 284.772 83.6673L281.631 83.1113C280.135 86.8254 279.284 87.9763 277.644 88.2154C276.004 88.4544 274.864 87.5926 272.357 84.4624L269.516 85.9024C269.516 85.9024 277.628 94.6093 276.11 97.6673Z" fill="#DBDBDB"/>
<path d="M282.328 97.1159L284.88 102.281C286.548 99.2954 298.319 101.03 298.319 101.03L297.885 97.861C293.893 97.5885 292.536 97.1326 291.802 95.637C291.068 94.1413 291.535 92.7958 293.737 89.4543L291.513 87.1914C291.513 87.1914 285.709 97.6163 282.328 97.1159Z" fill="#DBDBDB"/>
<path d="M284.778 102.865L280.652 106.891C283.988 107.541 285.995 119.284 285.995 119.284L288.875 117.894C287.903 114.002 287.914 112.584 289.103 111.428C290.293 110.271 291.717 110.288 295.581 111.356L297.038 108.52C297.038 108.52 285.345 106.235 284.778 102.865Z" fill="#DBDBDB"/>
<path d="M280.07 106.973L274.972 104.293C275.389 107.685 264.836 113.189 264.836 113.189L267.06 115.497C270.451 113.373 271.814 112.945 273.282 113.712C274.749 114.479 275.172 115.853 275.355 119.856L278.502 120.362C278.502 120.362 277.046 108.558 280.07 106.973Z" fill="#DBDBDB"/>
<path d="M274.71 103.76L275.677 98.0831C272.586 99.5232 264.068 91.1943 264.068 91.1943L262.561 94.0077C265.63 96.5819 266.453 97.744 266.175 99.3786C265.897 101.013 264.73 101.836 260.977 103.271L261.466 106.423C261.466 106.423 272.263 101.369 274.71 103.76Z" fill="#DBDBDB"/>
<path d="M274.329 102.442C274.481 103.484 274.938 104.457 275.643 105.238C276.347 106.02 277.268 106.575 278.288 106.833C279.308 107.091 280.382 107.041 281.374 106.689C282.366 106.337 283.231 105.699 283.86 104.855C284.489 104.012 284.854 103.001 284.908 101.95C284.962 100.899 284.704 99.8551 284.165 98.9511C283.626 98.0471 282.832 97.3231 281.882 96.8707C280.931 96.4183 279.868 96.2579 278.827 96.4096C278.136 96.5104 277.471 96.7463 276.871 97.104C276.27 97.4617 275.746 97.9342 275.329 98.4943C274.911 99.0545 274.608 99.6915 274.436 100.369C274.265 101.046 274.228 101.751 274.329 102.442Z" fill="#DBDBDB"/>
<path d="M87.8193 124.943C100.57 116.96 104.435 100.152 96.4518 87.4019C88.469 74.6515 71.6613 70.7866 58.9109 78.7694C46.1605 86.7523 42.2956 103.56 50.2784 116.31C58.2613 129.061 75.0689 132.926 87.8193 124.943Z" fill="#263238"/>
<path d="M88.452 114.818C95.6029 106.481 94.6412 93.9256 86.304 86.7747C77.9668 79.6238 65.4112 80.5855 58.2603 88.9227C51.1094 97.2599 52.0711 109.815 60.4083 116.966C68.7455 124.117 81.3011 123.156 88.452 114.818Z" fill="#DBDBDB"/>
<path d="M90.9825 107.024C93.8299 97.305 88.2598 87.1183 78.5412 84.2708C68.8227 81.4234 58.636 86.9936 55.7885 96.7121C52.9411 106.431 58.5113 116.617 68.2298 119.465C77.9483 122.312 88.1351 116.742 90.9825 107.024Z" fill="#A6A6A6"/>
<path d="M69.8497 97.7322L75.5486 96.9038C73.219 94.4018 78.5121 83.7323 78.5121 83.7323L75.3651 83.1763C73.8695 86.8903 73.0188 88.0412 71.3786 88.2803C69.7385 88.5194 68.5987 87.6576 66.0967 84.5273L63.25 85.9674C63.25 85.9674 71.3675 94.6742 69.8497 97.7322Z" fill="#DBDBDB"/>
<path d="M76.0781 97.1772L78.6246 102.337C80.2926 99.3511 92.0686 101.086 92.0686 101.086L91.6349 97.9222C87.6428 97.6498 86.2862 97.1939 85.5523 95.6983C84.8184 94.2026 85.2798 92.8571 87.4871 89.51L85.2632 87.2527C85.2632 87.2527 79.453 97.6776 76.0781 97.1772Z" fill="#DBDBDB"/>
<path d="M78.5457 102.93L74.4258 106.95C77.7618 107.606 79.7689 119.349 79.7689 119.349L82.6434 117.959C81.6704 114.067 81.6871 112.649 82.8713 111.487C84.0556 110.325 85.4901 110.375 89.3487 111.42L90.8054 108.579C90.8054 108.579 79.1184 106.3 78.5457 102.93Z" fill="#DBDBDB"/>
<path d="M73.8101 107.04L68.7117 104.36C69.1231 107.752 58.5703 113.256 58.5703 113.256L60.7943 115.564C64.1859 113.44 65.5481 113.012 67.0159 113.779C68.4837 114.546 68.9063 115.919 69.0842 119.895L72.2311 120.406C72.2311 120.406 70.78 108.619 73.8101 107.04Z" fill="#DBDBDB"/>
<path d="M68.4385 103.849L69.4115 98.172C66.3146 99.612 57.8023 91.2832 57.8023 91.2832L56.29 94.0965C59.3591 96.6708 60.1819 97.8328 59.9095 99.4675C59.6371 101.102 58.4583 101.925 54.7109 103.332L55.2002 106.484C55.2002 106.484 66.0199 101.436 68.4385 103.849Z" fill="#DBDBDB"/>
<path d="M68.0853 102.509C68.2369 103.55 68.6937 104.523 69.3981 105.305C70.1025 106.086 71.0228 106.641 72.0427 106.9C73.0626 107.159 74.1363 107.109 75.128 106.758C76.1197 106.406 76.985 105.769 77.6144 104.926C78.2439 104.082 78.6092 103.072 78.6643 102.021C78.7193 100.97 78.4616 99.9267 77.9237 99.0224C77.3859 98.1182 76.592 97.3936 75.6424 96.9404C74.6928 96.4873 73.6302 96.3258 72.5889 96.4765C71.1927 96.6814 69.9347 97.4314 69.0906 98.5622C68.2464 99.6929 67.8849 101.112 68.0853 102.509Z" fill="#DBDBDB"/>
<path d="M19.9644 47.9556C18.0407 48.5116 14.3044 53.7157 14.1209 54.7332C13.9374 55.7506 13.6817 62.4448 14.4656 63.3233C15.2496 64.2017 17.9406 66.2701 19.9644 66.0588C21.9882 65.8475 34.7817 59.7872 35.5323 58.8308C36.2829 57.8745 36.2328 52.8984 34.9763 51.475C33.7197 50.0517 22.4163 47.2717 19.9644 47.9556Z" fill="white"/>
<path d="M35.5363 58.8579C34.769 59.792 21.9756 65.8468 19.9684 66.0581C18.4283 66.2193 16.4935 65.0461 15.3203 64.0954C16.9271 64.8182 18.3672 65.0295 19.4347 64.7626C20.5022 64.4957 32.7786 59.2527 33.796 58.0017C34.8135 56.7507 34.2742 52.6586 34.0129 51.9469C33.7516 51.2352 23.5435 48.0549 23.5435 48.0549C28.1471 48.4719 34.1074 50.518 34.9747 51.4799C36.2313 52.9199 36.3036 57.9183 35.5363 58.8579Z" fill="#EBEBEB"/>
<path d="M306.422 61.4102C307.801 64.6183 320.383 71.7907 325.248 73.3419C328.311 74.3204 339.098 76.6056 339.809 76.1219C340.521 75.6381 336.351 67.6096 333.899 65.4412C331.447 63.2728 318.531 56.7287 314.395 56.3117C310.258 55.8948 305.026 58.1688 306.422 61.4102Z" fill="white"/>
<path d="M339.817 76.1331C339.1 76.6113 328.319 74.3206 325.25 73.3531C320.385 71.7963 307.803 64.6296 306.419 61.4159C305.034 58.2023 310.261 55.9227 314.397 56.3341C314.719 56.3662 315.039 56.42 315.353 56.4954C311.322 57.3405 310.099 60.215 312.179 62.2666C314.258 64.3182 321.13 69.4056 323.994 70.6788C326.774 71.9075 337.221 75.1546 338.249 74.5708C338.458 74.3868 338.623 74.1586 338.733 73.9028C338.843 73.647 338.894 73.3699 338.883 73.0918C339.65 74.6875 340.084 75.9552 339.817 76.1331Z" fill="#EBEBEB"/>
<g opacity="0.1">
<path d="M309.207 106.117C309.274 109.009 309.168 110.888 309.435 110.977C310.614 111.366 330.529 109.592 332.687 108.992C334.844 108.392 341.766 102.064 341.766 102.064C341.766 102.064 341.799 102.009 341.811 101.975C334.564 104.404 327.012 105.802 319.376 106.129C317.986 106.179 314.467 106.173 309.207 106.117Z" fill="black"/>
<path d="M102.727 101.684C103.144 106.822 102.804 110.58 103.005 110.769C103.65 111.381 248.258 112.437 249.103 112.476C249.331 112.476 249.226 109.452 249.609 105.054C205.441 104.131 148.418 102.807 102.727 101.684Z" fill="black"/>
<path d="M10.4703 95.7862C10.6872 96.2977 13.6451 102.213 15.6911 102.753C17.7372 103.292 41.973 106.211 43.224 106.172C43.5521 106.172 43.6744 103.754 44.2415 100.206C36.2197 99.9804 28.219 99.2674 20.2837 98.0713C16.9103 97.3274 13.7195 95.9172 10.8985 93.9236C10.8985 93.9236 10.2535 95.2802 10.4703 95.7862Z" fill="black"/>
</g>
<g opacity="0.2">
<path d="M237.859 104.805C237.859 96.3368 238.142 84.0215 238.304 75.4258C238.365 72.9795 238.426 70.5331 238.459 68.0867C238.511 67.6665 238.473 67.2402 238.348 66.8357C236.424 63.2273 229.88 52.8357 227.695 49.1829C231.104 54.2647 234.473 59.3798 237.659 64.6117C238.081 65.4235 238.771 66.2464 238.954 67.1415C238.887 79.707 238.398 92.2558 237.842 104.805H237.859Z" fill="black"/>
<path d="M134.251 44.8018L132.488 51.8407C131.871 54.7541 130.82 57.6897 130.748 60.6643C131.059 71.0169 131.359 84.7389 131.471 95.136L131.504 102.392L131.198 95.1638C130.848 85.5062 130.492 72.1512 130.32 62.5158C130.32 61.4483 130.192 59.9026 130.459 58.8573C131.493 54.1091 132.866 49.4721 134.251 44.8351V44.8018Z" fill="black"/>
<path d="M50.4498 82.927C45.4958 80.3917 40.6086 77.7285 35.8215 74.8818C34.9795 74.3257 34.2387 73.63 33.6309 72.8246C32.7747 71.8349 31.9184 70.8397 31.1011 69.8166C29.4331 67.7817 27.8319 65.7301 26.2695 63.6284L28.8605 66.5752C30.8176 68.7602 33.4196 72.0073 35.5046 74.0422C40.4474 77.0557 45.5125 79.8579 50.4498 82.9381V82.927Z" fill="black"/>
<path d="M306.028 59.369C292.924 57.7011 279.624 55.9163 266.586 53.7312C260.915 51.5962 255.433 49.0887 249.906 46.6646C252.508 47.6653 264.362 52.4747 266.725 53.2642C279.096 55.2269 293.719 57.2618 306.045 59.3802L306.028 59.369Z" fill="black"/>
<path d="M155.165 61.8539C154.815 63.0604 154.347 64.5561 153.113 65.1287C151.452 65.3132 149.778 65.356 148.109 65.2566C146.447 65.2258 144.79 65.0584 143.155 64.7562C142.961 64.7137 142.773 64.6425 142.599 64.5449C141.743 63.761 141.421 62.6323 141.07 61.5759C141.543 62.5044 141.999 63.5942 142.799 64.2558C143.12 64.36 143.453 64.4254 143.789 64.4504C146.675 64.6895 149.627 64.7785 152.524 64.7951C152.851 64.8336 153.181 64.7417 153.441 64.5394C154.216 63.7863 154.811 62.8685 155.181 61.8539H155.165Z" fill="black"/>
<path d="M155.277 59.9644C154.993 58.9747 154.66 57.7404 153.831 57.1344C153.493 57.0397 153.147 56.9782 152.797 56.9509C150.579 56.7542 148.35 56.7003 146.125 56.7897C144.618 56.7897 143.256 57.0732 142.2 58.213C141.654 58.7062 141.192 59.2845 140.832 59.9255C141.11 59.2222 141.517 58.5772 142.033 58.024C142.535 57.434 143.159 56.9598 143.862 56.634C144.598 56.4164 145.358 56.2913 146.125 56.2615C148.373 56.1167 150.629 56.2062 152.858 56.5284C153.25 56.5853 153.634 56.686 154.004 56.8286C154.938 57.5959 155.116 58.858 155.277 59.9644Z" fill="black"/>
<path d="M154.822 59.8472C157.119 60.3476 156.974 61.6931 154.678 61.9711C151.803 62.2547 148.912 62.2158 146.032 62.2269C144.253 62.099 142.285 62.4493 140.578 61.6709C139.716 61.2483 139.466 60.292 140.461 59.8139C142.279 59.1078 144.309 59.4803 146.193 59.4024C149.076 59.4076 151.956 59.5579 154.822 59.8528V59.8472ZM154.822 59.8472C150.558 59.3802 146.177 59.6304 141.907 59.9306C141.201 59.9918 139.527 60.4866 140.834 61.1872C141.768 61.6653 142.835 61.5708 143.886 61.6542C147.456 61.7821 151.114 62.0823 154.667 61.8933C156.941 61.6876 157.102 60.3699 154.822 59.8472Z" fill="black"/>
</g>
<path d="M341.232 90.2662C341.232 90.2662 328.266 91.4171 328.105 91.3782C327.944 91.3393 327.549 89.5545 326.465 89.5045C325.381 89.4544 321.617 92.6681 321.016 95.7594C320.416 98.8508 321.122 101.169 323.084 100.936C325.047 100.702 327.727 96.7324 327.727 96.7324C327.727 96.7324 337.679 96.1764 337.918 96.3599C338.318 96.719 338.743 97.0479 339.192 97.344C339.733 97.5321 340.292 97.668 340.86 97.7499L341.232 90.2662Z" fill="#263238"/>
<path d="M218.114 54.971C217.235 53.6533 219.32 43.8511 220.282 43.2006C221.244 42.5501 232.319 44.0457 231.958 50.3284C231.596 56.6112 219.481 57.0337 218.114 54.971Z" fill="#3DA925"/>
<path opacity="0.1" d="M218.114 54.971C217.235 53.6533 219.32 43.8511 220.282 43.2006C221.244 42.5501 232.319 44.0457 231.958 50.3284C231.596 56.6112 219.481 57.0337 218.114 54.971Z" fill="black"/>
<g opacity="0.4">
<path d="M107.023 87.4855C104.126 78.2059 97.2151 70.2107 88.2136 66.4521C77.7331 62.2433 64.9785 62.3545 55.2931 68.5483C49.325 72.4588 44.6746 78.078 41.9492 84.6721C43.1237 81.2855 44.8277 78.1066 46.9977 75.2536C56.4107 62.5769 73.0071 59.6857 87.3184 65.051C97.0483 68.6761 104.554 77.522 106.995 87.4966L107.023 87.4855Z" fill="white"/>
<path d="M312.992 88.0979C310.095 78.8128 303.184 70.8176 294.182 67.059C283.702 62.8502 270.947 62.9669 261.262 69.1607C255.293 73.0699 250.642 78.6895 247.918 85.2846C249.102 81.8904 250.817 78.7056 253 75.8493C262.413 63.1782 279.009 60.2815 293.321 65.6468C303.05 69.2719 310.556 78.1234 312.997 88.0979H312.992Z" fill="white"/>
<path d="M217.721 61.5932C174.186 59.9252 130.213 57.5066 86.7617 54.3652C130.296 56.0332 174.27 58.4574 217.721 61.5932Z" fill="white"/>
</g>
</svg>
