<svg width="194" height="237" viewBox="0 0 194 237" fill="none" xmlns="http://www.w3.org/2000/svg">
<path d="M193.796 197.965L45.5049 186.802L78.5339 37.3945L183.552 45.3179L193.796 197.965Z" fill="#FF8200"/>
<path d="M183.552 45.3174L155.688 195.097L193.796 197.964L183.552 45.3174Z" fill="#FF8200"/>
<path d="M105.081 50.461L99.8496 49.1259C99.8496 48.9946 103.505 34.6798 107.335 20.2337C111.472 4.62754 127.231 -2.02642 140.167 0.53448C149.776 2.48251 160.239 10.4498 157.984 26.5374C155.598 43.7633 153.979 51.84 153.913 52.1902L148.616 51.1177C148.616 51.1177 150.28 42.8221 152.643 25.7933C154.373 13.4265 146.777 7.36357 139.095 5.83141C128.698 3.64261 115.937 9.04894 112.61 21.5908C108.714 36.0368 105.125 50.3078 105.081 50.461Z" fill="#263238"/>
<path d="M157.791 194.09C160.986 192.164 164.357 190.413 167.596 188.662C170.836 186.91 174.272 185.269 177.643 183.671L178.103 183.452L178.497 183.78C180.86 185.86 183.224 187.917 185.501 190.084C187.777 192.251 190.097 194.462 192.286 196.651C189.703 194.834 187.208 192.908 184.757 190.938C182.305 188.968 179.876 186.976 177.468 184.941H178.321C174.98 186.589 171.595 188.173 168.165 189.69C164.729 191.31 161.314 192.798 157.791 194.09Z" fill="white"/>
<path d="M177.991 184.372C177.991 174.698 178.298 165.023 178.582 155.349C178.867 145.674 179.261 136.022 179.589 126.347C179.917 116.673 180.443 107.02 180.968 97.3675L181.778 82.8557C182.106 78.0403 182.391 73.2031 182.763 68.3877C182.763 73.2249 182.631 78.0622 182.544 82.8995L182.172 97.4112C181.909 107.086 181.493 116.738 181.165 126.413C180.837 136.087 180.311 145.74 179.786 155.414C179.261 165.089 178.714 174.72 177.991 184.372Z" fill="white"/>
<path d="M109.641 50.0673C109.588 51.4814 109.117 52.8483 108.288 53.9949C107.458 55.1415 106.307 56.0165 104.981 56.5093C103.654 57.0022 102.211 57.0906 100.834 56.7636C99.4576 56.4365 98.2085 55.7087 97.2452 54.672C96.2819 53.6353 95.6475 52.3362 95.4223 50.9391C95.1971 49.5419 95.3911 48.1094 95.9798 46.8225C96.5685 45.5355 97.5255 44.4521 98.7299 43.7089C99.9342 42.9657 101.332 42.5963 102.746 42.6472C104.643 42.7213 106.433 43.5436 107.725 44.9341C109.017 46.3246 109.706 48.1702 109.641 50.0673Z" fill="#263238"/>
<path d="M157.815 51.927C157.758 53.3401 157.284 54.7045 156.452 55.8482C155.62 56.9918 154.468 57.8634 153.141 58.3529C151.814 58.8424 150.372 58.9278 148.997 58.5984C147.621 58.269 146.374 57.5396 145.413 56.5022C144.452 55.4648 143.82 54.1659 143.596 52.7695C143.373 51.373 143.568 49.9416 144.157 48.656C144.746 47.3703 145.703 46.288 146.907 45.5457C148.111 44.8034 149.507 44.4343 150.921 44.4851C151.863 44.5189 152.789 44.7385 153.646 45.1312C154.503 45.5239 155.273 46.082 155.914 46.7735C156.555 47.465 157.052 48.2762 157.379 49.1606C157.705 50.045 157.853 50.9851 157.815 51.927Z" fill="#263238"/>
<path d="M166.327 236.181L0 193.346L67.8966 30.1709L185.72 60.5076L166.327 236.181Z" fill="#3DA925"/>
<path d="M185.717 60.5078L123.599 225.171L166.324 236.181L185.717 60.5078Z" fill="#3DA925"/>
<path opacity="0.1" d="M185.717 60.5078L123.599 225.171L166.324 236.181L185.717 60.5078Z" fill="black"/>
<path d="M98.0567 50.3738L93.1538 47.9442C93.1538 47.8129 99.8953 34.3517 106.812 20.8031C114.298 6.18188 131.414 2.96433 143.649 8.305C152.799 12.3105 161.466 22.4884 155.775 38.007C149.669 54.62 146.32 62.3246 146.167 62.631L141.154 60.4422C141.154 60.4422 144.591 52.5407 150.632 36.1247C155.009 24.1957 148.749 16.5349 141.439 13.3393C131.545 8.96165 117.712 11.5663 111.693 23.3202C104.798 36.8251 98.1224 50.2425 98.0567 50.3738Z" fill="#263238"/>
<g opacity="0.1">
<path d="M126.186 224.559C130.235 223.005 134.35 221.692 138.443 220.378C142.536 219.065 146.717 217.883 150.876 216.767L151.467 216.592L151.817 217.051C154.006 219.897 156.37 222.72 158.515 225.653C160.66 228.586 162.892 231.476 164.884 234.518C162.323 231.913 159.894 229.221 157.486 226.485C155.078 223.749 152.736 220.991 150.438 218.19L151.357 218.496C147.22 219.678 143.04 220.685 138.859 221.801C134.679 222.917 130.454 223.684 126.186 224.559Z" fill="black"/>
<path d="M151.12 217.51C153.177 206.566 155.497 195.622 157.686 184.678C159.875 173.734 162.37 162.79 164.712 151.846C167.054 140.902 169.615 129.958 172.176 119.167L176.05 102.861C177.407 97.4326 178.699 91.9168 180.121 86.5762C179.114 92.0919 177.932 97.5202 176.926 103.036L173.62 119.496C171.432 130.44 168.915 141.384 166.573 152.328C164.231 163.272 161.67 174.216 159.109 185.028C156.548 195.841 153.921 206.676 151.12 217.51Z" fill="black"/>
</g>
<path d="M102.654 50.9867C102.292 52.3818 101.525 53.6384 100.449 54.5975C99.3732 55.5566 98.0371 56.1753 96.6097 56.3752C95.1823 56.5751 93.7277 56.3473 92.4297 55.7206C91.1318 55.094 90.0487 54.0965 89.3176 52.8544C88.5864 51.6123 88.2399 50.1813 88.3219 48.7423C88.4038 47.3034 88.9106 45.921 89.7781 44.77C90.6456 43.6189 91.8349 42.751 93.1956 42.2757C94.5563 41.8005 96.0274 41.7394 97.4228 42.1001C98.3515 42.3372 99.2241 42.7556 99.9904 43.3313C100.757 43.9071 101.402 44.6287 101.888 45.4547C102.374 46.2807 102.692 47.1947 102.824 48.1441C102.955 49.0935 102.897 50.0596 102.654 50.9867Z" fill="#263238"/>
<path d="M150.173 63.222C149.811 64.6172 149.043 65.8737 147.968 66.8328C146.892 67.792 145.556 68.4106 144.128 68.6105C142.701 68.8104 141.246 68.5826 139.948 67.9559C138.65 67.3293 137.567 66.3318 136.836 65.0898C136.105 63.8477 135.758 62.4167 135.84 60.9777C135.922 59.5387 136.429 58.1564 137.297 57.0053C138.164 55.8543 139.353 54.9863 140.714 54.5111C142.075 54.0359 143.546 53.9748 144.941 54.3355C145.87 54.5725 146.743 54.9909 147.509 55.5667C148.275 56.1424 148.92 56.864 149.406 57.69C149.893 58.516 150.211 59.43 150.342 60.3794C150.474 61.3289 150.416 62.2949 150.173 63.222Z" fill="#263238"/>
</svg>
