<svg width="26" height="24" viewBox="0 0 26 24" fill="none" xmlns="http://www.w3.org/2000/svg">
<path opacity="0.4" d="M7.08402 22H18.0661C20.9583 22 22.111 20.31 22.2472 18.25L22.7921 9.99C22.9388 7.83 21.1364 6 18.8625 6C18.2232 6 17.6364 5.65 17.343 5.11L16.5885 3.66C16.1065 2.75 14.849 2 13.7801 2H11.3804C10.3011 2 9.0436 2.75 8.56156 3.66L7.80707 5.11C7.51366 5.65 6.92683 6 6.28761 6C4.01366 6 2.21127 7.83 2.35797 9.99L2.90288 18.25C3.02863 20.31 4.1918 22 7.08402 22Z" fill="#292D32"/>
<path d="M14.1464 8.75H11.0027C10.5731 8.75 10.2168 8.41 10.2168 8C10.2168 7.59 10.5731 7.25 11.0027 7.25H14.1464C14.5761 7.25 14.9324 7.59 14.9324 8C14.9324 8.41 14.5761 8.75 14.1464 8.75Z" fill="#292D32"/>
<path d="M12.5751 18.13C14.5313 18.13 16.117 16.6167 16.117 14.75C16.117 12.8833 14.5313 11.37 12.5751 11.37C10.619 11.37 9.0332 12.8833 9.0332 14.75C9.0332 16.6167 10.619 18.13 12.5751 18.13Z" fill="#292D32"/>
</svg>
