<svg width="148" height="243" viewBox="0 0 148 243" fill="none" xmlns="http://www.w3.org/2000/svg">
<path d="M118.011 0H10.85C9.4122 0.0124334 7.99095 0.308059 6.66746 0.869982C5.34397 1.4319 4.14418 2.24911 3.13664 3.27491C2.1291 4.3007 1.33356 5.51497 0.795491 6.84834C0.257421 8.18171 -0.0126397 9.60803 0.000742817 11.0458V231.708C-0.0160079 233.147 0.25069 234.574 0.785593 235.909C1.3205 237.244 2.11313 238.46 3.11824 239.489C4.12335 240.518 5.32124 241.338 6.64352 241.904C7.96579 242.47 9.38654 242.769 10.8246 242.786H117.986C120.89 242.761 123.666 241.583 125.703 239.512C127.74 237.44 128.871 234.645 128.847 231.74V11.0775C128.864 9.63837 128.597 8.21003 128.061 6.8742C127.526 5.53836 126.732 4.32123 125.725 3.2924C124.719 2.26357 123.52 1.44323 122.196 0.878295C120.872 0.313357 119.45 0.0149034 118.011 0ZM122.088 224.892C122.088 230.7 117.738 235.399 112.374 235.399H16.4807C11.0973 235.399 6.75379 230.7 6.75379 224.892V19.4094C6.75379 7.57735 11.0973 7.00033 16.4807 7.00033H35.6872C36.8032 7.00033 37.7163 8.26851 37.7163 9.84104V10.5195C37.7163 14.2036 39.7327 14.2163 42.212 14.2163H86.5982C89.1345 14.2163 91.0938 14.2163 91.0938 10.5195V9.84104C91.0938 8.26851 91.9942 7.00033 93.1356 7.00033H112.342C117.707 7.00033 122.056 8.57287 122.056 19.4094L122.088 224.892Z" fill="#263238"/>
<path d="M70.4789 9.61265H58.3615C58.1631 9.61265 57.9728 9.53383 57.8324 9.39351C57.6921 9.25319 57.6133 9.06287 57.6133 8.86443C57.6133 8.66599 57.6921 8.47568 57.8324 8.33536C57.9728 8.19504 58.1631 8.11621 58.3615 8.11621H70.4789C70.6774 8.11621 70.8677 8.19504 71.008 8.33536C71.1483 8.47568 71.2272 8.66599 71.2272 8.86443C71.2272 9.06287 71.1483 9.25319 71.008 9.39351C70.8677 9.53383 70.6774 9.61265 70.4789 9.61265Z" fill="white"/>
<path d="M122.087 19.4096V224.892C122.087 230.7 117.737 235.399 112.373 235.399H16.4798C11.0964 235.399 6.75293 230.7 6.75293 224.892V19.4096C6.75293 7.57751 11.0964 7.00049 16.4798 7.00049H35.6864C36.8024 7.00049 37.7155 8.26866 37.7155 9.8412V10.5197C37.7155 14.2037 39.7318 14.2164 42.2111 14.2164H86.5973C89.1336 14.2164 91.093 14.2164 91.093 10.5197V9.8412C91.093 8.26866 91.9934 7.00049 93.1347 7.00049H112.341C117.737 7.00049 122.087 8.57303 122.087 19.4096Z" fill="white"/>
<path d="M118.854 8.80748H91.2715C91.5695 7.76123 92.2987 7.01935 93.1737 7.01935H112.393C114.866 6.99399 117.136 7.33639 118.854 8.80748Z" fill="#DBDBDB"/>
<path d="M6.75293 214.766V217.499H16.3023V214.766H6.75293ZM122.087 45.5846L91.0549 78.4684H76.7753V51.2914H82.4504V48.5395H74.0233V78.4621H58.5452V14.2163H53.054V33.4672H6.76561V38.9584H53.054V78.4684H8.19865V89.2479H6.75293V91.9999H8.19865V132.829L16.4418 151.712H6.75293V157.203H18.8577L25.319 171.971C21.3186 173.705 18.0128 176.726 15.9275 180.555C13.8422 184.384 13.0971 188.8 13.8108 193.101C14.5245 197.402 16.6559 201.341 19.8661 204.291C23.0763 207.242 27.1808 209.034 31.5267 209.382L44.9631 231.372L40.9113 235.424H53.8847L37.6901 208.97C40.3906 208.321 42.9219 207.104 45.1153 205.4C47.3088 203.696 49.1141 201.544 50.4111 199.088C51.7082 196.632 52.4671 193.928 52.6375 191.156C52.8078 188.384 52.3856 185.607 51.3991 183.011L89.7233 164.781H122.062V159.296H106.736L74.5686 124.319H122.075V121.574H72.0323L37.4364 83.9596H93.3884L112.297 63.9098L122.062 73.6747V65.9135L116.076 59.9214L122.062 53.5805L122.087 45.5846ZM33.112 204.005C30.3276 204.006 27.6054 203.182 25.2896 201.636C22.9739 200.09 21.1686 197.892 20.1022 195.32C19.0358 192.748 18.7561 189.917 19.2986 187.186C19.841 184.455 21.1812 181.946 23.1496 179.977C25.118 178.008 27.6263 176.666 30.3571 176.123C33.0879 175.579 35.9185 175.857 38.4911 176.923C41.0637 177.988 43.2625 179.792 44.8096 182.107C46.3566 184.422 47.1824 187.144 47.1824 189.928C47.179 193.66 45.6957 197.237 43.0579 199.876C40.4201 202.515 36.8432 204 33.112 204.005ZM99.2981 159.27H88.5186L48.7422 178.172C46.9181 175.752 44.5569 173.787 41.8447 172.434C39.1324 171.081 36.1431 170.375 33.112 170.373C32.2959 170.376 31.4808 170.427 30.6707 170.525L13.6962 131.687V83.9596H29.9923L99.2981 159.27ZM103.382 235.399H107.269L122.106 220.555V216.668L103.382 235.399Z" fill="#EBEBEB"/>
<path d="M26.3787 88.1191H18.3955V96.1023H26.3787V88.1191Z" fill="#DBDBDB"/>
<path d="M101.322 118.72V103.312H95.7165V96.8696H85.8438V118.72H101.322Z" fill="#DBDBDB"/>
<path d="M73.9486 14.2163V29.7134H65.5914V20.2782H61.0703V14.2163H73.9486Z" fill="#DBDBDB"/>
<path d="M122.088 19.403V24.7483H115.113V11.2993H120.731C121.594 13.1382 122.088 15.7443 122.088 19.403Z" fill="#DBDBDB"/>
<path d="M78.9375 76.1413V64.6833H100.408L88.8102 76.2808L78.9375 76.1413Z" fill="#DBDBDB"/>
<path d="M71.862 65.4949H61.0762V76.2807H71.862V65.4949Z" fill="#DBDBDB"/>
<path d="M50.4739 41.1079H37.4814V53.0605H50.4739V41.1079Z" fill="#DBDBDB"/>
<path d="M50.4805 55.4065V76.2807H34.5839L24.4512 66.1479V55.4065H50.4805Z" fill="#DBDBDB"/>
<path d="M21.5849 68.4497L29.5681 76.4329H8.2627V68.4497H21.5849Z" fill="#DBDBDB"/>
<path d="M20.4429 169.314H6.75293V159.701H16.5686L20.4429 169.314Z" fill="#DBDBDB"/>
<path d="M16.7144 206.364V210.98H6.75293V190.448H9.47316C10.2325 196.361 12.756 201.907 16.7144 206.364Z" fill="#DBDBDB"/>
<path d="M64.4241 166.48L56.0731 148.44H45.9277L28.5537 156.499L33.0938 166.41H33.1318C39.3005 166.404 45.2233 168.828 49.6181 173.157L64.4241 166.48Z" fill="#DBDBDB"/>
<path d="M122.088 144.014V155.992H109.025L98.0049 144.014H122.088Z" fill="#DBDBDB"/>
<path d="M40.0429 230.339L35.2619 235.411H16.4739C15.7759 235.409 15.0803 235.328 14.4004 235.171V229.464H22.5294V216.883L28.6483 211.735L40.0429 230.339Z" fill="#DBDBDB"/>
<path d="M78.7292 209.179L62.2429 191.996L55.9021 196.935C54.9751 199.935 53.4658 202.722 51.4605 205.137C49.4553 207.553 46.9934 209.549 44.2158 211.012L57.9946 233.535L78.7292 209.179Z" fill="#DBDBDB"/>
<path d="M60.7783 184.443L89.7244 170.132H104.163V195.305L81.6525 206.421L60.7783 184.443Z" fill="#DBDBDB"/>
<path d="M122.075 225.355C121.879 230.428 118.347 234.562 113.8 235.285H112.146L122.075 225.355Z" fill="#DBDBDB"/>
<path d="M18.3955 99.4314V131.066L27.222 152.663L43.3278 144.68H80.8976L38.7687 99.4314H18.3955Z" fill="#3DA925"/>
<path d="M110.014 54.1829H78.9375V61.9695H102.671L110.014 54.1829Z" fill="#DBDBDB"/>
<path d="M12.3012 149.138H6.75293V136.285L12.3012 149.138Z" fill="#DBDBDB"/>
<path d="M122.088 170.132H108.163V186.593H122.088V170.132Z" fill="#DBDBDB"/>
<path d="M122.088 189.161H108.163V194.938H122.088V189.161Z" fill="#DBDBDB"/>
<path d="M104.701 229.825L99.1274 235.399H62.5342L81.9056 211.741L104.701 229.825Z" fill="#DBDBDB"/>
<path d="M106.699 227.105L116.103 218.082L104.695 208.152V199.224L84.5947 209.465L106.699 227.105Z" fill="#3DA925"/>
<path d="M122.088 197.487V211.487L118.359 214.994L108.163 206.421V197.487H122.088Z" fill="#DBDBDB"/>
<path d="M10.3297 220.637V233.034C9.19099 232.007 8.28335 230.751 7.66682 229.347C7.05029 227.943 6.73895 226.425 6.75341 224.892V220.637H10.3297Z" fill="#DBDBDB"/>
<path d="M19.2448 221.937H14.4004V226.782H19.2448V221.937Z" fill="#DBDBDB"/>
<path d="M49.6439 14.2164V30.1764H18.916V11.9083L24.2614 6.99414H35.675C36.7846 6.99414 37.6977 8.26232 37.6977 9.84119V10.5197C37.6977 14.2037 39.7204 14.2164 42.1934 14.2164H49.6439Z" fill="#DBDBDB"/>
<path d="M16.315 20.3733H6.75293V30.1636H16.315V20.3733Z" fill="#DBDBDB"/>
<path d="M16.316 12.3711V17.8433H6.80469C6.83677 15.9948 7.09442 14.1571 7.57193 12.3711H16.316Z" fill="#DBDBDB"/>
<path d="M21.3764 6.99414L17.9967 10.1646H8.48535C10.2354 7.21607 13.1649 6.99414 16.4812 6.99414H21.3764Z" fill="#DBDBDB"/>
<path d="M82.666 127.642L95.7156 141.344H108.163V127.642H82.666Z" fill="#DBDBDB"/>
<path d="M122.087 135.048H110.75V141.351H122.087V135.048Z" fill="#DBDBDB"/>
<path d="M117.414 127.642H110.75V133.368H117.414V127.642Z" fill="#DBDBDB"/>
<path d="M122.088 127.642H119.076V133.368H122.088V127.642Z" fill="#DBDBDB"/>
<path d="M59.9854 148.44H80.8976V158.44L67.5247 164.508L59.9854 148.44Z" fill="#DBDBDB"/>
<path d="M33.1189 199.395C38.3018 199.395 42.5034 195.194 42.5034 190.011C42.5034 184.828 38.3018 180.626 33.1189 180.626C27.936 180.626 23.7344 184.828 23.7344 190.011C23.7344 195.194 27.936 199.395 33.1189 199.395Z" fill="#3DA925"/>
<path d="M11.7749 41.1079H6.75293V48.3175H11.7749V41.1079Z" fill="#DBDBDB"/>
<path d="M21.3503 65.85V41.1143H13.6905V60.9993H8.2627V65.85H21.3503Z" fill="#DBDBDB"/>
<path d="M35.3004 41.1079H24.4512V52.3947H35.3004V41.1079Z" fill="#DBDBDB"/>
<path d="M11.7749 49.7061H6.75293V58.8179H11.7749V49.7061Z" fill="#DBDBDB"/>
<path d="M119.774 103.312H103.655V118.727H119.774V103.312Z" fill="#DBDBDB"/>
<path d="M44.7988 86.7114L61.6148 105.011H82.7236V86.7114H44.7988Z" fill="#DBDBDB"/>
<path d="M64.0117 107.123L74.6834 118.727H82.6666V107.123H64.0117Z" fill="#DBDBDB"/>
<path d="M95.7102 86.7114H85.8438V94.3522H95.7102V86.7114Z" fill="#DBDBDB"/>
<path d="M119.78 94.0352V76.8514L111.981 68.4561L98.3857 83.0337V99.7039H114.504V94.0352H119.78Z" fill="#3DA925"/>
<path d="M122.088 57.8669V62.4768L119.862 60.2955L122.088 57.8669Z" fill="#DBDBDB"/>
<path d="M122.088 27.2532V41.425L112.729 51.7036H100.408V27.2532H122.088Z" fill="#DBDBDB"/>
<path d="M97.5492 36.2065H85.5586V51.7036H97.5492V36.2065Z" fill="#3DA925"/>
<path d="M112.729 11.2996V24.7486H97.5429V34.2599H85.5586V14.2164H86.6175C88.9193 14.2164 90.8025 14.2164 91.0561 11.2996H112.729Z" fill="#DBDBDB"/>
<path d="M84.0108 14.2163H75.4062V24.4251H84.0108V14.2163Z" fill="#DBDBDB"/>
<path d="M84.0175 31.3875H61.0762V42.6679H84.0175V31.3875Z" fill="#DBDBDB"/>
<path d="M84.0172 26.0547H75.4062V29.7134H84.0172V26.0547Z" fill="#DBDBDB"/>
<path d="M71.862 63.339H65.5909L61.0762 59.0526V46.5864H71.862V63.339Z" fill="#DBDBDB"/>
<path d="M32.3701 11.6165C32.3057 11.6746 32.2443 11.736 32.1862 11.8004L32.0784 11.9019C31.6032 11.4295 30.9603 11.1643 30.2903 11.1643C29.6202 11.1643 28.9774 11.4295 28.5021 11.9019L28.4007 11.7941L28.2168 11.6102L28.4514 11.4009C28.6196 11.2664 28.8025 11.1515 28.9967 11.0585C29.2228 10.9444 29.4641 10.8632 29.7132 10.8176C29.8328 10.7945 29.9534 10.7775 30.0747 10.7668H30.3917H30.6327C30.8494 10.7953 31.0622 10.8485 31.2668 10.9254C31.4225 10.9821 31.5731 11.0521 31.717 11.1346C31.8674 11.2208 32.0096 11.3205 32.1418 11.4326L32.3384 11.6102L32.3701 11.6165Z" fill="#A6A6A6"/>
<path d="M29.0856 12.4853L28.7939 12.1936C29.116 11.8707 29.5345 11.6615 29.986 11.5976C30.311 11.547 30.6433 11.5747 30.9554 11.6784C31.2675 11.782 31.5504 11.9587 31.7805 12.1936C31.6854 12.2887 31.5903 12.3902 31.4888 12.4853C31.3326 12.3264 31.146 12.2007 30.9401 12.1158C30.7341 12.0308 30.5132 11.9882 30.2904 11.9907C30.0668 11.9888 29.845 12.0316 29.6381 12.1165C29.4313 12.2015 29.2434 12.3268 29.0856 12.4853Z" fill="#A6A6A6"/>
<path d="M31.1972 12.7769L30.9056 13.0686C30.8219 12.9866 30.7227 12.9219 30.6139 12.8784C30.5051 12.8349 30.3887 12.8133 30.2715 12.815C30.1536 12.8127 30.0366 12.8346 29.9275 12.8793C29.8184 12.924 29.7197 12.9906 29.6374 13.075L29.3457 12.7833C29.4639 12.6562 29.6069 12.5547 29.7659 12.4851C29.9249 12.4155 30.0965 12.3793 30.2701 12.3787C30.4437 12.3781 30.6155 12.4131 30.775 12.4816C30.9345 12.5501 31.0782 12.6506 31.1972 12.7769Z" fill="#A6A6A6"/>
<path d="M30.5507 13.3348C30.5516 13.3694 30.5455 13.4039 30.5328 13.4362C30.5201 13.4685 30.5011 13.4979 30.4768 13.5227C30.4526 13.5475 30.4237 13.5672 30.3917 13.5807C30.3597 13.5942 30.3254 13.6011 30.2907 13.6011C30.2558 13.6011 30.2211 13.5942 30.1888 13.5808C30.1565 13.5674 30.1271 13.5478 30.1024 13.5231C30.0777 13.4983 30.0581 13.469 30.0447 13.4367C30.0313 13.4044 30.0244 13.3697 30.0244 13.3348C30.0244 13.3001 30.0313 13.2657 30.0448 13.2338C30.0583 13.2018 30.078 13.1729 30.1028 13.1486C30.1276 13.1244 30.157 13.1054 30.1893 13.0927C30.2216 13.08 30.2561 13.0739 30.2907 13.0748C30.3597 13.0748 30.4258 13.1022 30.4746 13.1509C30.5233 13.1997 30.5507 13.2658 30.5507 13.3348Z" fill="#A6A6A6"/>
<path d="M14.2676 12.1745C14.2676 12.0227 14.3126 11.8744 14.3969 11.7482C14.4812 11.622 14.601 11.5237 14.7412 11.4656C14.8814 11.4076 15.0357 11.3924 15.1845 11.422C15.3334 11.4516 15.4701 11.5246 15.5774 11.6319C15.6847 11.7392 15.7578 11.876 15.7874 12.0248C15.817 12.1736 15.8018 12.3279 15.7437 12.4681C15.6856 12.6083 15.5873 12.7281 15.4611 12.8124C15.3349 12.8967 15.1866 12.9417 15.0349 12.9417C14.9339 12.9426 14.8337 12.9233 14.7402 12.885C14.6468 12.8468 14.5619 12.7903 14.4904 12.7189C14.419 12.6475 14.3626 12.5625 14.3243 12.4691C14.286 12.3756 14.2668 12.2755 14.2676 12.1745Z" fill="#A6A6A6"/>
<path d="M16.6778 12.1745C16.6778 12.0227 16.7228 11.8744 16.8071 11.7482C16.8914 11.622 17.0112 11.5237 17.1514 11.4656C17.2916 11.4076 17.4459 11.3924 17.5947 11.422C17.7435 11.4516 17.8802 11.5246 17.9875 11.6319C18.0948 11.7392 18.1679 11.876 18.1975 12.0248C18.2271 12.1736 18.2119 12.3279 18.1539 12.4681C18.0958 12.6083 17.9974 12.7281 17.8713 12.8124C17.7451 12.8967 17.5968 12.9417 17.445 12.9417C17.344 12.9426 17.2439 12.9233 17.1504 12.885C17.0569 12.8468 16.972 12.7903 16.9006 12.7189C16.8292 12.6475 16.7727 12.5625 16.7344 12.4691C16.6962 12.3756 16.6769 12.2755 16.6778 12.1745Z" fill="#A6A6A6"/>
<path d="M19.0869 12.1744C19.0869 12.0224 19.1321 11.8738 19.2167 11.7475C19.3013 11.6212 19.4215 11.5229 19.5621 11.465C19.7026 11.4071 19.8572 11.3923 20.0062 11.4224C20.1552 11.4526 20.2919 11.5263 20.399 11.6342C20.506 11.7421 20.5786 11.8794 20.6075 12.0287C20.6363 12.1779 20.6202 12.3324 20.5612 12.4725C20.5021 12.6126 20.4028 12.7319 20.2758 12.8155C20.1488 12.899 19.9999 12.9429 19.8478 12.9417C19.7474 12.9417 19.6479 12.9218 19.5552 12.8832C19.4625 12.8445 19.3783 12.7879 19.3075 12.7166C19.2368 12.6453 19.1809 12.5606 19.143 12.4676C19.1052 12.3745 19.0861 12.2749 19.0869 12.1744Z" fill="#A6A6A6"/>
<path d="M21.4961 12.1744C21.4961 12.0224 21.5413 11.8738 21.6259 11.7475C21.7105 11.6212 21.8307 11.5229 21.9712 11.465C22.1118 11.4071 22.2664 11.3923 22.4154 11.4224C22.5644 11.4526 22.7011 11.5263 22.8081 11.6342C22.9152 11.7421 22.9877 11.8794 23.0166 12.0287C23.0455 12.1779 23.0294 12.3324 22.9704 12.4725C22.9113 12.6126 22.812 12.7319 22.685 12.8155C22.558 12.899 22.409 12.9429 22.257 12.9417C22.1566 12.9417 22.0571 12.9218 21.9644 12.8832C21.8716 12.8445 21.7875 12.7879 21.7167 12.7166C21.646 12.6453 21.5901 12.5606 21.5522 12.4676C21.5143 12.3745 21.4953 12.2749 21.4961 12.1744Z" fill="#A6A6A6"/>
<path d="M23.8994 12.1745C23.8994 12.0227 23.9444 11.8744 24.0287 11.7482C24.113 11.622 24.2329 11.5237 24.3731 11.4656C24.5133 11.4076 24.6675 11.3924 24.8164 11.422C24.9652 11.4516 25.1019 11.5246 25.2092 11.6319C25.3165 11.7392 25.3896 11.876 25.4192 12.0248C25.4488 12.1736 25.4336 12.3279 25.3755 12.4681C25.3175 12.6083 25.2191 12.7281 25.093 12.8124C24.9668 12.8967 24.8184 12.9417 24.6667 12.9417C24.5657 12.9426 24.4656 12.9233 24.3721 12.885C24.2786 12.8468 24.1937 12.7903 24.1223 12.7189C24.0509 12.6475 23.9944 12.5625 23.9561 12.4691C23.9179 12.3756 23.8986 12.2755 23.8994 12.1745Z" fill="#A6A6A6"/>
<path d="M113.273 11.1218H107.37V13.6899H113.273V11.1218Z" fill="#A6A6A6"/>
<path d="M113.439 13.8421H107.212V10.9634H113.439V13.8421ZM107.529 13.5251H113.122V11.2804H107.542L107.529 13.5251Z" fill="white"/>
<path d="M111.746 11.4517H107.732V13.3539H111.746V11.4517Z" fill="#A6A6A6"/>
<path d="M113.99 11.6292H113.438V13.17H113.99V11.6292Z" fill="#A6A6A6"/>
<path d="M69.8388 171.971L69.3251 170.817L90.6432 161.344H103.845L29.9736 80.6878H55.2484V33.2073H56.5166V81.956H32.8524L106.724 162.612H90.9158L69.8388 171.971Z" fill="#3DA925"/>
<path d="M60.1682 25.7313C59.9844 23.5881 58.4752 21.4893 55.8818 21.4893C53.2884 21.4893 51.8173 23.6198 51.6017 25.763C51.2783 29.0666 53.504 32.0658 55.8818 34.7988C58.266 32.0341 60.498 29.0349 60.1682 25.7313ZM55.8818 28.1091C55.4181 28.1079 54.9651 27.9692 54.5801 27.7107C54.1951 27.4521 53.8954 27.0853 53.7188 26.6564C53.5422 26.2276 53.4967 25.7561 53.5879 25.3014C53.6791 24.8467 53.9031 24.4293 54.2314 24.1018C54.5598 23.7743 54.9779 23.5515 55.4328 23.4615C55.8877 23.3715 56.3591 23.4183 56.7874 23.5961C57.2158 23.7738 57.5818 24.0746 57.8393 24.4602C58.0968 24.8459 58.2343 25.2993 58.2343 25.763C58.2351 26.0719 58.1748 26.3779 58.0568 26.6633C57.9388 26.9487 57.7655 27.208 57.5468 27.4261C57.3281 27.6442 57.0683 27.8169 56.7826 27.9341C56.4968 28.0513 56.1907 28.1108 55.8818 28.1091Z" fill="#3DA925"/>
<path d="M66.6613 179.637L66.6042 173.062L61.3096 169.162L74.2577 169.327L66.6613 179.637Z" fill="#37474F"/>
<path d="M46.6697 229.369L32.7197 205.907L33.7216 205.812C38.8616 205.009 43.4968 202.263 46.6697 198.14C51.7994 191.374 47.253 181.749 47.2086 181.654L46.9233 181.077L67.5121 171.667L68.0384 172.821L48.6163 181.698C49.5801 184.006 52.5794 192.478 47.6779 198.914C44.4918 203.072 39.8921 205.919 34.7488 206.916L47.7159 228.722L46.6697 229.369Z" fill="#37474F"/>
<path d="M51.47 221.975C51.2544 219.832 49.777 217.701 47.1836 217.701C44.5902 217.701 43.1191 219.832 42.9035 221.975C42.5801 225.279 44.8057 228.278 47.1836 231.011C49.5677 228.278 51.7997 225.279 51.47 221.975ZM47.1836 224.353C46.7198 224.352 46.2669 224.213 45.8819 223.955C45.4969 223.696 45.1972 223.329 45.0206 222.9C44.844 222.471 44.7984 222 44.8897 221.545C44.9809 221.091 45.2048 220.673 45.5332 220.346C45.8616 220.018 46.2796 219.795 46.7345 219.705C47.1895 219.615 47.6609 219.662 48.0892 219.84C48.5175 220.018 48.8836 220.318 49.1411 220.704C49.3986 221.09 49.536 221.543 49.536 222.007C49.5369 222.316 49.4766 222.622 49.3586 222.907C49.2406 223.193 49.0672 223.452 48.8485 223.67C48.6298 223.888 48.3701 224.061 48.0843 224.178C47.7986 224.295 47.4924 224.355 47.1836 224.353Z" fill="#3DA925"/>
<path d="M143.604 146.081C143.606 149.91 142.44 153.648 140.263 156.797C138.085 159.945 134.999 162.355 131.416 163.704C127.833 165.053 123.924 165.278 120.21 164.347C116.496 163.417 113.155 161.376 110.631 158.497H74.0568L68.9397 167.963L63.8226 158.497H59.1494V133.666H110.637C113.163 130.79 116.505 128.752 120.218 127.823C123.931 126.895 127.839 127.121 131.421 128.47C135.003 129.819 138.088 132.228 140.266 135.376C142.443 138.523 143.61 142.26 143.61 146.087L143.604 146.081Z" fill="white"/>
<path d="M143.603 146.081C143.579 147.983 143.298 149.873 142.766 151.699C142.18 153.498 141.343 155.206 140.281 156.772C138.093 159.931 134.997 162.35 131.403 163.709C130.961 163.888 130.511 164.044 130.053 164.178L128.671 164.533C128.208 164.628 127.732 164.685 127.263 164.768C126.793 164.844 126.318 164.888 125.842 164.901C123.936 165.036 122.02 164.867 120.167 164.4C116.431 163.474 113.064 161.433 110.517 158.547L110.612 158.592L74.0311 158.693L74.2277 158.573L69.155 168.052L68.9331 168.471L68.7111 168.052L63.5687 158.598L63.816 158.75H59.1427H58.8447V158.452C58.8447 154.312 58.8447 150.177 58.8447 146.037L58.8828 133.621V133.355H59.1491L110.637 133.495L110.51 133.621V133.577L110.542 133.539C113.104 130.665 116.482 128.642 120.224 127.737C122.078 127.27 123.993 127.101 125.9 127.236C126.375 127.249 126.85 127.293 127.32 127.369C127.789 127.452 128.265 127.509 128.728 127.604L130.11 127.959C130.568 128.092 131.018 128.249 131.46 128.428C135.054 129.784 138.15 132.201 140.338 135.359C141.399 136.936 142.236 138.654 142.823 140.463C143.335 142.292 143.598 144.182 143.603 146.081ZM143.603 146.081C143.569 144.182 143.277 142.296 142.735 140.476C142.134 138.673 141.28 136.965 140.198 135.403C138.016 132.274 134.933 129.883 131.359 128.549C130.922 128.373 130.475 128.223 130.021 128.098L128.645 127.75C128.182 127.655 127.707 127.604 127.244 127.528C126.776 127.45 126.304 127.408 125.83 127.401C123.941 127.275 122.045 127.451 120.212 127.921C116.532 128.85 113.22 130.873 110.713 133.723L110.745 133.64V133.767H110.618L59.1301 133.907L59.3964 133.64L59.4344 146.056C59.4344 150.196 59.4344 154.331 59.4344 158.471L59.1364 158.173H63.8096H63.9808L64.0569 158.325L69.1296 167.805H68.6858L73.8282 158.351L73.8916 158.23H74.0248L110.605 158.332H110.713L110.751 158.376C113.253 161.245 116.572 163.28 120.263 164.21C122.095 164.685 123.992 164.863 125.881 164.736C126.354 164.729 126.827 164.686 127.295 164.609C127.757 164.539 128.233 164.482 128.696 164.394L130.065 164.039C130.522 163.915 130.971 163.765 131.41 163.588C134.985 162.254 138.07 159.863 140.255 156.734C141.324 155.169 142.167 153.461 142.76 151.661C143.291 149.848 143.575 147.971 143.603 146.081Z" fill="#263238"/>
<path d="M132.576 160.529C140.56 156.225 143.543 146.264 139.238 138.28C134.934 130.296 124.973 127.313 116.989 131.617C109.005 135.922 106.022 145.883 110.327 153.867C114.631 161.851 124.592 164.833 132.576 160.529Z" fill="#3DA925"/>
<path d="M73.0354 143.703C72.8198 141.56 71.3424 139.43 68.749 139.43C66.1556 139.43 64.6845 141.56 64.4689 143.703C64.1455 147.007 66.3712 150.006 68.749 152.739C71.1332 150.006 73.3652 147.039 73.0354 143.703ZM68.749 146.081C68.2853 146.08 67.8323 145.941 67.4473 145.683C67.0623 145.424 66.7626 145.057 66.586 144.629C66.4094 144.2 66.3638 143.728 66.4551 143.274C66.5463 142.819 66.7703 142.401 67.0986 142.074C67.427 141.746 67.845 141.524 68.3 141.434C68.7549 141.344 69.2263 141.39 69.6546 141.568C70.083 141.746 70.449 142.047 70.7065 142.432C70.964 142.818 71.1015 143.271 71.1015 143.735C71.1023 144.044 71.042 144.35 70.924 144.635C70.806 144.921 70.6326 145.18 70.4139 145.398C70.1952 145.616 69.9355 145.789 69.6498 145.906C69.364 146.023 69.0579 146.083 68.749 146.081Z" fill="#3DA925"/>
<path d="M103.656 141.395H77.709V142.175H103.656V141.395Z" fill="#A6A6A6"/>
<path d="M99.5787 143.564H77.709V144.344H99.5787V143.564Z" fill="#A6A6A6"/>
<path d="M102.375 145.732H77.709V146.512H102.375V145.732Z" fill="#A6A6A6"/>
<path d="M92.4388 147.901H77.709V148.681H92.4388V147.901Z" fill="#A6A6A6"/>
<path d="M135.906 158.135C132.877 160.937 128.904 162.496 124.778 162.504C124.035 162.504 123.293 162.449 122.558 162.339C122.07 162.283 121.585 162.199 121.106 162.085C121.703 160.163 122.445 158.29 123.326 156.48C123.396 156.328 123.484 156.182 123.554 156.055C123.669 155.865 123.794 155.681 123.928 155.504C124.562 154.717 126.147 154.331 127.879 154.299C128.631 154.282 129.383 154.322 130.13 154.419C130.729 154.491 131.32 154.614 131.899 154.787L132.006 154.819H132.07L132.482 154.971L132.843 155.136C132.858 155.132 132.873 155.132 132.888 155.136C133.09 155.228 133.279 155.345 133.452 155.485C133.566 155.58 133.693 155.687 133.814 155.802C134.586 156.508 135.287 157.29 135.906 158.135Z" fill="#EBEBEB"/>
<path d="M136.179 157.882C136.092 157.971 136.001 158.056 135.906 158.135C134.646 159.309 133.205 160.272 131.639 160.989C132.108 157.818 132.469 155.364 132.52 154.965C132.523 154.944 132.523 154.922 132.52 154.901C132.64 154.971 132.757 155.048 132.869 155.13C132.883 155.126 132.899 155.126 132.913 155.13C133.135 155.275 133.452 155.497 133.839 155.795C134.667 156.435 135.448 157.132 136.179 157.882Z" fill="#37474F"/>
<path d="M123.687 155.282L123.566 156.049C123.566 156.239 123.496 156.461 123.465 156.683C123.433 156.905 123.401 157.076 123.357 157.317C123.154 158.585 122.869 160.392 122.558 162.333C122.069 162.277 121.584 162.192 121.106 162.079L120.935 162.041C121.547 159.93 122.332 157.873 123.281 155.89C123.403 155.679 123.538 155.476 123.687 155.282Z" fill="#37474F"/>
<path d="M125.621 160.932C127.523 161.147 131.099 158.516 132.095 155.726C132.164 155.535 131.6 153.722 131.023 151.484C130.674 150.127 130.319 148.605 130.097 147.197C130.053 146.906 121.588 150.742 121.588 150.742C122.371 152.426 122.946 154.2 123.3 156.024C123.318 156.22 123.318 156.417 123.3 156.613V156.709C123.332 157.818 123.598 160.697 125.621 160.932Z" fill="#D3766A"/>
<path d="M123.331 156.613C123.328 156.645 123.328 156.677 123.331 156.708C123.637 156.699 123.943 156.667 124.244 156.613C129.431 155.675 129.773 148.941 129.773 147.248C128.239 147.723 121.581 150.742 121.581 150.742C122.365 152.428 122.94 154.204 123.293 156.03C123.321 156.223 123.334 156.418 123.331 156.613Z" fill="#263238"/>
<path d="M130.002 135.955C131.359 138.986 130.839 148.294 128.854 150.609C125.975 153.957 120.693 154.908 117.701 151.319C114.803 147.838 115.691 135.714 117.961 133.564C121.309 130.375 127.992 131.478 130.002 135.955Z" fill="#D3766A"/>
<path d="M123.554 142.524C123.554 142.524 123.598 142.556 123.598 142.581C123.547 143.215 123.598 143.932 124.15 144.166C124.15 144.166 124.15 144.211 124.15 144.204C123.452 144.071 123.395 143.107 123.554 142.524Z" fill="#263238"/>
<path d="M124.143 141.896C125.158 141.896 125.132 143.9 124.194 143.919C123.256 143.938 123.294 141.915 124.143 141.896Z" fill="#263238"/>
<path d="M119.711 142.6C119.711 142.6 119.66 142.6 119.66 142.657C119.66 143.291 119.584 144.008 119.026 144.211C119.026 144.211 119.026 144.249 119.026 144.242C119.711 144.135 119.825 143.177 119.711 142.6Z" fill="#263238"/>
<path d="M119.159 141.922C118.144 141.833 118.043 143.856 118.981 143.938C119.92 144.02 120.002 141.966 119.159 141.922Z" fill="#263238"/>
<path d="M124.955 140.977C124.69 140.897 124.43 140.802 124.175 140.692C123.886 140.63 123.625 140.474 123.433 140.248C123.386 140.165 123.368 140.069 123.381 139.975C123.395 139.88 123.44 139.793 123.51 139.728C123.663 139.618 123.844 139.551 124.032 139.534C124.221 139.517 124.41 139.551 124.581 139.633C124.952 139.746 125.269 139.989 125.475 140.317C125.515 140.396 125.532 140.485 125.523 140.572C125.514 140.66 125.48 140.744 125.426 140.813C125.371 140.882 125.298 140.935 125.214 140.964C125.131 140.993 125.041 140.997 124.955 140.977Z" fill="#263238"/>
<path d="M118.385 140.888C118.664 140.844 118.918 140.761 119.191 140.691C119.485 140.659 119.761 140.532 119.977 140.33C120.035 140.255 120.066 140.162 120.066 140.067C120.066 139.972 120.035 139.879 119.977 139.804C119.836 139.678 119.664 139.592 119.479 139.555C119.294 139.518 119.102 139.532 118.924 139.594C118.542 139.663 118.198 139.871 117.96 140.178C117.912 140.25 117.884 140.334 117.882 140.421C117.88 140.508 117.902 140.594 117.947 140.668C117.991 140.743 118.056 140.803 118.134 140.842C118.212 140.881 118.299 140.897 118.385 140.888Z" fill="#263238"/>
<path d="M122.977 146.468C122.817 146.716 122.606 146.927 122.359 147.089C122.113 147.25 121.835 147.358 121.544 147.406C121.287 147.441 121.027 147.441 120.77 147.406C120.722 147.413 120.673 147.413 120.624 147.406H120.485C120.415 147.406 120.377 147.337 120.364 147.267C120.362 147.246 120.362 147.225 120.364 147.204V147.153C120.364 146.665 120.415 145.929 120.415 145.929C120.238 146.018 119.331 146.411 119.35 146.164C119.429 143.983 119.73 141.816 120.25 139.696C120.25 139.681 120.256 139.666 120.267 139.656C120.278 139.645 120.292 139.639 120.307 139.639C120.323 139.639 120.337 139.645 120.348 139.656C120.358 139.666 120.364 139.681 120.364 139.696C120.301 141.712 119.883 143.703 119.787 145.72C120.111 145.578 120.452 145.48 120.802 145.428C120.872 145.428 120.669 146.849 120.688 147.064C121.083 147.107 121.484 147.071 121.865 146.956C122.246 146.842 122.601 146.652 122.907 146.398C122.971 146.405 123.015 146.405 122.977 146.468Z" fill="#263238"/>
<path d="M121.062 147.191C121.322 147.539 121.667 147.814 122.063 147.99C122.285 148.077 122.529 148.095 122.761 148.041C123.262 147.914 123.281 147.451 123.192 147.058C123.144 146.849 123.072 146.647 122.976 146.455C122.431 146.896 121.761 147.153 121.062 147.191Z" fill="#263238"/>
<path d="M122.063 147.99C122.286 148.077 122.529 148.094 122.761 148.04C123.262 147.914 123.281 147.451 123.192 147.058C122.927 147.064 122.671 147.16 122.467 147.329C122.262 147.498 122.12 147.73 122.063 147.99Z" fill="#FF9ABB"/>
<path d="M116.585 136.621C116.94 135.828 117.346 135.029 117.853 134.877C118.36 134.725 119.318 136.145 120.389 136.227C121.861 136.342 122.85 134.699 124.911 134.572C126.971 134.446 128.208 136.938 128.24 141.135C128.24 144.889 130.529 145.263 130.529 145.263C130.529 145.263 131.987 137.02 129.679 134.243C127.371 131.465 122.07 130.216 118.424 132.791C117.099 133.723 116.585 136.621 116.585 136.621Z" fill="#263238"/>
<path d="M128.645 143.767C128.645 143.767 130.395 140.596 131.816 141.192C133.236 141.788 132.133 146.227 130.624 146.982C130.436 147.091 130.229 147.161 130.014 147.188C129.799 147.215 129.581 147.198 129.373 147.139C129.164 147.08 128.97 146.979 128.801 146.843C128.633 146.707 128.493 146.539 128.392 146.347L128.645 143.767Z" fill="#D3766A"/>
<path d="M131.467 142.46C131.467 142.46 131.467 142.46 131.467 142.498C130.408 143.063 129.939 144.147 129.641 145.244C129.695 145.128 129.773 145.024 129.871 144.941C129.968 144.857 130.082 144.795 130.205 144.759C130.328 144.723 130.457 144.714 130.584 144.732C130.711 144.75 130.833 144.795 130.941 144.864C130.941 144.864 130.941 144.933 130.941 144.927C130.741 144.885 130.532 144.906 130.345 144.988C130.157 145.07 130 145.208 129.895 145.384C129.719 145.677 129.576 145.99 129.47 146.316C129.426 146.417 129.242 146.385 129.267 146.265C129.102 144.838 129.971 142.758 131.467 142.46Z" fill="#263238"/>
</svg>
