<svg width="164" height="43" viewBox="0 0 164 43" fill="none" xmlns="http://www.w3.org/2000/svg">
<path d="M0.933594 42.414V1.111H16.2889C23.2047 1.111 28.538 2.8881 32.2889 6.44231C36.0789 9.99652 37.9739 15.0935 37.9739 21.7332C37.9739 28.3339 36.0789 33.4309 32.2889 37.0241C28.538 40.6174 23.2047 42.414 16.2889 42.414H0.933594ZM8.43543 36.2039H15.8201C25.3536 36.2039 30.1204 31.3804 30.1204 21.7332C30.1204 12.1251 25.3536 7.3211 15.8201 7.3211H8.43543V36.2039Z" fill="white"/>
<path d="M44.8732 42.414V13.7655H52.0234V18.8039C53.43 15.4059 56.4385 13.5312 61.049 13.1797L63.2761 13.0039L63.745 19.214L59.5252 19.6241C54.7193 20.0928 52.3164 22.5534 52.3164 27.0059V42.414H44.8732Z" fill="white"/>
<path d="M67.3553 7.61403V0.466553H75.5605V7.61403H67.3553ZM67.8242 42.414V13.7655H75.1502V42.414H67.8242Z" fill="white"/>
<path d="M91.202 42.414L78.777 13.7655H86.5719L94.5426 33.8019L102.806 13.7655H110.132L97.5316 42.414H91.202Z" fill="white"/>
<path d="M127.221 42.9999C123.978 42.9999 121.185 42.3945 118.84 41.1837C116.496 39.9729 114.679 38.2544 113.39 36.0282C112.139 33.8019 111.514 31.1655 111.514 28.1191C111.514 25.1507 112.12 22.5534 113.331 20.3272C114.581 18.1009 116.281 16.3628 118.43 15.113C120.618 13.8241 123.099 13.1797 125.873 13.1797C129.937 13.1797 133.141 14.4686 135.485 17.0464C137.868 19.6241 139.06 23.1393 139.06 27.5918V29.7595H118.547C119.094 34.876 122.025 37.4342 127.338 37.4342C128.94 37.4342 130.542 37.1999 132.144 36.7312C133.746 36.2235 135.211 35.4423 136.54 34.3878L138.591 39.309C137.224 40.4416 135.505 41.34 133.434 42.0039C131.363 42.6679 129.292 42.9999 127.221 42.9999ZM126.166 18.1595C124.017 18.1595 122.279 18.8235 120.95 20.1514C119.622 21.4793 118.821 23.276 118.547 25.5413H132.965C132.809 23.1588 132.144 21.3426 130.972 20.0928C129.839 18.8039 128.237 18.1595 126.166 18.1595Z" fill="white"/>
<path d="M144.862 42.414V13.7655H152.012V18.8039C153.419 15.4059 156.427 13.5312 161.038 13.1797L163.265 13.0039L163.734 19.214L159.514 19.6241C154.708 20.0928 152.305 22.5534 152.305 27.0059V42.414H144.862Z" fill="white"/>
</svg>
