<svg width="111" height="29" viewBox="0 0 111 29" fill="none" xmlns="http://www.w3.org/2000/svg">
<path d="M0 28.6006V0.439393H10.4695C15.1848 0.439393 18.8212 1.65106 21.3786 4.07438C23.9627 6.4977 25.2548 9.97291 25.2548 14.5C25.2548 19.0005 23.9627 22.4757 21.3786 24.9256C18.8212 27.3756 15.1848 28.6006 10.4695 28.6006H0ZM5.11489 24.3664H10.1499C16.65 24.3664 19.9001 21.0776 19.9001 14.5C19.9001 7.94904 16.65 4.67355 10.1499 4.67355H5.11489V24.3664Z" fill="#3DA925"/>
<path d="M29.9588 28.6006V9.06749H34.8339V12.5028C35.793 10.186 37.8443 8.90771 40.9878 8.66804L42.5063 8.54821L42.826 12.7824L39.9488 13.062C36.6721 13.3815 35.0337 15.0592 35.0337 18.095V28.6006H29.9588Z" fill="#3DA925"/>
<path d="M45.2876 4.87328V0H50.882V4.87328H45.2876ZM45.6072 28.6006V9.06749H50.6022V28.6006H45.6072Z" fill="#3DA925"/>
<path d="M61.5466 28.6006L53.0751 9.06749H58.3898L63.8243 22.7286L69.4587 9.06749H74.4537L65.8623 28.6006H61.5466Z" fill="#3DA925"/>
<path d="M86.1052 29C83.8941 29 81.9893 28.5872 80.3909 27.7617C78.7925 26.9362 77.5537 25.7645 76.6746 24.2466C75.8221 22.7286 75.3959 20.9311 75.3959 18.854C75.3959 16.8301 75.8088 15.0592 76.6347 13.5413C77.4871 12.0234 78.646 10.8384 80.1112 9.98623C81.603 9.10744 83.2947 8.66804 85.1861 8.66804C87.9567 8.66804 90.1412 9.54683 91.7396 11.3044C93.3646 13.062 94.1771 15.4587 94.1771 18.4945V19.9725H80.1911C80.5641 23.461 82.5621 25.2052 86.1851 25.2052C87.2774 25.2052 88.3696 25.0455 89.4618 24.7259C90.5541 24.3797 91.5531 23.8471 92.4588 23.1281L93.8575 26.4835C92.9251 27.2557 91.7529 27.8682 90.341 28.3209C88.929 28.7736 87.5171 29 86.1052 29ZM85.3859 12.0634C83.9207 12.0634 82.7352 12.5161 81.8295 13.4215C80.9237 14.3269 80.3776 15.5519 80.1911 17.0964H90.0213C89.9147 15.472 89.4618 14.2337 88.6626 13.3815C87.8901 12.5028 86.7978 12.0634 85.3859 12.0634Z" fill="#3DA925"/>
<path d="M98.1329 28.6006V9.06749H103.008V12.5028C103.967 10.186 106.018 8.90771 109.162 8.66804L110.68 8.54821L111 12.7824L108.123 13.062C104.846 13.3815 103.208 15.0592 103.208 18.095V28.6006H98.1329Z" fill="#3DA925"/>
</svg>
