<svg width="70" height="69" viewBox="0 0 70 69" fill="none" xmlns="http://www.w3.org/2000/svg">
<circle cx="35" cy="34.5" r="34.5" fill="#C7E7BF"/>
<path d="M50.5025 33.6494L35.6478 35.3262C35.0494 35.3944 34.4492 35.1316 34.078 34.6391L25.2322 22.588C24.6013 21.725 24.8911 20.4765 25.8541 20.0361C26.5227 19.7236 27.2125 19.5303 27.8791 19.4737L38.2414 18.5079C40.4646 18.289 43.3579 19.5555 44.7052 21.3373L51.0256 29.6054C51.4363 30.1336 51.7555 30.7869 51.9863 31.4747C52.2853 32.4675 51.5646 33.5274 50.5025 33.6494Z" fill="#3DA925"/>
<path d="M32.7328 37.4615L28.1384 47.9574C27.6265 49.1271 26.1046 49.3779 25.2804 48.4119C22.7905 45.4698 18.7233 40.2235 18.7233 40.2235C17.3106 38.3398 16.9438 34.9882 17.9071 32.7875L21.3831 24.8463C21.9153 23.6305 23.5295 23.4201 24.3133 24.4784L32.5695 35.7396C32.9033 36.2341 32.982 36.8921 32.7328 37.4615Z" fill="#3DA925"/>
<path d="M34.4871 38.2292L29.8928 48.7252C29.3808 49.8948 30.229 51.183 31.4978 51.1332C35.3485 50.9666 41.9621 50.3954 41.9621 50.3954C44.3044 50.1554 47.0156 48.1512 47.9789 45.9504L51.455 38.0092C51.9872 36.7934 51.0466 35.4648 49.7374 35.6069L35.8629 37.1809C35.2732 37.2713 34.7363 37.6598 34.4871 38.2292Z" fill="#3DA925"/>
</svg>
