<svg width="56" height="143" viewBox="0 0 56 143" fill="none" xmlns="http://www.w3.org/2000/svg">
<g filter="url(#filter0_ii_1159_25155)">
<path d="M2.46023 20.0257C2.65572 13.2159 7.18069 7.3286 13.6762 5.23895L14.1348 5.09142C23.6287 2.03718 33.8551 2.24418 43.1826 5.67941C49.3438 7.94849 53.436 13.8 53.449 20.376C53.4717 31.9241 53.4911 51.5661 53.4324 74.1211C53.3837 92.856 52.7801 111.679 52.2927 123.977C51.9699 132.122 45.9086 138.877 37.8561 140.186L35.3981 140.586C29.564 141.534 23.6115 141.413 17.8324 140.227L16.8782 140.032C8.92714 138.401 3.21782 131.446 3.12706 123.323C3.00294 112.215 2.76149 95.075 2.30328 74.1859C1.79538 51.0311 2.12898 31.5648 2.46023 20.0257Z" fill="url(#paint0_linear_1159_25155)"/>
</g>
<path d="M7.78923 45.1163C6.71533 39.9894 9.81775 34.6982 14.9227 33.453L15.3391 33.3514C23.6494 31.3244 32.329 31.4851 40.5288 33.818C45.3879 35.2004 48.1386 40.3999 46.9643 45.3296C45.104 53.1394 42.8909 65.3764 42.9168 79.3217C42.9383 90.9077 44.5775 102.576 46.0569 110.764C47.1313 116.711 43.0484 122.577 37.0361 123.309L36.0401 123.431C29.7705 124.194 23.4307 124.077 17.2056 123.082C11.566 122.181 8.02759 116.269 9.22366 110.671C10.8067 103.263 12.3564 92.3905 11.9136 79.3217C11.4308 65.0755 9.42709 52.9355 7.78923 45.1163Z" fill="#A7A5A5"/>
<g filter="url(#filter1_di_1159_25155)">
<path fill-rule="evenodd" clip-rule="evenodd" d="M5.62489 24.5516C6.06167 16.7086 10.8648 9.74018 17.9601 6.32801C24.2108 3.32197 31.5235 3.26091 37.7647 6.2087C45.1246 9.68486 49.8622 17.0175 49.9802 25.1736C50.0364 29.0601 50.0986 33.5867 50.1592 38.4587C50.1614 38.6312 49.9315 38.706 49.8247 38.5704C49.7168 38.4334 49.5033 38.5332 49.5232 38.7064C49.6478 39.793 49.6029 40.9134 49.3692 42.0267C47.5513 50.685 45.2838 64.7427 45.3254 80.8604C45.3584 93.64 47.1837 106.509 48.8551 115.641C49.1602 117.308 49.1112 118.97 48.7625 120.543C48.7523 120.589 48.8099 120.618 48.8404 120.582C48.8687 120.549 48.9234 120.571 48.9206 120.615C48.7379 123.523 48.5686 126.019 48.4329 127.945C48.2478 130.572 46.5123 132.823 44.027 133.708L42.9484 134.092C32.4254 137.837 20.9311 137.689 10.556 133.677C8.30759 132.808 6.77426 130.728 6.63092 128.318C6.50332 126.173 6.33311 123.226 6.14023 119.672C6.12864 119.458 6.43155 119.369 6.5497 119.547C6.66555 119.722 6.92977 119.61 6.90704 119.401C6.76846 118.13 6.82484 116.825 7.10076 115.535C8.86944 107.265 10.5689 95.2492 10.0622 80.8441C9.48604 64.4661 7.08097 50.5782 5.18499 41.8751C5.08641 41.4226 5.01962 40.9688 4.98318 40.5163C4.98047 40.4827 4.93406 40.4757 4.92267 40.5075C4.91037 40.5419 4.85697 40.5319 4.85843 40.4955C5.09647 34.5616 5.37225 29.0881 5.62489 24.5516ZM8.78509 42.9234C7.78017 38.0489 10.7188 33.0414 15.5603 31.8269L15.968 31.7246C24.145 29.6733 32.7074 29.8347 40.7737 32.1922C45.3806 33.5387 47.9859 38.4693 46.8839 43.1551C45.0626 50.8999 42.8383 63.2626 42.8604 77.3869C42.8788 89.1371 44.5247 100.972 45.9756 109.135C46.9844 114.812 43.0929 120.394 37.3606 121.112L36.3944 121.233C30.1971 122.01 23.9259 121.892 17.7734 120.882C12.3931 119.999 9.01824 114.375 10.1532 109.03C11.7194 101.655 13.2941 90.6619 12.8598 77.3919C12.3871 62.9473 10.3842 50.68 8.78509 42.9234Z" fill="url(#paint1_linear_1159_25155)"/>
</g>
<g filter="url(#filter2_di_1159_25155)">
<path d="M5.75071 36.5689C5.62682 36.1205 5.89923 35.6541 6.35272 35.5434L27.8099 30.3095C27.9465 30.2762 28.0891 30.2789 28.2238 30.3172L48.6464 36.1275C49.0922 36.2543 49.3422 36.7247 49.2005 37.1677C47.9685 41.0183 42.8776 58.213 42.9168 79.3217C42.9514 97.9429 47.1646 116.775 48.1771 121.034C48.2904 121.511 47.9607 121.979 47.4732 122.038L26.7027 124.568C26.6274 124.577 26.5514 124.576 26.4767 124.564L7.27308 121.495C6.76766 121.414 6.45748 120.899 6.62169 120.412C7.92435 116.554 12.6463 100.945 11.9136 79.3217C11.1696 57.3661 6.813 40.4132 5.75071 36.5689Z" fill="url(#paint2_linear_1159_25155)"/>
</g>
<g filter="url(#filter3_d_1159_25155)">
<g filter="url(#filter4_d_1159_25155)">
<path d="M48.8998 16.8931C47.1885 13.2189 44.6793 12.2217 42.9602 12.166C42.3857 12.1473 42.171 12.8006 42.5213 13.2568C45.2874 16.8593 47.753 22.5222 49.2221 26.4986C49.499 27.2482 50.4843 27.1654 50.5277 26.3681C50.6709 23.7358 50.4082 20.1315 48.8998 16.8931Z" fill="white"/>
<path d="M47.8339 17.3878C46.7527 15.0666 45.378 14.0269 44.2218 13.6015C46.2218 16.513 48.0059 20.2892 49.331 23.5359C49.1913 21.5615 48.7655 19.3879 47.8339 17.3878Z" stroke="white" stroke-width="2.3519" stroke-linecap="round"/>
</g>
</g>
<g filter="url(#filter5_d_1159_25155)">
<path d="M5.94281 17.0939C7.65466 13.1929 10.277 12.1172 12.0665 12.0409C12.6406 12.0164 12.868 12.6662 12.5271 13.1287C9.69488 16.9717 7.23018 23.0224 5.79412 27.2153C5.5353 27.9709 4.54479 27.9123 4.4795 27.1162C4.25411 24.3683 4.42675 20.5487 5.94281 17.0939Z" fill="white"/>
<path d="M7.01965 17.5664C8.13763 15.0187 9.62255 13.9069 10.8577 13.4673C8.75761 16.6384 6.91819 20.8023 5.58864 24.3177C5.66364 22.177 6.04885 19.7787 7.01965 17.5664Z" stroke="white" stroke-width="2.3519" stroke-linecap="round"/>
</g>
<g filter="url(#filter6_di_1159_25155)">
<path fill-rule="evenodd" clip-rule="evenodd" d="M12.1046 27.8919C8.3109 28.8923 5.52764 32.132 5.24757 36.0398C5.1708 37.1109 5.09108 38.3037 5.01199 39.6098C5.51061 35.5304 8.40607 31.9252 12.5825 30.9415L14.8062 30.4177C23.6404 28.337 32.8472 28.5728 41.5319 31.1024L42.4561 31.3716C47.4579 32.8285 50.3479 38.1042 49.2647 43.216C47.4547 51.7566 45.2255 65.4972 45.2667 81.232C45.2993 93.6631 47.0816 106.18 48.7364 115.15C48.7706 115.335 48.8004 115.52 48.826 115.705C49.0659 114.925 49.2222 114.109 49.2846 113.265C49.9363 104.454 50.7758 90.3891 50.7726 76.4354C50.7686 59.4093 50.3237 44.748 50.0203 36.7174C49.8715 32.7798 47.2433 29.4043 43.4803 28.2547L42.5711 27.977C33.2467 25.1284 23.2948 24.9411 13.8334 27.4361L12.1046 27.8919ZM6.85415 117.002C6.88644 116.355 6.97035 115.705 7.1089 115.059C8.85323 106.929 10.5038 95.2188 10.0034 81.2159C9.43227 65.2305 7.06345 51.6545 5.17526 43.0733C5.01681 42.3532 4.9388 41.6295 4.93551 40.9132C4.46492 49.1965 4.05861 61.4713 4.49167 75.9193C4.97528 92.054 5.57773 105.282 5.98371 113.306C6.04989 114.614 6.35334 115.861 6.85415 117.002Z" fill="url(#paint3_linear_1159_25155)"/>
</g>
<g filter="url(#filter7_ii_1159_25155)">
<path fill-rule="evenodd" clip-rule="evenodd" d="M4.71461 27.8195C5.18024 19.6593 10.2437 12.4335 17.6777 8.9841C23.9463 6.07546 31.2047 6.01729 37.4573 8.86665C45.1599 12.3767 50.1468 19.9865 50.2731 28.4714C50.33 32.2952 50.3923 36.7043 50.4529 41.4285C50.4542 41.5311 50.3179 41.5736 50.2581 41.4902C50.1974 41.4057 50.0665 41.4588 50.0757 41.5624C50.1681 42.5965 50.1079 43.6579 49.8789 44.7115C48.0117 53.3043 45.7209 67.0894 45.7634 82.8691C45.7963 95.1084 47.5625 107.431 49.2411 116.406C49.3431 116.951 49.4089 117.496 49.4403 118.038C49.3751 119.111 49.3103 120.147 49.2468 121.139C49.1946 121.424 49.133 121.706 49.0624 121.985C49.0531 122.022 49.1001 122.046 49.1246 122.017C49.147 121.99 49.1909 122.008 49.1887 122.042C49.006 124.857 48.8358 127.29 48.6971 129.199C48.4951 131.979 46.6378 134.355 43.9957 135.262L42.9064 135.636C32.1776 139.32 20.5304 139.176 9.95302 135.229C7.56383 134.338 5.92489 132.145 5.76825 129.595C5.65157 127.696 5.5027 125.207 5.33496 122.253C5.31716 121.939 5.74183 121.787 5.94472 122.027C6.15208 122.272 6.53055 122.052 6.46384 121.739C6.09163 119.987 6.07022 118.141 6.46108 116.327C8.21752 108.178 9.83579 96.6173 9.33046 82.8529C8.74194 66.8226 6.30622 53.202 4.35802 44.5695C4.15996 43.6919 4.08156 42.8082 4.11246 41.9384C4.11348 41.9098 4.07554 41.8989 4.06175 41.924C4.04778 41.9493 4.00856 41.9384 4.00979 41.9095C4.23159 36.7161 4.48133 31.9077 4.71461 27.8195ZM8.11014 45.9149C7.03495 40.7982 10.1361 35.5072 15.2354 34.2729L15.6474 34.1732C23.8563 32.1863 32.4227 32.3423 40.5217 34.6262C45.375 35.9948 48.1213 41.1896 46.9433 46.1105C45.1011 53.8056 42.926 65.795 42.9482 79.4467C42.9666 90.7844 44.5714 102.201 46.0311 110.255C47.1055 116.184 43.0319 122.04 37.0361 122.765L36.048 122.884C29.8636 123.632 23.6118 123.519 17.4716 122.546C11.849 121.656 8.32304 115.757 9.51908 110.177C11.082 102.886 12.6006 92.2361 12.167 79.4518C11.6941 65.5103 9.7288 53.6178 8.11014 45.9149Z" fill="url(#paint4_linear_1159_25155)"/>
</g>
<g filter="url(#filter8_ii_1159_25155)">
<path d="M10.4395 59.9316C21.1752 55.8288 33.0351 55.762 43.8163 59.7435L44.192 59.8823C44.192 59.8823 43.2528 66.9841 43.2528 82.0763C43.6131 97.0749 44.9144 103.812 44.9144 103.812L43.6275 104.093C32.7466 106.469 21.468 106.341 10.6438 103.719C10.6438 103.719 12.0044 92.1804 11.9272 82.0624C11.8609 73.3675 10.4395 59.9316 10.4395 59.9316Z" fill="url(#paint5_linear_1159_25155)"/>
</g>
<defs>
<filter id="filter0_ii_1159_25155" x="2.04199" y="-0.193486" width="53.7816" height="141.41" filterUnits="userSpaceOnUse" color-interpolation-filters="sRGB">
<feFlood flood-opacity="0" result="BackgroundImageFix"/>
<feBlend mode="normal" in="SourceGraphic" in2="BackgroundImageFix" result="shape"/>
<feColorMatrix in="SourceAlpha" type="matrix" values="0 0 0 0 0 0 0 0 0 0 0 0 0 0 0 0 0 0 127 0" result="hardAlpha"/>
<feOffset dx="2.3519" dy="-3.13587"/>
<feGaussianBlur stdDeviation="9.40761"/>
<feComposite in2="hardAlpha" operator="arithmetic" k2="-1" k3="1"/>
<feColorMatrix type="matrix" values="0 0 0 0 0 0 0 0 0 0 0 0 0 0 0 0 0 0 0.07 0"/>
<feBlend mode="normal" in2="shape" result="effect1_innerShadow_1159_25155"/>
<feColorMatrix in="SourceAlpha" type="matrix" values="0 0 0 0 0 0 0 0 0 0 0 0 0 0 0 0 0 0 127 0" result="hardAlpha"/>
<feOffset dy="-0.391984"/>
<feGaussianBlur stdDeviation="0.783967"/>
<feComposite in2="hardAlpha" operator="arithmetic" k2="-1" k3="1"/>
<feColorMatrix type="matrix" values="0 0 0 0 0 0 0 0 0 0 0 0 0 0 0 0 0 0 0.25 0"/>
<feBlend mode="normal" in2="effect1_innerShadow_1159_25155" result="effect2_innerShadow_1159_25155"/>
</filter>
<filter id="filter1_di_1159_25155" x="3.29046" y="4.03516" width="47.2741" height="134.33" filterUnits="userSpaceOnUse" color-interpolation-filters="sRGB">
<feFlood flood-opacity="0" result="BackgroundImageFix"/>
<feColorMatrix in="SourceAlpha" type="matrix" values="0 0 0 0 0 0 0 0 0 0 0 0 0 0 0 0 0 0 127 0" result="hardAlpha"/>
<feOffset dy="0.405362"/>
<feGaussianBlur stdDeviation="0.202681"/>
<feColorMatrix type="matrix" values="0 0 0 0 0.925374 0 0 0 0 0.925374 0 0 0 0 0.925374 0 0 0 0.37 0"/>
<feBlend mode="normal" in2="BackgroundImageFix" result="effect1_dropShadow_1159_25155"/>
<feBlend mode="normal" in="SourceGraphic" in2="effect1_dropShadow_1159_25155" result="shape"/>
<feColorMatrix in="SourceAlpha" type="matrix" values="0 0 0 0 0 0 0 0 0 0 0 0 0 0 0 0 0 0 127 0" result="hardAlpha"/>
<feOffset dx="-1.56793" dy="1.95992"/>
<feGaussianBlur stdDeviation="0.783967"/>
<feComposite in2="hardAlpha" operator="arithmetic" k2="-1" k3="1"/>
<feColorMatrix type="matrix" values="0 0 0 0 0 0 0 0 0 0 0 0 0 0 0 0 0 0 0.8 0"/>
<feBlend mode="normal" in2="shape" result="effect2_innerShadow_1159_25155"/>
</filter>
<filter id="filter2_di_1159_25155" x="4.15277" y="30.2861" width="45.4928" height="95.856" filterUnits="userSpaceOnUse" color-interpolation-filters="sRGB">
<feFlood flood-opacity="0" result="BackgroundImageFix"/>
<feColorMatrix in="SourceAlpha" type="matrix" values="0 0 0 0 0 0 0 0 0 0 0 0 0 0 0 0 0 0 127 0" result="hardAlpha"/>
<feOffset dy="0.405362"/>
<feGaussianBlur stdDeviation="0.202681"/>
<feColorMatrix type="matrix" values="0 0 0 0 0.925374 0 0 0 0 0.925374 0 0 0 0 0.925374 0 0 0 0.37 0"/>
<feBlend mode="normal" in2="BackgroundImageFix" result="effect1_dropShadow_1159_25155"/>
<feBlend mode="normal" in="SourceGraphic" in2="effect1_dropShadow_1159_25155" result="shape"/>
<feColorMatrix in="SourceAlpha" type="matrix" values="0 0 0 0 0 0 0 0 0 0 0 0 0 0 0 0 0 0 127 0" result="hardAlpha"/>
<feOffset dx="-1.56793" dy="1.95992"/>
<feGaussianBlur stdDeviation="0.783967"/>
<feComposite in2="hardAlpha" operator="arithmetic" k2="-1" k3="1"/>
<feColorMatrix type="matrix" values="0 0 0 0 0 0 0 0 0 0 0 0 0 0 0 0 0 0 0.8 0"/>
<feBlend mode="normal" in2="shape" result="effect2_innerShadow_1159_25155"/>
</filter>
<filter id="filter3_d_1159_25155" x="41.5676" y="10.5981" width="9.7779" height="16.4185" filterUnits="userSpaceOnUse" color-interpolation-filters="sRGB">
<feFlood flood-opacity="0" result="BackgroundImageFix"/>
<feColorMatrix in="SourceAlpha" type="matrix" values="0 0 0 0 0 0 0 0 0 0 0 0 0 0 0 0 0 0 127 0" result="hardAlpha"/>
<feOffset dy="-0.783967"/>
<feGaussianBlur stdDeviation="0.391984"/>
<feColorMatrix type="matrix" values="0 0 0 0 0 0 0 0 0 0 0 0 0 0 0 0 0 0 0.25 0"/>
<feBlend mode="normal" in2="BackgroundImageFix" result="effect1_dropShadow_1159_25155"/>
<feBlend mode="normal" in="SourceGraphic" in2="effect1_dropShadow_1159_25155" result="shape"/>
</filter>
<filter id="filter4_d_1159_25155" x="41.9596" y="12.166" width="8.99393" height="15.6346" filterUnits="userSpaceOnUse" color-interpolation-filters="sRGB">
<feFlood flood-opacity="0" result="BackgroundImageFix"/>
<feColorMatrix in="SourceAlpha" type="matrix" values="0 0 0 0 0 0 0 0 0 0 0 0 0 0 0 0 0 0 127 0" result="hardAlpha"/>
<feOffset dy="0.391983"/>
<feGaussianBlur stdDeviation="0.195992"/>
<feColorMatrix type="matrix" values="0 0 0 0 1 0 0 0 0 1 0 0 0 0 1 0 0 0 0.25 0"/>
<feBlend mode="normal" in2="BackgroundImageFix" result="effect1_dropShadow_1159_25155"/>
<feBlend mode="normal" in="SourceGraphic" in2="effect1_dropShadow_1159_25155" result="shape"/>
</filter>
<filter id="filter5_d_1159_25155" x="3.61447" y="10.4721" width="9.857" height="17.2769" filterUnits="userSpaceOnUse" color-interpolation-filters="sRGB">
<feFlood flood-opacity="0" result="BackgroundImageFix"/>
<feColorMatrix in="SourceAlpha" type="matrix" values="0 0 0 0 0 0 0 0 0 0 0 0 0 0 0 0 0 0 127 0" result="hardAlpha"/>
<feOffset dy="-0.783967"/>
<feGaussianBlur stdDeviation="0.391984"/>
<feColorMatrix type="matrix" values="0 0 0 0 0 0 0 0 0 0 0 0 0 0 0 0 0 0 0.25 0"/>
<feBlend mode="normal" in2="BackgroundImageFix" result="effect1_dropShadow_1159_25155"/>
<feBlend mode="normal" in="SourceGraphic" in2="effect1_dropShadow_1159_25155" result="shape"/>
</filter>
<filter id="filter6_di_1159_25155" x="2.73968" y="25.6934" width="48.4381" height="92.8765" filterUnits="userSpaceOnUse" color-interpolation-filters="sRGB">
<feFlood flood-opacity="0" result="BackgroundImageFix"/>
<feColorMatrix in="SourceAlpha" type="matrix" values="0 0 0 0 0 0 0 0 0 0 0 0 0 0 0 0 0 0 127 0" result="hardAlpha"/>
<feOffset dy="0.405362"/>
<feGaussianBlur stdDeviation="0.202681"/>
<feColorMatrix type="matrix" values="0 0 0 0 0.925374 0 0 0 0 0.925374 0 0 0 0 0.925374 0 0 0 0.37 0"/>
<feBlend mode="normal" in2="BackgroundImageFix" result="effect1_dropShadow_1159_25155"/>
<feBlend mode="normal" in="SourceGraphic" in2="effect1_dropShadow_1159_25155" result="shape"/>
<feColorMatrix in="SourceAlpha" type="matrix" values="0 0 0 0 0 0 0 0 0 0 0 0 0 0 0 0 0 0 127 0" result="hardAlpha"/>
<feOffset dx="-1.56793" dy="1.95992"/>
<feGaussianBlur stdDeviation="0.783967"/>
<feComposite in2="hardAlpha" operator="arithmetic" k2="-1" k3="1"/>
<feColorMatrix type="matrix" values="0 0 0 0 0 0 0 0 0 0 0 0 0 0 0 0 0 0 0.8 0"/>
<feBlend mode="normal" in2="shape" result="effect2_innerShadow_1159_25155"/>
</filter>
<filter id="filter7_ii_1159_25155" x="4.00977" y="3.62976" width="48.7953" height="134.668" filterUnits="userSpaceOnUse" color-interpolation-filters="sRGB">
<feFlood flood-opacity="0" result="BackgroundImageFix"/>
<feBlend mode="normal" in="SourceGraphic" in2="BackgroundImageFix" result="shape"/>
<feColorMatrix in="SourceAlpha" type="matrix" values="0 0 0 0 0 0 0 0 0 0 0 0 0 0 0 0 0 0 127 0" result="hardAlpha"/>
<feOffset dx="2.3519" dy="-3.13587"/>
<feGaussianBlur stdDeviation="9.40761"/>
<feComposite in2="hardAlpha" operator="arithmetic" k2="-1" k3="1"/>
<feColorMatrix type="matrix" values="0 0 0 0 0 0 0 0 0 0 0 0 0 0 0 0 0 0 0.07 0"/>
<feBlend mode="normal" in2="shape" result="effect1_innerShadow_1159_25155"/>
<feColorMatrix in="SourceAlpha" type="matrix" values="0 0 0 0 0 0 0 0 0 0 0 0 0 0 0 0 0 0 127 0" result="hardAlpha"/>
<feOffset dy="-0.391984"/>
<feGaussianBlur stdDeviation="0.783967"/>
<feComposite in2="hardAlpha" operator="arithmetic" k2="-1" k3="1"/>
<feColorMatrix type="matrix" values="0 0 0 0 0 0 0 0 0 0 0 0 0 0 0 0 0 0 0.09 0"/>
<feBlend mode="normal" in2="effect1_innerShadow_1159_25155" result="effect2_innerShadow_1159_25155"/>
</filter>
<filter id="filter8_ii_1159_25155" x="10.4395" y="53.6688" width="36.8265" height="52.1163" filterUnits="userSpaceOnUse" color-interpolation-filters="sRGB">
<feFlood flood-opacity="0" result="BackgroundImageFix"/>
<feBlend mode="normal" in="SourceGraphic" in2="BackgroundImageFix" result="shape"/>
<feColorMatrix in="SourceAlpha" type="matrix" values="0 0 0 0 0 0 0 0 0 0 0 0 0 0 0 0 0 0 127 0" result="hardAlpha"/>
<feOffset dx="2.3519" dy="-3.13587"/>
<feGaussianBlur stdDeviation="9.40761"/>
<feComposite in2="hardAlpha" operator="arithmetic" k2="-1" k3="1"/>
<feColorMatrix type="matrix" values="0 0 0 0 0 0 0 0 0 0 0 0 0 0 0 0 0 0 0.07 0"/>
<feBlend mode="normal" in2="shape" result="effect1_innerShadow_1159_25155"/>
<feColorMatrix in="SourceAlpha" type="matrix" values="0 0 0 0 0 0 0 0 0 0 0 0 0 0 0 0 0 0 127 0" result="hardAlpha"/>
<feOffset dy="-0.391984"/>
<feGaussianBlur stdDeviation="0.783967"/>
<feComposite in2="hardAlpha" operator="arithmetic" k2="-1" k3="1"/>
<feColorMatrix type="matrix" values="0 0 0 0 0 0 0 0 0 0 0 0 0 0 0 0 0 0 0.25 0"/>
<feBlend mode="normal" in2="effect1_innerShadow_1159_25155" result="effect2_innerShadow_1159_25155"/>
</filter>
<linearGradient id="paint0_linear_1159_25155" x1="22.9293" y1="135.324" x2="-13.4889" y2="126.745" gradientUnits="userSpaceOnUse">
<stop stop-color="#D8D8D8"/>
<stop offset="1" stop-color="white"/>
</linearGradient>
<linearGradient id="paint1_linear_1159_25155" x1="48.4415" y1="390.431" x2="-68.3152" y2="352.833" gradientUnits="userSpaceOnUse">
<stop stop-color="#E8EAE9"/>
<stop offset="0.498386" stop-color="#707072"/>
<stop offset="1" stop-color="#2F3032"/>
</linearGradient>
<linearGradient id="paint2_linear_1159_25155" x1="42.8877" y1="305.046" x2="-61.7809" y2="255.807" gradientUnits="userSpaceOnUse">
<stop stop-color="#E8EAE9"/>
<stop offset="0.498386" stop-color="#707072"/>
<stop offset="1" stop-color="#2F3032"/>
</linearGradient>
<linearGradient id="paint3_linear_1159_25155" x1="49.0016" y1="291.443" x2="-58.3889" y2="239.879" gradientUnits="userSpaceOnUse">
<stop stop-color="#E8EAE9"/>
<stop offset="0.498386" stop-color="#707072"/>
<stop offset="1" stop-color="#2F3032"/>
</linearGradient>
<linearGradient id="paint4_linear_1159_25155" x1="24.28" y1="132.13" x2="-8.39852" y2="125.406" gradientUnits="userSpaceOnUse">
<stop stop-color="#D8D8D8"/>
<stop offset="1" stop-color="white"/>
</linearGradient>
<linearGradient id="paint5_linear_1159_25155" x1="39.7818" y1="116.525" x2="2.92537" y2="103.536" gradientUnits="userSpaceOnUse">
<stop stop-color="#D2D2D2"/>
<stop offset="0.350909" stop-color="#CACACA"/>
<stop offset="1" stop-color="#F6F6F6"/>
</linearGradient>
</defs>
</svg>
