<svg width="25" height="24" viewBox="0 0 25 24" fill="none" xmlns="http://www.w3.org/2000/svg">
<g clip-path="url(#clip0_140_10417)">
<path d="M5.76644 9.76453C6.69903 6.93863 9.35469 4.90909 12.5002 4.90909C14.1912 4.90909 15.7184 5.50909 16.9184 6.49091L20.4093 3C18.2821 1.14545 15.5548 0 12.5002 0C7.77031 0 3.69799 2.6983 1.74023 6.65002L5.76644 9.76453Z" fill="#EA4335"/>
<path d="M16.5415 18.0125C15.4517 18.7162 14.0669 19.0909 12.5008 19.0909C9.3673 19.0909 6.71994 17.0768 5.7778 14.2678L1.73828 17.3349C3.69361 21.2936 7.76582 23.9999 12.5008 23.9999C15.4337 23.9999 18.2362 22.9573 20.335 20.9995L16.5415 18.0125Z" fill="#34A853"/>
<path d="M20.3342 20.9996C22.5292 18.9522 23.9545 15.9037 23.9545 12.0001C23.9545 11.291 23.8455 10.5273 23.6818 9.81824H12.5V14.4546H18.9364C18.6188 16.0137 17.7663 17.2213 16.5407 18.0126L20.3342 20.9996Z" fill="#4A90E2"/>
<path d="M5.77698 14.2679C5.53833 13.5563 5.40909 12.7938 5.40909 12C5.40909 11.2183 5.53444 10.4668 5.7662 9.76453L1.73999 6.65002C0.936587 8.26043 0.5 10.0754 0.5 12C0.5 13.9195 0.944781 15.7302 1.73746 17.335L5.77698 14.2679Z" fill="#FBBC05"/>
</g>
<defs>
<clipPath id="clip0_140_10417">
<rect width="24" height="24" fill="white" transform="translate(0.5)"/>
</clipPath>
</defs>
</svg>
